<svg xmlns="http://www.w3.org/2000/svg" width="123.283" height="100.298" viewBox="0 0 123.283 100.298">
  <path id="f243" d="M123.283-32.985a49.348,49.348,0,0,1-12.537,13.06v3.134q0,27.425-19.72,49.757T38.657,55.3A69.772,69.772,0,0,1,0,43.806a55.188,55.188,0,0,0,6.007.522,49.132,49.132,0,0,0,31.343-10.97,25.426,25.426,0,0,1-14.627-5.093,23.928,23.928,0,0,1-8.881-12.407,31.427,31.427,0,0,0,4.7.522,29.36,29.36,0,0,0,6.791-1.045,25.532,25.532,0,0,1-14.5-8.75A24.072,24.072,0,0,1,4.963-9.478v-.261A23.814,23.814,0,0,0,16.455-6.6Q5.224-13.918,5.224-27.761A25.131,25.131,0,0,1,8.619-40.3Q28.731-15.485,60.6-13.918a22.83,22.83,0,0,1-.522-5.746,24.491,24.491,0,0,1,7.313-18.022A24.491,24.491,0,0,1,85.41-45a24.134,24.134,0,0,1,18.284,8.1,47.079,47.079,0,0,0,16.194-6.269,23.166,23.166,0,0,1-11.231,14.1A43.136,43.136,0,0,0,123.283-32.985Zm0,0" transform="translate(0 45)" fill="#f5f5fc"/>
</svg>
