<svg width="75" height="75" viewBox="0 0 75 75" fill="none" xmlns="http://www.w3.org/2000/svg">
<path d="M49.5312 56.25C47.0312 66.5625 42.6562 73.4375 37.5 73.4375C29.6875 73.4375 23.4375 57.3438 23.4375 37.5C23.4375 17.6563 29.6875 1.5625 37.5 1.5625C41.875 1.5625 45.7812 6.71875 48.4375 14.6875" stroke="#353535" stroke-width="2.5" stroke-miterlimit="10" stroke-linecap="round" stroke-linejoin="round"/>
<path d="M58.5938 26.0938C67.5 28.5938 73.4375 32.8125 73.4375 37.5C73.4375 45.3125 57.3438 51.5625 37.5 51.5625C35.625 51.5625 33.75 51.5625 32.0312 51.4063" stroke="#353535" stroke-width="2.5" stroke-miterlimit="10" stroke-linecap="round" stroke-linejoin="round"/>
<path d="M24.0625 50.625C10.9375 48.4375 1.5625 43.4375 1.5625 37.5C1.5625 31.7187 10.625 26.7187 23.4375 24.5312" stroke="#353535" stroke-width="2.5" stroke-miterlimit="10" stroke-linecap="round" stroke-linejoin="round"/>
<path d="M50.9375 12.5L49.0625 16.5625L45 14.8437" stroke="#353535" stroke-width="2.5" stroke-miterlimit="10" stroke-linecap="round"/>
<path d="M60.3125 29.8438L57.6562 26.25L61.25 23.5938" stroke="#353535" stroke-width="2.5" stroke-miterlimit="10" stroke-linecap="round"/>
<path d="M31.7188 28.125L36.4062 42.1875L41.0938 28.125H47.0313C48.9063 28.125 50.625 29.6875 50.625 31.7187C50.625 33.75 49.0625 35.3125 47.0313 35.3125H45.7812L50.4688 42.3437" stroke="#353535" stroke-width="2.5" stroke-miterlimit="10" stroke-linecap="round" stroke-linejoin="round"/>
</svg>
