<svg width="84" height="78" viewBox="0 0 84 78" fill="none" xmlns="http://www.w3.org/2000/svg">
<path d="M2 66.3479V28.087C2 21.3044 19.913 15.9131 42 15.9131C64.087 15.9131 82 21.3044 82 28.087V66.3479" stroke="#353535" stroke-width="2.5" stroke-miterlimit="10"/>
<path d="M17.6522 37.826C8.08696 35.5652 2 32.0869 2 28.0869V66.3478C2 70.3478 8.08696 73.826 17.6522 76.0869V37.826Z" stroke="#353535" stroke-width="2.5" stroke-miterlimit="10"/>
<path d="M67.0442 37.6521V75.913C76.2616 73.6521 82.0007 70.1739 82.0007 66.3478V28.0869C82.0007 31.913 76.0876 35.3913 67.0442 37.6521Z" stroke="#353535" stroke-width="2.5" stroke-miterlimit="10"/>
<path d="M17.6522 56.6086C24.4348 55.0434 32.7826 54.1738 42 54.1738C51.2174 54.1738 59.5652 55.0434 66.3478 56.6086" stroke="#353535" stroke-width="2.5" stroke-miterlimit="10"/>
<path d="M36.7826 29.8262V43.7392L50.6956 36.7827L36.7826 29.8262Z" stroke="#353535" stroke-width="2.5" stroke-miterlimit="10"/>
<path d="M75.0444 2L78.5227 5.47826L75.0444 8.95652" stroke="#353535" stroke-width="2.5" stroke-miterlimit="10" stroke-linecap="round"/>
<path d="M78.5227 5.47827H55.914" stroke="#353535" stroke-width="2.5" stroke-miterlimit="10" stroke-linecap="round"/>
<path d="M8.95653 2L5.47827 5.47826L8.95653 8.95652" stroke="#353535" stroke-width="2.5" stroke-miterlimit="10" stroke-linecap="round"/>
<path d="M5.478 5.47827H28.0867" stroke="#353535" stroke-width="2.5" stroke-miterlimit="10" stroke-linecap="round"/>
<path d="M35.0435 7.21727C36.004 7.21727 36.7826 6.43864 36.7826 5.47814C36.7826 4.51765 36.004 3.73901 35.0435 3.73901C34.083 3.73901 33.3044 4.51765 33.3044 5.47814C33.3044 6.43864 34.083 7.21727 35.0435 7.21727Z" fill="#353535"/>
<path d="M42 7.21727C42.9605 7.21727 43.7391 6.43864 43.7391 5.47814C43.7391 4.51765 42.9605 3.73901 42 3.73901C41.0395 3.73901 40.2609 4.51765 40.2609 5.47814C40.2609 6.43864 41.0395 7.21727 42 7.21727Z" fill="#353535"/>
<path d="M48.9565 7.21727C49.917 7.21727 50.6957 6.43864 50.6957 5.47814C50.6957 4.51765 49.917 3.73901 48.9565 3.73901C47.996 3.73901 47.2174 4.51765 47.2174 5.47814C47.2174 6.43864 47.996 7.21727 48.9565 7.21727Z" fill="#353535"/>
</svg>
