<svg width="84" height="77" viewBox="0 0 84 77" fill="none" xmlns="http://www.w3.org/2000/svg">
<path d="M66.3478 64.6089L44.7826 74.5219C43.7391 75.0437 42.5218 75.0437 41.4783 74.6959C39.3913 73.8263 37.8261 71.7393 37.8261 69.4785C37.8261 66.348 40.4348 63.7393 43.5652 63.7393L7.73913 48.6089C4.6087 48.6089 2 51.0437 2 54.1741C2 56.435 3.21739 58.348 5.13044 59.2176L41.4783 74.5219" stroke="#353535" stroke-width="2.5" stroke-miterlimit="10" stroke-linecap="round" stroke-linejoin="round"/>
<path d="M21.9999 53.8261L31.913 49.4783" stroke="#353535" stroke-width="2.5" stroke-miterlimit="10" stroke-linecap="round" stroke-linejoin="round"/>
<path d="M82.0004 58.1739L66.3482 64.6087L50.696 58.1739V8.6087L66.3482 2L82.0004 8.6087V58.1739Z" stroke="#353535" stroke-width="2.5" stroke-miterlimit="10" stroke-linecap="round" stroke-linejoin="round"/>
<path d="M82.0003 8.60864L66.3482 15.0434L50.696 8.60864" stroke="#353535" stroke-width="2.5" stroke-miterlimit="10" stroke-linecap="round" stroke-linejoin="round"/>
<path d="M45.3036 55.2171L31.5645 49.478V19.0432L45.3036 13.1301" stroke="#353535" stroke-width="2.5" stroke-miterlimit="10" stroke-linecap="round" stroke-linejoin="round"/>
<path d="M45.3036 23.7391L31.5645 19.0435" stroke="#353535" stroke-width="2.5" stroke-miterlimit="10" stroke-linecap="round" stroke-linejoin="round"/>
<path d="M66.3456 22.8699C67.3061 22.8699 68.0847 22.0912 68.0847 21.1307C68.0847 20.1702 67.3061 19.3916 66.3456 19.3916C65.3851 19.3916 64.6065 20.1702 64.6065 21.1307C64.6065 22.0912 65.3851 22.8699 66.3456 22.8699Z" fill="#353535"/>
<path d="M66.3457 29.8267C67.3062 29.8267 68.0848 29.048 68.0848 28.0875C68.0848 27.127 67.3062 26.3484 66.3457 26.3484C65.3852 26.3484 64.6065 27.127 64.6065 28.0875C64.6065 29.048 65.3852 29.8267 66.3457 29.8267Z" fill="#353535"/>
<path d="M66.3457 36.7829C67.3062 36.7829 68.0848 36.0043 68.0848 35.0438C68.0848 34.0833 67.3062 33.3047 66.3457 33.3047C65.3852 33.3047 64.6065 34.0833 64.6065 35.0438C64.6065 36.0043 65.3852 36.7829 66.3457 36.7829Z" fill="#353535"/>
<path d="M66.3457 43.7392C67.3062 43.7392 68.0848 42.9606 68.0848 42.0001C68.0848 41.0396 67.3062 40.261 66.3457 40.261C65.3852 40.261 64.6065 41.0396 64.6065 42.0001C64.6065 42.9606 65.3852 43.7392 66.3457 43.7392Z" fill="#353535"/>
<path d="M66.3457 50.696C67.3062 50.696 68.0848 49.9174 68.0848 48.9569C68.0848 47.9964 67.3062 47.2178 66.3457 47.2178C65.3852 47.2178 64.6065 47.9964 64.6065 48.9569C64.6065 49.9174 65.3852 50.696 66.3457 50.696Z" fill="#353535"/>
<path d="M66.3457 57.6523C67.3062 57.6523 68.0848 56.8737 68.0848 55.9132C68.0848 54.9527 67.3062 54.1741 66.3457 54.1741C65.3852 54.1741 64.6065 54.9527 64.6065 55.9132C64.6065 56.8737 65.3852 57.6523 66.3457 57.6523Z" fill="#353535"/>
</svg>
