<svg width="84" height="84" viewBox="0 0 84 84" fill="none" xmlns="http://www.w3.org/2000/svg">
<path d="M8.78302 59.7395L24.6091 75.3917" stroke="#353535" stroke-width="2.5" stroke-miterlimit="10" stroke-linecap="round" stroke-linejoin="round"/>
<path d="M5.478 9.30469V52.0873" stroke="#353535" stroke-width="2.5" stroke-miterlimit="10" stroke-linecap="round" stroke-linejoin="round"/>
<path d="M52.0853 5.47876H9.30273" stroke="#353535" stroke-width="2.5" stroke-miterlimit="10" stroke-linecap="round" stroke-linejoin="round"/>
<path d="M75.5656 24.7831L59.2178 8.4353" stroke="#353535" stroke-width="2.5" stroke-miterlimit="10" stroke-linecap="round" stroke-linejoin="round"/>
<path d="M78.5215 32.783V74.696" stroke="#353535" stroke-width="2.5" stroke-miterlimit="10" stroke-linecap="round" stroke-linejoin="round"/>
<path d="M31.5649 27.7397H75.0432" stroke="#353535" stroke-width="2.5" stroke-miterlimit="10" stroke-linecap="round" stroke-linejoin="round"/>
<path d="M27.7402 74.87V31.5657" stroke="#353535" stroke-width="2.5" stroke-miterlimit="10" stroke-linecap="round" stroke-linejoin="round"/>
<path d="M74.6954 78.5222H31.5649" stroke="#353535" stroke-width="2.5" stroke-miterlimit="10" stroke-linecap="round" stroke-linejoin="round"/>
<path d="M24.7824 24.7831L8.95627 8.95703" stroke="#353535" stroke-width="2.5" stroke-miterlimit="10" stroke-linecap="round" stroke-linejoin="round"/>
<path d="M31.5652 75.0439H24.6087V82.0005H31.5652V75.0439Z" stroke="#353535" stroke-width="2.5" stroke-miterlimit="10" stroke-linecap="round" stroke-linejoin="round"/>
<path d="M82 75.0439H75.0435V82.0005H82V75.0439Z" stroke="#353535" stroke-width="2.5" stroke-miterlimit="10" stroke-linecap="round" stroke-linejoin="round"/>
<path d="M31.5652 24.6091H24.6087V31.5657H31.5652V24.6091Z" stroke="#353535" stroke-width="2.5" stroke-miterlimit="10" stroke-linecap="round" stroke-linejoin="round"/>
<path d="M82 24.6091H75.0435V31.5657H82V24.6091Z" stroke="#353535" stroke-width="2.5" stroke-miterlimit="10" stroke-linecap="round" stroke-linejoin="round"/>
<path d="M8.95652 52.4353H2V59.3918H8.95652V52.4353Z" stroke="#353535" stroke-width="2.5" stroke-miterlimit="10" stroke-linecap="round" stroke-linejoin="round"/>
<path d="M8.95652 2.00049H2V8.95701H8.95652V2.00049Z" stroke="#353535" stroke-width="2.5" stroke-miterlimit="10" stroke-linecap="round" stroke-linejoin="round"/>
<path d="M59.3913 2.00049H52.4348V8.95701H59.3913V2.00049Z" stroke="#353535" stroke-width="2.5" stroke-miterlimit="10" stroke-linecap="round" stroke-linejoin="round"/>
<path d="M54.1739 45.4788V59.3918" stroke="#353535" stroke-width="2.5" stroke-miterlimit="10" stroke-linejoin="round"/>
<path d="M61.1305 52.4353H47.2174" stroke="#353535" stroke-width="2.5" stroke-miterlimit="10" stroke-linejoin="round"/>
</svg>
