<svg xmlns="http://www.w3.org/2000/svg" width="70" height="70" viewBox="0 0 70 70">
  <g id="icon" transform="translate(-405 -4039)">
    <circle id="BG" cx="35" cy="35" r="35" transform="translate(405 4039)" fill="#ff4361" opacity="0.102"/>
    <g id="Vector_Smart_Object" data-name="Vector Smart Object">
      <g id="Vector_Smart_Object-2" data-name="Vector Smart Object" transform="translate(-384.977 3604.356)">
        <path id="Path_5129" data-name="Path 5129" d="M832.206,480.1a6.032,6.032,0,0,0-.324-2.914,7.3,7.3,0,0,0-2.851-2.687l0,0c-.357-.235-.585-.378-.819-.525-1.537-.969-3.152-1.987-3.734-3.419-.581,1.431-2.2,2.45-3.732,3.418-.308.195-.611.385-.821.523a7.247,7.247,0,0,0-2.845,2.709,6.073,6.073,0,0,0-.328,2.893Zm1.467-3.741a8.974,8.974,0,0,1,.43,4.733.988.988,0,0,1-.989.986H815.839v0a.985.985,0,0,1-.981-.9,9.159,9.159,0,0,1,.429-4.789c.587-1.284,1.666-2.294,3.557-3.537.327-.215.589-.381.851-.545,1.468-.926,3.029-1.911,3.029-2.9s-1.561-1.971-3.029-2.9c-.261-.164-.523-.33-.851-.545-1.963-1.29-3.055-2.391-3.626-3.772a10.165,10.165,0,0,1-.365-4.947.99.99,0,0,1,.988-.978h17.27v0a.985.985,0,0,1,.981.892,10.3,10.3,0,0,1-.357,5.028c-.57,1.38-1.663,2.482-3.626,3.772-.333.219-.59.381-.852.546-1.467.925-3.029,1.91-3.029,2.9s1.563,1.971,3.031,2.9c.335.211.67.423.849.541v0h0c1.893,1.244,2.976,2.233,3.564,3.508Zm-9.2-8.1c.581-1.431,2.2-2.449,3.733-3.418.307-.194.615-.387.82-.522a6.933,6.933,0,0,0,2.884-2.876,7.107,7.107,0,0,0,.293-3.2H816.747a7.094,7.094,0,0,0,.294,3.2,6.935,6.935,0,0,0,2.883,2.876c.21.137.513.329.821.522,1.536.968,3.151,1.987,3.732,3.418Z" fill="#333"/>
        <path id="Path_5130" data-name="Path 5130" d="M813.75,452.644H835.2a2.763,2.763,0,0,1,1.955.814h0a2.772,2.772,0,0,1,.813,1.96h0a2.769,2.769,0,0,1-.816,1.958h0a2.766,2.766,0,0,1-1.96.815H813.75a2.766,2.766,0,0,1-1.959-.815h0a2.769,2.769,0,0,1-.815-1.958h0a2.766,2.766,0,0,1,.813-1.956l0,0a2.761,2.761,0,0,1,1.955-.814Zm21.454,1.978H813.75a.8.8,0,0,0-.562.231l0,0a.8.8,0,0,0-.231.561h0a.792.792,0,0,0,.231.561h0a.8.8,0,0,0,.562.234H835.2a.792.792,0,0,0,.561-.234h0a.792.792,0,0,0,.231-.561h0a.794.794,0,0,0-.235-.561l0,0a.8.8,0,0,0-.563-.233Z" fill="#333"/>
        <path id="Path_5131" data-name="Path 5131" d="M813.75,480.1H835.2a2.769,2.769,0,0,1,1.96.814l0,0a2.769,2.769,0,0,1,.816,1.957h0a2.78,2.78,0,0,1-2.773,2.774H813.75a2.766,2.766,0,0,1-1.959-.815v0a2.766,2.766,0,0,1-.813-1.956h0a2.769,2.769,0,0,1,.815-1.957l0,0a2.769,2.769,0,0,1,1.959-.814Zm21.454,1.978H813.75a.8.8,0,0,0-.562.235h0a.788.788,0,0,0-.231.56h0a.8.8,0,0,0,.233.564v0a.8.8,0,0,0,.562.234H835.2a.8.8,0,0,0,.8-.8h0a.788.788,0,0,0-.231-.56h0a.793.793,0,0,0-.561-.235Z" fill="#333"/>
      </g>
      <path id="Color_Overlay" data-name="Color Overlay" d="M428.774,4090a2.767,2.767,0,0,1-1.961-.815v0a2.764,2.764,0,0,1-.813-1.956h0a2.768,2.768,0,0,1,.816-1.958l0,0a2.773,2.773,0,0,1,1.961-.813H429.8a7.65,7.65,0,0,1,.509-3.712,8.862,8.862,0,0,1,3.557-3.537c.327-.216.589-.381.851-.545,1.468-.926,3.029-1.911,3.029-2.9s-1.561-1.972-3.029-2.9c-.262-.163-.523-.33-.851-.544-1.963-1.29-3.055-2.392-3.625-3.772a8.671,8.671,0,0,1-.442-4h-1.025a2.767,2.767,0,0,1-1.961-.815h0a2.76,2.76,0,0,1,0-3.915l0,0a2.758,2.758,0,0,1,1.956-.815h21.453a2.756,2.756,0,0,1,1.955.815h.005a2.763,2.763,0,0,1,0,3.918h0a2.767,2.767,0,0,1-1.961.815H449.2a8.683,8.683,0,0,1-.442,4c-.571,1.381-1.663,2.482-3.626,3.772-.332.22-.589.381-.851.545-1.467.925-3.029,1.911-3.029,2.9s1.563,1.971,3.032,2.9c.334.21.669.423.848.541v0h0c1.893,1.244,2.977,2.233,3.565,3.507a7.569,7.569,0,0,1,.505,3.741h1.024a2.774,2.774,0,0,1,1.961.813l0,0a2.768,2.768,0,0,1,.816,1.958h0a2.779,2.779,0,0,1-2.773,2.773Zm0-1.979h21.453a.8.8,0,0,0,.8-.794h0a.8.8,0,0,0-.23-.562h-.005a.794.794,0,0,0-.561-.234H428.774a.8.8,0,0,0-.562.234h0a.789.789,0,0,0-.231.562h0a.793.793,0,0,0,.233.563h0A.8.8,0,0,0,428.774,4088.021Zm6.994-9.695c-.308.194-.611.385-.82.522a7.243,7.243,0,0,0-2.845,2.711,6.06,6.06,0,0,0-.328,2.893h15.455a6.026,6.026,0,0,0-.324-2.915,7.3,7.3,0,0,0-2.852-2.686l0,0c-.357-.235-.585-.378-.818-.526-1.538-.97-3.152-1.987-3.734-3.419C438.919,4076.339,437.3,4077.357,435.768,4078.326Zm-3.7-12.527a6.948,6.948,0,0,0,2.884,2.876c.209.136.512.328.82.522,1.537.968,3.151,1.986,3.731,3.418.581-1.432,2.2-2.449,3.733-3.418.307-.194.614-.387.819-.522a6.929,6.929,0,0,0,2.884-2.876,7.117,7.117,0,0,0,.294-3.2H431.77A7.117,7.117,0,0,0,432.064,4065.8Zm-3.852-6.591,0,0a.8.8,0,0,0,0,1.123h0a.792.792,0,0,0,.563.234h21.453a.79.79,0,0,0,.561-.234h.005a.794.794,0,0,0-.005-1.123l0,0a.8.8,0,0,0-.564-.233H428.774A.8.8,0,0,0,428.211,4059.208Z" fill="#f55767"/>
    </g>
  </g>
</svg>
