<svg xmlns="http://www.w3.org/2000/svg" width="18" height="12" viewBox="0 0 18 12">
  <path id="Forma_1" data-name="Forma 1" d="M1049.292,4995.772a.492.492,0,0,1-.013.148l-1.11,4.4a.5.5,0,0,1-.487.378l-6.662.034h-6.664a.5.5,0,0,1-.49-.379l-1.11-4.417a.493.493,0,0,1-.013-.153,1.058,1.058,0,1,1,.991-.191l1.39,1.388a1.9,1.9,0,0,0,2.844-.191l2.284-3a1.042,1.042,0,0,1-.311-.742,1.06,1.06,0,0,1,2.12,0,1.041,1.041,0,0,1-.294.725l0,0,2.268,3.007a1.9,1.9,0,0,0,1.51.75,1.882,1.882,0,0,0,1.333-.547l1.4-1.385a1.045,1.045,0,0,1-.4-.817,1.06,1.06,0,1,1,1.411.989Zm-1.232,6.527a.5.5,0,0,0-.5-.5H1034.5a.5.5,0,0,0-.5.5v1.2a.5.5,0,0,0,.5.5h13.054a.5.5,0,0,0,.5-.5Z" transform="translate(-1032 -4991.999)" fill="#fff"/>
</svg>
