<svg xmlns="http://www.w3.org/2000/svg" width="82" height="82" viewBox="0 0 82 82">
  <g id="icon" transform="translate(-787 -2822)">
    <rect id="BG_copy_5" data-name="BG copy 5" width="82" height="82" rx="28" transform="translate(787 2822)" fill="#f4f4ff"/>
    <path id="Forma_1" data-name="Forma 1" d="M833.684,2881.618l-3.316-3.38-3.317,3.38a1.259,1.259,0,0,1-1.8,0,1.318,1.318,0,0,1,0-1.84l3.317-3.38-3.317-3.379a1.318,1.318,0,0,1,0-1.84,1.26,1.26,0,0,1,1.8,0l3.317,3.38,3.316-3.38a1.26,1.26,0,0,1,1.8,0,1.319,1.319,0,0,1,0,1.84l-3.316,3.379,3.316,3.38a1.318,1.318,0,0,1,0,1.84,1.259,1.259,0,0,1-1.8,0Zm-24.565-5.838a3.771,3.771,0,1,1,3.77,3.84A3.806,3.806,0,0,1,809.12,2875.78Zm3.772-5.98a5.68,5.68,0,0,0-.778.054,25.073,25.073,0,0,1,3.91-8.1,22.213,22.213,0,0,1,15.475-8.99l-2.729-2.418a1.317,1.317,0,0,1-.126-1.834,1.259,1.259,0,0,1,1.8-.129l5.145,4.56a1.318,1.318,0,0,1,.126,1.835l-4.473,5.245a1.258,1.258,0,0,1-1.8.128,1.317,1.317,0,0,1-.126-1.834l2.543-2.982a19.5,19.5,0,0,0-13.727,7.89,22.764,22.764,0,0,0-3.427,6.869A5.74,5.74,0,0,0,812.892,2869.8Zm27.568-16.129a3.771,3.771,0,1,1,3.77,3.839A3.806,3.806,0,0,1,840.46,2853.671Zm-23.648,2.148-3.317-3.38-3.316,3.38a1.26,1.26,0,0,1-1.8,0,1.318,1.318,0,0,1,0-1.84l3.317-3.38-3.317-3.379a1.318,1.318,0,0,1,0-1.84,1.258,1.258,0,0,1,1.8,0l3.316,3.38,3.317-3.38a1.258,1.258,0,0,1,1.8,0,1.32,1.32,0,0,1,0,1.84l-3.317,3.38,3.316,3.379a1.318,1.318,0,0,1,0,1.84,1.259,1.259,0,0,1-1.8,0Z" fill="#5856d6"/>
  </g>
</svg>
