<svg xmlns="http://www.w3.org/2000/svg" width="82" height="82" viewBox="0 0 82 82">
  <g id="icon" transform="translate(-787 -2626)">
    <rect id="BG_copy_3" data-name="BG copy 3" width="82" height="82" rx="28" transform="translate(787 2626)" fill="#eaf9ff"/>
    <path id="Shape_1" data-name="Shape 1" d="M817.653,2687a.922.922,0,0,1-.919-.926v-2.191a2.77,2.77,0,0,1,2.757-2.777H821.2v-4.247a.923.923,0,0,1,.7-.9l.012,0a4.226,4.226,0,0,0,3.241-4.524,11.605,11.605,0,0,1-5.322-5.059,19.7,19.7,0,0,1-1.241-2.506,14.975,14.975,0,0,1-7.554-10.694,2.879,2.879,0,0,1,2.835-3.335h2.775v-.874a1.956,1.956,0,0,1,1.947-1.962h18.814a1.957,1.957,0,0,1,1.948,1.962v.874h2.774a2.88,2.88,0,0,1,2.835,3.335,14.976,14.976,0,0,1-7.553,10.694,19.806,19.806,0,0,1-1.242,2.506,11.681,11.681,0,0,1-5.233,5.021,4.223,4.223,0,0,0,3.238,4.562l.011,0a.923.923,0,0,1,.707.9v4.247h1.7a2.771,2.771,0,0,1,2.758,2.777v2.191a.923.923,0,0,1-.92.926Zm.919-3.118v1.266h18.944v-1.266a.923.923,0,0,0-.919-.925H819.491A.923.923,0,0,0,818.572,2683.881Zm4.462-2.777h10.021v-3.321H823.034Zm3.03-5.99a6.178,6.178,0,0,1-.62.817h5.209a6.118,6.118,0,0,1-1.579-4.008A7.1,7.1,0,0,1,828,2672a7.227,7.227,0,0,1-.988-.068A6.052,6.052,0,0,1,826.064,2675.114Zm-7.58-26.153v4.429a24.066,24.066,0,0,0,2.927,12.035c1.8,3.05,4.139,4.729,6.589,4.729s4.79-1.678,6.589-4.729a24.066,24.066,0,0,0,2.927-12.035v-4.429a.11.11,0,0,0-.11-.111H818.593A.11.11,0,0,0,818.484,2648.961Zm20.87,4.429a29.283,29.283,0,0,1-.98,7.624,13.13,13.13,0,0,0,4.774-8.141,1,1,0,0,0-.229-.817,1.035,1.035,0,0,0-.792-.37h-2.774Zm-26.275-1.335a1,1,0,0,0-.229.818,13.131,13.131,0,0,0,4.775,8.141,29.28,29.28,0,0,1-.979-7.624v-1.7h-2.775A1.034,1.034,0,0,0,813.08,2652.055Zm11.472,11.056a.927.927,0,0,1-.365-.905l.473-2.783-2.007-1.97a.931.931,0,0,1-.232-.949.921.921,0,0,1,.742-.631l2.773-.406,1.24-2.531a.916.916,0,0,1,1.649,0l1.239,2.531,2.773.406a.927.927,0,0,1,.509,1.58l-2.006,1.97.473,2.783a.929.929,0,0,1-.365.905.916.916,0,0,1-.54.177.9.9,0,0,1-.427-.106l-2.48-1.314-2.48,1.314a.914.914,0,0,1-.967-.07Zm3.875-3.109,1.26.667-.241-1.413a.93.93,0,0,1,.265-.819l1.02-1-1.408-.206a.918.918,0,0,1-.692-.506l-.63-1.286-.63,1.286a.918.918,0,0,1-.692.506l-1.409.206,1.02,1a.93.93,0,0,1,.264.819l-.24,1.413,1.26-.667a.913.913,0,0,1,.855,0Z" fill="#3dabdd"/>
  </g>
</svg>
