<svg xmlns="http://www.w3.org/2000/svg" width="70" height="70" viewBox="0 0 70 70">
  <g id="icon" transform="translate(-405 -4419)">
    <circle id="BG_copy_5" data-name="BG copy 5" cx="35" cy="35" r="35" transform="translate(405 4419)" fill="#f4f4ff"/>
    <path id="Forma_1" data-name="Forma 1" d="M446.263,4467.71l-2.487-2.558-2.487,2.558a.937.937,0,0,1-1.353,0,1,1,0,0,1,0-1.392l2.487-2.558-2.487-2.559a1,1,0,0,1,0-1.392.94.94,0,0,1,1.353,0l2.487,2.559,2.487-2.559a.942.942,0,0,1,1.355,0,1,1,0,0,1,0,1.392l-2.487,2.559,2.487,2.558a1,1,0,0,1,0,1.392.937.937,0,0,1-1.353,0Zm-18.423-4.41a2.831,2.831,0,1,1,2.83,2.91A2.871,2.871,0,0,1,427.84,4463.3Zm2.829-4.534a4.183,4.183,0,0,0-.583.042,19.021,19.021,0,0,1,2.932-6.129,16.637,16.637,0,0,1,11.606-6.8l-2.046-1.83a1,1,0,0,1-.1-1.388.939.939,0,0,1,1.35-.1l3.86,3.45a1,1,0,0,1,.094,1.39l-3.355,3.968a.94.94,0,0,1-1.35.1,1,1,0,0,1-.094-1.388l1.907-2.257a14.6,14.6,0,0,0-10.3,5.972,17.3,17.3,0,0,0-2.57,5.2A4.267,4.267,0,0,0,430.669,4458.767Zm20.672-12.207a2.831,2.831,0,1,1,2.829,2.91A2.87,2.87,0,0,1,451.34,4446.56Zm-17.733,1.627-2.487-2.558-2.487,2.558a.939.939,0,0,1-1.353,0,1.006,1.006,0,0,1,0-1.393l2.487-2.557-2.487-2.559a1,1,0,0,1,0-1.392.938.938,0,0,1,1.353,0l2.487,2.558,2.487-2.558a.938.938,0,0,1,1.353,0,1,1,0,0,1,0,1.392l-2.487,2.559,2.487,2.557a1.006,1.006,0,0,1,0,1.393.939.939,0,0,1-1.353,0Z" fill="#5856d6"/>
  </g>
</svg>
