<svg xmlns="http://www.w3.org/2000/svg" width="70" height="70" viewBox="0 0 70 70">
  <g id="icon" transform="translate(-1188 -4039)">
    <circle id="BG_copy_4" data-name="BG copy 4" cx="35" cy="35" r="35" transform="translate(1188 4039)" fill="#fff6d3"/>
    <g id="Vector_Smart_Object" data-name="Vector Smart Object">
      <g id="Vector_Smart_Object-2" data-name="Vector Smart Object" transform="translate(447.272 3663.966)">
        <path id="Path_5135" data-name="Path 5135" d="M781.262,415.812a.962.962,0,1,1,0-1.924H784.8a6.014,6.014,0,0,0,4.207-1.694,5.681,5.681,0,0,0,0-8.187h0a6.014,6.014,0,0,0-4.207-1.694c-.226,0-.431.009-.611.027q-.3.03-.6.088a.991.991,0,0,1-1.116-.59h0a7.743,7.743,0,0,0-2.906-3.551,8.058,8.058,0,0,0-10.014.915,7.539,7.539,0,0,0-2.308,5.421c0,.025,0,.051,0,.076v.04a.972.972,0,0,1-.977.966h-.055l-.169-.008h-.128a4.257,4.257,0,0,0-2.977,1.2,4.018,4.018,0,0,0,0,5.793,4.258,4.258,0,0,0,2.977,1.2h4.752a.962.962,0,1,1,0,1.924h-4.752a6.261,6.261,0,0,1-4.376-1.763,5.9,5.9,0,0,1,0-8.513A6.247,6.247,0,0,1,765.3,403.8a9.454,9.454,0,0,1,2.853-5.96,10.064,10.064,0,0,1,12.524-1.14,9.712,9.712,0,0,1,3.313,3.729h0c.284-.028.553-.042.8-.042a8.021,8.021,0,0,1,5.606,2.259l0,0,0,0a7.559,7.559,0,0,1,0,10.9,8.021,8.021,0,0,1-5.606,2.259Z" fill="#333"/>
        <path id="Path_5136" data-name="Path 5136" d="M775.239,405.151a.989.989,0,0,1,1.978,0v18.921a.989.989,0,0,1-1.978,0V405.151Z" fill="#333"/>
        <path id="Path_5137" data-name="Path 5137" d="M783.03,409.832a.94.94,0,0,1,0,1.356,1.007,1.007,0,0,1-1.395,0l-5.4-5.3-5.4,5.3a1.007,1.007,0,0,1-1.395,0,.94.94,0,0,1,0-1.356l6.1-5.986,0,0a1.007,1.007,0,0,1,1.395,0l6.1,5.986Z" fill="#333"/>
      </g>
      <path id="Color_Overlay" data-name="Color Overlay" d="M1222.511,4088.038v-17.217l-4.414,4.33a1.007,1.007,0,0,1-1.4,0,.942.942,0,0,1,0-1.357l6.1-5.986,0,0a1.008,1.008,0,0,1,1.4,0l6.1,5.986a.941.941,0,0,1,0,1.357,1,1,0,0,1-1.394,0l-4.415-4.33v17.217a.99.99,0,0,1-1.979,0Zm6.023-8.259a.962.962,0,1,1,0-1.924h3.537a6.011,6.011,0,0,0,4.207-1.7,5.681,5.681,0,0,0,0-8.187h0a6.136,6.136,0,0,0-4.818-1.667,5.635,5.635,0,0,0-.6.088.99.99,0,0,1-1.115-.591h0a7.754,7.754,0,0,0-2.906-3.551,8.056,8.056,0,0,0-10.014.916,7.535,7.535,0,0,0-2.308,5.42q0,.038,0,.077v.039a.971.971,0,0,1-.977.966h-.054l-.168-.007h-.128a4.251,4.251,0,0,0-2.977,1.2,4.018,4.018,0,0,0,0,5.793,4.253,4.253,0,0,0,2.977,1.2h4.752a.962.962,0,1,1,0,1.924h-4.752a6.266,6.266,0,0,1-4.377-1.763,5.908,5.908,0,0,1,0-8.513,6.252,6.252,0,0,1,3.765-1.734,9.458,9.458,0,0,1,2.852-5.96,10.065,10.065,0,0,1,12.525-1.14,9.708,9.708,0,0,1,3.313,3.73c.284-.028.553-.043.8-.043a8.019,8.019,0,0,1,5.607,2.26l0,0h0a7.559,7.559,0,0,1,0,10.9,8.023,8.023,0,0,1-5.607,2.259Z" fill="#d6ab00"/>
    </g>
  </g>
</svg>
