<svg xmlns="http://www.w3.org/2000/svg" width="70" height="70" viewBox="0 0 70 70">
  <g id="icon" transform="translate(-405 -4229)">
    <circle id="BG_copy_5" data-name="BG copy 5" cx="35" cy="35" r="35" transform="translate(405 4229)" fill="#e4ffee"/>
    <path id="Shape_1" data-name="Shape 1" d="M438.865,4283a2.284,2.284,0,0,1-2.257-1.909l-.432-2.6a14.677,14.677,0,0,1-2.443-1l-2.171,1.544a2.248,2.248,0,0,1-1.322.426,2.273,2.273,0,0,1-1.616-.673l-2.3-2.3a2.278,2.278,0,0,1-.247-2.944l1.523-2.119a14.2,14.2,0,0,1-1.059-2.512l-2.628-.448A2.283,2.283,0,0,1,422,4266.2v-3.254a2.286,2.286,0,0,1,1.909-2.258l2.566-.432a14.254,14.254,0,0,1,1.029-2.527l-1.547-2.172a2.289,2.289,0,0,1,.247-2.945l2.312-2.3a2.282,2.282,0,0,1,2.944-.248l2.126,1.532a14.161,14.161,0,0,1,2.512-1.06l.448-2.628A2.283,2.283,0,0,1,438.8,4246h3.254a2.284,2.284,0,0,1,2.257,1.909l.432,2.567a14.444,14.444,0,0,1,2.613,1.074l2.149-1.531a2.274,2.274,0,0,1,2.937.248l2.3,2.3a2.28,2.28,0,0,1,.247,2.946l-1.53,2.14a14.748,14.748,0,0,1,1.043,2.52l2.6.441a2.256,2.256,0,0,1,1.893,2.257v3.254a2.284,2.284,0,0,1-1.909,2.257l-2.6.433a14.57,14.57,0,0,1-1.044,2.52l1.531,2.149a2.289,2.289,0,0,1-.247,2.945l-2.3,2.3a2.285,2.285,0,0,1-2.945.247l-2.141-1.531a14.6,14.6,0,0,1-2.52,1.044l-.441,2.6a2.282,2.282,0,0,1-2.256,1.909Zm-4.668-7.621a12.891,12.891,0,0,0,3.169,1.3,1.037,1.037,0,0,1,.765.834l.541,3.247a.2.2,0,0,0,.2.169h3.255a.2.2,0,0,0,.2-.169l.548-3.247a1.026,1.026,0,0,1,.765-.834,12.361,12.361,0,0,0,3.239-1.345,1.042,1.042,0,0,1,1.136.046l2.682,1.909a.2.2,0,0,0,.263-.023l2.3-2.3a.21.21,0,0,0,.023-.262l-1.909-2.69a1.043,1.043,0,0,1-.046-1.135,12.389,12.389,0,0,0,1.345-3.239,1.038,1.038,0,0,1,.835-.765l3.246-.542a.2.2,0,0,0,.17-.2h.008v-3.254a.2.2,0,0,0-.17-.2l-3.246-.549a1.028,1.028,0,0,1-.835-.765,12.362,12.362,0,0,0-1.345-3.239,1.045,1.045,0,0,1,.046-1.136l1.909-2.682a.209.209,0,0,0-.023-.264l-2.3-2.3a.208.208,0,0,0-.147-.062.224.224,0,0,0-.115.039l-2.667,1.917a1.046,1.046,0,0,1-1.136.046,12.549,12.549,0,0,0-3.316-1.36,1.044,1.044,0,0,1-.773-.842l-.542-3.223a.2.2,0,0,0-.2-.171h-3.254a.2.2,0,0,0-.2.171l-.557,3.269a1.058,1.058,0,0,1-.765.835,12.224,12.224,0,0,0-3.23,1.359,1.057,1.057,0,0,1-1.145-.046l-2.667-1.9a.181.181,0,0,0-.115-.039.2.2,0,0,0-.147.063l-2.3,2.3a.208.208,0,0,0-.023.262l1.924,2.7a1.035,1.035,0,0,1,.055,1.13,12.335,12.335,0,0,0-1.322,3.246,1.047,1.047,0,0,1-.843.773l-3.224.541a.2.2,0,0,0-.17.2v3.254a.2.2,0,0,0,.17.2l3.27.557a1.062,1.062,0,0,1,.835.766,12.28,12.28,0,0,0,1.36,3.231,1.055,1.055,0,0,1-.046,1.144l-1.9,2.667a.209.209,0,0,0,.024.262l2.3,2.3a.2.2,0,0,0,.146.062.238.238,0,0,0,.116-.039l2.706-1.925a1.022,1.022,0,0,1,.6-.193A1.066,1.066,0,0,1,434.2,4275.378Zm-1.678-10.882a7.985,7.985,0,1,1,7.985,7.984A7.991,7.991,0,0,1,432.519,4264.5Zm2.087,0a5.9,5.9,0,1,0,5.9-5.9A5.9,5.9,0,0,0,434.607,4264.5Z" fill="#40975f"/>
  </g>
</svg>
