<svg xmlns="http://www.w3.org/2000/svg" width="70" height="70" viewBox="0 0 70 70">
  <g id="icon" transform="translate(-1188 -4419)">
    <circle id="BG_copy_3" data-name="BG copy 3" cx="35" cy="35" r="35" transform="translate(1188 4419)" fill="#eaf9ff"/>
    <path id="Shape_1" data-name="Shape 1" d="M1214.478,4471a.761.761,0,0,1-.756-.764v-1.808a2.284,2.284,0,0,1,2.27-2.291h1.4v-3.5a.76.76,0,0,1,.58-.742l.01,0a3.483,3.483,0,0,0,2.668-3.731,9.576,9.576,0,0,1-4.382-4.175,16.393,16.393,0,0,1-1.023-2.068,12.353,12.353,0,0,1-6.22-8.822,2.374,2.374,0,0,1,2.334-2.752h2.286v-.72a1.613,1.613,0,0,1,1.6-1.618h15.492a1.613,1.613,0,0,1,1.6,1.618v.72h2.285a2.374,2.374,0,0,1,2.335,2.752,12.358,12.358,0,0,1-6.221,8.822,16.242,16.242,0,0,1-1.022,2.068,9.629,9.629,0,0,1-4.31,4.143,3.483,3.483,0,0,0,2.667,3.763l.009,0a.763.763,0,0,1,.582.743v3.5h1.4a2.284,2.284,0,0,1,2.27,2.291v1.808a.761.761,0,0,1-.757.764Zm.757-2.572v1.045h15.6v-1.045a.761.761,0,0,0-.756-.764h-14.089A.761.761,0,0,0,1215.235,4468.427Zm3.675-2.291h8.252v-2.74h-8.252Zm2.5-4.942a4.957,4.957,0,0,1-.512.673h4.291a5.047,5.047,0,0,1-1.3-3.306,5.835,5.835,0,0,1-1.7.01A5,5,0,0,1,1221.406,4461.194Zm-6.242-21.576v3.653a19.886,19.886,0,0,0,2.41,9.929c1.481,2.515,3.409,3.9,5.426,3.9s3.944-1.386,5.425-3.9a19.874,19.874,0,0,0,2.411-9.929v-3.653a.09.09,0,0,0-.091-.091h-15.492A.09.09,0,0,0,1215.164,4439.618Zm17.187,3.653a24.237,24.237,0,0,1-.807,6.289,10.835,10.835,0,0,0,3.932-6.715.825.825,0,0,0-.188-.673.849.849,0,0,0-.652-.305h-2.285Zm-21.638-1.1a.828.828,0,0,0-.188.674,10.836,10.836,0,0,0,3.933,6.715,24.184,24.184,0,0,1-.807-6.289v-1.4h-2.286A.853.853,0,0,0,1210.712,4442.171Zm9.448,9.12a.763.763,0,0,1-.3-.746l.389-2.3-1.652-1.626a.767.767,0,0,1-.192-.782.757.757,0,0,1,.611-.521l2.283-.334,1.021-2.088a.754.754,0,0,1,1.357,0l1.022,2.088,2.283.334a.765.765,0,0,1,.418,1.3l-1.652,1.626.389,2.3a.763.763,0,0,1-.3.746.75.75,0,0,1-.8.058l-2.042-1.083-2.043,1.083a.747.747,0,0,1-.8-.058Zm3.191-2.564,1.038.55-.2-1.166a.772.772,0,0,1,.218-.675l.839-.826-1.159-.171a.755.755,0,0,1-.57-.417l-.518-1.061-.52,1.061a.755.755,0,0,1-.57.417l-1.159.171.839.826a.77.77,0,0,1,.218.675l-.2,1.166,1.038-.55a.751.751,0,0,1,.7,0Z" fill="#3dabdd"/>
  </g>
</svg>
