<svg xmlns="http://www.w3.org/2000/svg" width="82" height="82" viewBox="0 0 82 82">
  <g id="icon" transform="translate(-1168 -2626)">
    <rect id="BG_copy_4" data-name="BG copy 4" width="82" height="82" rx="28" transform="translate(1168 2626)" fill="#fff6d3"/>
    <g id="Vector_Smart_Object" data-name="Vector Smart Object">
      <g id="Vector_Smart_Object-2" data-name="Vector Smart Object" transform="translate(432.272 2256.966)">
        <path id="Path_7" data-name="Path 7" d="M781.262,415.812a.962.962,0,1,1,0-1.924H784.8a6.014,6.014,0,0,0,4.207-1.694,5.681,5.681,0,0,0,0-8.187h0a6.014,6.014,0,0,0-4.207-1.694c-.226,0-.431.009-.611.027q-.3.03-.6.088a.991.991,0,0,1-1.116-.59h0a7.743,7.743,0,0,0-2.906-3.551,8.058,8.058,0,0,0-10.014.915,7.539,7.539,0,0,0-2.308,5.421c0,.025,0,.051,0,.076v.04a.972.972,0,0,1-.977.966h-.055l-.169-.008h-.128a4.257,4.257,0,0,0-2.977,1.2,4.018,4.018,0,0,0,0,5.793,4.258,4.258,0,0,0,2.977,1.2h4.752a.962.962,0,1,1,0,1.924h-4.752a6.261,6.261,0,0,1-4.376-1.763,5.9,5.9,0,0,1,0-8.513A6.247,6.247,0,0,1,765.3,403.8a9.454,9.454,0,0,1,2.853-5.96,10.064,10.064,0,0,1,12.524-1.14,9.712,9.712,0,0,1,3.313,3.729h0c.284-.028.553-.042.8-.042a8.021,8.021,0,0,1,5.606,2.259l0,0,0,0a7.559,7.559,0,0,1,0,10.9,8.021,8.021,0,0,1-5.606,2.259Z" fill="#333"/>
        <path id="Path_8" data-name="Path 8" d="M775.239,405.151a.989.989,0,0,1,1.978,0v18.921a.989.989,0,0,1-1.978,0V405.151Z" fill="#333"/>
        <path id="Path_9" data-name="Path 9" d="M783.03,409.832a.94.94,0,0,1,0,1.356,1.007,1.007,0,0,1-1.395,0l-5.4-5.3-5.4,5.3a1.007,1.007,0,0,1-1.395,0,.94.94,0,0,1,0-1.356l6.1-5.986,0,0a1.007,1.007,0,0,1,1.395,0l6.1,5.986Z" fill="#333"/>
      </g>
      <path id="Color_Overlay" data-name="Color Overlay" d="M1207.511,2681.038v-17.217l-4.414,4.33a1.007,1.007,0,0,1-1.4,0,.941.941,0,0,1,0-1.356l6.1-5.986,0,0a1.008,1.008,0,0,1,1.4,0l6.1,5.986a.941.941,0,0,1,0,1.356,1.006,1.006,0,0,1-1.394,0l-4.414-4.33v17.217a.99.99,0,0,1-1.978,0Zm6.023-8.26a.962.962,0,1,1,0-1.924h3.537a6.012,6.012,0,0,0,4.208-1.695,5.681,5.681,0,0,0,0-8.187h0a6.016,6.016,0,0,0-4.208-1.694c-.225,0-.43.009-.61.027a5.815,5.815,0,0,0-.6.088.992.992,0,0,1-1.116-.59h0a7.744,7.744,0,0,0-2.906-3.552,8.058,8.058,0,0,0-10.013.915,7.537,7.537,0,0,0-2.308,5.421c0,.025,0,.052,0,.077v.04a.971.971,0,0,1-.977.966h-.055l-.168-.007h-.128a4.253,4.253,0,0,0-2.977,1.2,4.016,4.016,0,0,0,0,5.792,4.255,4.255,0,0,0,2.977,1.2h4.752a.962.962,0,1,1,0,1.924h-4.752a6.263,6.263,0,0,1-4.377-1.763,5.906,5.906,0,0,1,0-8.513,6.249,6.249,0,0,1,3.765-1.734,9.455,9.455,0,0,1,2.852-5.96,10.064,10.064,0,0,1,12.524-1.14,9.709,9.709,0,0,1,3.313,3.73c.284-.028.553-.042.8-.042a8.023,8.023,0,0,1,5.607,2.259l0,0,0,0a7.559,7.559,0,0,1,0,10.9,8.023,8.023,0,0,1-5.607,2.259Z" fill="#d6ab00"/>
    </g>
  </g>
</svg>
