<svg xmlns="http://www.w3.org/2000/svg" width="82" height="82" viewBox="0 0 82 82">
  <g id="icon" transform="translate(-405 -2822)">
    <rect id="BG_copy_5" data-name="BG copy 5" width="82" height="82" rx="28" transform="translate(405 2822)" fill="#e4ffee"/>
    <path id="Shape_1" data-name="Shape 1" d="M444.866,2882a2.284,2.284,0,0,1-2.257-1.91l-.433-2.6a14.654,14.654,0,0,1-2.443-1l-2.172,1.545a2.242,2.242,0,0,1-1.322.426,2.272,2.272,0,0,1-1.616-.673l-2.3-2.3a2.28,2.28,0,0,1-.247-2.945l1.523-2.118a14.25,14.25,0,0,1-1.058-2.513l-2.628-.447A2.285,2.285,0,0,1,428,2865.2v-3.253a2.283,2.283,0,0,1,1.91-2.257l2.566-.433a14.346,14.346,0,0,1,1.028-2.528l-1.545-2.172a2.287,2.287,0,0,1,.247-2.945l2.311-2.3a2.284,2.284,0,0,1,2.945-.247l2.126,1.531a14.181,14.181,0,0,1,2.512-1.059l.448-2.628A2.284,2.284,0,0,1,444.8,2845h3.254a2.284,2.284,0,0,1,2.257,1.909l.432,2.566a14.487,14.487,0,0,1,2.613,1.075l2.149-1.53a2.24,2.24,0,0,1,1.321-.426,2.271,2.271,0,0,1,1.616.672l2.3,2.3a2.28,2.28,0,0,1,.247,2.946l-1.53,2.141a14.645,14.645,0,0,1,1.043,2.519l2.6.441a2.256,2.256,0,0,1,1.894,2.256v3.254a2.284,2.284,0,0,1-1.909,2.257l-2.6.433a14.591,14.591,0,0,1-1.043,2.52l1.53,2.148a2.287,2.287,0,0,1-.247,2.945l-2.3,2.3a2.284,2.284,0,0,1-2.945.247l-2.141-1.53a14.707,14.707,0,0,1-2.52,1.043l-.44,2.6a2.284,2.284,0,0,1-2.257,1.91Zm-4.668-7.621a12.874,12.874,0,0,0,3.169,1.3,1.036,1.036,0,0,1,.765.834l.541,3.247a.2.2,0,0,0,.2.169h3.254a.2.2,0,0,0,.2-.169l.549-3.247a1.026,1.026,0,0,1,.765-.834,12.358,12.358,0,0,0,3.239-1.345,1.046,1.046,0,0,1,1.136.047l2.682,1.909a.192.192,0,0,0,.116.04.2.2,0,0,0,.147-.062l2.3-2.3a.21.21,0,0,0,.023-.263l-1.909-2.69a1.043,1.043,0,0,1-.046-1.135,12.381,12.381,0,0,0,1.345-3.239,1.039,1.039,0,0,1,.835-.766l3.246-.541a.2.2,0,0,0,.17-.2h.007v-3.254a.2.2,0,0,0-.17-.2l-3.246-.549a1.023,1.023,0,0,1-.834-.765,12.4,12.4,0,0,0-1.345-3.238,1.046,1.046,0,0,1,.047-1.137l1.909-2.681a.21.21,0,0,0-.023-.264l-2.3-2.3a.208.208,0,0,0-.147-.062.23.23,0,0,0-.116.04l-2.667,1.916a1.043,1.043,0,0,1-1.136.047,12.516,12.516,0,0,0-3.316-1.36,1.048,1.048,0,0,1-.773-.843l-.541-3.223a.2.2,0,0,0-.2-.17h-3.254a.2.2,0,0,0-.2.17l-.556,3.27a1.06,1.06,0,0,1-.766.834,12.241,12.241,0,0,0-3.23,1.361,1.058,1.058,0,0,1-1.144-.047l-2.667-1.9a.2.2,0,0,0-.263.023l-2.3,2.3a.211.211,0,0,0-.022.264l1.924,2.7a1.034,1.034,0,0,1,.054,1.13,12.324,12.324,0,0,0-1.321,3.246,1.045,1.045,0,0,1-.843.772l-3.223.541a.2.2,0,0,0-.17.2v3.253a.2.2,0,0,0,.17.2l3.27.556a1.06,1.06,0,0,1,.835.766,12.236,12.236,0,0,0,1.36,3.23,1.06,1.06,0,0,1-.046,1.145l-1.9,2.666a.209.209,0,0,0,.023.263l2.3,2.3a.207.207,0,0,0,.147.061.236.236,0,0,0,.116-.038l2.705-1.925a1.015,1.015,0,0,1,.6-.193A1.074,1.074,0,0,1,440.2,2874.378Zm-1.678-10.883a7.984,7.984,0,1,1,7.985,7.985A7.989,7.989,0,0,1,438.52,2863.495Zm2.087,0a5.9,5.9,0,1,0,5.9-5.9A5.9,5.9,0,0,0,440.607,2863.495Z" fill="#40975f"/>
  </g>
</svg>
