<svg xmlns="http://www.w3.org/2000/svg" xmlns:xlink="http://www.w3.org/1999/xlink" width="47" height="41" viewBox="0 0 47 41">
  <defs>
    <clipPath id="clip-path">
      <rect id="Rectangle_1" data-name="Rectangle 1" width="47" height="41" transform="translate(0.829 3.868)" fill="none"/>
    </clipPath>
  </defs>
  <g id="Vector_Smart_Object" data-name="Vector Smart Object" transform="translate(-0.829 -3.868)">
    <g id="Group_6" data-name="Group 6">
      <g id="Group_5" data-name="Group 5">
        <g id="Group_4" data-name="Group 4" clip-path="url(#clip-path)">
          <path id="Path_5146" data-name="Path 5146" d="M19.273,3.878S6.9,3.059,6.9,16.157C6.9,24.879,4.633,27.93,3.119,29a.936.936,0,0,0,.1,1.565,13.3,13.3,0,0,0,8.4,1.845.225.225,0,0,1,.155.412L3.125,37.77a4.543,4.543,0,0,0-2.3,3.94v1.027A2.067,2.067,0,0,0,2.907,44.8h12.31l13.164-5.617L25.261,5.024a14.244,14.244,0,0,0-5.988-1.146Zm0,0" fill="#fff" opacity="0.5"/>
        </g>
      </g>
      <path id="Path_5147" data-name="Path 5147" d="M44.555,17.153a1.6,1.6,0,0,1-.681-1.255c-.025-2.855-.96-12.021-11.919-12.021-.148,0-.288.008-.433.011s-.284-.011-.432-.011c-10.953,0-11.893,9.157-11.919,12.016a1.556,1.556,0,0,1-.657,1.241A3.081,3.081,0,0,0,17.3,20.761a13.7,13.7,0,0,0,3.344,4.464,1.542,1.542,0,0,1,.489,1.092c.173,4.626,2.107,6.293,3.329,6.9a2.026,2.026,0,0,1,1.218,1.777c0,.953-1.024,1.677-1.832,2.192l-5.032,1.11a4.567,4.567,0,0,0-3.6,4.448V44.8h23.7L41.8,27.623c.051-.409.091-.838.107-1.305a1.541,1.541,0,0,1,.489-1.092,13.644,13.644,0,0,0,3.36-4.5,3.053,3.053,0,0,0-1.206-3.571Zm0,0" fill="#fff"/>
      <path id="Path_5148" data-name="Path 5148" d="M47.829,35.968a8.914,8.914,0,1,1-8.913-8.828,8.871,8.871,0,0,1,8.913,8.828Zm0,0" fill="#09142e"/>
      <path id="Path_5149" data-name="Path 5149" d="M38.916,41.586a.806.806,0,0,1-.811-.8v-9.63a.81.81,0,0,1,1.621,0v9.63a.807.807,0,0,1-.81.8Zm0,0" fill="#fff"/>
      <path id="Path_5150" data-name="Path 5150" d="M43.778,36.77H34.053a.8.8,0,1,1,0-1.6h9.725a.8.8,0,1,1,0,1.6Zm0,0" fill="#fff"/>
    </g>
  </g>
</svg>
