<svg xmlns="http://www.w3.org/2000/svg" viewBox="0 0 225.37 67"><defs><style>.cls-1{fill:#32325d;}.cls-2{fill:#fff;}</style></defs><title>APP STORE</title><g id="Layer_2" data-name="Layer 2"><g id="Layer_1-2" data-name="Layer 1"><g id="Page-1"><g id="Medium-Product-Hunt"><g id="Download_on_the_App_Store_Badge_US-UK_RGB_wht_092917" data-name="Download on the App Store Badge US-UK RGB wht 092917"><g id="Group"><path id="Shape" class="cls-1" d="M207.42,0H15.9L14.16,0a29.77,29.77,0,0,0-3.77.3A13.68,13.68,0,0,0,6.81,1.37a12,12,0,0,0-3,2A10.61,10.61,0,0,0,1.54,6.06,10.06,10.06,0,0,0,.37,9.25,18.94,18.94,0,0,0,0,12.6c0,.52,0,1,0,1.54V52.86c0,.52,0,1,0,1.55a18.94,18.94,0,0,0,.34,3.35A10.15,10.15,0,0,0,1.54,61a10.56,10.56,0,0,0,2.22,2.7,11.86,11.86,0,0,0,3.05,2,13.68,13.68,0,0,0,3.58,1.05,28,28,0,0,0,3.77.3l1.74,0H209.46l1.74,0a27.76,27.76,0,0,0,3.76-.3,14.1,14.1,0,0,0,3.6-1.05,11.8,11.8,0,0,0,3-2,10.81,10.81,0,0,0,2.23-2.7A10.4,10.4,0,0,0,225,57.76a21,21,0,0,0,.35-3.35V52.86c0-.61,0-1.21,0-1.83V16c0-.61,0-1.22,0-1.83V12.6A21,21,0,0,0,225,9.25a10.31,10.31,0,0,0-1.17-3.19,11.66,11.66,0,0,0-5.27-4.69,13.82,13.82,0,0,0-3.6-1A29.47,29.47,0,0,0,211.2,0l-1.74,0Z"/><path id="Shape-2" data-name="Shape" class="cls-1" d="M15.9,65.53H14.2a27.68,27.68,0,0,1-3.52-.28,11.92,11.92,0,0,1-3.12-.91,10.35,10.35,0,0,1-2.63-1.71A8.92,8.92,0,0,1,3,60.28a8.59,8.59,0,0,1-1-2.77,18.47,18.47,0,0,1-.32-3.14c0-.36,0-1.53,0-1.53V14.14s0-1.15,0-1.49A19.53,19.53,0,0,1,2,9.51,8.81,8.81,0,0,1,3,6.73,9.09,9.09,0,0,1,4.92,4.38,10.51,10.51,0,0,1,7.56,2.67a11.85,11.85,0,0,1,3.11-.91,26.12,26.12,0,0,1,3.54-.27l1.7,0H209.45l1.72,0a25.41,25.41,0,0,1,3.5.27,11.67,11.67,0,0,1,3.15.92,10.05,10.05,0,0,1,4.55,4.05,9,9,0,0,1,1,2.76,19.8,19.8,0,0,1,.32,3.16c0,.48,0,1,0,1.49s0,1.23,0,1.83V51c0,.61,0,1.2,0,1.8s0,1,0,1.56a19,19,0,0,1-.32,3.1,9,9,0,0,1-1,2.8,9.17,9.17,0,0,1-1.91,2.32,10.24,10.24,0,0,1-2.64,1.71,11.6,11.6,0,0,1-3.14.92,27.53,27.53,0,0,1-3.52.28H15.9Z"/></g><g id="_Group_3" data-name=" Group 3"><path id="_Path_" data-name=" Path " class="cls-2" d="M49.08,33.31a8.62,8.62,0,0,1,4.12-7.23,8.87,8.87,0,0,0-7-3.76c-2.94-.3-5.79,1.75-7.29,1.75s-3.83-1.72-6.32-1.66a9.29,9.29,0,0,0-7.83,4.75c-3.38,5.83-.86,14.4,2.39,19.12,1.62,2.3,3.51,4.88,6,4.79s3.33-1.54,6.26-1.54,3.76,1.54,6.29,1.48,4.24-2.32,5.81-4.65A19,19,0,0,0,54.19,41,8.32,8.32,0,0,1,49.08,33.31Z"/><path id="_Path_2" data-name=" Path 2" class="cls-2" d="M44.3,19.22a8.44,8.44,0,0,0,2-6.08A8.73,8.73,0,0,0,40.63,16a8.07,8.07,0,0,0-2,5.86A7.2,7.2,0,0,0,44.3,19.22Z"/></g><g id="Group-2" data-name="Group"><path id="Shape-3" data-name="Shape" class="cls-2" d="M83.21,45.46h-8l-1.91,5.62H70l7.55-20.8H81l7.54,20.8H85.12Zm-7.14-2.6h6.31l-3.11-9.12h-.09Z"/><path id="Shape-4" data-name="Shape" class="cls-2" d="M104.85,43.5c0,4.71-2.53,7.74-6.36,7.74a5.17,5.17,0,0,1-4.79-2.65h-.08V56.1H90.5V35.92h3v2.52h.06a5.39,5.39,0,0,1,4.85-2.68C102.3,35.76,104.85,38.8,104.85,43.5Zm-3.21,0c0-3.07-1.6-5.09-4-5.09s-4,2.06-4,5.09,1.61,5.1,4,5.1,4-2,4-5.1Z"/><path id="Shape-5" data-name="Shape" class="cls-2" d="M121.63,43.5c0,4.71-2.54,7.74-6.36,7.74a5.19,5.19,0,0,1-4.8-2.65h-.07V56.1h-3.13V35.92h3v2.52h0a5.4,5.4,0,0,1,4.86-2.68C119.08,35.76,121.63,38.8,121.63,43.5Zm-3.22,0c0-3.07-1.59-5.09-4-5.09s-4,2.06-4,5.09,1.61,5.1,4,5.1S118.41,46.6,118.41,43.5Z"/><path id="Shape-6" data-name="Shape" class="cls-2" d="M132.71,45.29c.23,2.06,2.25,3.41,5,3.41s4.53-1.35,4.53-3.21c0-1.62-1.14-2.58-3.85-3.25l-2.71-.64c-3.84-.93-5.62-2.71-5.62-5.61,0-3.59,3.14-6.06,7.6-6.06s7.45,2.47,7.55,6.06h-3.16c-.18-2.08-1.91-3.33-4.43-3.33s-4.24,1.27-4.24,3.11c0,1.47,1.1,2.34,3.79,3l2.31.56c4.28,1,6.06,2.73,6.06,5.77,0,3.89-3.11,6.33-8.06,6.33-4.64,0-7.77-2.38-8-6.14Z"/><path id="Shape-7" data-name="Shape" class="cls-2" d="M152.3,32.33v3.59h2.9v2.46h-2.9v8.36c0,1.3.58,1.91,1.85,1.91a8.76,8.76,0,0,0,1-.08V51a8.37,8.37,0,0,1-1.73.15c-3.09,0-4.29-1.16-4.29-4.1V38.38h-2.22V35.92h2.22V32.33Z"/><path id="Shape-8" data-name="Shape" class="cls-2" d="M156.87,43.5c0-4.77,2.83-7.77,7.23-7.77s7.23,3,7.23,7.77-2.79,7.77-7.23,7.77S156.87,48.28,156.87,43.5Zm11.27,0c0-3.27-1.5-5.21-4-5.21s-4,2-4,5.21,1.51,5.2,4,5.2,4-1.91,4-5.2Z"/><path id="Shape-9" data-name="Shape" class="cls-2" d="M173.91,35.92h3V38.5H177a3.62,3.62,0,0,1,3.66-2.74,5.65,5.65,0,0,1,1.08.11v2.92a4.21,4.21,0,0,0-1.41-.19A3.14,3.14,0,0,0,177,42.09v9h-3.13Z"/><path id="Shape-10" data-name="Shape" class="cls-2" d="M196.13,46.63c-.42,2.75-3.12,4.64-6.56,4.64-4.44,0-7.19-3-7.19-7.7s2.77-7.84,7.05-7.84,6.87,2.88,6.87,7.48v1.07H185.54v.18a4,4,0,0,0,1.07,3.07,4,4,0,0,0,3,1.23,3.46,3.46,0,0,0,3.52-2.13ZM185.55,42.1h7.62a3.63,3.63,0,0,0-1-2.74,3.68,3.68,0,0,0-2.72-1.11,3.91,3.91,0,0,0-2.74,1.12A3.84,3.84,0,0,0,185.55,42.1Z"/></g><g id="_Group_4" data-name=" Group 4"><path id="Shape-11" data-name="Shape" class="cls-2" d="M75.67,14.62A4.49,4.49,0,0,1,79.22,16a4.44,4.44,0,0,1,1.18,3.6c0,3.19-1.73,5-4.73,5H72.05v-10Zm-2.06,8.59H75.5a3.2,3.2,0,0,0,2.52-1,3.12,3.12,0,0,0,.79-2.58A3.16,3.16,0,0,0,75.5,16H73.61Z"/><path id="Shape-12" data-name="Shape" class="cls-2" d="M82.16,20.84a3.55,3.55,0,0,1,1.68-3.37,3.6,3.6,0,0,1,3.79,0,3.55,3.55,0,0,1,1.68,3.37,3.58,3.58,0,0,1-1.68,3.39,3.64,3.64,0,0,1-3.79,0A3.58,3.58,0,0,1,82.16,20.84Zm5.61,0c0-1.63-.74-2.59-2-2.59s-2,1-2,2.59.73,2.6,2,2.6,2-1,2-2.6Z"/><polygon id="Shape-13" data-name="Shape" class="cls-2" points="98.81 24.62 97.26 24.62 95.7 19.06 95.58 19.06 94.02 24.62 92.48 24.62 90.39 17.08 91.91 17.08 93.27 22.83 93.38 22.83 94.94 17.08 96.37 17.08 97.93 22.83 98.05 22.83 99.4 17.08 100.9 17.08 98.81 24.62"/><path id="Shape-14" data-name="Shape" class="cls-2" d="M102.65,17.08h1.44v1.19h.12a2.25,2.25,0,0,1,2.26-1.34,2.49,2.49,0,0,1,2,.78,2.43,2.43,0,0,1,.63,2v4.88h-1.5V20.11c0-1.21-.52-1.81-1.63-1.81a1.73,1.73,0,0,0-1.81,1.91v4.41h-1.5Z"/><polygon id="Shape-15" data-name="Shape" class="cls-2" points="111.47 14.13 112.97 14.13 112.97 24.62 111.47 24.62 111.47 14.13"/><path id="Shape-16" data-name="Shape" class="cls-2" d="M115.05,20.84a3.55,3.55,0,0,1,1.68-3.37,3.6,3.6,0,0,1,3.79,0,3.55,3.55,0,0,1,1.68,3.37,3.58,3.58,0,0,1-1.68,3.39,3.64,3.64,0,0,1-3.79,0A3.58,3.58,0,0,1,115.05,20.84Zm5.61,0c0-1.63-.74-2.59-2-2.59s-2,1-2,2.59.73,2.6,2,2.6,2-1,2-2.6Z"/><path id="Shape-17" data-name="Shape" class="cls-2" d="M123.77,22.49c0-1.36,1-2.14,2.82-2.26l2.06-.11v-.65c0-.8-.53-1.25-1.55-1.25-.84,0-1.42.3-1.58.84h-1.45c.15-1.3,1.38-2.13,3.09-2.13,1.9,0,3,.94,3,2.54v5.15H128.7V23.56h-.12a2.55,2.55,0,0,1-2.28,1.18,2.28,2.28,0,0,1-2.53-2.25Zm4.88-.65v-.63l-1.85.12c-1,.07-1.52.42-1.52,1.09s.59,1.07,1.4,1.07a1.78,1.78,0,0,0,2-1.65Z"/><path id="Shape-18" data-name="Shape" class="cls-2" d="M132.1,20.84c0-2.38,1.23-3.89,3.15-3.89a2.5,2.5,0,0,1,2.32,1.32h.12V14.13h1.49V24.62h-1.43V23.43h-.12a2.63,2.63,0,0,1-2.38,1.31C133.32,24.74,132.1,23.23,132.1,20.84Zm1.55,0c0,1.6.76,2.57,2,2.57s2-1,2-2.56-.78-2.56-2-2.56-2,1-2,2.55Z"/><path id="Shape-19" data-name="Shape" class="cls-2" d="M145.37,20.84a3.55,3.55,0,0,1,1.68-3.37,3.6,3.6,0,0,1,3.79,0,3.55,3.55,0,0,1,1.68,3.37,3.58,3.58,0,0,1-1.68,3.39,3.64,3.64,0,0,1-3.79,0A3.58,3.58,0,0,1,145.37,20.84Zm5.61,0c0-1.63-.74-2.59-2-2.59s-2,1-2,2.59.73,2.6,2,2.6S151,22.49,151,20.84Z"/><path id="Shape-20" data-name="Shape" class="cls-2" d="M154.53,17.08H156v1.19h.11a2.27,2.27,0,0,1,2.26-1.34,2.48,2.48,0,0,1,2,.78,2.43,2.43,0,0,1,.63,2v4.88h-1.49V20.11c0-1.21-.53-1.81-1.64-1.81a1.7,1.7,0,0,0-1.34.54,1.72,1.72,0,0,0-.47,1.37v4.41h-1.49Z"/><path id="Shape-21" data-name="Shape" class="cls-2" d="M169.42,15.2v1.91h1.64v1.25h-1.64v3.88c0,.79.32,1.14,1.07,1.14a3.64,3.64,0,0,0,.57,0v1.24a4.45,4.45,0,0,1-.81.08c-1.67,0-2.33-.58-2.33-2V18.36h-1.2V17.11h1.2V15.2Z"/><path id="Shape-22" data-name="Shape" class="cls-2" d="M173.1,14.13h1.49v4.16h.11A2.35,2.35,0,0,1,177,16.94a2.5,2.5,0,0,1,2.61,2.81v4.87h-1.5v-4.5c0-1.21-.57-1.82-1.62-1.82a1.77,1.77,0,0,0-1.4.52,1.72,1.72,0,0,0-.51,1.39v4.41h-1.5Z"/><path id="Shape-23" data-name="Shape" class="cls-2" d="M188.35,22.58a3.08,3.08,0,0,1-3.29,2.18,3.42,3.42,0,0,1-2.65-1.14,3.38,3.38,0,0,1-.85-2.75,3.5,3.5,0,0,1,3.5-3.94c2.11,0,3.38,1.43,3.38,3.8v.52h-5.35v.09a2,2,0,0,0,.53,1.52,2,2,0,0,0,1.48.64,1.84,1.84,0,0,0,1.81-.92Zm-5.26-2.43h3.82a1.84,1.84,0,0,0-.49-1.39,1.86,1.86,0,0,0-1.37-.56,2,2,0,0,0-1.4.56,1.91,1.91,0,0,0-.56,1.39Z"/></g></g></g></g></g></g></svg>