<svg xmlns="http://www.w3.org/2000/svg" viewBox="0 0 399.62 424"><defs><style>.cls-1{fill:#d4e1f4;}.cls-2{fill:#6a52fd;}.cls-3{fill:#1ae5be;}</style></defs><title>support</title><g id="Layer_2" data-name="Layer 2"><g id="Layer_1-2" data-name="Layer 1"><path class="cls-1" d="M30,311.91V267.25a33.48,33.48,0,0,1,33.47-33.47H82.52v-20H43.46A33.48,33.48,0,0,0,10,247.27v44.65A33.56,33.56,0,0,0,32,323.4a34.13,34.13,0,0,1-2-11.49Z"/><path class="cls-1" d="M356.16,213.7H317.11v20h16.08a33.47,33.47,0,0,1,33.47,33.47v44.76a34.4,34.4,0,0,1-2.4,12.48,33.42,33.42,0,0,0,25.37-32.47V247.27a33.48,33.48,0,0,0-33.47-33.57Z"/><path class="cls-1" d="M262.86,404H213.7a25,25,0,0,1-20-40,25,25,0,0,0,0,50h49.15a24.91,24.91,0,0,0,20-10Z"/><path class="cls-2" d="M339.38,317.1a10,10,0,0,0-10,10v21.58A30.43,30.43,0,0,1,299,379H279.44a13.51,13.51,0,0,0-2.9.4,35,35,0,0,0-33.67-25.38H193.72a35,35,0,0,0,0,69.94h49.15a35.11,35.11,0,0,0,33.67-25.37,9.19,9.19,0,0,0,2.9.39H299a50.39,50.39,0,0,0,50.35-50.35V327.09a10,10,0,0,0-10-10ZM242.87,404H193.72a15,15,0,1,1,0-30h49.15a15,15,0,1,1,0,30Z"/><path class="cls-2" d="M199.81,0C117.39,0,50.25,67.14,50.25,149.56V213.8a10,10,0,1,0,20,0V149.56C70.23,78.13,128.38,20,199.81,20S329.39,78.13,329.39,149.56V213.8a10,10,0,0,0,20,0V149.56C349.37,67,282.23,0,199.81,0Z"/><path class="cls-3" d="M82.52,203.71H43.46A43.49,43.49,0,0,0,0,247.16v44.76a43.49,43.49,0,0,0,43.46,43.46H82.52a10,10,0,0,0,10-10V213.7a10,10,0,0,0-10-10Zm-10,111.69H43.46A23.52,23.52,0,0,1,20,291.92V247.27a23.52,23.52,0,0,1,23.48-23.48H72.54Z"/><path class="cls-3" d="M356.16,203.71H317.11a10,10,0,0,0-10,10V325.39a10,10,0,0,0,10,10h39.05a43.48,43.48,0,0,0,43.46-43.46V247.27a43.51,43.51,0,0,0-43.46-43.56Zm23.48,88.21a23.5,23.5,0,0,1-23.48,23.48H327.09V223.69h29.07a23.5,23.5,0,0,1,23.48,23.47Z"/></g></g></svg>