<?xml version="1.0" encoding="utf-8"?>
<!-- Generator: Adobe Illustrator 23.0.0, SVG Export Plug-In . SVG Version: 6.00 Build 0)  -->
<svg version="1.1" id="Layer_1" xmlns="http://www.w3.org/2000/svg" xmlns:xlink="http://www.w3.org/1999/xlink" x="0px" y="0px"
	 viewBox="0 0 1602.9 337" style="enable-background:new 0 0 1602.9 337;" xml:space="preserve">
<style type="text/css">
	.st0{fill:#FFFFFF;}
</style>
<path class="st0" d="M1602.9,93c-52-13.2-100.9-33.8-148.2-58.7c-21-11.1-42.1-22-65.5-27.7c-32.2-7.8-64-6.6-95.3,3.8
	c-18.5,6.2-35.4,15.7-51.9,25.9c-15,9.3-30.1,18.6-45.4,27.6c-22.3,13.2-46.7,19.7-72.4,22c-21.7,2-43.3,2.8-65,1
	c-20.4-1.7-40.6-4.4-60.9-7c-39.2-5.2-78.4-11-118.1-12c-24.7-0.6-49.3,1-73.2,7.8c-29.1,8.2-50.7,26.4-68.2,50.3
	c-12.2,16.7-23.3,34.1-36.2,50.3c-20.4,25.6-45.7,44.6-76.1,57c-28.2,11.6-57.6,16.9-87.9,18.4c-32.8,1.6-65.4-1.2-98-3.2
	c-23.1-1.5-46.1-3-69.2-4.4c-24.8-1.6-49.6-2.1-74.4-2.6c-27.4-0.6-53.2,5.8-78.5,15.3c-36.8,13.8-72.1,31.2-108.6,45.7
	c-35.3,14.1-71.3,25.7-108.2,34.3C1.2,337,0.6,337,0,337C0,193.6,0,147.3-0.1,4c0-3,0.4-4,3.8-4c531.8,0.1,1063.6,0.1,1595.4,0
	c3.3,0,3.8,0.8,3.8,3.9C1602.8,66,1602.9,31,1602.9,93z"/>
</svg>
