<svg xmlns="http://www.w3.org/2000/svg" xmlns:xlink="http://www.w3.org/1999/xlink" viewBox="0 0 226 67"><defs><style>.cls-1{fill:#fff;}.cls-2{fill:#32325d;}.cls-3{fill:#fffffe;}.cls-4{fill:#60c2e3;}.cls-5{mask:url(#mask);}.cls-6{fill:url(#linear-gradient);}.cls-7{mask:url(#mask-2-2);}.cls-8{fill:url(#linear-gradient-2);}.cls-9{mask:url(#mask-3);}.cls-10{fill:url(#linear-gradient-3);}</style><mask id="mask" x="38.32" y="26.34" width="17" height="14.32" maskUnits="userSpaceOnUse"><g id="mask-2"><path id="path-1" class="cls-1" d="M45.22,40.66l-6.9-6.92v-.48l6.91-6.92,8.34,4.74c2.33,1.33,2.33,3.51,0,4.84l-8.19,4.65-.16.09"/></g></mask><linearGradient id="linear-gradient" x1="-172.37" y1="427.36" x2="-174.75" y2="427.36" gradientTransform="matrix(17, 0, 0, -14.32, 2982.66, 6151.65)" gradientUnits="userSpaceOnUse"><stop offset="0" stop-color="#ec942d"/><stop offset="1" stop-color="#fbde1e"/></linearGradient><mask id="mask-2-2" x="17.47" y="33.5" width="27.91" height="21.52" maskUnits="userSpaceOnUse"><g id="mask-5"><path id="path-4" class="cls-1" d="M45.38,40.57,38.32,33.5,17.47,54.36c.77.81,2,.91,3.48.1L45.38,40.57"/></g></mask><linearGradient id="linear-gradient-2" x1="-176.55" y1="436.73" x2="-177.91" y2="434.96" gradientTransform="matrix(27.91, 0, 0, -21.52, 4969.25, 9437.27)" gradientUnits="userSpaceOnUse"><stop offset="0" stop-color="#dd4245"/><stop offset="1" stop-color="#b72162"/></linearGradient><mask id="mask-3" x="17.47" y="11.98" width="27.91" height="21.52" maskUnits="userSpaceOnUse"><g id="mask-8"><path id="path-7" class="cls-1" d="M45.38,26.43,21,12.54c-1.44-.81-2.71-.71-3.48.1L38.32,33.5l7.06-7.07"/></g></mask><linearGradient id="linear-gradient-3" x1="-177.92" y1="437.87" x2="-176.8" y2="436.42" gradientTransform="matrix(27.91, 0, 0, -21.52, 4969.25, 9415.75)" gradientUnits="userSpaceOnUse"><stop offset="0" stop-color="#6cb966"/><stop offset="1" stop-color="#299567"/></linearGradient></defs><title>GOOGLE PLAY</title><g id="Layer_2" data-name="Layer 2"><g id="Layer_1-2" data-name="Layer 1"><g id="Page-1"><g id="Medium-Product-Hunt"><g id="Group"><path id="Fill-3" class="cls-2" d="M217.63,67H8.37A8.4,8.4,0,0,1,0,58.63V8.38A8.4,8.4,0,0,1,8.37,0H217.63A8.4,8.4,0,0,1,226,8.38V58.63A8.4,8.4,0,0,1,217.63,67"/><path id="Fill-5" class="cls-3" d="M79.38,17.16a4.5,4.5,0,0,1-1.25,3.35A4.86,4.86,0,0,1,74.44,22a5.17,5.17,0,0,1-5.21-5.25,5.17,5.17,0,0,1,5.21-5.25,5.25,5.25,0,0,1,2.07.42A4.22,4.22,0,0,1,78.08,13l-.89.89a3.37,3.37,0,0,0-2.75-1.19,3.88,3.88,0,0,0-3.9,4,3.88,3.88,0,0,0,3.9,4,3.8,3.8,0,0,0,2.81-1.12,3.08,3.08,0,0,0,.84-2H74.44V16.4h4.87a4,4,0,0,1,.07.76"/><path id="Fill-6" class="cls-3" d="M79.38,17.16h-.16A4.42,4.42,0,0,1,78,20.39h0a4.71,4.71,0,0,1-3.57,1.43,4.84,4.84,0,0,1-3.57-1.46,4.9,4.9,0,0,1-1.48-3.62,4.9,4.9,0,0,1,1.48-3.62,5.09,5.09,0,0,1,5.57-1.05A4,4,0,0,1,78,13.15l.13-.11L78,12.93l-.88.88.11.12.13-.11a3.57,3.57,0,0,0-2.88-1.25,4,4,0,0,0-4.06,4.18,4.12,4.12,0,0,0,7,3,3.34,3.34,0,0,0,.89-2.14v-.18H74.61v-.87h4.7V16.4l-.16,0a4.62,4.62,0,0,1,.07.73h.33a4.29,4.29,0,0,0-.07-.79l0-.14H74.28v1.54h3.81v-.16l-.17,0a3,3,0,0,1-.79,1.93,3.82,3.82,0,0,1-5.31,0,3.68,3.68,0,0,1-1.11-2.78,3.72,3.72,0,0,1,3.73-3.85A3.25,3.25,0,0,1,77.07,14l.11.14,1-1,.1-.11-.09-.11a4.36,4.36,0,0,0-1.64-1.17,5.31,5.31,0,0,0-2.13-.44,5.34,5.34,0,0,0-5.38,5.42,5.34,5.34,0,0,0,5.38,5.42,5.09,5.09,0,0,0,3.82-1.54l-.13-.12.12.12a4.71,4.71,0,0,0,1.3-3.47h-.17"/><polyline id="Fill-7" class="cls-3" points="87.1 12.96 82.52 12.96 82.52 16.15 86.65 16.15 86.65 17.35 82.52 17.35 82.52 20.54 87.1 20.54 87.1 21.77 81.23 21.77 81.23 11.72 87.1 11.72 87.1 12.96"/><polyline id="Fill-8" class="cls-3" points="87.1 12.96 87.1 12.79 82.36 12.79 82.36 16.32 86.48 16.32 86.48 17.18 82.36 17.18 82.36 20.71 86.93 20.71 86.93 21.61 81.4 21.61 81.4 11.89 86.93 11.89 86.93 12.96 87.1 12.96 87.1 12.79 87.1 12.96 87.27 12.96 87.27 11.56 81.07 11.56 81.07 21.94 87.27 21.94 87.27 20.37 82.69 20.37 82.69 17.52 86.82 17.52 86.82 15.98 82.69 15.98 82.69 13.13 87.27 13.13 87.27 12.96 87.1 12.96"/><polyline id="Fill-9" class="cls-3" points="92.54 21.77 91.25 21.77 91.25 12.96 88.44 12.96 88.44 11.72 95.35 11.72 95.35 12.96 92.54 12.96 92.54 21.77"/><polyline id="Fill-10" class="cls-3" points="92.54 21.77 92.54 21.61 91.42 21.61 91.42 12.79 88.61 12.79 88.61 11.89 95.18 11.89 95.18 12.79 92.37 12.79 92.37 21.77 92.54 21.77 92.54 21.61 92.54 21.77 92.71 21.77 92.71 13.13 95.51 13.13 95.51 11.56 88.28 11.56 88.28 13.13 91.08 13.13 91.08 21.94 92.71 21.94 92.71 21.77 92.54 21.77"/><polygon id="Fill-11" class="cls-3" points="100.34 21.77 101.63 21.77 101.63 11.72 100.34 11.72 100.34 21.77"/><polyline id="Fill-12" class="cls-3" points="100.34 21.77 100.51 21.77 100.51 11.89 101.46 11.89 101.46 21.61 100.34 21.61 100.34 21.77 100.51 21.77 100.34 21.77 100.34 21.94 101.8 21.94 101.8 11.56 100.17 11.56 100.17 21.94 100.34 21.94 100.34 21.77"/><polyline id="Fill-13" class="cls-3" points="107.36 21.77 106.06 21.77 106.06 12.96 103.26 12.96 103.26 11.72 110.16 11.72 110.16 12.96 107.36 12.96 107.36 21.77"/><polyline id="Fill-14" class="cls-3" points="107.36 21.77 107.36 21.61 106.23 21.61 106.23 12.79 103.43 12.79 103.43 11.89 109.99 11.89 109.99 12.79 107.19 12.79 107.19 21.77 107.36 21.77 107.36 21.61 107.36 21.77 107.52 21.77 107.52 13.13 110.33 13.13 110.33 11.56 103.09 11.56 103.09 13.13 105.9 13.13 105.9 21.94 107.52 21.94 107.52 21.77 107.36 21.77"/><path id="Fill-15" class="cls-3" d="M116.82,19.63a3.85,3.85,0,0,0,5.45,0,3.9,3.9,0,0,0,1.12-2.88,3.9,3.9,0,0,0-1.12-2.88,3.85,3.85,0,0,0-5.45,0,3.9,3.9,0,0,0-1.12,2.88A3.9,3.9,0,0,0,116.82,19.63Zm6.41.85a5.23,5.23,0,0,1-7.37,0,5.15,5.15,0,0,1-1.48-3.73A5.15,5.15,0,0,1,115.86,13a5.2,5.2,0,0,1,7.36,0,5.15,5.15,0,0,1,1.49,3.72A5.19,5.19,0,0,1,123.23,20.48Z"/><path id="Fill-16" class="cls-3" d="M116.82,19.63l-.12.12a4,4,0,0,0,5.69,0,4.09,4.09,0,0,0,1.17-3,4.09,4.09,0,0,0-1.17-3,4,4,0,0,0-5.69,0,4.09,4.09,0,0,0-1.17,3,4.09,4.09,0,0,0,1.17,3l.24-.23a3.74,3.74,0,0,1-1.07-2.77A3.74,3.74,0,0,1,116.94,14h0a3.69,3.69,0,0,1,5.22,0,3.75,3.75,0,0,1,1.07,2.77,3.75,3.75,0,0,1-1.07,2.77,3.51,3.51,0,0,1-2.61,1.08,3.58,3.58,0,0,1-2.61-1.08Zm6.41.85-.12-.12a5.06,5.06,0,0,1-7.13,0h0a5,5,0,0,1-1.43-3.61A5,5,0,0,1,116,13.14a5,5,0,0,1,7.12,0,5,5,0,0,1,1.44,3.6,5,5,0,0,1-1.43,3.61l.24.23a5.28,5.28,0,0,0,1.52-3.84,5.28,5.28,0,0,0-1.53-3.84,5.36,5.36,0,0,0-7.6,0,5.28,5.28,0,0,0-1.52,3.84,5.28,5.28,0,0,0,1.52,3.84h0a5.37,5.37,0,0,0,7.61,0Z"/><polyline id="Fill-17" class="cls-3" points="126.52 21.77 126.52 11.72 128.09 11.72 132.97 19.54 133.03 19.54 132.97 17.61 132.97 11.72 134.26 11.72 134.26 21.77 132.91 21.77 127.81 13.58 127.75 13.58 127.81 15.52 127.81 21.77 126.52 21.77"/><polyline id="Fill-18" class="cls-3" points="126.52 21.77 126.69 21.77 126.69 11.89 128 11.89 132.88 19.71 133.2 19.71 133.14 17.6 133.14 11.89 134.09 11.89 134.09 21.61 133.01 21.61 127.9 13.41 127.58 13.41 127.64 15.52 127.64 21.61 126.52 21.61 126.52 21.77 126.69 21.77 126.52 21.77 126.52 21.94 127.98 21.94 127.98 15.51 127.92 13.57 127.75 13.58 127.75 13.74 127.81 13.74 127.81 13.58 127.67 13.67 132.82 21.94 134.43 21.94 134.43 11.56 132.8 11.56 132.8 17.61 132.86 19.55 133.03 19.54 133.03 19.38 132.97 19.38 132.97 19.54 133.11 19.45 128.18 11.56 126.35 11.56 126.35 21.94 126.52 21.94 126.52 21.77"/><path id="Fill-19" class="cls-3" d="M179,50.25h3.12V29.31H179Zm28.13-13.4-3.58,9.08h-.1l-3.72-9.08h-3.36L202,49.54l-3.18,7.06H202l8.59-19.75Zm-17.71,11c-1,0-2.45-.51-2.45-1.78,0-1.61,1.78-2.23,3.31-2.23a5.48,5.48,0,0,1,2.85.7A3.78,3.78,0,0,1,189.44,47.87Zm.38-11.47a5.86,5.86,0,0,0-5.58,3.2L187,40.76a3,3,0,0,1,2.85-1.54c1.62,0,3.26,1,3.28,2.7v.21a6.91,6.91,0,0,0-3.25-.8c-3,0-6,1.64-6,4.71,0,2.8,2.45,4.61,5.19,4.61a4.43,4.43,0,0,0,4-2h.1v1.61h3v-8C196.17,38.47,193.4,36.4,189.82,36.4Zm-19.31,3h-4.44V32.23h4.44a3.59,3.59,0,1,1,0,7.17Zm-.08-10.09H163V50.25h3.12V42.32h4.36a6.51,6.51,0,1,0,0-13ZM129.62,47.87a4.08,4.08,0,0,1-4-4.28,4.13,4.13,0,0,1,4-4.35c2.13,0,3.8,1.84,3.8,4.35A4,4,0,0,1,129.62,47.87ZM133.2,38h-.11a4.92,4.92,0,0,0-3.74-1.6,7.13,7.13,0,0,0,0,14.25,4.82,4.82,0,0,0,3.74-1.62h.11v1c0,2.72-1.45,4.18-3.8,4.18a4,4,0,0,1-3.59-2.54l-2.72,1.14a6.78,6.78,0,0,0,6.31,4.21c3.67,0,6.77-2.16,6.77-7.42V36.87h-3Zm5.13,12.22h3.13V29.31h-3.13Zm7.74-6.91a3.9,3.9,0,0,1,3.72-4.15,2.75,2.75,0,0,1,2.64,1.51ZM155.78,41a6.63,6.63,0,0,0-6.1-4.54A6.77,6.77,0,0,0,143,43.56,7,7,0,0,0,150,50.68,7.09,7.09,0,0,0,156,47.52l-2.43-1.61a4.08,4.08,0,0,1-3.51,2,3.61,3.61,0,0,1-3.45-2.15l9.52-3.94ZM79.93,38.62v3h7.22a6.32,6.32,0,0,1-1.64,3.81,7.41,7.41,0,0,1-5.58,2.21,8,8,0,0,1,0-16.08,7.65,7.65,0,0,1,5.44,2.16l2.14-2.14a10.57,10.57,0,0,0-7.58-3.05,11.07,11.07,0,1,0,0,22.13A9.79,9.79,0,0,0,90.26,40.51a9.68,9.68,0,0,0-.17-1.89Zm18.54,9.25a4.33,4.33,0,1,1,4-4.31A4.12,4.12,0,0,1,98.47,47.87Zm0-11.44a7.13,7.13,0,1,0,7.15,7.13A7,7,0,0,0,98.47,36.43Zm15.59,11.44a4.33,4.33,0,1,1,4-4.31A4.12,4.12,0,0,1,114.06,47.87Zm0-11.44a7.13,7.13,0,1,0,7.15,7.13A7,7,0,0,0,114.06,36.43Z"/><path id="Fill-20" class="cls-4" d="M17.47,12.64A3.35,3.35,0,0,0,16.7,15V52a3.35,3.35,0,0,0,.77,2.35l.12.12L38.32,33.74v-.48L17.59,12.52l-.12.12"/><g id="Group-23"><g class="cls-5"><path id="Fill-21" class="cls-6" d="M45.22,40.66l-6.9-6.92v-.48l6.91-6.92,8.34,4.74c2.33,1.33,2.33,3.51,0,4.84l-8.19,4.65-.16.09"/></g></g><g id="Group-26"><g class="cls-7"><path id="Fill-24" class="cls-8" d="M45.38,40.57,38.32,33.5,17.47,54.36c.77.81,2,.91,3.48.1L45.38,40.57"/></g></g><g id="Group-29"><g class="cls-9"><path id="Fill-27" class="cls-10" d="M45.38,26.43,21,12.54c-1.44-.81-2.71-.71-3.48.1L38.32,33.5l7.06-7.07"/></g></g></g></g></g></g></g></svg>