<svg xmlns="http://www.w3.org/2000/svg" viewBox="0 0 399 399"><defs><style>.cls-1{fill:#d4e1f4;}.cls-2{fill:#1ae5be;}.cls-3{fill:#6a52fd;}</style></defs><title>Secure storage</title><g id="Layer_2" data-name="Layer 2"><g id="Layer_1-2" data-name="Layer 1"><path class="cls-1" d="M19.72,341,132.58,228.16l.1.1,28.71-79.47a50,50,0,0,1,11.66-18.37l14.35-14.34a16.66,16.66,0,0,1,23.57,0L315.81,220.92l9.37-9.32a16.67,16.67,0,0,0,.06-23.57l0,0L211,73.75a16.67,16.67,0,0,0-23.56,0h0L173.05,88.1a49.89,49.89,0,0,0-11.66,18.37L132.68,186l-.1-.11L19.72,298.7a33.34,33.34,0,0,0-2.19,44.73c.69-.83,1.41-1.63,2.19-2.41Z"/><path class="cls-2" d="M76.73,399A43.23,43.23,0,0,1,46.1,386.34L12.66,352.89a43.37,43.37,0,0,1,0-61.25L125.52,178.78a10,10,0,0,1,14.12,14.11L26.77,305.75a23.38,23.38,0,0,0,0,33l33.45,33.45a23.38,23.38,0,0,0,33,0L206.1,259.36a10,10,0,0,1,14.12,14.11L107.35,386.34A43.17,43.17,0,0,1,76.73,399Z"/><path class="cls-3" d="M218,66.7a26.66,26.66,0,0,0-37.67,0L166,81.05a60.47,60.47,0,0,0-14,22l-28.8,79.75a10,10,0,0,0,2.35,10.47l80.58,80.12a9.94,9.94,0,0,0,10.44,2.3l79.51-28.93A60.41,60.41,0,0,0,317.86,233l14.36-14.28a26.63,26.63,0,0,0,.1-37.67l-.05-.05ZM318.15,204.52,303.79,218.8A40.18,40.18,0,0,1,289.25,228L215.7,254.81l-71.58-71.18,26.66-73.77a39.93,39.93,0,0,1,9.34-14.7l14.34-14.35a6.69,6.69,0,0,1,9.45,0h0L318.16,195.05a6.69,6.69,0,0,1,0,9.46l0,0Z"/><path class="cls-3" d="M136.65,248.24,112.4,272.49a10,10,0,0,0,14.11,14.11l24.25-24.26a10,10,0,0,0-14-14.16Z"/><path class="cls-3" d="M303.83,105.14a9.94,9.94,0,0,0,7.06-2.92l34.28-34.28a10,10,0,0,0-14.11-14.11L296.78,88.11a10,10,0,0,0,7.05,17Z"/><path class="cls-3" d="M386.05,127.92l-34.29,10.72a10,10,0,0,0,6,19L392,147a10,10,0,0,0-5.95-19Z"/><path class="cls-3" d="M247.87,53.78a10,10,0,0,0,12.49-6.53v0L271.08,13A10,10,0,0,0,252,7L241.32,41.29a10,10,0,0,0,6.55,12.49Z"/></g></g></svg>