<svg xmlns="http://www.w3.org/2000/svg" viewBox="0 0 478 399.97"><defs><style>.cls-1{fill:#d4e1f4;}.cls-2{fill:#6a52fd;}.cls-3{fill:#1ae5be;}</style></defs><title>Network Effect</title><g id="Layer_2" data-name="Layer 2"><g id="Layer_1-2" data-name="Layer 1"><path class="cls-1" d="M105.88,370A20.88,20.88,0,0,1,85,349.09V325.31s-34.51-17.91-34.51-40V225.54a39.91,39.91,0,0,1,5.36-20H50.5a40,40,0,0,0-40,40v59.77c0,22.09,34.51,40,34.51,40v23.78A20.88,20.88,0,0,0,65.88,390H412.12A20.86,20.86,0,0,0,433,370Z"/><path class="cls-2" d="M427.5,196H249V93.89a10,10,0,1,0-20,0V196H50.5C22.93,196,0,218,0,245.54v59.77c0,22.17,15,41,35,47.53v16.25A30.92,30.92,0,0,0,65.88,400H412.12A30.92,30.92,0,0,0,443,369.09V352.84c20-6.54,35-25.36,35-47.53V245.54C478,218,455.07,196,427.5,196ZM412.12,380H65.88A10.89,10.89,0,0,1,55,369.09V355H423v14.12A10.9,10.9,0,0,1,412.12,380ZM457,306a30,30,0,0,1-30,30H50a30,30,0,0,1-30-30V246a30,30,0,0,1,30-30H427a30,30,0,0,1,30,30Z"/><path class="cls-3" d="M240,103.89H238a33.65,33.65,0,0,1-33.61-33.61V68.21A33.65,33.65,0,0,1,238,34.6H240a33.65,33.65,0,0,1,33.61,33.61v2.07A33.65,33.65,0,0,1,240,103.89ZM238,54.59a13.63,13.63,0,0,0-13.61,13.62v2.07A13.63,13.63,0,0,0,238,83.89H240a13.63,13.63,0,0,0,13.61-13.61V68.21A13.63,13.63,0,0,0,240,54.59Z"/><path class="cls-2" d="M312.5,110.64a10,10,0,0,1-7-17.11,38.06,38.06,0,0,0,0-53.82,10,10,0,0,1,14.13-14.15,58.07,58.07,0,0,1,.05,82.12l-.19.17a9.9,9.9,0,0,1-6.93,2.79Z"/><path class="cls-3" d="M357.51,133.23a10,10,0,0,1-7.07-17.07,70.18,70.18,0,0,0,0-99.12A10,10,0,0,1,364.58,2.9a90.21,90.21,0,0,1,0,127.4,10,10,0,0,1-7.07,2.93Z"/><path class="cls-2" d="M165.5,110.57a10,10,0,0,1-7.07-2.93,58.07,58.07,0,0,1,0-82.11l7.11,7,7.07,7.07a38.05,38.05,0,0,0,0,53.82l0,0a10,10,0,0,1-7.07,17.07Z"/><path class="cls-3" d="M120.49,133.23a9.93,9.93,0,0,1-7.07-2.93,90.21,90.21,0,0,1,0-127.4A10,10,0,0,1,127.56,17a70.19,70.19,0,0,0,0,99.13,10,10,0,0,1-7.07,17.07Z"/><path class="cls-3" d="M93.23,305.76a31.14,31.14,0,1,1,31.13-31.13,31.14,31.14,0,0,1-31.13,31.13Zm0-42.27a11.14,11.14,0,1,0,11.13,11.14,11.14,11.14,0,0,0-11.13-11.14Z"/><path class="cls-3" d="M173.91,305.76a31.14,31.14,0,1,1,31.14-31.13,31.13,31.13,0,0,1-31.14,31.13Zm0-42.27a11.14,11.14,0,1,0,11.14,11.14,11.14,11.14,0,0,0-11.14-11.14Z"/></g></g></svg>