<svg xmlns="http://www.w3.org/2000/svg" viewBox="0 0 345.05 483"><defs><style>.cls-1{fill:#d4e1f4;}.cls-2{fill:#1ae5be;}.cls-3{fill:#6a52fd;}</style></defs><title>Systematic trading</title><g id="Layer_2" data-name="Layer 2"><g id="Layer_1-2" data-name="Layer 1"><path class="cls-1" d="M168.2,453.24c-25.55,0-41.19-28-27.77-49.77l70.34-114a52.16,52.16,0,0,0,7.78-27.42V242.73a6.86,6.86,0,0,0-6.86-6.86,6.86,6.86,0,0,1-6.86-6.86V217.37H171.44a6.51,6.51,0,0,0-6.52,6.52V249a6.86,6.86,0,0,0,6.86,6.86,6.86,6.86,0,0,1,6.85,6.86V282a52.18,52.18,0,0,1-7.78,27.41l-70.34,114c-13.41,21.75,2.22,49.77,27.77,49.77H302.42a32.38,32.38,0,0,0,30.06-20Z"/><path class="cls-2" d="M258.59,265.81H172.11a10,10,0,0,1,0-20h86.48a10,10,0,1,1,0,20Z"/><path class="cls-1" d="M47.44,204.39a32.2,32.2,0,0,1,0-45.56L161.76,44.51a21.71,21.71,0,0,0,4.88-7.5l2.55-6.66L148.81,10,138.4,37a21.26,21.26,0,0,1-4.87,7.5L19.21,158.83a32.22,32.22,0,0,0,36.9,51.74,31.6,31.6,0,0,1-8.67-6.18Z"/><path class="cls-2" d="M165.49,113.85a10,10,0,0,1-1.44-.1L84.7,102.31a10,10,0,1,1,2.85-19.76L166.9,94a10,10,0,0,1-1.41,19.85Z"/><path class="cls-2" d="M218.25,196.39a41,41,0,0,1-29-70l21.94-21.94a10,10,0,0,1,14.11,0l21.94,21.94a41,41,0,0,1-29,70Zm0-70.75-14.88,14.88a21.05,21.05,0,1,0,29.77,0Z"/><path class="cls-3" d="M268.44,304.19A42.09,42.09,0,0,1,262.25,282v-16.5a16.91,16.91,0,0,0,14-16.55V223.89c0-9.1-7.85-16.32-17-16.32H171.44c-9.1,0-17,7.22-17,16.32V249a16.93,16.93,0,0,0,14,16.55V282a42.09,42.09,0,0,1-6.19,22.17L92,418.18A42.5,42.5,0,0,0,128.28,483H302.42a42.54,42.54,0,0,0,36.31-64.86ZM322.2,451.51A22.3,22.3,0,0,1,302.42,463H128.28A22.55,22.55,0,0,1,109,428.62l70.24-114A61.89,61.89,0,0,0,188.4,282V262.69a16.92,16.92,0,0,0-14-16.55V227.52h81.82v18.62a16.9,16.9,0,0,0-14,16.55V282a62,62,0,0,0,9.16,32.65l70.29,114a22.3,22.3,0,0,1,.45,22.89Z"/><path class="cls-3" d="M190.18,94.51l27-10.4a10,10,0,0,0,3.47-16.36L155.86,2.92A10,10,0,0,0,139.5,6.39l-10.41,27a11.37,11.37,0,0,1-2.62,4L12.15,151.77a42.2,42.2,0,0,0,59.68,59.68L186.15,97.13a11.55,11.55,0,0,1,4-2.62ZM172,83,57.72,197.34a22.24,22.24,0,1,1-31.45-31.45L140.58,51.57a31.34,31.34,0,0,0,7.14-11l4.89-12.7L195.72,71,183,75.89A31.23,31.23,0,0,0,172,83Z"/></g></g></svg>