<svg xmlns="http://www.w3.org/2000/svg" viewBox="0 0 391.1 512"><defs><style>.cls-1{fill:#40f4d2;}.cls-2{fill:#717bdb;}.cls-3{fill:#6a52fd;}.cls-4{fill:#14e3ba;}</style></defs><title>Get Paid</title><g id="Layer_2" data-name="Layer 2"><g id="Layer_1-2" data-name="Layer 1"><path class="cls-1" d="M326,85.85c-8.35-5.37-16.13-11.31-20.31-20.76a1.77,1.77,0,0,1-.76-.32q-29.48,29.85-59,59.7a17.81,17.81,0,0,0-5.34,13.47c.14,8.66,0,17.32-.07,26l-.11,33.5.39,3.57q0,9,0,18c-.05,2.33-.23,4.66-.14,7,.32,8.56,6.74,15,14.92,15s14.67-6.35,15-14.9c.17-4.32.12-8.66.17-13q-.14-10.5-.26-21,.17-6.23.35-12.44c-.14-1.88-.27-3.75-.4-5.63.06-9,.28-18,.1-26.91a10.41,10.41,0,0,1,3.31-8.29C291.34,121.23,308.65,103.51,326,85.85Z"/><path class="cls-1" d="M210.87,149.62l-.39-5.63.06-56.31c-6.53,1.44-13.08,2.7-19.83,2.24a19.44,19.44,0,0,1-4.7,6.46,19.44,19.44,0,0,0,4.7-6.46,6,6,0,0,0-.22-.83c-3.38.49-6.46-1-9.71-1.4l.06,12.32-.39,49.55.33,21.43-.25,4q0,4.05,0,8.08l.3,5.92c-.06,11.66-.17,23.32-.17,35,0,10.16,6.05,16.95,15,17s15-6.79,15-16.9q.1-20.49.14-41-.14-10.51-.26-21Q210.71,155.83,210.87,149.62Zm-26.33-52a24.81,24.81,0,0,1-2.11,1.48A24.81,24.81,0,0,0,184.54,97.62Z"/><path class="cls-2" d="M240.43,197.42q.06-16.75.11-33.5l-29.67-14.3-.34,12.44q.14,10.51.26,21Z"/><path class="cls-2" d="M165.64,190l14.9-6.86q0-4,0-8.08c.08-1.34.16-2.68.25-4l-.33-21.43-29.67,14.36q.06,16.74.11,33.5A113.35,113.35,0,0,0,165.64,190Z"/><path class="cls-3" d="M360.51,373l0-19q0-35.49,0-71,0-9.51,0-19h0c.06-10.33.23-20.66.12-31a13.54,13.54,0,0,0-7.32-12.28c-5.08-2.79-10.41-5.13-15.63-7.67a4.52,4.52,0,0,1-.16.86,4.52,4.52,0,0,0,.16-.86,62.67,62.67,0,0,0-12-6c-18-9.58-36.34-18.63-54.77-27.41l-.35,12.44.26,21,33.72,16.42a7.36,7.36,0,0,1,1.63-2.51,7.36,7.36,0,0,0-1.63,2.51l7.26,4.05-29.24,14.89a4.68,4.68,0,0,1,0,.92,4.68,4.68,0,0,0,0-.92c-2.82,1.36-5.66,2.69-8.46,4.08q-37.15,18.57-74.27,37.23c-3,1.51-5.37,1.6-8.31,0-4.49-2.46-9.21-4.49-13.84-6.69-4.18-2.3-8.05-5.31-13-5.91a14.15,14.15,0,0,0-2.59-2.16q-22.18-11-44.42-21.93a61.73,61.73,0,0,0-12-6L79.31,233.36l41.23-20.27q0-16.76-.11-33.5l-39.94,20c-13.95,6.89-27.95,13.67-41.82,20.71-5.28,2.68-8,7.35-8,13.35,0,5.13.11,10.27.16,15.4q0,36,0,72,0,9.51,0,19v71c.21,5.72-1.48,11.62,1.62,17.07.74,3.36,3.14,5.48,6,6.9,13.38,6.75,26.84,13.35,40.28,20q8.52-8.76,17-17.5-8.53,8.73-17,17.5l12.8,6.55L138.67,485l12.8,6.54a7,7,0,0,1,.15-.69,7,7,0,0,0-.15.69c11.47,5.8,23,11.56,34.39,17.46,1.14.59,3.77.31,2.8,3h14c-1.55-2,.72-2,1.48-2.41,3.45-2,7-3.77,10.51-5.63,10.23-4.53,20.19-9.6,30-15h0c4.77-2.29,9.58-4.52,14.32-6.88q45.45-22.68,90.9-45.36c6.48-3.21,10.75-7.8,10.75-15.35C360.65,405.26,360.56,389.14,360.51,373ZM180.7,468.87c.17,3.33-.92,3.71-3.57,2.12a36.58,36.58,0,0,0-4.48-2c-2.25,2.63-4.65,5.13-7.13,7.53,2.48-2.4,4.88-4.9,7.13-7.53a92.45,92.45,0,0,0-14-7l-46.85-23.51L98.66,432c-10.75-5.47-21.4-11.16-32.31-16.29-4.3-2-6.7-4.31-5.72-9.24a15.51,15.51,0,0,0-.12-3.46l0-19q0-35.49,0-71l0-19V257.87l24,11.64h0L97.66,276l46.84,23.51L157.66,306c6.33,3.27,12.56,6.73,19,9.72,3,1.39,4.14,3,4.07,6.35-.21,9.64,0,19.28.07,28.92q0,9.51,0,19,0,35.49,0,71,0,9,0,18C180.78,462.3,180.54,465.6,180.7,468.87Zm136.42-49.24c-5.05,1.81-9.65,4.9-14.45,7.41l-36.93,18.27a4.8,4.8,0,0,1-.33,1.79,4.8,4.8,0,0,0,.33-1.79c-1.18.57-2.36,1.13-3.53,1.71l-51.7,25.71V433l0-19q0-35.49,0-71,0-9.51,0-19c-.9-5.13,1.76-7.7,6.29-9.31,2.42-.86,4.59-2.46,6.87-3.72l38.93-19.27,68.24-33.9V291q0,9.51,0,19,0,35.49,0,71,0,9,0,18C333.47,410.69,327,416.06,317.12,419.63Z"/><path class="cls-1" d="M150.48,204c.14-2.19.27-4.38.41-6.57q-.06-16.75-.11-33.5-.21-15-.43-29.9c-.58-5.88-4.58-9.47-8.71-13q-16.87-18-34.7-35.16A86.62,86.62,0,0,0,96.85,75.61L86.41,64.76A57.5,57.5,0,0,1,65.32,85.85L76.63,97.09a81.22,81.22,0,0,0,9.94,10.12q17.06,17.39,34.1,34.79.09,9,.17,18-.21,9.8-.41,19.58.06,16.75.11,33.5c.73,5.62-1,11.39,1.06,16.93,1.37,5.85,5.12,9.19,10.92,10.37,11,2,18.48-5.2,18-17.38Z"/><path class="cls-4" d="M45.44,0A45.45,45.45,0,1,0,90.89,45.44,45.45,45.45,0,0,0,45.44,0Zm0,61.08A15.64,15.64,0,1,1,61.08,45.44,15.63,15.63,0,0,1,45.44,61.08Z"/><path class="cls-4" d="M195.66,0a45.45,45.45,0,1,0,45.45,45.44A45.45,45.45,0,0,0,195.66,0Zm0,61.08A15.64,15.64,0,1,1,211.3,45.44,15.63,15.63,0,0,1,195.66,61.08Z"/><path class="cls-4" d="M345.66,0A45.45,45.45,0,1,0,391.1,45.44,45.44,45.44,0,0,0,345.66,0Zm0,61.08A15.64,15.64,0,1,1,361.3,45.44,15.64,15.64,0,0,1,345.66,61.08Z"/><path class="cls-4" d="M270.87,329.29a27.23,27.23,0,1,0,27.23,27.22A27.22,27.22,0,0,0,270.87,329.29Zm0,36.59a9.37,9.37,0,1,1,9.37-9.37A9.37,9.37,0,0,1,270.87,365.88Z"/><path class="cls-4" d="M123.66,329.29a27.23,27.23,0,1,0,27.23,27.22A27.22,27.22,0,0,0,123.66,329.29Zm0,36.59a9.37,9.37,0,1,1,9.37-9.37A9.37,9.37,0,0,1,123.66,365.88Z"/></g></g></svg>