<svg xmlns="http://www.w3.org/2000/svg" viewBox="0 0 50 46.88"><defs><style>.cls-1{fill:#40f4d2;}.cls-2{fill:#6a52fd;}.cls-3{fill:#14e3ba;}</style></defs><title>Get Payment Notification</title><g id="Layer_2" data-name="Layer 2"><g id="Layer_1-2" data-name="Layer 1"><path class="cls-1" d="M16.94,34.54q-2,3-4,6a1.74,1.74,0,0,1-1.56.83c-1,0-2,0-3,0,0,0,0,.06,0,.09a3.77,3.77,0,0,1,.14,2.46c0,.12-.06.25-.08.38a26.17,26.17,0,0,0,4.15-.12A4,4,0,0,0,15,42.68a22.39,22.39,0,0,0,1.77-2.63l2.82-4.17Z"/><path class="cls-1" d="M41.4,43.47a4,4,0,0,1,0-1.57,3.5,3.5,0,0,0-.49.37,3.5,3.5,0,0,1,.49-.37l.15-.58h-3a1.58,1.58,0,0,1-1.4-.73l-.59-.84a7.83,7.83,0,0,0-.79-1.18c-.84-1.34-1.72-2.65-2.62-3.94L33,34.53l-.79.49h0a15.06,15.06,0,0,0-1.76.86l.48.65c.87,1.4,1.79,2.76,2.73,4.11a8,8,0,0,0,.8,1.19A4.51,4.51,0,0,0,39,44.24h2.49C41.52,44,41.36,43.75,41.4,43.47Z"/><path class="cls-1" d="M41.52,3c-.86,0-1.73,0-2.59,0a3.66,3.66,0,0,0-1.36.11A3.8,3.8,0,0,0,35,4.63a33,33,0,0,0-2.14,3.2L30.4,11.4l2.66,1.34c1.31-2,2.63-3.93,3.93-5.91A1.76,1.76,0,0,1,38.63,6c1,0,1.93,0,2.89,0A5.36,5.36,0,0,1,41.52,3Z"/><path class="cls-1" d="M19.21,10.88q-1.32-2.1-2.75-4.12a7.77,7.77,0,0,0-.78-1.18,4.5,4.5,0,0,0-4.52-2.53H8.47c.06.22.11.45.16.67l0,.2c.23.56,0,1.11,0,1.67a.07.07,0,0,0,0,.06l-.07.13a1.62,1.62,0,0,0,0,.19c1,0,2,0,3,0A1.65,1.65,0,0,1,13,6.78c.2.3.41.58.61.87a8.35,8.35,0,0,0,.8,1.2c.81,1.3,1.67,2.57,2.55,3.82.14.12.27,0,.41,0l.79-.49a5.24,5.24,0,0,0,1.47-.75Z"/><path class="cls-2" d="M38.24,29.24V20.4h0V18.54c0-.77,0-1.53,0-2.29A1.35,1.35,0,0,0,37.51,15c-.66-.35-1.34-.66-2-1a5.66,5.66,0,0,0-1.18-.59l-1.26-.7L30.4,11.4l-.79-.32a6.2,6.2,0,0,0-1.18-.59c-.94-.48-1.87-1-2.82-1.43a1.32,1.32,0,0,0-1.22,0l-3.22,1.63-1.57.71a5.24,5.24,0,0,1-1.47.75l-.79.49h0c-.14,0-.27.15-.41,0,0,.2-.23.22-.37.29L12.68,14.9a1.54,1.54,0,0,0-.93,1.53c0,.6,0,1.21,0,1.81v10.7c0,.67,0,1.35,0,2a1.45,1.45,0,0,0,.81,1.35c.67.35,1.35.67,2,1l1.29.64,1.07.59,2.66,1.34.87.37h0l1.29.64c.89.45,1.77.92,2.66,1.35a1.27,1.27,0,0,0,1.14,0l3.66-1.85,1.18-.52A15.06,15.06,0,0,1,32.16,35l.79-.49.13.09c0-.21.22-.22.35-.29,1.28-.65,2.56-1.29,3.85-1.92a1.62,1.62,0,0,0,1-1.61C38.24,30.28,38.24,29.76,38.24,29.24Zm-13.57-17a.64.64,0,0,1,.68,0c.33.18.67.33,1,.49l1.29.63c1.51.81,3.05,1.57,4.6,2.31l1,.5c.1.05.23.08.15.24a.89.89,0,0,0-.4.2l-3.84,1.9c-1.27.63-2.53,1.25-3.79,1.89a.62.62,0,0,1-.63,0c-1-.5-2-1-2.93-1.45a6.84,6.84,0,0,0-1.18-.59l-3.95-2c0-.18.17-.18.28-.23C19.49,14.79,22.09,13.5,24.67,12.19ZM17.83,31.7a5.84,5.84,0,0,0-1.17-.59,13.08,13.08,0,0,0-1.34-.69.87.87,0,0,1-.64-1c.05-1,0-2.08,0-3.12V18.67l3.83,1.88,1.29.64c.91.46,1.8,1,2.74,1.37.74.32,1.17.73,1,1.57V34.44c-.4,0-.65-.32-1-.39C21,33.23,19.43,32.43,17.83,31.7Zm8.63,2.81V23.35c0-.46.46-.4.68-.61l8.18-4.07V30c-.06.14-.23.15-.32.25Z"/><path class="cls-3" d="M4.46,0A4.46,4.46,0,1,0,8.92,4.46,4.46,4.46,0,0,0,4.46,0Zm0,6A1.54,1.54,0,1,1,6,4.46,1.53,1.53,0,0,1,4.46,6Z"/><path class="cls-3" d="M4.46,38a4.46,4.46,0,1,0,4.46,4.46A4.46,4.46,0,0,0,4.46,38Zm0,6A1.54,1.54,0,1,1,6,42.42,1.53,1.53,0,0,1,4.46,44Z"/><path class="cls-3" d="M45.54,0A4.46,4.46,0,1,0,50,4.46,4.46,4.46,0,0,0,45.54,0Zm0,6a1.54,1.54,0,1,1,0-3.07,1.54,1.54,0,0,1,0,3.07Z"/><path class="cls-3" d="M45.54,38A4.46,4.46,0,1,0,50,42.42,4.46,4.46,0,0,0,45.54,38Zm0,6a1.54,1.54,0,1,1,0-3.07,1.54,1.54,0,0,1,0,3.07Z"/></g></g></svg>