<?xml version="1.0" encoding="utf-8"?>
<!-- Generator: Adobe Illustrator 23.0.0, SVG Export Plug-In . SVG Version: 6.00 Build 0)  -->
<svg  version="1.1" id="Ñëîé_1" xmlns="http://www.w3.org/2000/svg" xmlns:xlink="http://www.w3.org/1999/xlink" x="0px" y="0px"
	 viewBox="0 0 1600 546" style="enable-background:new 0 0 1600 546;" xml:space="preserve">
<style type="text/css">
	.st0{display:none;}
	.st1{display:inline;}
	.st2{enable-background:new    ;}
	.st3{fill:url(#SVGID_1_);}
	.st4{fill:url(#SVGID_2_);}
	.st5{fill:#FFFFFF;}
	.st6{fill:url(#SVGID_3_);}
	.st7{fill:url(#SVGID_4_);}
	.st8{fill:url(#SVGID_5_);}
	.st9{fill:url(#SVGID_6_);}
	.st10{fill:url(#SVGID_7_);}
	.st11{fill:url(#SVGID_8_);}
	.st12{fill:url(#SVGID_9_);}
	.st13{fill:url(#SVGID_10_);}
	.st14{fill:url(#SVGID_11_);}
	.st15{fill:url(#SVGID_12_);}
	.st16{fill:url(#SVGID_13_);}
	.st17{fill:url(#SVGID_14_);}
	.st18{fill:url(#SVGID_15_);}
	.st19{fill:url(#SVGID_16_);}
	.st20{fill:url(#SVGID_17_);}
	.st21{fill:url(#SVGID_18_);}
	.st22{fill:url(#SVGID_19_);}
	.st23{fill:url(#SVGID_20_);}
	.st24{fill:url(#SVGID_21_);}
	.st25{fill:url(#SVGID_22_);}
	.st26{fill:url(#SVGID_23_);}
	.st27{fill:url(#SVGID_24_);}
	.st28{fill:url(#SVGID_25_);}
	.st29{fill:url(#SVGID_26_);}
	.st30{fill:url(#SVGID_27_);}
	.st31{fill:url(#SVGID_28_);}
	.st32{fill:url(#SVGID_29_);}
</style>
<g>
	<g>
		<g class="st0">
			<g class="st1">
				<g>
					<g class="st2">
						<linearGradient id="SVGID_1_" gradientUnits="userSpaceOnUse" x1="1331.6063" y1="-823.7726" x2="1339.6926" y2="-823.7726">
							<stop  offset="0" style="stop-color:#58258C"/>
							<stop  offset="1" style="stop-color:#FFFFFF"/>
						</linearGradient>
						<path class="st3" d="M1338-827.2c-0.5-0.3-0.9-0.3-1.2-0.1l-5.2,3c0.3-0.2,0.7-0.2,1.2,0.1c0.9,0.5,1.7,1.8,1.7,2.9
							c0,0.5-0.2,0.9-0.5,1.1l5.2-3c0.3-0.2,0.5-0.6,0.5-1.1C1339.7-825.3,1338.9-826.6,1338-827.2z"/>
						<g>
							<linearGradient id="SVGID_2_" gradientUnits="userSpaceOnUse" x1="1331.1146" y1="-822.2036" x2="1334.4895" y2="-822.2036">
								<stop  offset="0" style="stop-color:#58258C"/>
								<stop  offset="1" style="stop-color:#FFFFFF"/>
							</linearGradient>
							<path class="st4" d="M1332.8-824.1c0.9,0.5,1.7,1.8,1.7,2.9c0,1.1-0.8,1.5-1.7,1c-0.9-0.5-1.7-1.8-1.7-2.9
								C1331.1-824.2,1331.9-824.7,1332.8-824.1z"/>
						</g>
					</g>
				</g>
				<g>
					<polygon class="st5" points="1326.8,-839.3 1342.4,-828.2 1355.9,-821.8 1342.3,-814 1324.6,-838 					"/>
				</g>
				<g>
					<linearGradient id="SVGID_3_" gradientUnits="userSpaceOnUse" x1="1362.5085" y1="-836.2599" x2="1375.8461" y2="-836.2599">
						<stop  offset="0" style="stop-color:#FFFFFF"/>
						<stop  offset="1" style="stop-color:#58258C"/>
					</linearGradient>
					<polygon class="st6" points="1375.8,-835.9 1370.1,-830.7 1362.5,-840.7 1364.3,-841.8 					"/>
				</g>
				<linearGradient id="SVGID_4_" gradientUnits="userSpaceOnUse" x1="1355.1616" y1="-811.5152" x2="1348.1891" y2="-822.1401">
					<stop  offset="0" style="stop-color:#58258C"/>
					<stop  offset="1" style="stop-color:#FFFFFF"/>
				</linearGradient>
				<path class="st7" d="M1375.8-835.9l-9.5,4.1c-0.7,0.3-1.5,0.7-2.2,1.1l-35.5,20.5c-0.4,0.2-0.7,0.5-0.9,0.9
					c-0.1,0.1-0.1,0.2-0.2,0.3c-0.1,0.1-0.1,0.3-0.2,0.4c0,0.1-0.1,0.2-0.1,0.2c-0.1,0.1-0.1,0.2-0.2,0.3c0,0.1-0.1,0.2-0.1,0.2
					c0,0.1-0.1,0.1-0.1,0.2c-0.2,0.4-0.5,0.8-0.7,1.2c0,0,0,0.1-0.1,0.1c-0.1,0.1-0.1,0.2-0.2,0.4c0,0.1-0.1,0.1-0.1,0.2
					c-0.1,0.1-0.1,0.3-0.2,0.4v0l0,0c0,0-3.1,4-1.2,5.4c2,1.5,7.4-0.1,8.6-0.5c0.1,0,0.1,0,0.2-0.1c0.1,0,0.1,0,0.1,0s0,0,0,0
					c0.1-0.1,0.2-0.1,0.4-0.2l36.3-22.6c1.2-0.7,2.3-1.6,3.4-2.6l5.9-5.5v-2.7L1375.8-835.9z"/>
				<linearGradient id="SVGID_5_" gradientUnits="userSpaceOnUse" x1="1326.8811" y1="-809.4901" x2="1332.715" y2="-803.7574">
					<stop  offset="0" style="stop-color:#58258C"/>
					<stop  offset="1" style="stop-color:#151B4E"/>
				</linearGradient>
				<path class="st8" d="M1334.1-805.3L1334.1-805.3c0.2-0.6-0.2-1.2-0.9-1.3c-3.6-0.3-5-1.5-5.6-2.4c0,0,0,0,0,0
					c-0.1,0.1-0.1,0.3-0.2,0.4c0,0.1-0.1,0.2-0.1,0.2c-0.1,0.1-0.1,0.2-0.2,0.3c0,0.1-0.1,0.2-0.1,0.2c0,0.1-0.1,0.1-0.1,0.2
					c-0.1,0.2-0.2,0.4-0.3,0.6l0.7,1.3c0.3,0.5,0.9,0.9,1.5,0.9l4.4,0.1C1333.5-804.6,1333.9-804.9,1334.1-805.3z"/>
				<g>
					<g class="st2">
						<linearGradient id="SVGID_6_" gradientUnits="userSpaceOnUse" x1="1359.4446" y1="-806.7072" x2="1367.5309" y2="-806.7072">
							<stop  offset="0" style="stop-color:#58258C"/>
							<stop  offset="1" style="stop-color:#FFFFFF"/>
						</linearGradient>
						<path class="st9" d="M1365.8-810.1c-0.5-0.3-0.9-0.3-1.2-0.1l-5.2,3c0.3-0.2,0.7-0.2,1.2,0.1c0.9,0.5,1.7,1.8,1.7,2.9
							c0,0.5-0.2,0.9-0.5,1.1l5.2-3c0.3-0.2,0.5-0.6,0.5-1.1C1367.5-808.3,1366.8-809.6,1365.8-810.1z"/>
						<g>
							<linearGradient id="SVGID_7_" gradientUnits="userSpaceOnUse" x1="1358.9529" y1="-805.1381" x2="1362.3276" y2="-805.1381">
								<stop  offset="0" style="stop-color:#58258C"/>
								<stop  offset="1" style="stop-color:#FFFFFF"/>
							</linearGradient>
							<path class="st10" d="M1360.6-807.1c0.9,0.5,1.7,1.8,1.7,2.9c0,1.1-0.8,1.5-1.7,1c-0.9-0.5-1.7-1.8-1.7-2.9
								C1359-807.2,1359.7-807.6,1360.6-807.1z"/>
						</g>
					</g>
				</g>
				<g>
					<linearGradient id="SVGID_8_" gradientUnits="userSpaceOnUse" x1="1349.0388" y1="-816.9329" x2="1394.2188" y2="-799.0094">
						<stop  offset="0" style="stop-color:#58258C"/>
						<stop  offset="1" style="stop-color:#FFFFFF"/>
					</linearGradient>
					<path class="st11" d="M1390.2-802.2l-2.2,1.3l-38.3-9.4c-1.2-0.3-1.5-1.9-0.4-2.6l9.8-5.7c0.5-0.3,1.1-0.2,1.5,0.1l10.4,7.3
						L1390.2-802.2z"/>
				</g>
				<g>
					<g class="st2">
						<g>
							<linearGradient id="SVGID_9_" gradientUnits="userSpaceOnUse" x1="1376.4498" y1="-843.126" x2="1379.8102" y2="-843.126">
								<stop  offset="0" style="stop-color:#58258C"/>
								<stop  offset="1" style="stop-color:#FFFFFF"/>
							</linearGradient>
							<polygon class="st12" points="1377,-842.2 1376.4,-842.5 1379.3,-844.1 1379.8,-843.8 							"/>
						</g>
						<g>
							<linearGradient id="SVGID_10_" gradientUnits="userSpaceOnUse" x1="1370.101" y1="-836.4487" x2="1376.9719" y2="-836.4487">
								<stop  offset="0" style="stop-color:#58258C"/>
								<stop  offset="1" style="stop-color:#FFFFFF"/>
							</linearGradient>
							<polygon class="st13" points="1370.6,-830.4 1370.1,-830.7 1376.4,-842.5 1377,-842.2 							"/>
						</g>
						<g>
							<polygon class="st5" points="1377,-842.2 1379.8,-843.8 1377.9,-834.7 1374,-832.4 1370.6,-830.4 							"/>
						</g>
					</g>
				</g>
				<g>
					<linearGradient id="SVGID_11_" gradientUnits="userSpaceOnUse" x1="1372.2007" y1="-829.9096" x2="1391.1219" y2="-829.9096">
						<stop  offset="0" style="stop-color:#58258C"/>
						<stop  offset="1" style="stop-color:#FFFFFF"/>
					</linearGradient>
					<polygon class="st14" points="1379,-834 1391.1,-826.8 1389.3,-825.8 1372.2,-830 					"/>
				</g>
				<g>
					<g>
						<g>

								<linearGradient id="SVGID_12_" gradientUnits="userSpaceOnUse" x1="1340.4026" y1="-805.645" x2="1341.2501" y2="-805.645" gradientTransform="matrix(0.9995 -3.280000e-02 3.280000e-02 0.9995 24.2283 41.6867)">
								<stop  offset="0" style="stop-color:#58258C"/>
								<stop  offset="1" style="stop-color:#151B4E"/>
							</linearGradient>
							<path class="st15" d="M1337.9-808.2c0.2-0.1,0.4,0,0.4,0.2l0,0.4c0,0.3-0.2,0.6-0.4,0.7c-0.2,0.1-0.4,0-0.4-0.2l0-0.4
								C1337.5-807.7,1337.7-808.1,1337.9-808.2z"/>
						</g>
						<g>

								<linearGradient id="SVGID_13_" gradientUnits="userSpaceOnUse" x1="1341.8492" y1="-806.4806" x2="1342.6968" y2="-806.4806" gradientTransform="matrix(0.9995 -3.280000e-02 3.280000e-02 0.9995 24.2283 41.6867)">
								<stop  offset="0" style="stop-color:#58258C"/>
								<stop  offset="1" style="stop-color:#151B4E"/>
							</linearGradient>
							<path class="st16" d="M1339.4-809.1c0.2-0.1,0.4,0,0.4,0.2l0,0.4c0,0.3-0.2,0.6-0.4,0.7c-0.2,0.1-0.4,0-0.4-0.2l0-0.4
								C1338.9-808.6,1339.1-809,1339.4-809.1z"/>
						</g>
						<g>

								<linearGradient id="SVGID_14_" gradientUnits="userSpaceOnUse" x1="1343.2976" y1="-807.3161" x2="1344.1436" y2="-807.3161" gradientTransform="matrix(0.9995 -3.280000e-02 3.280000e-02 0.9995 24.2283 41.6867)">
								<stop  offset="0" style="stop-color:#58258C"/>
								<stop  offset="1" style="stop-color:#151B4E"/>
							</linearGradient>
							<path class="st17" d="M1340.8-810c0.2-0.1,0.4,0,0.4,0.2l0,0.4c0,0.3-0.2,0.6-0.4,0.7c-0.2,0.1-0.4,0-0.4-0.2l0-0.4
								C1340.4-809.5,1340.5-809.8,1340.8-810z"/>
						</g>
						<g>

								<linearGradient id="SVGID_15_" gradientUnits="userSpaceOnUse" x1="1344.7443" y1="-808.1512" x2="1345.5902" y2="-808.1512" gradientTransform="matrix(0.9995 -3.280000e-02 3.280000e-02 0.9995 24.2283 41.6867)">
								<stop  offset="0" style="stop-color:#58258C"/>
								<stop  offset="1" style="stop-color:#151B4E"/>
							</linearGradient>
							<path class="st18" d="M1342.2-810.9c0.2-0.1,0.4,0,0.4,0.2l0,0.4c0,0.3-0.2,0.6-0.4,0.7c-0.2,0.1-0.4,0-0.4-0.2l0-0.4
								C1341.8-810.4,1342-810.7,1342.2-810.9z"/>
						</g>
						<g>

								<linearGradient id="SVGID_16_" gradientUnits="userSpaceOnUse" x1="1346.1909" y1="-808.9865" x2="1347.0369" y2="-808.9865" gradientTransform="matrix(0.9995 -3.280000e-02 3.280000e-02 0.9995 24.2283 41.6867)">
								<stop  offset="0" style="stop-color:#58258C"/>
								<stop  offset="1" style="stop-color:#151B4E"/>
							</linearGradient>
							<path class="st19" d="M1343.6-811.7c0.2-0.1,0.4,0,0.4,0.2l0,0.4c0,0.3-0.2,0.6-0.4,0.7c-0.2,0.1-0.4,0-0.4-0.2l0-0.4
								C1343.2-811.3,1343.4-811.6,1343.6-811.7z"/>
						</g>
						<g>

								<linearGradient id="SVGID_17_" gradientUnits="userSpaceOnUse" x1="1347.6377" y1="-809.8217" x2="1348.4835" y2="-809.8217" gradientTransform="matrix(0.9995 -3.280000e-02 3.280000e-02 0.9995 24.2283 41.6867)">
								<stop  offset="0" style="stop-color:#58258C"/>
								<stop  offset="1" style="stop-color:#151B4E"/>
							</linearGradient>
							<path class="st20" d="M1345-812.6c0.2-0.1,0.4,0,0.4,0.2l0,0.4c0,0.3-0.2,0.6-0.4,0.7c-0.2,0.1-0.4,0-0.4-0.2l0-0.4
								C1344.6-812.2,1344.8-812.5,1345-812.6z"/>
						</g>
						<g>

								<linearGradient id="SVGID_18_" gradientUnits="userSpaceOnUse" x1="1349.0845" y1="-810.6572" x2="1349.9319" y2="-810.6572" gradientTransform="matrix(0.9995 -3.280000e-02 3.280000e-02 0.9995 24.2283 41.6867)">
								<stop  offset="0" style="stop-color:#58258C"/>
								<stop  offset="1" style="stop-color:#151B4E"/>
							</linearGradient>
							<path class="st21" d="M1346.4-813.5c0.2-0.1,0.4,0,0.4,0.2l0,0.4c0,0.3-0.2,0.6-0.4,0.7c-0.2,0.1-0.4,0-0.4-0.2l0-0.4
								C1346-813,1346.2-813.4,1346.4-813.5z"/>
						</g>
						<g>

								<linearGradient id="SVGID_19_" gradientUnits="userSpaceOnUse" x1="1350.5327" y1="-811.4929" x2="1351.3787" y2="-811.4929" gradientTransform="matrix(0.9995 -3.280000e-02 3.280000e-02 0.9995 24.2283 41.6867)">
								<stop  offset="0" style="stop-color:#58258C"/>
								<stop  offset="1" style="stop-color:#151B4E"/>
							</linearGradient>
							<path class="st22" d="M1347.9-814.4c0.2-0.1,0.4,0,0.4,0.2l0,0.4c0,0.3-0.2,0.6-0.4,0.7c-0.2,0.1-0.4,0-0.4-0.2l0-0.4
								C1347.5-813.9,1347.6-814.3,1347.9-814.4z"/>
						</g>
						<g>

								<linearGradient id="SVGID_20_" gradientUnits="userSpaceOnUse" x1="1351.9794" y1="-812.3281" x2="1352.8252" y2="-812.3281" gradientTransform="matrix(0.9995 -3.280000e-02 3.280000e-02 0.9995 24.2283 41.6867)">
								<stop  offset="0" style="stop-color:#58258C"/>
								<stop  offset="1" style="stop-color:#151B4E"/>
							</linearGradient>
							<path class="st23" d="M1349.3-815.3c0.2-0.1,0.4,0,0.4,0.2l0,0.4c0,0.3-0.2,0.6-0.4,0.7c-0.2,0.1-0.4,0-0.4-0.2l0-0.4
								C1348.9-814.8,1349.1-815.1,1349.3-815.3z"/>
						</g>
					</g>
					<g>
						<g>

								<linearGradient id="SVGID_21_" gradientUnits="userSpaceOnUse" x1="1359.6279" y1="-819.8112" x2="1360.4753" y2="-819.8112" gradientTransform="matrix(0.9999 -1.620000e-02 1.620000e-02 0.9999 11.7484 21.0971)">
								<stop  offset="0" style="stop-color:#58258C"/>
								<stop  offset="1" style="stop-color:#151B4E"/>
							</linearGradient>
							<path class="st24" d="M1358.4-821.3c0.2-0.1,0.4,0,0.4,0.2l0,0.4c0,0.3-0.2,0.6-0.4,0.7c-0.2,0.1-0.4,0-0.4-0.2l0-0.4
								C1358-820.9,1358.1-821.2,1358.4-821.3z"/>
						</g>
						<g>

								<linearGradient id="SVGID_22_" gradientUnits="userSpaceOnUse" x1="1361.0747" y1="-820.6469" x2="1361.9221" y2="-820.6469" gradientTransform="matrix(0.9999 -1.620000e-02 1.620000e-02 0.9999 11.7484 21.0971)">
								<stop  offset="0" style="stop-color:#58258C"/>
								<stop  offset="1" style="stop-color:#151B4E"/>
							</linearGradient>
							<path class="st25" d="M1359.8-822.2c0.2-0.1,0.4,0,0.4,0.2l0,0.4c0,0.3-0.2,0.6-0.4,0.7c-0.2,0.1-0.4,0-0.4-0.2l0-0.4
								C1359.4-821.7,1359.6-822.1,1359.8-822.2z"/>
						</g>
						<g>

								<linearGradient id="SVGID_23_" gradientUnits="userSpaceOnUse" x1="1362.5229" y1="-821.4824" x2="1363.3688" y2="-821.4824" gradientTransform="matrix(0.9999 -1.620000e-02 1.620000e-02 0.9999 11.7484 21.0971)">
								<stop  offset="0" style="stop-color:#58258C"/>
								<stop  offset="1" style="stop-color:#151B4E"/>
							</linearGradient>
							<path class="st26" d="M1361.2-823.1c0.2-0.1,0.4,0,0.4,0.2l0,0.4c0,0.3-0.2,0.6-0.4,0.7c-0.2,0.1-0.4,0-0.4-0.2l0-0.4
								C1360.8-822.6,1361-822.9,1361.2-823.1z"/>
						</g>
						<g>

								<linearGradient id="SVGID_24_" gradientUnits="userSpaceOnUse" x1="1363.9695" y1="-822.3176" x2="1364.8156" y2="-822.3176" gradientTransform="matrix(0.9999 -1.620000e-02 1.620000e-02 0.9999 11.7484 21.0971)">
								<stop  offset="0" style="stop-color:#58258C"/>
								<stop  offset="1" style="stop-color:#151B4E"/>
							</linearGradient>
							<path class="st27" d="M1362.7-823.9c0.2-0.1,0.4,0,0.4,0.2l0,0.4c0,0.3-0.2,0.6-0.4,0.7c-0.2,0.1-0.4,0-0.4-0.2l0-0.4
								C1362.3-823.5,1362.4-823.8,1362.7-823.9z"/>
						</g>
						<g>

								<linearGradient id="SVGID_25_" gradientUnits="userSpaceOnUse" x1="1365.4163" y1="-823.1529" x2="1366.2622" y2="-823.1529" gradientTransform="matrix(0.9999 -1.620000e-02 1.620000e-02 0.9999 11.7484 21.0971)">
								<stop  offset="0" style="stop-color:#58258C"/>
								<stop  offset="1" style="stop-color:#151B4E"/>
							</linearGradient>
							<path class="st28" d="M1364.1-824.8c0.2-0.1,0.4,0,0.4,0.2l0,0.4c0,0.3-0.2,0.6-0.4,0.7c-0.2,0.1-0.4,0-0.4-0.2l0-0.4
								C1363.7-824.3,1363.9-824.6,1364.1-824.8z"/>
						</g>
						<g>

								<linearGradient id="SVGID_26_" gradientUnits="userSpaceOnUse" x1="1366.863" y1="-823.9882" x2="1367.7089" y2="-823.9882" gradientTransform="matrix(0.9999 -1.620000e-02 1.620000e-02 0.9999 11.7484 21.0971)">
								<stop  offset="0" style="stop-color:#58258C"/>
								<stop  offset="1" style="stop-color:#151B4E"/>
							</linearGradient>
							<path class="st29" d="M1365.5-825.6c0.2-0.1,0.4,0,0.4,0.2l0,0.4c0,0.3-0.2,0.6-0.4,0.7c-0.2,0.1-0.4,0-0.4-0.2l0-0.4
								C1365.1-825.2,1365.3-825.5,1365.5-825.6z"/>
						</g>
						<g>

								<linearGradient id="SVGID_27_" gradientUnits="userSpaceOnUse" x1="1368.3096" y1="-824.8237" x2="1369.1571" y2="-824.8237" gradientTransform="matrix(0.9999 -1.620000e-02 1.620000e-02 0.9999 11.7484 21.0971)">
								<stop  offset="0" style="stop-color:#58258C"/>
								<stop  offset="1" style="stop-color:#151B4E"/>
							</linearGradient>
							<path class="st30" d="M1367-826.5c0.2-0.1,0.4,0,0.4,0.2l0,0.4c0,0.3-0.2,0.6-0.4,0.7c-0.2,0.1-0.4,0-0.4-0.2l0-0.4
								C1366.6-826,1366.7-826.4,1367-826.5z"/>
						</g>
						<g>

								<linearGradient id="SVGID_28_" gradientUnits="userSpaceOnUse" x1="1369.7578" y1="-825.6596" x2="1370.6039" y2="-825.6596" gradientTransform="matrix(0.9999 -1.620000e-02 1.620000e-02 0.9999 11.7484 21.0971)">
								<stop  offset="0" style="stop-color:#58258C"/>
								<stop  offset="1" style="stop-color:#151B4E"/>
							</linearGradient>
							<path class="st31" d="M1368.4-827.4c0.2-0.1,0.4,0,0.4,0.2l0,0.4c0,0.3-0.2,0.6-0.4,0.7c-0.2,0.1-0.4,0-0.4-0.2l0-0.4
								C1368-826.9,1368.2-827.2,1368.4-827.4z"/>
						</g>
						<g>

								<linearGradient id="SVGID_29_" gradientUnits="userSpaceOnUse" x1="1371.2045" y1="-826.4949" x2="1372.0505" y2="-826.4949" gradientTransform="matrix(0.9999 -1.620000e-02 1.620000e-02 0.9999 11.7484 21.0971)">
								<stop  offset="0" style="stop-color:#58258C"/>
								<stop  offset="1" style="stop-color:#151B4E"/>
							</linearGradient>
							<path class="st32" d="M1369.8-828.2c0.2-0.1,0.4,0,0.4,0.2l0,0.4c0,0.3-0.2,0.6-0.4,0.7c-0.2,0.1-0.4,0-0.4-0.2l0-0.4
								C1369.4-827.8,1369.6-828.1,1369.8-828.2z"/>
						</g>
					</g>
				</g>
			</g>
		</g>
	</g>
</g>
<path class="st5" d="M1599.9,245.1c-51.9,13.2-100.7,34-147.9,59c-21,11.1-42.1,22.1-65.4,27.8c-32.1,7.9-63.8,6.6-95.1-3.8
	c-18.5-6.2-35.3-15.8-51.8-26.1c-15-9.4-30.1-18.7-45.3-27.7c-22.3-13.2-46.7-19.8-72.3-22.1c-21.6-2-43.2-2.8-64.9-1
	c-20.3,1.7-40.5,4.4-60.7,7.1c-39.2,5.2-78.3,11.1-117.8,12c-24.7,0.6-49.2-1-73.1-7.8c-29-8.2-50.6-26.5-68.1-50.5
	c-12.2-16.7-23.3-34.3-36.1-50.5c-20.4-25.7-45.6-44.8-75.9-57.3c-28.2-11.6-57.5-17-87.8-18.5c-32.7-1.6-65.2,1.2-97.8,3.2
	c-23,1.5-46,3-69.1,4.4c-24.7,1.6-49.5,2.1-74.2,2.6c-27.3,0.6-53.1-5.8-78.3-15.4c-36.7-13.9-72-31.3-108.4-45.9
	C74.6,20.4,38.7,8.7,1.8,0.1C1.2-0.1,0.6,0,0.1,0c0,144,0,398-0.1,542c0,3,0.4,4,3.8,4c530.8-0.1,1061.6-0.1,1592.4,0
	c3.3,0,3.8-0.8,3.8-3.9C1599.9,479.7,1599.9,307.4,1599.9,245.1z"/>
</svg>
