<svg id="Ñëîé_1" data-name="Ñëîé 1" xmlns="http://www.w3.org/2000/svg" viewBox="0 0 75.5 80.21"><defs><style>.cls-1{fill:#eb4d4b;}.cls-2{fill:#0f2137;}</style></defs><title>Vector Smart Object2</title><path class="cls-1" d="M473.39,371.45a4.21,4.21,0,0,1-1.27-.2A7.57,7.57,0,0,1,470,370l-9.09-8.56a7.75,7.75,0,0,1,0-11.35L461,350a8.61,8.61,0,0,1,11.76,0l.54.51.54-.51a8.61,8.61,0,0,1,11.77,0l.14.13a7.75,7.75,0,0,1,0,11.35l-9.32,8.86a6.57,6.57,0,0,1-1.81,1A3.8,3.8,0,0,1,473.39,371.45Zm-6.48-21.32a6,6,0,0,0-4.17,1.64l-.14.14a5.25,5.25,0,0,0,0,7.72l9,8.5a5.36,5.36,0,0,0,1.24.74,1.65,1.65,0,0,0,1,0,4.13,4.13,0,0,0,1.05-.57l9.18-8.73a5.25,5.25,0,0,0,0-7.72l-.14-.13a6.1,6.1,0,0,0-8.32,0l-2.26,2.15-2.27-2.14A6,6,0,0,0,466.91,350.13Z" transform="translate(-434.79 -304.54)"/><path class="cls-2" d="M439.54,331.32a1.24,1.24,0,0,1-1-2l17.39-24.1a1.25,1.25,0,0,1,2,1.46l-17.39,24.1A1.24,1.24,0,0,1,439.54,331.32Z" transform="translate(-434.79 -304.54)"/><path class="cls-2" d="M506.24,331.5a1.25,1.25,0,0,1-1-.54L488.32,306.5a1.25,1.25,0,0,1,2.06-1.42l16.89,24.46a1.25,1.25,0,0,1-1,2Z" transform="translate(-434.79 -304.54)"/><path class="cls-2" d="M453,384.76c-1.19,0-5.21-.22-7.46-3-1.37-1.67-2.15-6.66-2.29-7.64l-6.42-31.51a1.25,1.25,0,0,1,2.45-.5l6.43,31.58c.33,2.23,1.08,5.65,1.76,6.49,1.8,2.2,5.76,2,5.8,2h40.49s3.14,0,4.81-1.95a10.19,10.19,0,0,0,1.85-4.72l5.67-31.44a1.25,1.25,0,1,1,2.46.44L502.92,376a12.64,12.64,0,0,1-2.44,6c-2.42,2.77-6.52,2.8-6.69,2.8H453Z" transform="translate(-434.79 -304.54)"/><path class="cls-2" d="M509,337.75H436a1.25,1.25,0,1,1,0-2.5h73a1.25,1.25,0,0,1,0,2.5Z" transform="translate(-434.79 -304.54)"/></svg>