<svg id="Ñëîé_1" data-name="Ñëîé 1" xmlns="http://www.w3.org/2000/svg" viewBox="0 0 88.87 81.43"><defs><style>.cls-1{fill:#0f2137;}.cls-2{fill:#eb4d4b;}</style></defs><title>Vector Smart Object</title><path class="cls-1" d="M141.54,183h-77a1.5,1.5,0,0,1-1.5-1.5v-51a1.5,1.5,0,0,1,1.5-1.5H113a1.5,1.5,0,1,1,0,3H66v48h74V153a1.5,1.5,0,0,1,3,0v28.5A1.5,1.5,0,0,1,141.54,183Z" transform="translate(-63.04 -120.57)"/><polygon class="cls-2" points="14.97 48.94 13.25 47.12 36.86 24.85 48.55 35.47 84.08 2.74 85.77 4.58 48.56 38.86 36.89 28.25 14.97 48.94"/><polygon class="cls-2" points="86.64 7.14 88.87 0 81.57 1.64 86.64 7.14"/><path class="cls-1" d="M103.54,196.5A1.5,1.5,0,0,1,102,195V182a1.5,1.5,0,0,1,3,0v13A1.5,1.5,0,0,1,103.54,196.5Z" transform="translate(-63.04 -120.57)"/><path class="cls-1" d="M118,202H89a1.5,1.5,0,0,1,0-3h29a1.5,1.5,0,1,1,0,3Z" transform="translate(-63.04 -120.57)"/></svg>