<svg id="Ñëîé_1" data-name="Ñëîé 1" xmlns="http://www.w3.org/2000/svg" viewBox="0 0 76.47 77.75"><defs><style>.cls-1{fill:#eb4d4b;}.cls-2{fill:#0f2137;}</style></defs><title>Vector Smart Object5</title><path class="cls-1" d="M637.65,330.79c0-4.08,3.88-5.34,7.33-5.34s7.36,1.45,7.39,5.58c0,3.91-3.94,5.5-7.33,5.5-2.8,0-6,.69-6,4v2.93h13.19v1.42H637.54v-4.32c0-4.24,3.91-5.34,7.44-5.34,2.49,0,6-.93,6-4.16s-3.39-4.3-6-4.3-5.88.88-5.88,4.06Z" transform="translate(-614.58 -301.74)"/><path class="cls-1" d="M667.51,325.69v13.36h2.41v1.48h-2.41v4.32H666v-4.32H654.3l-.31-1.78,11.09-13.06Zm-1.47,1.1-10.46,12.26H666Z" transform="translate(-614.58 -301.74)"/><path class="cls-2" d="M675.23,319.52c-3.57-10-11.83-15.78-22.66-15.78s-19.08,5.75-22.65,15.78l-1.88-.67c3.87-10.88,12.81-17.11,24.53-17.11s20.67,6.23,24.54,17.11Z" transform="translate(-614.58 -301.74)"/><path class="cls-2" d="M679,329.85h-2c0-12.58-7.63-26.11-24.4-26.11s-24.4,13.53-24.4,26.11h-2c0-13.54,8.26-28.11,26.4-28.11S679,316.31,679,329.85Z" transform="translate(-614.58 -301.74)"/><path class="cls-2" d="M682.22,348.13H677V328.85h5.27c4.85.09,8.77,4.38,8.77,9.64s-3.95,9.59-8.83,9.64Zm-3.21-2h3.12c3.82,0,6.92-3.43,6.92-7.64s-3.1-7.64-6.92-7.64H679Z" transform="translate(-614.58 -301.74)"/><path class="cls-2" d="M628.17,348.13H623c-4.63-.05-8.38-4.36-8.38-9.64s3.72-9.55,8.32-9.64h5.27Zm-5.12-17.28c-3.57,0-6.47,3.43-6.47,7.64s2.9,7.64,6.47,7.64h3.12V330.85Z" transform="translate(-614.58 -301.74)"/><path class="cls-2" d="M644.28,372c-13.19-5.83-18.11-18.65-18.11-25.36h2c0,6.21,4.59,18.08,16.92,23.53Z" transform="translate(-614.58 -301.74)"/><path class="cls-2" d="M653.53,379.49a3.85,3.85,0,0,1-1.27-.22l-6-2.11c-2.32-.82-3.42-3.7-2.47-6.44a5.19,5.19,0,0,1,4.67-3.71,3.94,3.94,0,0,1,1.27.22l6.05,2.11a4.13,4.13,0,0,1,2.5,2.59,5.78,5.78,0,0,1,0,3.85A5.19,5.19,0,0,1,653.53,379.49ZM648.41,369a3.26,3.26,0,0,0-2.78,2.37c-.59,1.7,0,3.44,1.24,3.89l6,2.11c1.27.45,2.82-.61,3.4-2.26a3.8,3.8,0,0,0,0-2.51,2.15,2.15,0,0,0-1.28-1.38L649,369.12A1.83,1.83,0,0,0,648.41,369Z" transform="translate(-614.58 -301.74)"/></svg>