<svg id="Ñëîé_1" data-name="Ñëîé 1" xmlns="http://www.w3.org/2000/svg" viewBox="0 0 80.28 86.33"><defs><style>.cls-1{fill:#0f2137;}.cls-2{fill:#eb4d4b;}</style></defs><title>Vector Smart Object1</title><path class="cls-1" d="M474.86,200.88a1.34,1.34,0,0,1-.51-.11c-15.56-6.92-27-17-33-29-9.13-18.27-6.41-46.33-6.29-47.52a1.26,1.26,0,0,1,.6-.94,1.23,1.23,0,0,1,1.12-.09,23.49,23.49,0,0,0,8.86,1.62c12.27,0,24.55-7.64,26.74-9.69a2.18,2.18,0,0,1,1.45-.56,2.3,2.3,0,0,1,1.26.44c3.92,2.73,16.71,9.81,28.73,9.81a23.76,23.76,0,0,0,9-1.62,1.23,1.23,0,0,1,1.12.09,1.27,1.27,0,0,1,.6,1c.11,1.18,2.5,29.09-6.32,47.49-9.75,20.34-27.15,26.92-32.87,29.09A1.32,1.32,0,0,1,474.86,200.88Zm-37.45-74.81c-.43,6.26-1.43,29.36,6.17,44.54,7.19,14.38,20.9,23,31.32,27.67,5.93-2.26,22-8.75,31-27.65,7.34-15.31,6.56-38.29,6.19-44.55a27.16,27.16,0,0,1-8.3,1.22c-12.49,0-25.69-7.2-30-10.14-3.63,3.17-16.14,10.14-28.2,10.14A26.61,26.61,0,0,1,437.41,126.07Z" transform="translate(-434.58 -114.55)"/><path class="cls-2" d="M475.19,176.52a21.32,21.32,0,1,1,21.32-21.32A21.34,21.34,0,0,1,475.19,176.52Zm0-40.14A18.82,18.82,0,1,0,494,155.2,18.84,18.84,0,0,0,475.19,136.38Z" transform="translate(-434.58 -114.55)"/><polygon class="cls-2" points="39.09 50.55 29.15 39.51 31.01 37.83 38.96 46.67 50.47 31.94 52.44 33.48 39.09 50.55"/></svg>