<svg id="Ñëîé_1" data-name="Ñëîé 1" xmlns="http://www.w3.org/2000/svg" viewBox="0 0 93.37 85.09"><defs><style>.cls-1{fill:#0f2137;}.cls-2{fill:#eb4d4b;}</style></defs><title>Vector Smart Object3</title><path class="cls-1" d="M279.35,202a2.32,2.32,0,0,1-.58-.08l.58-2.14-.62,2.13a2.22,2.22,0,1,1,1.07-4.3l.13,0a2.22,2.22,0,0,1-.58,4.36Zm-10-4.11a2.24,2.24,0,0,1-1.08-.29l-.13-.08a2.2,2.2,0,1,1,1.21.37Zm-8.55-6.55a2.19,2.19,0,0,1-1.55-.65l0,0a2.26,2.26,0,0,1,0-3.15,2.21,2.21,0,0,1,3.11,0l.06.06a2.23,2.23,0,0,1-1.57,3.8Zm-6.59-8.54a2.17,2.17,0,0,1-1.88-1.09l-.05-.09a2.22,2.22,0,0,1,3.86-2.19,2.24,2.24,0,0,1-1.93,3.37Zm-4.13-10a2.18,2.18,0,0,1-2.11-1.6l0-.09a2.22,2.22,0,1,1,4.28-1.15,2.25,2.25,0,0,1-1.54,2.76A2.62,2.62,0,0,1,250.12,172.88Zm79.68-21.46a2.21,2.21,0,0,1-2.13-1.64,2.24,2.24,0,0,1,1.54-2.76,2.18,2.18,0,0,1,2.71,1.52l0,.09a2.2,2.2,0,0,1-2.15,2.79Zm-4.14-9.94a2.2,2.2,0,0,1-1.88-1l-.07-.13a2.22,2.22,0,1,1,3.84-2.21l-1.92,1.1,1.93-1.07a2.21,2.21,0,0,1-.75,3A2.17,2.17,0,0,1,325.66,141.48ZM319.1,133a2.21,2.21,0,0,1-1.55-.63l-.08-.08a2.22,2.22,0,0,1,3.14-3.13l.05,0a2.22,2.22,0,0,1-1.56,3.8Zm-8.54-6.54a2.2,2.2,0,0,1-1.15-.32,2.22,2.22,0,0,1-.84-3,2.2,2.2,0,0,1,3-.84l.13.07a2.22,2.22,0,0,1-1.15,4.12Zm-9.95-4.11a2,2,0,0,1-.53-.07l-.14,0a2.22,2.22,0,0,1,1.17-4.28l-.58,2.14.62-2.13a2.22,2.22,0,0,1-.54,4.37Z" transform="translate(-242.97 -117.52)"/><path class="cls-1" d="M248.57,161.31a1.25,1.25,0,0,1-1.25-1.25,42.59,42.59,0,0,1,42.55-42.54,1.25,1.25,0,0,1,0,2.5,40.09,40.09,0,0,0-40.05,40A1.25,1.25,0,0,1,248.57,161.31Z" transform="translate(-242.97 -117.52)"/><path class="cls-1" d="M289.87,202.61a1.25,1.25,0,0,1,0-2.5,40.09,40.09,0,0,0,40-40.05,1.25,1.25,0,0,1,2.5,0A42.59,42.59,0,0,1,289.87,202.61Z" transform="translate(-242.97 -117.52)"/><path class="cls-1" d="M335.09,165.14a1.25,1.25,0,0,1-1-.48l-3-3.78-4,3.33a1.25,1.25,0,0,1-1.6-1.92l5-4.16a1.3,1.3,0,0,1,.93-.28,1.26,1.26,0,0,1,.85.47l3.77,4.79a1.26,1.26,0,0,1-1,2Z" transform="translate(-242.97 -117.52)"/><path class="cls-1" d="M248.22,164.41h-.09a1.31,1.31,0,0,1-.87-.44l-4-4.79a1.25,1.25,0,0,1,1.92-1.61l3.18,3.81,4-3.55A1.25,1.25,0,1,1,254,159.7l-5,4.4A1.26,1.26,0,0,1,248.22,164.41Z" transform="translate(-242.97 -117.52)"/><path class="cls-2" d="M290,162h-4.89a8.3,8.3,0,0,1-8.11-8.45V152a7.86,7.86,0,0,1,8.11-7.95H300v3H285.15A4.87,4.87,0,0,0,280,152v1.6a5.31,5.31,0,0,0,5.11,5.45H290Z" transform="translate(-242.97 -117.52)"/><path class="cls-2" d="M294.31,177H278v-3h16.27a6,6,0,0,0,5.73-5.62v-1.59c0-2.64-2.57-4.79-5.73-4.79H289v-3h5.27c4.89,0,8.73,3.42,8.73,7.79v1.59A9,9,0,0,1,294.31,177Z" transform="translate(-242.97 -117.52)"/><rect class="cls-2" x="44.07" y="22.48" width="3" height="5"/><rect class="cls-2" x="44.07" y="57.48" width="3" height="5"/></svg>