<svg xmlns="http://www.w3.org/2000/svg" viewBox="0 0 20.995 18.005">
  <defs>
    <style>
      .cls-1 {
        fill: none;
        opacity: 0.502;
      }

      .cls-2, .cls-3 {
        stroke: none;
      }

      .cls-3 {
        fill: #ed41df;
      }
    </style>
  </defs>
  <g id="Shape_1685_copy_2" data-name="Shape 1685 copy 2" class="cls-1" transform="translate(-760.005 -1292.998)">
    <path class="cls-2" d="M761.16,1293h18.656a1.131,1.131,0,0,1,1.005,1.736c-.406.692-8.608,14.513-9.309,15.693a1.174,1.174,0,0,1-2.021,0c-.514-.849-8.758-14.724-9.331-15.728A1.124,1.124,0,0,1,761.16,1293Z"/>
    <path class="cls-3" d="M 764.4078979492188 1295.99755859375 C 766.1348266601563 1298.914184570313 768.808837890625 1303.416137695313 770.4985961914063 1306.257080078125 C 772.2012329101563 1303.388305664063 774.8666381835938 1298.896118164063 776.58544921875 1295.99755859375 L 764.4078979492188 1295.99755859375 M 761.1600341796875 1292.99755859375 C 762.1295166015625 1292.99755859375 779.147216796875 1292.99755859375 779.8159790039063 1292.99755859375 C 780.6832885742188 1292.99755859375 781.3286743164063 1293.870361328125 780.8212280273438 1294.73388671875 C 780.4149780273438 1295.425659179688 772.21337890625 1309.247314453125 771.5120239257813 1310.426635742188 C 771.2825927734375 1310.812377929688 770.8949584960938 1311.0029296875 770.5066528320313 1311.0029296875 C 770.114990234375 1311.0029296875 769.72265625 1310.809204101563 769.4910278320313 1310.426635742188 C 768.9766235351563 1309.577392578125 760.7332153320313 1295.703002929688 760.1605224609375 1294.698486328125 C 759.740478515625 1293.962646484375 760.2045288085938 1292.99755859375 761.1600341796875 1292.99755859375 Z"/>
  </g>
</svg>
