<svg xmlns="http://www.w3.org/2000/svg" viewBox="0 0 22.977 22.977">
  <defs>
    <style>
      .cls-1 {
        fill: none;
        opacity: 0.502;
      }

      .cls-2, .cls-3 {
        stroke: none;
      }

      .cls-3 {
        fill: #ed41df;
      }
    </style>
  </defs>
  <g id="Rounded_Rectangle_1_copy_3" data-name="Rounded Rectangle 1 copy 3" class="cls-1" transform="translate(-629.011 -984.009)">
    <path class="cls-2" d="M639.46,984.384l10.2,4.738a4.018,4.018,0,0,1,1.952,5.336l-4.738,10.2a4.016,4.016,0,0,1-5.336,1.952l-10.2-4.738a4.017,4.017,0,0,1-1.951-5.337l4.738-10.2A4.018,4.018,0,0,1,639.46,984.384Z"/>
    <path class="cls-3" d="M 637.770263671875 987.0091552734375 C 637.4697265625 987.0091552734375 637.0469970703125 987.1634521484375 636.8450927734375 987.598388671875 L 632.1074829101563 997.7997436523438 C 631.9525756835938 998.133544921875 632.020263671875 998.4317626953125 632.0744018554688 998.579833984375 C 632.12841796875 998.7274780273438 632.2683715820313 998.9979248046875 632.6012573242188 999.1522827148438 L 642.8045043945313 1003.890563964844 C 642.9410400390625 1003.953979492188 643.0841674804688 1003.986145019531 643.2301025390625 1003.986145019531 C 643.5303344726563 1003.986145019531 643.9526977539063 1003.831665039063 644.1550903320313 1003.395751953125 L 648.8930053710938 993.1941528320313 C 649.0474853515625 992.8616333007813 648.9797973632813 992.5637817382813 648.9256591796875 992.415771484375 C 648.8716430664063 992.2680053710938 648.7313232421875 991.9969482421875 648.3988037109375 991.842529296875 L 638.19677734375 987.1049194335938 C 638.0598754882813 987.0413818359375 637.9163818359375 987.0091552734375 637.770263671875 987.0091552734375 M 637.7702026367188 984.0091552734375 C 638.3367919921875 984.0091552734375 638.9121704101563 984.1295166015625 639.4598388671875 984.3837890625 L 649.662353515625 989.1216430664063 C 651.6748046875 990.055908203125 652.5482177734375 992.4456176757813 651.614013671875 994.4576416015625 L 646.8759155273438 1004.659484863281 C 646.1959228515625 1006.124267578125 644.7451782226563 1006.986145019531 643.2301025390625 1006.986145019531 C 642.6633911132813 1006.986145019531 642.0879516601563 1006.865661621094 641.5401000976563 1006.611083984375 L 631.3377075195313 1001.873229980469 C 629.3253173828125 1000.940002441406 628.45166015625 998.55029296875 629.3863525390625 996.5366821289063 L 634.1241455078125 986.3347778320313 C 634.80419921875 984.8704223632813 636.2550048828125 984.0091552734375 637.7702026367188 984.0091552734375 Z"/>
  </g>
</svg>
