<?xml version="1.0" encoding="UTF-8"?>
<svg width="16px" height="16px" viewBox="0 0 16 16" version="1.1" xmlns="http://www.w3.org/2000/svg" xmlns:xlink="http://www.w3.org/1999/xlink">
    <title>icon/close/m</title>
    <defs>
        <rect id="path-1" x="0" y="0" width="16" height="16"></rect>
    </defs>
    <g id="crowdloan" stroke="none" stroke-width="1" fill="none" fill-rule="evenodd">
        <g id="Kusuma-Crowdloan" transform="translate(-288.000000, -332.000000)">
            <g id="编组-11备份" transform="translate(120.000000, 264.000000)">
                <g id="icon/close/m" transform="translate(168.000000, 68.000000)">
                    <mask id="mask-2" fill="white">
                        <use xlink:href="#path-1"></use>
                    </mask>
                    <g id="Rectangle-55"></g>
                    <path d="M7.99660172,0.496601718 C8.41081528,0.496601718 8.74660172,0.832388155 8.74660172,1.24660172 L8.74660172,7.24660172 L14.7466017,7.24660172 C15.1608153,7.24660172 15.4966017,7.58238816 15.4966017,7.99660172 C15.4966017,8.41081528 15.1608153,8.74660172 14.7466017,8.74660172 L8.74660172,8.74660172 L8.74660172,14.7466017 C8.74660172,15.1608153 8.41081528,15.4966017 7.99660172,15.4966017 C7.58238816,15.4966017 7.24660172,15.1608153 7.24660172,14.7466017 L7.24660172,8.74660172 L1.24660172,8.74660172 C0.832388155,8.74660172 0.496601718,8.41081528 0.496601718,7.99660172 C0.496601718,7.58238816 0.832388155,7.24660172 1.24660172,7.24660172 L7.24660172,7.24660172 L7.24660172,1.24660172 C7.24660172,0.832388155 7.58238816,0.496601718 7.99660172,0.496601718 Z" id="Combined-Shape" fill="#242629" mask="url(#mask-2)" transform="translate(7.996602, 7.996602) rotate(45.000000) translate(-7.996602, -7.996602) "></path>
                </g>
            </g>
        </g>
    </g>
</svg>