<?xml version="1.0" encoding="UTF-8"?>
<svg width="24px" height="24px" viewBox="0 0 24 24" version="1.1" xmlns="http://www.w3.org/2000/svg" xmlns:xlink="http://www.w3.org/1999/xlink">
    <title>icon/search/l</title>
    <g id="notbox-v2" stroke="none" stroke-width="1" fill="none" fill-rule="evenodd">
        <g id="community" transform="translate(-1304.000000, -184.000000)">
            <g id="icon/search/l" transform="translate(1304.000000, 184.000000)">
                <rect id="Rectangle-55" fill="#D8D8D8" opacity="0" x="0" y="0" width="24" height="24"></rect>
                <path d="M11,2 C15.9705627,2 20,6.02943725 20,11 C20,13.124779 19.2636898,15.0775836 18.0323074,16.6171757 L21.363961,19.9497475 C21.7544853,20.3402718 21.7544853,20.9734367 21.363961,21.363961 C20.9734367,21.7544853 20.3402718,21.7544853 19.9497475,21.363961 L16.6171757,18.0323074 C15.0775836,19.2636898 13.124779,20 11,20 C6.02943725,20 2,15.9705627 2,11 C2,6.02943725 6.02943725,2 11,2 Z M11,4 C7.13400675,4 4,7.13400675 4,11 C4,14.8659932 7.13400675,18 11,18 C14.8659932,18 18,14.8659932 18,11 C18,7.13400675 14.8659932,4 11,4 Z" id="Combined-Shape" fill="#242629"></path>
            </g>
        </g>
    </g>
</svg>