<svg xmlns="http://www.w3.org/2000/svg" xmlns:xlink="http://www.w3.org/1999/xlink" width="98" height="105" viewBox="0 0 98 105">
  <defs>
    <clipPath id="clip-path">
      <path id="Path_2795" data-name="Path 2795" d="M149.572-203.559a1.518,1.518,0,0,0-1.065-.441,1.517,1.517,0,0,0-1.065.441,1.512,1.512,0,0,0-.441,1.065,1.511,1.511,0,0,0,.441,1.065,1.518,1.518,0,0,0,1.065.442,1.518,1.518,0,0,0,1.065-.442,1.517,1.517,0,0,0,.441-1.065A1.518,1.518,0,0,0,149.572-203.559Z" transform="translate(-147 204)" fill="#352fd9"/>
    </clipPath>
    <clipPath id="clip-path-2">
      <path id="Path_2797" data-name="Path 2797" d="M75.634-474.032H72.018v-.3a4.525,4.525,0,0,0-4.52-4.52,4.525,4.525,0,0,0-4.52,4.52v.3H61.321v-6.629h9.718a5.2,5.2,0,0,0,5.2-5.2V-506.8a5.2,5.2,0,0,0-5.2-5.2H42.262a5.2,5.2,0,0,0-5.2,5.2v20.942a5.2,5.2,0,0,0,5.2,5.2h9.115v6.629H35.411a4.08,4.08,0,0,0,.146-1.08v-7.056a1.507,1.507,0,0,0-1.507-1.507H25.613a1.507,1.507,0,0,0-1.507,1.507v7.056a4.087,4.087,0,0,0,.146,1.08H19.419l2.2-8.983a1.5,1.5,0,0,0-.078-.945,22.926,22.926,0,0,0,3.614-10.333,1.507,1.507,0,0,0-.687-1.361,1.507,1.507,0,0,0-1.523-.065,27.365,27.365,0,0,0-6.1,4.681,25.386,25.386,0,0,0-2.982-9.527,1.506,1.506,0,0,0-1.3-.739h0a1.506,1.506,0,0,0-1.3.741,25.4,25.4,0,0,0-2.959,9.435,26.426,26.426,0,0,0-6.124-4.6,1.506,1.506,0,0,0-1.512.082A1.507,1.507,0,0,0,0-494.293,22.928,22.928,0,0,0,3.617-483.96a1.5,1.5,0,0,0-.078.945l2.2,8.983H1.507A1.507,1.507,0,0,0,0-472.526a1.507,1.507,0,0,0,1.507,1.507h.6v34.653a1.507,1.507,0,0,0,1.507,1.507,1.507,1.507,0,0,0,1.507-1.507v-26.216H17.176a1.507,1.507,0,0,0,1.507-1.507,1.507,1.507,0,0,0-1.507-1.507H5.123v-5.424H43.09v5.424H29.832a1.507,1.507,0,0,0-1.507,1.507,1.507,1.507,0,0,0,1.507,1.507H43.09v26.216a1.507,1.507,0,0,0,1.507,1.507H73.525a1.507,1.507,0,0,0,1.507-1.507v-34.653h.6a1.507,1.507,0,0,0,1.507-1.507A1.507,1.507,0,0,0,75.634-474.032Zm-63.056-22.12a21.205,21.205,0,0,1,1.368,7.211,19.408,19.408,0,0,1-.445,4.061H11.665a19.4,19.4,0,0,1-.45-4.059A21.259,21.259,0,0,1,12.578-496.152ZM6.133-485.618a18.881,18.881,0,0,1-2.511-5.608,20.484,20.484,0,0,1,4.6,4.694,1.508,1.508,0,0,0,.139.173q.09.735.229,1.479H6.666C6.479-485.124,6.3-485.371,6.133-485.618Zm10.183,11.586H8.844l-1.921-7.835H18.237Zm2.178-10.848H16.571q.127-.68.212-1.353a1.516,1.516,0,0,0,.177-.214,21.228,21.228,0,0,1,4.56-4.709,18.838,18.838,0,0,1-2.492,5.538Q18.776-485.247,18.495-484.88Zm14.049,9.768a1.081,1.081,0,0,1-1.08,1.08H28.2a1.081,1.081,0,0,1-1.08-1.08v-5.549h5.424Zm33.448.778A1.508,1.508,0,0,1,67.5-475.84,1.508,1.508,0,0,1,69-474.334v.3H65.991ZM40.077-506.8a2.187,2.187,0,0,1,2.185-2.185H54.094l-7.124,7.124a1.507,1.507,0,0,0,0,2.131,1.5,1.5,0,0,0,1.065.441,1.5,1.5,0,0,0,1.065-.441l9.255-9.255H71.039a2.187,2.187,0,0,1,2.185,2.185v15.9H58.207l8.868-8.867a1.507,1.507,0,0,0,0-2.131,1.507,1.507,0,0,0-2.131,0l-10.7,10.7a1.5,1.5,0,0,0-.232.3H40.077Zm2.185,23.127a2.187,2.187,0,0,1-2.185-2.185v-2.034H73.223v2.034a2.187,2.187,0,0,1-2.185,2.185Zm16.046,3.013v6.629H54.39v-6.629Zm13.711,42.789H46.1v-9.04H72.018Zm0-12.053H46.1v-9.04H72.018Zm0-12.053H46.1v-9.04H72.018Z" transform="translate(0 512)" fill="#352fd9"/>
    </clipPath>
    <clipPath id="clip-path-3">
      <path id="Path_2799" data-name="Path 2799" d="M384.572-219.889a1.512,1.512,0,0,0-1.065-.441,1.512,1.512,0,0,0-1.065.441,1.515,1.515,0,0,0-.441,1.065,1.518,1.518,0,0,0,.441,1.065,1.519,1.519,0,0,0,1.065.441,1.518,1.518,0,0,0,1.065-.441,1.521,1.521,0,0,0,.441-1.065A1.515,1.515,0,0,0,384.572-219.889Z" transform="translate(-382 220.33)" fill="#352fd9"/>
    </clipPath>
    <clipPath id="clip-path-4">
      <path id="Path_2801" data-name="Path 2801" d="M384.572-137.559a1.518,1.518,0,0,0-1.065-.441,1.517,1.517,0,0,0-1.065.441,1.515,1.515,0,0,0-.441,1.065,1.517,1.517,0,0,0,.441,1.065,1.518,1.518,0,0,0,1.065.442,1.518,1.518,0,0,0,1.065-.442,1.517,1.517,0,0,0,.441-1.065A1.518,1.518,0,0,0,384.572-137.559Z" transform="translate(-382 138)" fill="#352fd9"/>
    </clipPath>
    <clipPath id="clip-path-5">
      <path id="Path_2803" data-name="Path 2803" d="M384.572-59.618a1.518,1.518,0,0,0-1.065-.442,1.517,1.517,0,0,0-1.065.442A1.517,1.517,0,0,0,382-58.553a1.518,1.518,0,0,0,.441,1.065,1.518,1.518,0,0,0,1.065.441,1.517,1.517,0,0,0,1.065-.441,1.518,1.518,0,0,0,.441-1.065A1.517,1.517,0,0,0,384.572-59.618Z" transform="translate(-382 60.06)" fill="#352fd9"/>
    </clipPath>
    <clipPath id="clip-path-6">
      <path id="Path_2805" data-name="Path 2805" d="M454.352-471.149a1.515,1.515,0,0,0-1.065-.441,1.518,1.518,0,0,0-1.065.441,1.518,1.518,0,0,0-.441,1.065,1.518,1.518,0,0,0,.441,1.065,1.518,1.518,0,0,0,1.065.441,1.515,1.515,0,0,0,1.065-.441,1.518,1.518,0,0,0,.441-1.065A1.518,1.518,0,0,0,454.352-471.149Z" transform="translate(-451.78 471.59)" fill="#352fd9"/>
    </clipPath>
    <clipPath id="clip-path-7">
      <path id="Path_2807" data-name="Path 2807" d="M366.922-347.559a1.518,1.518,0,0,0-1.065-.441,1.518,1.518,0,0,0-1.065.441,1.518,1.518,0,0,0-.441,1.065,1.518,1.518,0,0,0,.441,1.065,1.518,1.518,0,0,0,1.065.441,1.518,1.518,0,0,0,1.065-.441,1.518,1.518,0,0,0,.441-1.065A1.518,1.518,0,0,0,366.922-347.559Z" transform="translate(-364.35 348)" fill="#352fd9"/>
    </clipPath>
    <clipPath id="clip-path-8">
      <path id="Path_2809" data-name="Path 2809" d="M178.007-368.551a1.507,1.507,0,0,0-1.507,1.507v1.431a1.507,1.507,0,0,0,1.507,1.507,1.507,1.507,0,0,0,1.507-1.507v-1.431A1.507,1.507,0,0,0,178.007-368.551Z" transform="translate(-176.5 368.551)" fill="#352fd9"/>
    </clipPath>
    <clipPath id="clip-path-9">
      <path id="Path_2811" data-name="Path 2811" d="M204.507-394.351A1.507,1.507,0,0,0,203-392.844v1.673a1.507,1.507,0,0,0,1.507,1.507,1.507,1.507,0,0,0,1.507-1.507v-1.673A1.507,1.507,0,0,0,204.507-394.351Z" transform="translate(-203 394.351)" fill="#352fd9"/>
    </clipPath>
  </defs>
  <g id="Group_3644" data-name="Group 3644" transform="translate(-477 -1232)">
    <circle id="Ellipse_65" data-name="Ellipse 65" cx="45" cy="45" r="45" transform="translate(485 1247)" fill="#e1e0f9"/>
    <circle id="Ellipse_71" data-name="Ellipse 71" cx="24.5" cy="24.5" r="24.5" transform="translate(477 1232)" fill="#fdef00" opacity="0.299"/>
    <g id="Group_3619" data-name="Group 3619" transform="translate(491 1765.305)" opacity="0.702">
      <g id="Group_3610" data-name="Group 3610" transform="translate(22.148 -465.595)" clip-path="url(#clip-path)">
        <path id="Path_2794" data-name="Path 2794" d="M142-204.48h4.52V-209H142Z" transform="translate(-142.753 208.247)" fill="#352fd9"/>
      </g>
      <g id="Group_3611" data-name="Group 3611" transform="translate(0 -512)" clip-path="url(#clip-path-2)">
        <path id="Path_2796" data-name="Path 2796" d="M-5-438.353H73.647V-517H-5Z" transform="translate(4.247 516.247)" fill="#352fd9"/>
      </g>
      <g id="Group_3612" data-name="Group 3612" transform="translate(57.554 -468.055)" clip-path="url(#clip-path-3)">
        <path id="Path_2798" data-name="Path 2798" d="M377-220.81h4.52v-4.52H377Z" transform="translate(-377.753 224.577)" fill="#352fd9"/>
      </g>
      <g id="Group_3613" data-name="Group 3613" transform="translate(57.554 -455.651)" clip-path="url(#clip-path-4)">
        <path id="Path_2800" data-name="Path 2800" d="M377-138.48h4.52V-143H377Z" transform="translate(-377.753 142.247)" fill="#352fd9"/>
      </g>
      <g id="Group_3614" data-name="Group 3614" transform="translate(57.554 -443.908)" clip-path="url(#clip-path-5)">
        <path id="Path_2802" data-name="Path 2802" d="M377-60.54h4.52v-4.52H377Z" transform="translate(-377.753 64.307)" fill="#352fd9"/>
      </g>
      <g id="Group_3615" data-name="Group 3615" transform="translate(68.068 -505.912)" clip-path="url(#clip-path-6)">
        <path id="Path_2804" data-name="Path 2804" d="M446.78-472.07h4.52v-4.52h-4.52Z" transform="translate(-447.533 475.837)" fill="#352fd9"/>
      </g>
      <g id="Group_3616" data-name="Group 3616" transform="translate(54.895 -487.291)" clip-path="url(#clip-path-7)">
        <path id="Path_2806" data-name="Path 2806" d="M359.35-348.48h4.52V-353h-4.52Z" transform="translate(-360.103 352.247)" fill="#352fd9"/>
      </g>
      <g id="Group_3617" data-name="Group 3617" transform="translate(26.592 -490.387)" clip-path="url(#clip-path-8)">
        <path id="Path_2808" data-name="Path 2808" d="M171.5-367.6h4.52v-5.951H171.5Z" transform="translate(-172.253 372.798)" fill="#352fd9"/>
      </g>
      <g id="Group_3618" data-name="Group 3618" transform="translate(30.585 -494.274)" clip-path="url(#clip-path-9)">
        <path id="Path_2810" data-name="Path 2810" d="M198-393.159h4.52v-6.192H198Z" transform="translate(-198.753 398.598)" fill="#352fd9"/>
      </g>
    </g>
  </g>
</svg>
