<svg xmlns="http://www.w3.org/2000/svg" width="43.007" height="43.007" viewBox="0 0 43.007 43.007">
  <path id="Forma_1" data-name="Forma 1" d="M1330.119,7650.975a21.682,21.682,0,0,0-7.825-8.022,21.181,21.181,0,0,0-21.587,0,21.681,21.681,0,0,0-7.826,8.022A22.585,22.585,0,0,0,1294.1,7675a21.1,21.1,0,0,0,10.6,7.964,1.23,1.23,0,0,0,1.12-.2,1.137,1.137,0,0,0,.364-.861q0-.086-.014-1.55t-.014-2.554l-.644.115a8.017,8.017,0,0,1-1.554.1,11.58,11.58,0,0,1-1.946-.2,4.3,4.3,0,0,1-1.876-.86,3.639,3.639,0,0,1-1.232-1.766l-.28-.66a7.19,7.19,0,0,0-.882-1.463,3.4,3.4,0,0,0-1.218-1.091l-.2-.144a2.07,2.07,0,0,1-.364-.345,1.584,1.584,0,0,1-.252-.4q-.084-.2.14-.331a1.774,1.774,0,0,1,.812-.129l.56.086a4.044,4.044,0,0,1,1.386.688,4.587,4.587,0,0,1,1.358,1.492,5.024,5.024,0,0,0,1.554,1.794,3.247,3.247,0,0,0,1.834.616,7.738,7.738,0,0,0,1.6-.143,5.487,5.487,0,0,0,1.26-.43,4.7,4.7,0,0,1,1.372-2.957,18.827,18.827,0,0,1-2.87-.517,11.245,11.245,0,0,1-2.632-1.121,7.582,7.582,0,0,1-2.254-1.922,9.331,9.331,0,0,1-1.47-3.014,14.662,14.662,0,0,1-.574-4.305,8.49,8.49,0,0,1,2.212-5.913,7.893,7.893,0,0,1,.2-5.854,3.843,3.843,0,0,1,2.408.388,16.573,16.573,0,0,1,2.338,1.105q.742.458,1.19.774a19.743,19.743,0,0,1,10.752,0l1.064-.689a14.947,14.947,0,0,1,2.575-1.263,3.589,3.589,0,0,1,2.268-.316,7.819,7.819,0,0,1,.224,5.855,8.492,8.492,0,0,1,2.212,5.913,14.822,14.822,0,0,1-.574,4.319,8.97,8.97,0,0,1-1.484,3.014,7.872,7.872,0,0,1-2.268,1.909,11.282,11.282,0,0,1-2.632,1.12,18.7,18.7,0,0,1-2.87.517,5.184,5.184,0,0,1,1.456,4.076v6.056a1.156,1.156,0,0,0,.35.86,1.191,1.191,0,0,0,1.106.2,21.1,21.1,0,0,0,10.6-7.965,22.58,22.58,0,0,0,1.217-24.021Z" transform="translate(-1289.996 -7639.996)" fill="#fff"/>
</svg>
