<svg width="100" height="100" viewBox="0 0 100 100" fill="none" xmlns="http://www.w3.org/2000/svg">
<rect opacity="0.1" width="100" height="100" rx="30" fill="#2C6D97"/>
<g clip-path="url(#clip0)">
<path d="M75.5043 33.5023C74.7524 31.1012 72.7937 29.2706 70.3418 28.7063C57.165 25.6733 43.8362 25.6733 30.6596 28.7063C28.2077 29.2706 26.2491 31.1012 25.4972 33.5023C22.1683 44.1308 22.1688 54.8705 25.4973 65.4979C26.2493 67.8989 28.2079 69.7296 30.6597 70.2939C43.8363 73.3269 57.165 73.3269 70.3418 70.2939C72.7936 69.7296 74.7523 67.8989 75.5042 65.4979C78.8328 54.8704 78.8331 44.1309 75.5043 33.5023Z" fill="url(#paint0_linear)"/>
<path d="M23.2707 54.7559C23.6376 58.3435 24.3784 61.927 25.4967 65.4978C26.2487 67.8987 28.2073 69.7295 30.6591 70.2938C43.8357 73.3268 57.1644 73.3268 70.3412 70.2938C72.793 69.7295 74.7517 67.8988 75.5037 65.4978C76.622 61.927 77.3628 58.3435 77.7297 54.7559H23.2707Z" fill="url(#paint1_linear)"/>
<path d="M70.3417 70.2938C72.7936 69.7295 74.7522 67.8988 75.5042 65.4978C75.908 64.2084 76.2618 62.9174 76.5676 61.6252L62.8222 47.8797C62.607 47.5633 62.3229 47.2815 61.9673 47.0586L47.3021 38.0765C45.3829 36.8728 43.1048 38.0365 43.1048 40.3021V58.6979C43.1048 59.7219 43.3993 60.5639 44.1351 61.0691L55.491 72.425C60.4519 72.14 65.4075 71.4296 70.3417 70.2938Z" fill="url(#paint2_linear)"/>
<path d="M61.968 47.0585L47.3028 37.8607C45.3836 36.657 42.8897 38.0366 42.8897 40.3022V58.6979C42.8897 60.9635 45.3836 62.3431 47.3028 61.1394L61.968 51.9416C63.7689 50.8119 63.7689 48.1881 61.968 47.0585Z" fill="url(#paint3_linear)"/>
</g>
<defs>
<linearGradient id="paint0_linear" x1="36.5561" y1="35.5554" x2="65.308" y2="64.3072" gradientUnits="userSpaceOnUse">
<stop stop-color="#FF637B"/>
<stop offset="1" stop-color="#F90217"/>
</linearGradient>
<linearGradient id="paint1_linear" x1="50.5002" y1="61.0392" x2="50.5002" y2="72.1555" gradientUnits="userSpaceOnUse">
<stop stop-color="#F90217" stop-opacity="0"/>
<stop offset="0.2669" stop-color="#E7010F" stop-opacity="0.267"/>
<stop offset="0.7232" stop-color="#CE0004" stop-opacity="0.723"/>
<stop offset="1" stop-color="#C50000"/>
</linearGradient>
<linearGradient id="paint2_linear" x1="64.9749" y1="67.9224" x2="54.443" y2="53.1993" gradientUnits="userSpaceOnUse">
<stop stop-color="#F90217" stop-opacity="0"/>
<stop offset="0.2669" stop-color="#E7010F" stop-opacity="0.267"/>
<stop offset="0.7232" stop-color="#CE0004" stop-opacity="0.723"/>
<stop offset="1" stop-color="#C50000"/>
</linearGradient>
<linearGradient id="paint3_linear" x1="47.3537" y1="48.3485" x2="53.7175" y2="54.7122" gradientUnits="userSpaceOnUse">
<stop stop-color="#EBEFF0"/>
<stop offset="1" stop-color="#E3E5E4"/>
</linearGradient>
<clipPath id="clip0">
<rect width="55" height="55" fill="white" transform="translate(23 22)"/>
</clipPath>
</defs>
</svg>
