<svg width="100" height="100" viewBox="0 0 100 100" fill="none" xmlns="http://www.w3.org/2000/svg">
<rect opacity="0.1" width="100" height="100" rx="30" fill="#2C6D97"/>
<g clip-path="url(#clip0)">
<path d="M49.9487 46.2004C41.9033 46.2282 35.443 52.87 35.443 60.9156V80.2688C35.443 80.8585 36.1063 81.2049 36.5901 80.8676L48.6201 72.4859C49.4494 71.908 50.5509 71.908 51.3803 72.4859L63.4102 80.8676C63.8941 81.2048 64.5574 80.8585 64.5574 80.2688V60.7575C64.5575 52.7007 58.0121 46.1726 49.9487 46.2004Z" fill="url(#paint0_linear)"/>
<path d="M64.5567 80.2688V60.7575C64.5567 52.7006 58.0113 46.1724 49.948 46.2004C43.0332 46.2244 37.2893 51.134 35.8115 57.6214L35.852 57.8018L50.1069 72.0567C50.5534 72.0765 50.9958 72.2186 51.3797 72.4861L63.4098 80.8679C63.8934 81.2049 64.5567 80.8587 64.5567 80.2688Z" fill="url(#paint1_linear)"/>
<path d="M41.6356 48.8802V77.3518L38.535 79.5123V51.8623C39.417 50.7234 40.4609 49.7166 41.6332 48.8828L41.6356 48.8802Z" fill="url(#paint2_linear)"/>
<path d="M61.4654 51.7869V79.5122L58.3648 77.3517V48.8431C59.5371 49.6671 60.5822 50.6603 61.4654 51.7869Z" fill="url(#paint3_linear)"/>
<path d="M50 46.2008V72.0525C50.4827 72.0525 50.9654 72.1969 51.38 72.4859L63.41 80.8677C63.8938 81.2048 64.5571 80.8586 64.5571 80.2689V60.7574C64.5572 52.7177 58.0397 46.2009 50 46.2008Z" fill="url(#paint4_linear)"/>
<path d="M63.4095 78.508L51.3795 70.1262C50.5502 69.5484 49.4487 69.5484 48.6193 70.1262L36.5894 78.508C36.1055 78.8451 35.4423 78.4989 35.4423 77.9092V80.2688C35.4423 80.8587 36.1055 81.2049 36.5894 80.8677L48.6193 72.4859C49.4487 71.9081 50.5502 71.9081 51.3795 72.4859L63.4095 80.8677C63.8933 81.2048 64.5566 80.8586 64.5566 80.2688V77.9092C64.5566 78.4989 63.8933 78.8451 63.4095 78.508Z" fill="url(#paint5_linear)"/>
<path d="M41.6356 48.8796V63.5861L38.535 60.4854V51.8617C38.5968 51.7827 38.6597 51.7036 38.7228 51.6245C38.7896 51.5418 38.8587 51.4577 38.9279 51.3763C38.9847 51.3096 39.0416 51.2429 39.0984 51.1774C39.2145 51.0453 39.3319 50.9143 39.4528 50.7871C39.4961 50.7401 39.5405 50.6944 39.585 50.6487C39.7011 50.5264 39.821 50.4078 39.942 50.2904C40.0606 50.1756 40.1804 50.0619 40.3039 49.952C40.3262 49.931 40.3484 49.9113 40.3707 49.8915C40.4337 49.8347 40.4968 49.779 40.5609 49.7247C40.666 49.6332 40.7722 49.5443 40.8797 49.4566C40.9304 49.4147 40.981 49.3738 41.0329 49.3331C41.081 49.2948 41.1293 49.2577 41.1774 49.2206C41.2763 49.1441 41.3751 49.0699 41.4751 48.9971C41.5271 48.9576 41.5802 48.9205 41.6333 48.8822L41.6356 48.8796Z" fill="url(#paint6_linear)"/>
<path d="M61.4654 51.7869V79.5122L58.3648 77.3517V48.8431C59.5371 49.6671 60.5822 50.6603 61.4654 51.7869Z" fill="url(#paint7_linear)"/>
<path d="M71.742 38.4432C71.742 27.705 62.008 19 50.0006 19C37.9931 19 28.2591 27.705 28.2591 38.4432V43.0397C28.2591 53.7779 37.9931 62.4829 50.0006 62.4829C62.008 62.4829 71.742 53.7779 71.742 43.0397C71.742 43.0246 71.742 38.4583 71.742 38.4432Z" fill="url(#paint8_linear)"/>
<path d="M71.742 38.4432C71.742 27.705 62.008 19 50.0006 19C37.9931 19 28.2591 27.705 28.2591 38.4432V43.0397C28.2591 53.7779 37.9931 62.4829 50.0006 62.4829C62.008 62.4829 71.742 53.7779 71.742 43.0397C71.742 43.0246 71.742 38.4583 71.742 38.4432Z" fill="url(#paint9_linear)"/>
<path d="M67.9057 27.4146C63.9839 22.3318 57.4273 19 49.9996 19C42.5719 19 36.0153 22.3318 32.0935 27.4146V54.0684C36.0153 59.1512 42.5719 62.483 49.9996 62.483C57.4273 62.483 63.9839 59.1512 67.9057 54.0684V27.4146Z" fill="url(#paint10_linear)"/>
<path d="M37.248 58.7873C40.8304 61.1115 45.2359 62.4829 50.0002 62.4829C54.7645 62.4829 59.1699 61.1114 62.7524 58.7873V22.6956C59.1699 20.3715 54.7645 19 50.0002 19C45.2359 19 40.8305 20.3715 37.248 22.6956V58.7873Z" fill="url(#paint11_linear)"/>
<path d="M45.0601 61.9786C46.6471 62.3083 48.3005 62.4829 49.9997 62.4829C51.6989 62.4829 53.3523 62.3083 54.9393 61.9786V19.5043C53.3523 19.1746 51.6989 19 49.9997 19C48.3005 19 46.6471 19.1746 45.0601 19.5043V61.9786Z" fill="url(#paint12_linear)"/>
<path d="M50.0006 57.8864C62.008 57.8864 71.742 49.1814 71.742 38.4432C71.742 27.705 62.008 19 50.0006 19C37.9931 19 28.2591 27.705 28.2591 38.4432C28.2591 49.1814 37.9931 57.8864 50.0006 57.8864Z" fill="url(#paint13_linear)"/>
<path d="M50.0004 55.718C60.6687 55.718 69.3171 47.9838 69.3171 38.4432C69.3171 28.9026 60.6687 21.1685 50.0004 21.1685C39.332 21.1685 30.6836 28.9026 30.6836 38.4432C30.6836 47.9838 39.332 55.718 50.0004 55.718Z" fill="url(#paint14_linear)"/>
<path d="M49.9992 54.0819C59.6571 54.0819 67.4864 47.0802 67.4864 38.4432C67.4864 29.8061 59.6571 22.8044 49.9992 22.8044C40.3412 22.8044 32.5119 29.8061 32.5119 38.4432C32.5119 47.0802 40.3412 54.0819 49.9992 54.0819Z" fill="url(#paint15_linear)"/>
<path d="M71.3773 42.0036L63.4876 34.1139C63.3547 33.8385 63.0958 33.6216 62.7438 33.5714L59.0716 33.0374L50.887 24.8728V24.8727C50.7077 24.5035 50.3542 24.317 50.0008 24.317C49.6474 24.317 49.2938 24.5034 49.1145 24.8727L45.4676 32.3775L37.2577 33.5714C36.8515 33.6294 36.5684 33.909 36.4612 34.2449C36.3521 34.5825 36.4207 34.9764 36.7179 35.2595L42.5361 41.0616C42.5486 41.0783 42.5625 41.0943 42.5763 41.1106L41.2318 48.954C41.1632 49.3496 41.3338 49.7013 41.6116 49.9088L49.5848 57.8819C49.7232 57.8842 49.8618 57.8866 50.0009 57.8866C60.6482 57.8864 69.5069 51.0412 71.3773 42.0036Z" fill="url(#paint16_linear)"/>
<path d="M63.5403 34.2448C63.4331 33.9089 63.15 33.6293 62.7438 33.5713L54.5339 32.3774L50.887 24.8726C50.7077 24.5034 50.3542 24.3169 50.0008 24.3169C49.6474 24.3169 49.2938 24.5033 49.1145 24.8726L45.4676 32.3774L37.2577 33.5713C36.8515 33.6293 36.5684 33.9089 36.4612 34.2448C36.3521 34.5824 36.4207 34.9763 36.7179 35.2594L42.6156 40.881L41.2318 48.9538C41.1632 49.3495 41.3338 49.701 41.6116 49.9086C41.8912 50.1178 42.2798 50.1828 42.642 50.0017L50.0008 46.3337L57.3597 50.0017C57.7219 50.1828 58.1105 50.1178 58.3901 49.9086C58.6679 49.701 58.8384 49.3493 58.7699 48.9538L57.386 40.881L63.2837 35.2594C63.5808 34.9763 63.6494 34.5824 63.5403 34.2448ZM50.0008 38.5388L49.9885 38.5424L49.9937 38.5371L50.0008 38.5266L50.0078 38.5371L50.013 38.5424L50.0008 38.5388Z" fill="url(#paint17_linear)"/>
<path d="M49.9922 38.5371L49.9869 38.5423L42.614 40.8809L36.7164 35.2594C36.4193 34.9762 36.3506 34.5823 36.4596 34.2448L49.9922 38.5371Z" fill="url(#paint18_linear)"/>
<path d="M49.9877 38.5424L41.6106 49.9087C41.3329 49.7011 41.1623 49.3495 41.2309 48.9539L42.6147 40.8811L49.9877 38.5424Z" fill="url(#paint19_linear)"/>
<path d="M58.3893 49.9085C58.1097 50.1177 57.7212 50.1828 57.3589 50.0016L50 46.3337V38.5387L50.0123 38.5422L58.3893 49.9085Z" fill="url(#paint20_linear)"/>
<path d="M49.9997 38.5389V46.3339L42.6408 50.0019C42.2785 50.183 41.89 50.118 41.6104 49.9088L49.9874 38.5425L49.9997 38.5389Z" fill="url(#paint21_linear)"/>
<path d="M58.3892 49.9085L50.0121 38.5422L57.385 40.8809L58.7688 48.9536C58.8375 49.3495 58.667 49.7011 58.3892 49.9085Z" fill="url(#paint22_linear)"/>
<path d="M49.9998 38.5266L49.9928 38.5372L36.4602 34.245C36.5675 33.9091 36.8506 33.6295 37.2568 33.5715L45.4666 32.3776L49.9998 38.5266Z" fill="url(#paint23_linear)"/>
<path d="M54.5332 32.3774L50 38.5266V24.3169C50.3534 24.3169 50.7069 24.5033 50.8862 24.8726L54.5332 32.3774Z" fill="url(#paint24_linear)"/>
<path d="M50.0003 24.3169V38.5264L45.4671 32.3774L49.114 24.8726C49.2933 24.5033 49.6469 24.3169 50.0003 24.3169Z" fill="url(#paint25_linear)"/>
<path d="M63.5396 34.2449L50.0071 38.5371L50 38.5266L54.5332 32.3776L62.7431 33.5715C63.1492 33.6295 63.4324 33.909 63.5396 34.2449Z" fill="url(#paint26_linear)"/>
<path d="M63.2835 35.2595L57.3859 40.8811L50.013 38.5424L50.0078 38.5372L63.5403 34.245C63.6492 34.5825 63.5806 34.9764 63.2835 35.2595Z" fill="url(#paint27_linear)"/>
<path d="M61.246 34.7473C61.1569 34.4683 60.9218 34.2361 60.5843 34.1879L53.7648 33.1961L50.7356 26.9623C50.5865 26.6556 50.2931 26.5007 49.9995 26.5007C49.7059 26.5007 49.4123 26.6556 49.2634 26.9623L46.2341 33.1961L39.4146 34.1879C39.0771 34.2361 38.842 34.4683 38.7529 34.7473C38.6623 35.0278 38.7194 35.3549 38.9661 35.5901L43.865 40.2595L42.7156 46.9651C42.6585 47.2937 42.8003 47.5858 43.031 47.7582C43.2632 47.9321 43.5861 47.986 43.887 47.8357L49.9995 44.7889L56.1121 47.8357C56.4129 47.9862 56.7357 47.9321 56.968 47.7582C57.1988 47.5858 57.3405 47.2937 57.2835 46.9651L56.1341 40.2595L61.0329 35.5901C61.2796 35.3549 61.3366 35.0278 61.246 34.7473ZM49.9995 38.314L49.9893 38.317L49.9936 38.3126L49.9995 38.3038L50.0053 38.3126L50.0097 38.317L49.9995 38.314Z" fill="url(#paint28_linear)"/>
<path d="M49.9993 52.424C58.6335 52.424 65.6328 46.1646 65.6328 38.4432C65.6328 30.7217 58.6335 24.4623 49.9993 24.4623C41.3652 24.4623 34.3658 30.7217 34.3658 38.4432C34.3658 46.1646 41.3652 52.424 49.9993 52.424Z" fill="url(#paint29_linear)"/>
</g>
<defs>
<linearGradient id="paint0_linear" x1="41.8512" y1="57.5629" x2="64.5451" y2="87.0833" gradientUnits="userSpaceOnUse">
<stop stop-color="#4A98F7"/>
<stop offset="1" stop-color="#0469BC"/>
</linearGradient>
<linearGradient id="paint1_linear" x1="51.0745" y1="71.4832" x2="50.0605" y2="57.185" gradientUnits="userSpaceOnUse">
<stop stop-color="#0469BC" stop-opacity="0"/>
<stop offset="1" stop-color="#0469BC"/>
</linearGradient>
<linearGradient id="paint2_linear" x1="35.7246" y1="58.5238" x2="48.814" y2="75.5507" gradientUnits="userSpaceOnUse">
<stop stop-color="#F9F7FC"/>
<stop offset="1" stop-color="#F0DDFC"/>
</linearGradient>
<linearGradient id="paint3_linear" x1="54.6065" y1="57.6637" x2="69.7958" y2="77.422" gradientUnits="userSpaceOnUse">
<stop stop-color="#F9F7FC"/>
<stop offset="1" stop-color="#F0DDFC"/>
</linearGradient>
<linearGradient id="paint4_linear" x1="56.0281" y1="61.7877" x2="31.4937" y2="43.9583" gradientUnits="userSpaceOnUse">
<stop stop-color="#18CFFC" stop-opacity="0"/>
<stop offset="1" stop-color="#65E1DC"/>
</linearGradient>
<linearGradient id="paint5_linear" x1="49.9994" y1="78.1135" x2="49.9994" y2="57.3395" gradientUnits="userSpaceOnUse">
<stop stop-color="#0469BC" stop-opacity="0"/>
<stop offset="1" stop-color="#0469BC"/>
</linearGradient>
<linearGradient id="paint6_linear" x1="40.0852" y1="71.6885" x2="40.0852" y2="56.3671" gradientUnits="userSpaceOnUse">
<stop stop-color="#F0DDFC" stop-opacity="0"/>
<stop offset="0.2889" stop-color="#C8B7E0" stop-opacity="0.289"/>
<stop offset="0.5915" stop-color="#A595C8" stop-opacity="0.592"/>
<stop offset="0.8395" stop-color="#8F81B8" stop-opacity="0.84"/>
<stop offset="1" stop-color="#8779B3"/>
</linearGradient>
<linearGradient id="paint7_linear" x1="59.9151" y1="71.6884" x2="59.9151" y2="56.367" gradientUnits="userSpaceOnUse">
<stop stop-color="#F0DDFC" stop-opacity="0"/>
<stop offset="0.2889" stop-color="#C8B7E0" stop-opacity="0.289"/>
<stop offset="0.5915" stop-color="#A595C8" stop-opacity="0.592"/>
<stop offset="0.8395" stop-color="#8F81B8" stop-opacity="0.84"/>
<stop offset="1" stop-color="#8779B3"/>
</linearGradient>
<linearGradient id="paint8_linear" x1="28.2591" y1="40.7415" x2="71.742" y2="40.7415" gradientUnits="userSpaceOnUse">
<stop stop-color="#FFDA45"/>
<stop offset="1" stop-color="#FFA425"/>
</linearGradient>
<linearGradient id="paint9_linear" x1="59.7515" y1="43.9025" x2="75.269" y2="48.9329" gradientUnits="userSpaceOnUse">
<stop stop-color="#FFDA45" stop-opacity="0"/>
<stop offset="0.5194" stop-color="#D9874F" stop-opacity="0.519"/>
<stop offset="1" stop-color="#B53759"/>
</linearGradient>
<linearGradient id="paint10_linear" x1="47.93" y1="36.7615" x2="65.8002" y2="71.1273" gradientUnits="userSpaceOnUse">
<stop stop-color="#FFDA45" stop-opacity="0"/>
<stop offset="0.5194" stop-color="#D9874F" stop-opacity="0.519"/>
<stop offset="1" stop-color="#B53759"/>
</linearGradient>
<linearGradient id="paint11_linear" x1="49.3313" y1="47.5262" x2="47.2206" y2="68.9346" gradientUnits="userSpaceOnUse">
<stop stop-color="#FFDA45" stop-opacity="0"/>
<stop offset="0.5194" stop-color="#D9874F" stop-opacity="0.519"/>
<stop offset="1" stop-color="#B53759"/>
</linearGradient>
<linearGradient id="paint12_linear" x1="45.6935" y1="48.6173" x2="39.1688" y2="60.5507" gradientUnits="userSpaceOnUse">
<stop stop-color="#FFDA45" stop-opacity="0"/>
<stop offset="0.5194" stop-color="#D9874F" stop-opacity="0.519"/>
<stop offset="1" stop-color="#B53759"/>
</linearGradient>
<linearGradient id="paint13_linear" x1="28.2591" y1="38.4432" x2="71.742" y2="38.4432" gradientUnits="userSpaceOnUse">
<stop stop-color="#FFDA45"/>
<stop offset="1" stop-color="#FFA425"/>
</linearGradient>
<linearGradient id="paint14_linear" x1="69.3171" y1="38.4432" x2="30.6837" y2="38.4432" gradientUnits="userSpaceOnUse">
<stop stop-color="#FFDA45"/>
<stop offset="1" stop-color="#FFA425"/>
</linearGradient>
<linearGradient id="paint15_linear" x1="32.5119" y1="38.4432" x2="67.4864" y2="38.4432" gradientUnits="userSpaceOnUse">
<stop stop-color="#FFDA45"/>
<stop offset="1" stop-color="#FFA425"/>
</linearGradient>
<linearGradient id="paint16_linear" x1="73.2282" y1="60.2775" x2="29.4981" y2="22.7241" gradientUnits="userSpaceOnUse">
<stop stop-color="#FFDA45" stop-opacity="0"/>
<stop offset="0.5194" stop-color="#D9874F" stop-opacity="0.519"/>
<stop offset="1" stop-color="#B53759"/>
</linearGradient>
<linearGradient id="paint17_linear" x1="44.7192" y1="33.8718" x2="65.307" y2="55.2015" gradientUnits="userSpaceOnUse">
<stop stop-color="#FFDA45"/>
<stop offset="1" stop-color="#FCB37E"/>
</linearGradient>
<linearGradient id="paint18_linear" x1="41.5649" y1="34.9909" x2="54.3699" y2="48.6495" gradientUnits="userSpaceOnUse">
<stop stop-color="#FCB37E" stop-opacity="0"/>
<stop offset="1" stop-color="#FF7044"/>
</linearGradient>
<linearGradient id="paint19_linear" x1="41.2157" y1="44.2255" x2="49.9877" y2="44.2255" gradientUnits="userSpaceOnUse">
<stop stop-color="#FFDA45"/>
<stop offset="1" stop-color="#FCB37E"/>
</linearGradient>
<linearGradient id="paint20_linear" x1="47.9072" y1="40.0734" x2="62.8937" y2="56.9568" gradientUnits="userSpaceOnUse">
<stop stop-color="#FCB37E" stop-opacity="0"/>
<stop offset="1" stop-color="#FF7044"/>
</linearGradient>
<linearGradient id="paint21_linear" x1="39.3239" y1="44.5572" x2="58.5787" y2="43.8932" gradientUnits="userSpaceOnUse">
<stop stop-color="#FCB37E" stop-opacity="0"/>
<stop offset="1" stop-color="#FF7044"/>
</linearGradient>
<linearGradient id="paint22_linear" x1="56.5354" y1="52.3133" x2="51.6031" y2="30.4027" gradientUnits="userSpaceOnUse">
<stop stop-color="#FFDA45"/>
<stop offset="1" stop-color="#FCB37E"/>
</linearGradient>
<linearGradient id="paint23_linear" x1="42.5796" y1="33.5743" x2="45.52" y2="46.2844" gradientUnits="userSpaceOnUse">
<stop stop-color="#FFDA45"/>
<stop offset="1" stop-color="#FCB37E"/>
</linearGradient>
<linearGradient id="paint24_linear" x1="55.0999" y1="33.4026" x2="36.8885" y2="26.1939" gradientUnits="userSpaceOnUse">
<stop stop-color="#FCB37E" stop-opacity="0"/>
<stop offset="1" stop-color="#FF7044"/>
</linearGradient>
<linearGradient id="paint25_linear" x1="47.1935" y1="27.4249" x2="56.5837" y2="43.4547" gradientUnits="userSpaceOnUse">
<stop stop-color="#FCB37E" stop-opacity="0"/>
<stop offset="1" stop-color="#FF7044"/>
</linearGradient>
<linearGradient id="paint26_linear" x1="58.8424" y1="33.483" x2="41.3898" y2="48.9437" gradientUnits="userSpaceOnUse">
<stop stop-color="#FCB37E" stop-opacity="0"/>
<stop offset="1" stop-color="#FF7044"/>
</linearGradient>
<linearGradient id="paint27_linear" x1="55.7065" y1="39.7664" x2="61.777" y2="22.3138" gradientUnits="userSpaceOnUse">
<stop stop-color="#FCB37E" stop-opacity="0"/>
<stop offset="1" stop-color="#FF7044"/>
</linearGradient>
<linearGradient id="paint28_linear" x1="50.3559" y1="38.684" x2="44.4578" y2="30.1643" gradientUnits="userSpaceOnUse">
<stop stop-color="#FFDA45" stop-opacity="0"/>
<stop offset="1" stop-color="#FFEE83"/>
</linearGradient>
<linearGradient id="paint29_linear" x1="48.9273" y1="36.9561" x2="37.4389" y2="21.0207" gradientUnits="userSpaceOnUse">
<stop stop-color="#FFDA45" stop-opacity="0"/>
<stop offset="1" stop-color="#FCEE21"/>
</linearGradient>
<clipPath id="clip0">
<rect width="62" height="62" fill="white" transform="translate(19 19)"/>
</clipPath>
</defs>
</svg>
