<svg width="100" height="100" viewBox="0 0 100 100" fill="none" xmlns="http://www.w3.org/2000/svg">
<rect opacity="0.1" width="100" height="100" rx="30" fill="#2C6D97"/>
<g clip-path="url(#clip0)">
<path d="M74.3809 23.5476H26.6191C24.6203 23.5476 23 25.168 23 27.1668V73.7263C23 75.261 24.8554 76.0295 25.9407 74.9444L35.6745 65.2105C36.9445 63.9405 38.6672 63.2269 40.4635 63.2269H74.3808C76.3796 63.2269 77.9999 61.6065 77.9999 59.6078V27.1668C78 25.168 76.3797 23.5476 74.3809 23.5476Z" fill="url(#paint0_linear)"/>
<path d="M78.0001 59.6076V32.6208L74.5526 29.1732C73.9658 28.2356 72.9246 27.9565 71.737 27.9565H29.2632C27.4298 27.9565 26.2883 29.0981 26.2883 30.9315V56.5406C26.2883 57.7282 26.5674 58.7694 27.505 59.3562L34.517 66.3682L35.6747 65.2105C36.9448 63.9405 38.6675 63.2269 40.4637 63.2269H74.381C76.3798 63.2268 78.0001 61.6064 78.0001 59.6076Z" fill="url(#paint1_linear)"/>
<path d="M29.2636 27.6117H71.7374C73.5708 27.6117 75.0572 29.098 75.0572 30.9315V73.911C75.0572 75.2815 73.4003 75.9678 72.4312 74.9987L59.0643 61.6317C57.9301 60.4975 56.3918 59.8604 54.7879 59.8604H29.2636C27.4301 59.8604 25.9437 58.3741 25.9437 56.5405V30.9315C25.9437 29.098 27.4301 27.6117 29.2636 27.6117Z" fill="url(#paint2_linear)"/>
<path d="M75.056 52.6863L61.2391 38.8694C60.4493 37.9269 59.2639 37.5049 57.9381 37.5049C55.5603 37.5049 53.8104 39.2547 53.8104 41.6326C53.8104 42.9584 54.2325 44.1438 55.1749 44.9335L75.0559 64.8145V52.6863H75.056Z" fill="url(#paint3_linear)"/>
<path d="M49.4669 34.6956C48.445 33.4762 46.9115 32.9302 45.1962 32.9302C42.1199 32.9302 39.856 35.1941 39.856 38.2704C39.856 39.9857 40.402 41.5192 41.6214 42.541L74.31 75.2297C74.7431 74.9722 75.056 74.5063 75.056 73.911V60.2847L49.4669 34.6956Z" fill="url(#paint4_linear)"/>
<path d="M58.0194 46.0944C60.4411 46.0944 62.4042 44.1313 62.4042 41.7096C62.4042 39.288 60.4411 37.3248 58.0194 37.3248C55.5978 37.3248 53.6346 39.288 53.6346 41.7096C53.6346 44.1313 55.5978 46.0944 58.0194 46.0944Z" fill="url(#paint5_linear)"/>
<path d="M65.3241 50.277C63.3972 48.5695 60.8618 47.7122 58.0846 47.7122C58.0844 47.7122 58.0834 47.7122 58.0832 47.7122C55.3059 47.7122 52.7706 48.7486 50.8437 50.4562C50.2785 50.9571 50.1439 51.5039 50.1439 52.259V53.6049C50.1439 53.9609 50.1875 54.2643 50.5009 54.3851L56.1283 60.0125C57.2315 60.2633 58.2521 60.8191 59.0648 61.6317L72.4317 74.9986C73.4008 75.9677 75.0577 75.2814 75.0577 73.9109V60.0223L65.3241 50.277Z" fill="url(#paint6_linear)"/>
<path d="M58.0203 47.4562C58.0201 47.4562 58.0199 47.4562 58.0196 47.4562C58.0194 47.4562 58.0192 47.4562 58.0188 47.4562C55.2142 47.4562 52.6539 48.5029 50.7079 50.2273C50.1372 50.7331 49.8203 51.4663 49.8203 52.2289V53.588C49.8203 54.0547 50.1986 54.433 50.6652 54.433H65.3737C65.8404 54.433 66.2187 54.0547 66.2187 53.588V52.2289C66.2187 51.4663 65.9019 50.733 65.331 50.2273C63.3853 48.5029 60.8249 47.4562 58.0203 47.4562Z" fill="url(#paint7_linear)"/>
<path d="M45.1979 43.8405C48.2742 43.8405 50.768 41.3467 50.768 38.2704C50.768 35.1941 48.2742 32.7003 45.1979 32.7003C42.1217 32.7003 39.6278 35.1941 39.6278 38.2704C39.6278 41.3467 42.1217 43.8405 45.1979 43.8405Z" fill="url(#paint8_linear)"/>
<path d="M59.0648 61.6318L72.4318 74.9987C73.4008 75.9678 75.0577 75.2815 75.0577 73.911V69.6873L54.486 49.0905C52.0141 46.9 48.7616 45.8002 45.1989 45.8002C45.1986 45.8002 45.1974 45.8002 45.1971 45.8002C41.6343 45.8002 38.3818 47.1299 35.9099 49.3204C35.1849 49.9629 35.0122 50.6644 35.0122 51.6332V53.3598C35.0122 53.8165 35.0681 54.2056 35.4701 54.3607L40.97 59.8605H54.7883C56.3924 59.8604 57.9306 60.4976 59.0648 61.6318Z" fill="url(#paint9_linear)"/>
<path d="M45.1983 45.5702C45.198 45.5702 45.1977 45.5702 45.1973 45.5702C45.197 45.5702 45.1967 45.5702 45.1964 45.5702C41.6336 45.5702 38.3811 46.8999 35.9092 49.0904C35.1842 49.7329 34.7816 50.6644 34.7816 51.6331V53.3597C34.7816 53.9525 35.2622 54.4331 35.855 54.4331H54.5395C55.1323 54.4331 55.6128 53.9525 55.6128 53.3597V51.6331C55.6128 50.6644 55.2102 49.7329 54.4852 49.0904C52.0134 46.8999 48.761 45.5702 45.1983 45.5702Z" fill="url(#paint10_linear)"/>
</g>
<defs>
<linearGradient id="paint0_linear" x1="39.7516" y1="33.7103" x2="56.3034" y2="59.0551" gradientUnits="userSpaceOnUse">
<stop stop-color="#EBEFF0"/>
<stop offset="1" stop-color="#E3E5E4"/>
</linearGradient>
<linearGradient id="paint1_linear" x1="61.7982" y1="68.2723" x2="44.4249" y2="26.5535" gradientUnits="userSpaceOnUse">
<stop stop-color="#CBD0E4" stop-opacity="0"/>
<stop offset="1" stop-color="#6A7D83"/>
</linearGradient>
<linearGradient id="paint2_linear" x1="44.1335" y1="27.425" x2="59.4783" y2="66.7355" gradientUnits="userSpaceOnUse">
<stop stop-color="#7FAEF4"/>
<stop offset="1" stop-color="#4C8DF1"/>
</linearGradient>
<linearGradient id="paint3_linear" x1="65.9064" y1="49.6008" x2="51.5199" y2="35.2143" gradientUnits="userSpaceOnUse">
<stop stop-color="#4C8DF1" stop-opacity="0"/>
<stop offset="1" stop-color="#4256AC"/>
</linearGradient>
<linearGradient id="paint4_linear" x1="58.8155" y1="51.8895" x2="35.8434" y2="28.9175" gradientUnits="userSpaceOnUse">
<stop stop-color="#4C8DF1" stop-opacity="0"/>
<stop offset="1" stop-color="#4256AC"/>
</linearGradient>
<linearGradient id="paint5_linear" x1="56.5766" y1="40.0556" x2="60.2866" y2="44.3086" gradientUnits="userSpaceOnUse">
<stop stop-color="#A7C5FD"/>
<stop offset="1" stop-color="#7FAEF4"/>
</linearGradient>
<linearGradient id="paint6_linear" x1="63.5137" y1="60.5102" x2="60.3526" y2="48.1533" gradientUnits="userSpaceOnUse">
<stop stop-color="#4C8DF1" stop-opacity="0"/>
<stop offset="1" stop-color="#4256AC"/>
</linearGradient>
<linearGradient id="paint7_linear" x1="56.0206" y1="49.5797" x2="59.8101" y2="55.3587" gradientUnits="userSpaceOnUse">
<stop stop-color="#A7C5FD"/>
<stop offset="1" stop-color="#7FAEF4"/>
</linearGradient>
<linearGradient id="paint8_linear" x1="43.3651" y1="36.1693" x2="48.078" y2="41.5719" gradientUnits="userSpaceOnUse">
<stop stop-color="#EBEFF0"/>
<stop offset="1" stop-color="#E3E5E4"/>
</linearGradient>
<linearGradient id="paint9_linear" x1="54.3168" y1="60.0603" x2="47.6851" y2="44.5483" gradientUnits="userSpaceOnUse">
<stop stop-color="#4C8DF1" stop-opacity="0"/>
<stop offset="1" stop-color="#4256AC"/>
</linearGradient>
<linearGradient id="paint10_linear" x1="42.6581" y1="48.2679" x2="47.4718" y2="55.6089" gradientUnits="userSpaceOnUse">
<stop stop-color="#EBEFF0"/>
<stop offset="1" stop-color="#E3E5E4"/>
</linearGradient>
<clipPath id="clip0">
<rect width="55" height="55" fill="white" transform="translate(23 22)"/>
</clipPath>
</defs>
</svg>
