<svg xmlns="http://www.w3.org/2000/svg" height="223" viewBox="0 0 409 222.604" xmlns:xlink="http://www.w3.org/1999/xlink" width="409">
    <defs/>
    <path fill="#ffffff" stroke="#3498db" d="M218.6,105.3C220.7,105.3,221.7,105.7,221.7,106.4C221.7,115.2,218.8,128.1,212.9,145.3C207,162.4,199.2,176.5,189.5,187.5C179.8,198.5,168.3,206.8,155.1,212.3C141.9,217.8,127,220.6,110.4,220.6C78.7,220.6,52.3,210.2,31.4,189.4C10.5,168.5,0,142.4,0,111C0,90.7,4.9,71.9,14.7,54.8C24.5,37.7,38,24.3,55.2,14.6C72.4,4.9,91.3,0,111.9,0C126,0,139.1,2.3,151.4,6.8C163.7,11.4,174.7,18.4,184.5,27.8C194.3,37.2,202.9,49.8,210.3,65.6C217.8,81.4,221.5,92.8,221.5,99.9C221.5,101,220.7,101.7,219.2,101.9L192.9,103.9C192.4,103.9,191.9,103.9,191.5,104C191.1,104.1,191,104.2,191.2,104.3C191.4,104.4,191.6,104.5,191.8,104.5L192.9,104.5L218.6,105.3zM210,114.2L151,112.4C147.9,140.2,134.1,154.1,109.6,154.1C97.8,154.1,88,150,80.3,141.8C72.6,133.7,68.8,123.4,68.8,111C68.8,98.1,72.7,87.4,80.6,79.1C88.5,70.7,98.5,66.5,110.4,66.5C129.5,66.5,142.3,77,149,97.9L209.5,93.6C203.7,66.8,192.2,46.2,174.7,32C157.2,17.7,136.2,10.6,111.9,10.6C83.3,10.6,59.3,20.2,39.8,39.5C20.3,58.8,10.6,82.7,10.6,111C10.6,139.4,20,163,39,181.8C57.9,200.6,81.7,210,110.4,210C138,210,160.5,201.8,177.8,185.4C195.1,168.9,205.9,145.2,210,114.2zM140.4,111.3C140.4,101.8,137.6,93.7,132,87C126.4,80.4,119.2,77.1,110.4,77.1C101.5,77.1,94.1,80.2,88.2,86.6C82.3,93,79.3,101.1,79.3,111C79.3,120.3,82.2,128.1,87.9,134.3C93.6,140.5,100.8,143.5,109.6,143.5C118.9,143.5,126.4,140.5,132,134.3C137.6,128.1,140.4,120.4,140.4,111.3zM312.2,220.6C281.6,220.6,258.4,213.5,242.7,199.3C227,185.2,219.2,164.3,219.2,136.7L219.2,16.3L289.4,16.3L289.4,69.1L311.4,69.1L311.4,141.8L291.1,141.8C292.8,146,299.8,148.1,312.2,148.1L312.2,220.6zM301.7,210L301.7,158.7C292.9,158.7,286.9,156.7,283.7,152.8C280.4,148.9,278.8,141.7,278.8,131.3L300.8,131.3L300.8,79.6L278.8,79.6L278.8,26.8L229.7,26.8L229.7,136.7C229.7,160.1,236.1,178.2,248.7,190.9C261.4,203.7,279,210,301.7,210zM407.3,220.6C376.7,220.6,353.5,213.5,337.9,199.3C322.2,185.2,314.3,164.3,314.3,136.7L314.3,16.3L384.5,16.3L384.5,69.1L406.5,69.1L406.5,141.8L386.2,141.8C387.9,146,395,148.1,407.3,148.1L407.3,220.6zM396.8,210L396.8,158.7C388,158.7,382,156.7,378.8,152.8C375.6,148.9,374,141.7,374,131.3L395.9,131.3L395.9,79.6L374,79.6L374,26.8L324.9,26.8L324.9,136.7C324.9,160.1,331.2,178.2,343.8,190.9C356.5,203.7,374.1,210,396.8,210z" transform="translate(1,1)" id="shape1"/>
</svg>
