<?xml version="1.0" encoding="UTF-8"?>
<svg width="16px" height="16px" viewBox="0 0 16 16" version="1.1" xmlns="http://www.w3.org/2000/svg" xmlns:xlink="http://www.w3.org/1999/xlink">
    <title>delete 2</title>
    <g id="页面-1" stroke="none" stroke-width="1" fill="none" fill-rule="evenodd">
        <g id="Accounts" transform="translate(-1091.000000, -692.000000)">
            <g id="编组" transform="translate(1091.000000, 692.000000)">
                <rect id="矩形" x="0" y="0" width="16" height="16"></rect>
                <path d="M11.3666667,5.5 L11.3666667,13.8333333 L4.7,13.8333333 L4.7,5.5 L11.3666667,5.5 M10.1166667,0.5 L5.95,0.5 L5.11666667,1.33333333 L2.2,1.33333333 L2.2,3 L13.8666667,3 L13.8666667,1.33333333 L10.95,1.33333333 L10.1166667,0.5 Z M13.0333333,3.83333333 L3.03333333,3.83333333 L3.03333333,13.8333333 C3.03333333,14.75 3.78333333,15.5 4.7,15.5 L11.3666667,15.5 C12.2833333,15.5 13.0333333,14.75 13.0333333,13.8333333 L13.0333333,3.83333333 Z" id="形状" fill="#EE737E" fill-rule="nonzero"></path>
            </g>
        </g>
    </g>
</svg>