<?xml version="1.0" encoding="UTF-8"?>
<svg width="16px" height="16px" viewBox="0 0 16 16" version="1.1" xmlns="http://www.w3.org/2000/svg" xmlns:xlink="http://www.w3.org/1999/xlink">
    <title>mnemonic备份 9</title>
    <g id="页面-1" stroke="none" stroke-width="1" fill="none" fill-rule="evenodd">
        <g id="Accounts" transform="translate(-1022.000000, -190.000000)">
            <g id="编组" transform="translate(1022.000000, 190.000000)">
                <rect id="矩形" x="0" y="0" width="16" height="16"></rect>
                <path d="M14.2928932,0.292893219 L15.7071068,1.70710678 L13.402,4.01189322 L14.7006913,5.28653539 L13.2993087,6.71346461 L11.988,5.42589322 L9.31052156,8.10516541 C9.74731116,8.79869958 10,9.61984047 10,10.5 C10,12.9852814 7.98528137,15 5.5,15 C3.01471863,15 1,12.9852814 1,10.5 C1,8.01471863 3.01471863,6 5.5,6 C6.38058473,6 7.20209378,6.25293304 7.89583962,6.6901116 L14.2928932,0.292893219 Z M5.5,8 C4.11928813,8 3,9.11928813 3,10.5 C3,11.8807119 4.11928813,13 5.5,13 C6.88071187,13 8,11.8807119 8,10.5 C8,9.11928813 6.88071187,8 5.5,8 Z" id="形状结合" fill="#BEAC92" fill-rule="nonzero"></path>
            </g>
        </g>
    </g>
</svg>