<svg xmlns="http://www.w3.org/2000/svg" width="160" height="150" viewBox="0 0 160 150">
  <defs>
    <style>
      .cls-1 {
        fill: #596a83;
      }

      .cls-2 {
        fill: #d43e3a;
      }

      .cls-3 {
        fill: #dde4ea;
      }

      .cls-4 {
        fill: #2e3054;
      }

      .cls-10, .cls-5 {
        fill: #fff;
      }

      .cls-6 {
        fill: #de6264;
      }

      .cls-10, .cls-7 {
        opacity: 0.4;
      }

      .cls-8 {
        fill: #ecb49f;
      }

      .cls-9 {
        fill: #c79e7a;
      }

      .cls-11 {
        fill: #acd0ef;
      }

      .cls-12 {
        fill: #ffba32;
      }

      .cls-13 {
        fill: #ffd72d;
      }

      .cls-14 {
        fill: #d0dcef;
      }
    </style>
  </defs>
  <g id="service_4" data-name="service 4" transform="translate(-75.51 -48.379)">
    <g id="Layer_2" data-name="Layer 2" transform="translate(75.51 48.379)">
      <g id="Layer_2-2" data-name="Layer 2">
        <path id="Path_936" data-name="Path 936" class="cls-1" d="M158.9,107.88a11.36,11.36,0,0,0-2.279,12.178c2.881,7.268,10.846,12.932,18.922,17.908,6.089,3.754,7.913,6.409,5.229,11.538-3.371,6.437-7.216,5.11-11.757,11.461-1.565,2.436-5.788,9.818-5.788,9.818l3.75,2.636s-.224-1.6,4.369-5.177c5.04-3.925,14.114-8.94,16.892-11.261s7.474-5.3,5.367-12.617-20.7-25.253-20.7-25.253Z" transform="translate(-86.737 -51.05)"/>
        <path id="Path_937" data-name="Path 937" class="cls-2" d="M224.12,162.435c18.922-22.521,5.565-49.235,5.565-49.235l2.58.439s17.692,21.853.2,45.7Z" transform="translate(-96.304 -51.289)"/>
        <ellipse id="Ellipse_316" data-name="Ellipse 316" class="cls-2" cx="3.578" cy="3.973" rx="3.578" ry="3.973" transform="translate(127.618 59.485)"/>
        <ellipse id="Ellipse_317" data-name="Ellipse 317" class="cls-3" cx="17.098" cy="18.987" rx="17.098" ry="18.987" transform="translate(22.448 112.025)"/>
        <ellipse id="Ellipse_318" data-name="Ellipse 318" class="cls-4" cx="17.098" cy="18.987" rx="17.098" ry="18.987" transform="translate(22.448 112.025)"/>
        <ellipse id="Ellipse_319" data-name="Ellipse 319" class="cls-5" cx="8.833" cy="9.809" rx="8.833" ry="9.809" transform="translate(30.318 121.204)"/>
        <path id="Path_938" data-name="Path 938" class="cls-2" d="M158.127,135.936s-9.143,20.735,1,34.011,34.4,8.6,34.4,8.6l-.2,9.083L76.42,192.535s5.16-48.214,26.043-60.563S151.565,126.146,158.127,135.936Z" transform="translate(-75.637 -51.828)"/>
        <path id="Path_939" data-name="Path 939" class="cls-6" d="M148.346,163.02c-3.38-13.906-21.5-16.113-40.759-5.3S77.57,189.953,77.57,189.953l.912.143,58.485-2.321C146.264,182.456,150.909,173.564,148.346,163.02Z" transform="translate(-75.798 -52.981)"/>
        <g id="Group_91" data-name="Group 91" class="cls-7" transform="translate(8.093 78.938)">
          <path id="Path_940" data-name="Path 940" class="cls-5" d="M85.2,158.565l-.284-.229a82.875,82.875,0,0,1,11.534-13.763c6.545-6.265,16.78-13.7,28.382-13.543,23.222.315,33.328,1.433,33.431,1.442v.392c-.1,0-10.218-1.127-33.4-1.442h-.361C102.646,131.421,85.376,158.3,85.2,158.565Z" transform="translate(-84.92 -131.028)"/>
        </g>
        <path id="Path_941" data-name="Path 941" class="cls-4" d="M153.519,110.89a13.719,13.719,0,0,0-.4,13.687c3.974,7.287,16.341,8.835,21.872,13.906s8.291,6.953,6.416,13.075c-2.348,7.641-6.33,7.039-9.848,14.852-1.178,2.97-4.214,11.843-4.214,11.843l4.1,2.092s-.464-1.681,3.518-6.514c4.369-5.3,12.557-12.607,14.948-15.7s6.562-7.287,3.38-14.795-18.062-23.4-18.062-23.4Z" transform="translate(-86.141 -51.185)"/>
        <path id="Path_942" data-name="Path 942" class="cls-6" d="M258.122,133.878c0,5.549-1.72,10.048-3.776,10.048s-13.916-2.646-13.916-9.274,11.826-10.821,13.916-10.821S258.122,128.329,258.122,133.878Z" transform="translate(-98.586 -51.766)"/>
        <ellipse id="Ellipse_320" data-name="Ellipse 320" class="cls-2" cx="3.776" cy="10.048" rx="3.776" ry="10.048" transform="translate(151.95 72.064)"/>
        <path id="Path_943" data-name="Path 943" class="cls-8" d="M195.867,76.069s12.325-8.386,7.156-16.781S190.3,50.9,186.329,61.934,183.654,72.115,176.1,76.518s-20,11.91-23.97,22.072,10.734,17.66,21.5,18.987c0,0,6.76-2.646,8.351-8.835S190.3,80.921,195.867,76.069Z" transform="translate(-86.138 -48.599)"/>
        <path id="Path_944" data-name="Path 944" class="cls-2" d="M181.681,73.569c-1.256-1.117-2.924,2.092-6.021,3.82-7.68,4.441-19.782,11.987-23.841,22.206s10.914,17.765,21.82,19.1c0,0,6.881-2.665,8.489-8.882,1.488-5.731,7.44-24.651,12.789-31.413C195.417,77.858,184.562,76.148,181.681,73.569Z" transform="translate(-86.092 -49.499)"/>
        <path id="Path_945" data-name="Path 945" class="cls-4" d="M187.963,71.06s6.683,7.421,12.23,6.256l-1.583,2.541s-9.409,1.442-15.18-4.47Z" transform="translate(-90.611 -49.397)"/>
        <path id="Path_946" data-name="Path 946" class="cls-9" d="M196.415,96.834c-.937-7.173.7-11-3.69-13.839-3.518-2.273-5.031-2.082-7.216.229-2.924,3.095-.9,15.224,2.228,23.515C190.446,100.244,195.847,96.767,196.415,96.834Z" transform="translate(-90.703 -49.861)"/>
        <ellipse id="Ellipse_321" data-name="Ellipse 321" class="cls-3" cx="17.098" cy="18.987" rx="17.098" ry="18.987" transform="translate(120.462 112.025)"/>
        <ellipse id="Ellipse_322" data-name="Ellipse 322" class="cls-4" cx="17.098" cy="18.987" rx="17.098" ry="18.987" transform="translate(120.462 112.025)"/>
        <ellipse id="Ellipse_323" data-name="Ellipse 323" class="cls-5" cx="8.833" cy="9.809" rx="8.833" ry="9.809" transform="translate(128.728 121.204)"/>
        <path id="Path_947" data-name="Path 947" class="cls-8" d="M186.5,82.346c-4.619,4.193,1.514,21.07,8.265,28.137s11.4,5.31,19.7,2.932c6.554-1.91,8.343-3.438,11.121-.783s1.591-3.973-2.185-5.96-6.958,1.767-13.916,2.646-8.283-4.117-10.321-10.134c-2.477-8.6-.12-14.069-5.47-17.029C190.188,80.2,188.683,80.359,186.5,82.346Z" transform="translate(-90.815 -49.833)"/>
        <path id="Path_948" data-name="Path 948" class="cls-2" d="M249.2,167.833c-6.681-9.376-18.566-11.845-27.847-5.785s-13.118,18.792-8.99,29.835c5.246.3,12.4-1.671,19.575-5.731C241.062,180.879,247.65,173.649,249.2,167.833Z" transform="translate(-94.428 -53.334)"/>
        <ellipse id="Ellipse_324" data-name="Ellipse 324" class="cls-10" cx="5.272" cy="5.855" rx="5.272" ry="5.855" transform="translate(136.683 107.746)"/>
        <ellipse id="Ellipse_325" data-name="Ellipse 325" class="cls-10" cx="2.812" cy="7.517" rx="2.812" ry="7.517" transform="translate(153.18 73.258)"/>
        <ellipse id="Ellipse_326" data-name="Ellipse 326" class="cls-10" cx="2.58" cy="3.515" rx="2.58" ry="3.515" transform="translate(154.84 73.831)"/>
        <ellipse id="Ellipse_327" data-name="Ellipse 327" class="cls-10" cx="3.595" cy="3.992" rx="3.595" ry="3.992" transform="translate(52.06 106.19)"/>
        <ellipse id="Ellipse_328" data-name="Ellipse 328" class="cls-10" cx="1.488" cy="1.652" rx="1.488" ry="1.652" transform="translate(59.354 103.735)"/>
        <ellipse id="Ellipse_329" data-name="Ellipse 329" class="cls-10" cx="2.288" cy="2.541" rx="2.288" ry="2.541" transform="translate(142.833 108.329)"/>
        <path id="Path_949" data-name="Path 949" class="cls-4" d="M179.555,70.373a72.38,72.38,0,0,1-17.442-6.342c-9.547-4.861-25.647-12.053-38.772-5.874,0,0,11.086,5.272,7.362,13.037-.5.64,8.738-4.078,18.062-.764s20.874,7.507,26.662,4.193Z" transform="translate(-82.203 -48.71)"/>
        <path id="Path_950" data-name="Path 950" class="cls-5" d="M171.666,175.8,169,180.766s3.767,5.731,7.44,6.361-3.716-4.3-.5-7.975S171.666,175.8,171.666,175.8Z" transform="translate(-88.591 -54.099)"/>
        <path id="Path_951" data-name="Path 951" class="cls-6" d="M198.238,94.849c-.946-6.16-.146-10.258-4.533-12.693-3.518-1.91-5.023-1.8-7.216.191-2.924,2.665-1.531,10.42,1.6,17.545C190.807,94.362,197.67,94.792,198.238,94.849Z" transform="translate(-90.814 -49.834)"/>
        <path id="Path_952" data-name="Path 952" class="cls-10" d="M126.6,176.967a.721.721,0,0,1-.748.688H96.477a.6.6,0,0,1-.648-.294.762.762,0,0,1,0-.777.6.6,0,0,1,.648-.294h29.38a.721.721,0,0,1,.748.688Z" transform="translate(-78.338 -54.121)"/>
        <path id="Path_953" data-name="Path 953" class="cls-10" d="M206.11,187.638c0,.382-.507.678-1.118.678H161.128c-.619,0-1.118-.306-1.118-.678s.5-.688,1.118-.688h43.864C205.611,186.95,206.11,187.256,206.11,187.638Z" transform="translate(-87.334 -54.6)"/>
        <path id="Path_954" data-name="Path 954" class="cls-10" d="M115.343,182.118a.656.656,0,0,1-.619.688H90.641a.7.7,0,0,1,0-1.366h24.082a.656.656,0,0,1,.619.688Z" transform="translate(-77.551 -54.353)"/>
        <path id="Path_955" data-name="Path 955" class="cls-11" d="M156.541,109.4a26.762,26.762,0,0,1-4.584-8.539c-.077.2-.146.382-.206.563a27.314,27.314,0,0,0,4.515,8.252c3.268,4.05,9.186,8.682,19.145,8.682h1.342l.645-.458C166.363,118.529,159.964,113.639,156.541,109.4Z" transform="translate(-86.178 -50.735)"/>
        <rect id="Rectangle_79" data-name="Rectangle 79" class="cls-5" width="39.116" height="5.53" transform="translate(23.945 52.322)"/>
        <path id="Path_956" data-name="Path 956" class="cls-1" d="M130.468,87.414s-.353-.172-.946-.516a21.352,21.352,0,0,1-2.374-1.614A16.385,16.385,0,0,1,125.668,84a11.061,11.061,0,0,1-1.5-1.757,6.869,6.869,0,0,1-.636-1.175,4.168,4.168,0,0,1-.335-1.538,3.218,3.218,0,0,1,.43-1.691,3.489,3.489,0,0,1,.482-.659,2.684,2.684,0,0,1,.267-.258l.138-.124.069-.057.086-.067.275-.181.129-.086.189-.1a3.686,3.686,0,0,1,.387-.162l.4-.1a2.362,2.362,0,0,1,1.608.325,3.582,3.582,0,0,1,1.066,1.041,7.387,7.387,0,0,1,.654,1.146,13.126,13.126,0,0,1,.783,2.244q.264,1,.43,2.034a28.283,28.283,0,0,1,.344,3.066V87.07a.367.367,0,0,1-.335.392.3.3,0,0,1-.138,0Zm-.37-1.242v-.134c-.163-.7-.4-1.7-.722-2.865-.163-.583-.353-1.213-.576-1.853a14.856,14.856,0,0,0-.808-1.91,5.459,5.459,0,0,0-.525-.831,2.264,2.264,0,0,0-.585-.554.787.787,0,0,0-.55-.105h-.155l-.129.057h-.069l-.12.076-.241.162h0l-.052.048-.086.067a1.2,1.2,0,0,0-.155.143,1.594,1.594,0,0,0-.232.306,1.154,1.154,0,0,0-.181.649,3.6,3.6,0,0,0,.593,1.71,12.618,12.618,0,0,0,1.187,1.614c.43.487.86.955,1.264,1.356.86.812,1.548,1.461,2.056,1.91Z" transform="translate(-82.183 -49.62)"/>
        <path id="Path_957" data-name="Path 957" class="cls-1" d="M132.14,87.03s.095-.392.3-1.041a26.869,26.869,0,0,1,1-2.646,14.909,14.909,0,0,1,.86-1.71,14.235,14.235,0,0,1,1.135-1.815,9.379,9.379,0,0,1,.748-.9,4.728,4.728,0,0,1,.989-.812,2.679,2.679,0,0,1,1.419-.449,2.282,2.282,0,0,1,.86.172,1.6,1.6,0,0,1,.37.191l.172.115.112.086.077.067.1.1h.052l.086.105a2.17,2.17,0,0,1,.49,1.012,2.472,2.472,0,0,1,.052.535,3.293,3.293,0,0,1-.49,1.585,6.175,6.175,0,0,1-.748,1.022,11.012,11.012,0,0,1-.791.812,16.136,16.136,0,0,1-1.583,1.3,12.241,12.241,0,0,1-1.479.955,25.317,25.317,0,0,1-2.3,1.289c-.585.287-.9.42-.9.42a.313.313,0,0,1-.267-.01.37.37,0,0,1-.18-.219.423.423,0,0,1,0-.229Zm.146-.172.774-.63c.49-.4,1.187-.955,2.013-1.662.413-.353.86-.735,1.3-1.137s.912-.86,1.359-1.328a7.473,7.473,0,0,0,1.17-1.5,1.284,1.284,0,0,0,.2-.563.138.138,0,0,0,0-.057h0l-.052-.057-.1-.1h-.12a.266.266,0,0,0-.1-.057.581.581,0,0,0-.2,0,1.106,1.106,0,0,0-.482.124,5.41,5.41,0,0,0-1.316,1.194c-.4.5-.791,1.012-1.135,1.528s-.662,1.022-.946,1.49c-.568.955-1.032,1.767-1.359,2.33l-.507.9Z" transform="translate(-83.434 -49.693)"/>
        <path id="Path_972" data-name="Path 972" class="cls-12" d="M0,0,6.716-.023,6.577,36.854l-6.716.023Z" transform="translate(27.519 43.561) rotate(-88.08)"/>
        <rect id="Rectangle_81" data-name="Rectangle 81" class="cls-13" width="35.1" height="6.361" transform="translate(25.587 45.369)"/>
        <rect id="Rectangle_82" data-name="Rectangle 82" class="cls-12" width="35.1" height="6.361" transform="translate(28.202 52.647)"/>
        <rect id="Rectangle_83" data-name="Rectangle 83" class="cls-13" width="35.427" height="6.361" transform="translate(24.598 59.924)"/>
        <rect id="Rectangle_84" data-name="Rectangle 84" class="cls-12" width="35.1" height="6.361" transform="translate(28.537 67.202)"/>
        <path id="Path_958" data-name="Path 958" class="cls-14" d="M99.505,93.74v2.4L85.46,94.7Z" transform="translate(-76.902 -50.415)"/>
        <path id="Path_959" data-name="Path 959" class="cls-14" d="M94.585,106.28v2.12L82.14,107.12Z" transform="translate(-76.438 -50.978)"/>
        <path id="Path_960" data-name="Path 960" class="cls-14" d="M96.745,100.81v2.4L75.51,101.765Z" transform="translate(-75.51 -50.733)"/>
        <path id="Path_961" data-name="Path 961" class="cls-1" d="M132.359,124.7a.664.664,0,0,1-.628-.506L121.255,87.446a.745.745,0,0,1,.426-.912.644.644,0,0,1,.821.473l10.484,36.752a.8.8,0,0,1-.026.582.675.675,0,0,1-.4.373A.574.574,0,0,1,132.359,124.7Z" transform="translate(-81.907 -50.09)"/>
        <path id="Path_962" data-name="Path 962" class="cls-1" d="M126.064,124.7h-.086a.644.644,0,0,1-.433-.282.787.787,0,0,1-.126-.54L130,87.131a.671.671,0,0,1,.74-.621.719.719,0,0,1,.559.821l-4.584,36.752a.679.679,0,0,1-.654.621Z" transform="translate(-82.493 -50.09)"/>
        <path id="Path_963" data-name="Path 963" class="cls-1" d="M121.655,89.03c-2.735,0-5.238-1.6-7.56-4.776-4.214-5.836-8.532-5.683-15.146-4.776a.671.671,0,0,1-.735-.626.717.717,0,0,1,.563-.817c6.881-.955,11.706-1.156,16.341,5.263,3.337,4.623,6.881,5.454,11.267,2.617a.619.619,0,0,1,.881.267.774.774,0,0,1-.219.984A9.949,9.949,0,0,1,121.655,89.03Z" transform="translate(-78.686 -49.688)"/>
        <path id="Path_964" data-name="Path 964" class="cls-4" d="M211.326,59.8s3.845.63,1.841,3.352-6.021-2.607-9.822-1.108S204.936,59.311,211.326,59.8Z" transform="translate(-93.22 -48.89)"/>
        <path id="Path_965" data-name="Path 965" class="cls-4" d="M196.654,68.805s-2.58,2.273-7.474,1.49l.181-3.715,6.691,1.91Z" transform="translate(-91.415 -49.196)"/>
        <path id="Path_966" data-name="Path 966" class="cls-13" d="M209.092,59.287c-.679.392-.5.43-2.081.4-2.58-.057-7.285.439-9.306,6.16-.284.812.232,1.757-1.127,2.541a7.207,7.207,0,0,1-3.733.439l-3.913-.516s-8.42-12.932,3.87-18.768c8.343-3.954,14.071,3.085,15.765,7.116C209.376,58.523,209.772,58.9,209.092,59.287Z" transform="translate(-90.987 -48.379)"/>
        <path id="Path_968" data-name="Path 968" class="cls-5" d="M1.023-.055c.566-.03.983.735.933,1.708S1.4,3.44.839,3.47s-.983-.735-.933-1.708S.457-.025,1.023-.055Z" transform="translate(111.921 4.51) rotate(-44.56)"/>
        <path id="Path_967" data-name="Path 967" class="cls-5" d="M201.413,58.268a11.381,11.381,0,0,0-5.031,6.81c-.55,1.91-4.077,2.445-8.351,1.4l.206.449a16.829,16.829,0,0,0,3.733.468c2.529,0,4.3-.764,4.748-2.2a10.862,10.862,0,0,1,4.868-6.581c2.228-1.385,5.668-1.519,7.285-1.49v-.086l-.138-.306C206.977,56.7,203.658,56.873,201.413,58.268Z" transform="translate(-91.254 -48.754)"/>
      </g>
    </g>
  </g>
</svg>
