<svg xmlns="http://www.w3.org/2000/svg" xmlns:xlink="http://www.w3.org/1999/xlink" width="554.664" height="619" viewBox="0 0 554.664 619">
  <defs>
    <style>
      .cls-1 {
        fill: url(#linear-gradient);
      }
    </style>
    <linearGradient id="linear-gradient" x2="1" y2="1" gradientUnits="objectBoundingBox">
      <stop offset="0" stop-color="#212141"/>
      <stop offset="0.184" stop-color="#212141"/>
      <stop offset="0.491" stop-color="#8673d6"/>
      <stop offset="1" stop-color="#fff"/>
    </linearGradient>
  </defs>
  <path id="_Path_" data-name="&lt;Path&gt;" class="cls-1" d="M554.664,276.821V619H232.4A314.583,314.583,0,0,0,497.1,474.695c.261-.4.522-.755.755-1.139a300.659,300.659,0,0,0,50-166.073c0-8.743-.357-17.39-1.139-25.94v-.1q-.151-2.306-.4-4.612c-.329-3.28-.714-6.588-1.208-9.827-.165-1.276-.329-2.525-.522-3.761H290.975V354.5H435.09a219.149,219.149,0,0,1-20.3,45.773,191.878,191.878,0,0,1-30.484,40.928q-5.655,5.847-11.79,11.131l-.261.192a222.886,222.886,0,0,1-66.114,41.724,218.122,218.122,0,0,1-40.407,12.078,223.377,223.377,0,0,1-43.138,4.241c-3.006,0-6-.1-8.976-.233C94.261,505.522-.016,407.351,0,287.9a228.816,228.816,0,0,1,1.373-24.266A276.961,276.961,0,0,1,332.261,5.366h0C459.123,30.648,554.664,142.576,554.664,276.821Z" transform="translate(0)"/>
</svg>
