<?xml version="1.0" encoding="utf-8"?>
<!-- Generator: Adobe Illustrator 20.1.0, SVG Export Plug-In . SVG Version: 6.00 Build 0)  -->
<svg version="1.1" id="Layer_1" xmlns="http://www.w3.org/2000/svg" xmlns:xlink="http://www.w3.org/1999/xlink" x="0px" y="0px"
	 viewBox="0 0 1032 950" style="enable-background:new 0 0 1032 950;" xml:space="preserve">
<style type="text/css">
	.st0{display:none;fill:none;}
	.st1{display:none;}
	.st2{display:inline;}
	.st3{opacity:0.35;fill:#F3EFFD;enable-background:new    ;}
	.st4{fill:#F3EFFD;}
	.st5{fill:#F2F0FA;}
	.st6{fill:url(#Path_2027_2_);}
	.st7{fill:url(#Rectangle_369_2_);}
	.st8{fill:url(#Rectangle_370_2_);}
	.st9{fill:url(#Rectangle_371_2_);}
	.st10{fill:url(#Path_2029_1_);}
	.st11{fill:url(#Ellipse_50_1_);}
	.st12{fill:#FFFFFF;}
	.st13{fill:url(#Ellipse_52_2_);}
	.st14{fill:url(#Path_2030_2_);}
	.st15{fill:#F0EFF8;}
	.st16{fill:url(#Path_2032_1_);}
	.st17{fill:url(#Path_2036_2_);}
	.st18{fill:url(#Path_2037_2_);}
	.st19{fill:url(#Path_2038_2_);}
	.st20{fill:url(#Path_2039_2_);}
	.st21{fill:#998BDA;}
	.st22{fill:#B8AFE7;}
	.st23{fill:#B8AEE8;}
	.st24{fill:#6A54C9;}
	.st25{fill:#7C68D2;}
	.st26{fill:url(#Path_2045_2_);}
	.st27{fill:#806ED3;}
	.st28{fill:url(#Path_2047_2_);}
	.st29{fill:url(#Path_2050_2_);}
	.st30{fill:#D9D4F1;}
	.st31{opacity:0.121;fill:url(#Path_2058_1_);enable-background:new    ;}
	.st32{opacity:0.121;fill:url(#Path_2059_2_);enable-background:new    ;}
	.st33{opacity:0.121;fill:url(#Path_2060_2_);enable-background:new    ;}
	.st34{opacity:0.148;fill:url(#XMLID_10_);enable-background:new    ;}
	.st35{opacity:0.148;fill:url(#XMLID_11_);enable-background:new    ;}
	.st36{opacity:0.148;fill:url(#XMLID_12_);enable-background:new    ;}
	.st37{opacity:0.148;fill:url(#XMLID_13_);enable-background:new    ;}
	.st38{opacity:0.121;fill:url(#Path_2061_2_);enable-background:new    ;}
	.st39{fill:none;}
	.st40{fill:url(#Path_2027_3_);}
	.st41{fill:url(#Rectangle_369_3_);}
	.st42{fill:url(#Rectangle_370_3_);}
	.st43{fill:url(#Rectangle_371_3_);}
	.st44{fill:url(#Path_2036_3_);}
	.st45{fill:url(#Path_2037_3_);}
	.st46{fill:url(#Path_2038_3_);}
	.st47{fill:url(#Path_2039_3_);}
	.st48{fill:url(#Path_2045_3_);}
	.st49{fill:url(#Path_2047_3_);}
	.st50{fill:url(#Path_2050_3_);}
	.st51{opacity:0.121;fill:url(#Path_2059_3_);enable-background:new    ;}
	.st52{opacity:0.121;fill:url(#Path_2060_3_);enable-background:new    ;}
	.st53{opacity:0.148;fill:url(#XMLID_14_);enable-background:new    ;}
	.st54{opacity:0.148;fill:url(#XMLID_15_);enable-background:new    ;}
	.st55{opacity:0.148;fill:url(#XMLID_16_);enable-background:new    ;}
	.st56{opacity:0.148;fill:url(#XMLID_17_);enable-background:new    ;}
	.st57{opacity:0.121;fill:url(#Path_2061_3_);enable-background:new    ;}
	.st58{fill:url(#SVGID_1_);}
	.st59{fill:url(#SVGID_2_);}
	.st60{fill:url(#SVGID_3_);}
	.st61{opacity:0.121;fill:url(#SVGID_4_);enable-background:new    ;}
	.st62{fill:url(#Ellipse_52_3_);}
	.st63{fill:url(#Path_2030_3_);}
</style>
<rect class="st0" width="1032" height="950"/>
<g id="Mask_Group_6" transform="translate(-888)" class="st1">
	<g id="Group_6459" class="st2">
		<path id="header_base" class="st3" d="M934.3,195.8c87.6,103,201.2,41.1,250.1,168.1c50.4,131.2-262.2,269.6,63.9,490.8
			c133,90.2,187.7,107.5,373.2,41.6c133.5-47.6,228-133.7,298.6-52V0.4L901.7,0C901.7,0,856.1,103.6,934.3,195.8z"/>
		<path id="header_base-2" class="st4" d="M1010.6,173.4c77.2,103,186.7,29.8,229.7,156.8c44.4,131.2-395.5,335.2-108.4,556.4
			c117.1,90.2,361.9,75.6,525.2,9.6c117.6-47.6,200.8-133.7,262.9-52V0.4L1023.4,0C1023.4,0,941.7,81.2,1010.6,173.4z"/>
		<g id="Group_1907" transform="translate(1195.627 313.635)">
			<g id="Group_1250" transform="translate(-0.067 49.973)">
				<g id="Group_1246">
					<path id="Path_2025" class="st5" d="M47.3,106c-0.8,0.1-1.4,0.7-1.5,1.5v77h3v-77c0.1-0.7-0.5-1.4-1.2-1.5
						C47.4,106,47.3,106,47.3,106z"/>
					<path id="Path_2026" class="st5" d="M56.2,106c-0.8,0.1-1.4,0.7-1.5,1.5v77h2.6v-77C57.3,106.8,56.9,106,56.2,106z"/>
					
						<linearGradient id="Path_2027_2_" gradientUnits="userSpaceOnUse" x1="-292.0563" y1="611.7606" x2="-290.5823" y2="611.7635" gradientTransform="matrix(724.44 0 0 -185.3 211233.6875 113452.2578)">
						<stop  offset="0" style="stop-color:#ACA1E2"/>
						<stop  offset="1" style="stop-color:#F3EFFD"/>
					</linearGradient>
					<path id="Path_2027" class="st6" d="M724.4,148.1h-38V78.9c-0.1-0.8-0.7-1.4-1.5-1.5h-27.9c-0.8,0.1-1.4,0.7-1.5,1.5v69.2H618
						l-3-54.7c-0.4-7.4,2.6-14.5,8.2-18.6c3.1-2.3,6.7-4.1,10.4-5.2l9.7-3.3h0.7v-1.5l0,0V64l0,0v-1.5h-0.7l-9.7-3.3
						c-13.4-4.5-22.3-14.9-23.1-26.8c0-0.8-0.7-1.5-1.5-1.5c-0.8,0-1.5,0.7-1.5,1.5c-0.4,11.9-9.7,22.3-23.1,26.8l-9.7,3.3h-0.7V64
						l0,0v0.7l0,0v1.5h0.7l9.7,3.3c3.7,1.1,7.3,2.9,10.4,5.2c5.6,4.1,8.6,11.2,8.2,18.6l-4.1,72.6H560V57.3
						c-0.1-0.8-0.7-1.4-1.5-1.5h-11.2c-0.7,0-1.1,0.4-1.5,1.1l-24.6,108.6h-11.2l-4.5-35.7c-0.1-0.8-0.7-1.4-1.5-1.5h-55.8
						c-0.4,0-0.7,0.4-1.1,0.4c-0.3,0.3-0.4,0.7-0.4,1.1l4.8,37.2h-10V58.8H429V20.5c0-0.8-0.7-1.5-1.5-1.5s-1.5,0.7-1.5,1.5v38.3
						h-11.9v94.1h-8.2V83.7h-14.9v75.9h-13v-17.9h-74v17.9h-28.3v-40.2c0.1-4.9-1.7-9.7-4.8-13.4c-3-3.5-7.3-5.6-11.9-5.6
						c-9.3,0-17.1,8.6-17.1,19v40.2h-10v-125h-11.9V0h-49.1v34.6h-14.1v13h-41.3v112H75.5V97.9L49.1,68.1L22.7,97.9v61.8H0v18.2h2.6
						v-15.3h22.7V99l23.8-26.8L72.9,99v63.3h45.4V50.6h41.3v-13h14.1V3h43.2v34.6h11.9v125h15.6v-43.2c0-8.9,6.3-16,14.1-16
						c3.9-0.1,7.6,1.7,10,4.8c2.7,3.2,4.2,7.3,4.1,11.5V163h33.9v-17.9h68.5V163h18.2V86.7h9.7v69.2h14.1V62.1h22v107.2
						c0.1,0.8,0.7,1.4,1.5,1.5h12.7c0.4,0,0.7-0.4,1.1-0.4c0.3-0.3,0.4-0.7,0.4-1.1l-4.8-37.2h5.2l6,53.2h2.6l-3.3-28.3h6.3
						l3.3,28.3h2.6l-3.3-28.3h7.1l3.3,28.3h2.6l-4.5-38.3h8.2l4.5,38.3h2.6l-4.5-38.3h6.7l4.5,38.3h2.6l-4.5-38.3h1.1
						c0.8,0,1.5-0.7,1.5-1.5c0-0.8-0.7-1.5-1.5-1.5l0,0l-1.5-11.9h5.2l4.5,35.7c0.1,0.8,0.7,1.4,1.5,1.5h11.5l-3.7,16h3l1.5-7.4
						h19.7c0.8,0,1.5-0.7,1.5-1.5c0-0.8-0.7-1.5-1.5-1.5h-19l2.6-11.9H544c0.8,0,1.5-0.7,1.5-1.5c0-0.8-0.7-1.5-1.5-1.5h-19
						l2.6-10.8h19c0.8,0,1.5-0.7,1.5-1.5c0-0.8-0.7-1.5-1.5-1.5h-17.9l10.8-48h13.4c0.8,0,1.5-0.7,1.5-1.5c0-0.8-0.7-1.5-1.5-1.5
						l0,0h-13l1.9-8.2h11.2c0.8,0,1.5-0.7,1.5-1.5c0-0.8-0.7-1.5-1.5-1.5l0,0h-10.4l1.5-7.4h8.6c0.8,0,1.5-0.7,1.5-1.5
						c0-0.8-0.7-1.5-1.5-1.5h-7.8l3.3-14.9h9.7v126.1h2.6v-15.6h39.1l-0.7,15.6h2.6l4.8-91.2c0.4-8.6-3-16.7-9.3-21.2
						c-3.3-2.6-7.1-4.5-11.2-5.6l-0.7-0.4h48.4l-0.7,0.4c-3.9,1.4-7.7,3.3-11.2,5.6c-6.3,4.5-10,12.7-9.3,21.2l4.8,91.2h2.6
						l-1.9-33.9h37.6v33.9h2.6V80.4h25.3v104.6h2.6v-33.9h38v-3H724.4z M458,131.7h6.3l1.5,11.9h-6.3L458,131.7z M460.3,153.3
						l-0.7-7.1h6.3l0.7,7.1H460.3z M467,131.7h7.1l1.5,11.9h-7.1L467,131.7z M469.6,153.3l-0.7-7.1h7.1l0.7,7.1H469.6z M478.5,143.6
						l-1.5-11.9h8.2l1.5,11.9H478.5z M489.3,143.6l-1.5-11.9h6.7l1.5,11.9H489.3z M585.3,63.3l0.7-0.4c11.5-3.7,20.5-12.3,23.4-22.3
						c3.3,10,11.9,18.2,23.4,22.3l0.7,0.4H585.3z"/>
					<path id="Path_2028" class="st5" d="M38.3,106c-0.8,0.1-1.4,0.7-1.5,1.5v77h2.6v-77C39.4,106.8,39.1,106,38.3,106z"/>
				</g>
				<g id="Group_1247" transform="translate(375.429 249.667)">
					
						<linearGradient id="Rectangle_369_2_" gradientUnits="userSpaceOnUse" x1="-680.2758" y1="394.349" x2="-677.7758" y2="365.223" gradientTransform="matrix(1.488 0 0 -7.442 1008.4796 2675.3992)">
						<stop  offset="0" style="stop-color:#B2DBE1"/>
						<stop  offset="0.322" style="stop-color:#B7E1E6"/>
						<stop  offset="0.757" style="stop-color:#C5F2F4"/>
						<stop  offset="1" style="stop-color:#D0FFFF"/>
					</linearGradient>
					<rect id="Rectangle_369" x="0" y="0" class="st7" width="1.5" height="7.4"/>
				</g>
				<g id="Group_1248" transform="translate(375.429 225.481)">
					
						<linearGradient id="Rectangle_370_2_" gradientUnits="userSpaceOnUse" x1="-679.9969" y1="415.285" x2="-677.4969" y2="386.16" gradientTransform="matrix(1.488 0 0 -7.442 1008.4796 2855.3916)">
						<stop  offset="0" style="stop-color:#B2DBE1"/>
						<stop  offset="0.322" style="stop-color:#B7E1E6"/>
						<stop  offset="0.757" style="stop-color:#C5F2F4"/>
						<stop  offset="1" style="stop-color:#D0FFFF"/>
					</linearGradient>
					<rect id="Rectangle_370" x="0" y="0" class="st8" width="1.5" height="7.4"/>
				</g>
				<g id="Group_1249" transform="translate(375.429 237.388)">
					
						<linearGradient id="Rectangle_371_2_" gradientUnits="userSpaceOnUse" x1="-680.1354" y1="404.9792" x2="-677.6344" y2="375.8532" gradientTransform="matrix(1.488 0 0 -7.442 1008.4796 2766.7795)">
						<stop  offset="0" style="stop-color:#B2DBE1"/>
						<stop  offset="0.322" style="stop-color:#B7E1E6"/>
						<stop  offset="0.757" style="stop-color:#C5F2F4"/>
						<stop  offset="1" style="stop-color:#D0FFFF"/>
					</linearGradient>
					<rect id="Rectangle_371" x="0" y="0" class="st9" width="1.5" height="7.4"/>
				</g>
			</g>
			<g id="Group_1913" transform="translate(-39 0.265)">
				<g id="Group_1919" transform="translate(143.146 222.255)">
					
						<linearGradient id="Path_2029_1_" gradientUnits="userSpaceOnUse" x1="-395.6891" y1="439.2771" x2="-394.6891" y2="439.2771" gradientTransform="matrix(723.5685 0 0 -353.7679 286384.8438 155579.0156)">
						<stop  offset="0" style="stop-color:#C3BAE9"/>
						<stop  offset="2.400000e-02" style="stop-color:#B8AEE6"/>
						<stop  offset="0.184" style="stop-color:#ADA2E2"/>
						<stop  offset="1" style="stop-color:#7B67D0"/>
					</linearGradient>
					<path id="Path_2029" class="st10" d="M685.5,220c0,0,6.2-21.8,5.7-29.4c-2.4-37.9-46.5-143.7-46.5-143.7s6.6-4.7,7.1-7.1
						c0.5-1.4-4.3-7.1-4.3-7.1s-168.4-55.5-295-21.8C225.9,45,175.6,131.3,175.6,131.3s-107.7,18.5-126.2,37s-9.5,54.1-9.5,54.1
						s-23.7,19-34.6,56c-9,31.8-5.7,56.9,3.3,65.9c9.5,9.5,40.3,9.5,40.3,9.5h533.6c0,0,120.5-5.2,130.9-15.7
						c10-10,16.6-55.5,0-86.8C706.8,238.7,697.2,228,685.5,220z"/>
					
						<radialGradient id="Ellipse_50_1_" cx="-395.3677" cy="439.2029" r="0.5" gradientTransform="matrix(168.852 0 0 -168.852 67375.8047 74485.1172)" gradientUnits="userSpaceOnUse">
						<stop  offset="0" style="stop-color:#7763CD"/>
						<stop  offset="2.400000e-02" style="stop-color:#9F91DD"/>
						<stop  offset="0.519" style="stop-color:#8A79D9"/>
						<stop  offset="1" style="stop-color:#9B8BE2"/>
					</radialGradient>
					<ellipse id="Ellipse_50" class="st11" cx="617.2" cy="324.8" rx="84.4" ry="84.4"/>
					<ellipse id="Ellipse_51" class="st12" cx="617.2" cy="324.8" rx="58.8" ry="58.8"/>
					
						<radialGradient id="Ellipse_52_2_" cx="-395.3677" cy="439.2029" r="0.5" gradientTransform="matrix(168.852 0 0 -168.852 66874.4688 74485.1172)" gradientUnits="userSpaceOnUse">
						<stop  offset="0" style="stop-color:#7763CD"/>
						<stop  offset="2.400000e-02" style="stop-color:#9F91DD"/>
						<stop  offset="0.519" style="stop-color:#8A79D9"/>
						<stop  offset="1" style="stop-color:#9B8BE2"/>
					</radialGradient>
					<ellipse id="Ellipse_52" class="st13" cx="115.8" cy="324.8" rx="84.4" ry="84.4"/>
					<ellipse id="Ellipse_53" class="st12" cx="115.8" cy="324.8" rx="58.8" ry="58.8"/>
					
						<linearGradient id="Path_2030_2_" gradientUnits="userSpaceOnUse" x1="-395.6533" y1="439.1598" x2="-394.6533" y2="439.1598" gradientTransform="matrix(377.5839 0 0 -129.6197 149634.3125 57009.7031)">
						<stop  offset="0" style="stop-color:#FFFFFF"/>
						<stop  offset="1" style="stop-color:#C3BAE9"/>
					</linearGradient>
					<path id="Path_2030" class="st14" d="M558.4,118.5l-377.5,32.3c0,0,63.6-74.5,153.2-110.5c65.9-26.6,130-20.4,160.8-11.4
						C562.2,48.3,558.4,118.5,558.4,118.5z"/>
					<path id="Path_2031" class="st15" d="M88.8,173.5c1.4-1.9,2.4-4.3,1.4-6.6c-1.4-2.8-5.2-2.8-8.1-2.4
						c-10.4,0.9-21.3,3.8-28.5,11.9c-8.1,9.5-10.4,37.9-7.1,40.3c2.4,1.9,13.3-9,15.7-10.9C72.3,196.1,81.3,185.3,88.8,173.5z"/>
					
						<linearGradient id="Path_2032_1_" gradientUnits="userSpaceOnUse" x1="-407.2755" y1="439.0713" x2="-406.2794" y2="439.0713" gradientTransform="matrix(45.3891 0 0 -87.6938 18610.2383 38676.2461)">
						<stop  offset="0" style="stop-color:#A396DE"/>
						<stop  offset="2.400000e-02" style="stop-color:#FFFFFF"/>
						<stop  offset="0.343" style="stop-color:#FFFFFF"/>
						<stop  offset="1" style="stop-color:#CDC5F2"/>
					</linearGradient>
					<path id="Path_2032" class="st16" d="M668.4,214.3c5.2-3.8,8.5-19.9,7.1-28c0,0-9.5-51.7-16.1-56.4
						c-15.7-10.4-28.9,44.1-28.9,65.5C630.5,203.4,658,222.4,668.4,214.3z"/>
					<path id="Path_2033" class="st12" d="M563.1,221.4c-16.1,8.5-30.8,20.9-41.3,36.5s-17.1,33.7-20.9,52.2l3.8-3.3l-66.4,2.8
						c-22.3,0.9-44.1,2.8-66.4,4.3c-44.1,2.8-88.2,6.6-132.8,11.4c44.6,0,88.7-0.9,132.8-3.3c22.3-0.9,44.1-1.9,66.4-3.3l66.4-4.3
						h3.3l0.5-3.3c2.4-17.5,7.6-35.1,17.1-50.8S547.9,231.9,563.1,221.4z"/>
					<path id="Path_2034" class="st12" d="M214,313.4v-3.3c0-2.4,0.5-5.2,0-9.5c0-4.3-0.9-9-2.4-14.7c-1.5-6.4-3.7-12.6-6.6-18.5
						c-7.2-14.9-18.2-27.6-31.8-37c-16-10.4-34.5-16.1-53.6-16.6c-19.1,0.2-37.7,6-53.6,16.6c-15.2,10-25.6,24.2-31.8,37
						c-2.9,5.9-5.1,12.1-6.6,18.5c-1.1,4.8-1.9,9.7-2.4,14.7c-0.5,4.3,0,7.1,0,9.5v3.3c0,0,0.5-4.7,1.9-12.8
						c1.4-8.1,5.2-19,11.9-30.8s17.6-23.7,31.8-32.7c14.8-9.3,31.9-14.2,49.3-14.2c17.5,0,35.6,5.2,49.3,14.2
						c14.2,9,25.1,20.9,31.8,32.7s10.4,22.8,11.9,30.8C213.6,304.9,213.9,309.2,214,313.4z"/>
					<path id="Path_2035" class="st12" d="M617.2,132.3c0,0-31.3,1.4-78.7,4.3c-23.7,1.4-50.7,3.3-80.2,5.7
						c-29.4,2.4-60.7,4.7-92,7.6c-31.3,2.8-62.6,5.7-92,8.5c-29.4,2.8-56.4,6.2-80.2,8.5c-47,5.2-78.3,9.5-78.3,9.5
						s31.3-1.4,78.7-4.3c23.7-1.4,50.8-3.3,80.2-5.7c29.4-2.4,60.7-4.7,92-7.6c31.3-2.8,62.6-5.7,92-8.5c29.4-2.8,56.4-6.2,80.2-8.5
						C585.9,136.5,617.2,132.3,617.2,132.3z"/>
				</g>
			</g>
			
				<linearGradient id="Path_2036_2_" gradientUnits="userSpaceOnUse" x1="-292.329" y1="661.2675" x2="-291.022" y2="661.3676" gradientTransform="matrix(28.9817 0 0 -43.7616 8932.1143 29073.041)">
				<stop  offset="0" style="stop-color:#ABA0E1"/>
				<stop  offset="1" style="stop-color:#DAD6EB"/>
			</linearGradient>
			<path id="Path_2036" class="st17" d="M493.3,125.4c0-8-6.5-14.5-14.5-14.5c-8,0-14.5,6.5-14.5,14.5c-0.1,2.6,0.7,5.2,2.2,7.4l0,0
				l6.2,10.5l6.5,11.4l6.5-11.4l6.2-10.8C492.7,130.2,493.2,127.8,493.3,125.4z"/>
			<ellipse id="Ellipse_54" class="st12" cx="478.8" cy="126.9" rx="8.3" ry="8.3"/>
			
				<linearGradient id="Path_2037_2_" gradientUnits="userSpaceOnUse" x1="-292.231" y1="661.3623" x2="-290.924" y2="661.4623" gradientTransform="matrix(35.236 0 0 -52.854 10467.4902 34961.457)">
				<stop  offset="0" style="stop-color:#ABA0E1"/>
				<stop  offset="1" style="stop-color:#DAD6EB"/>
			</linearGradient>
			<path id="Path_2037" class="st18" d="M211-5.6c0-9.7-7.9-17.6-17.6-17.6s-17.6,7.9-17.6,17.6c0,3.1,0.8,6.1,2.3,8.8l0,0l7.4,12.8
				l8,13.6l8-13.6L208.7,3C210.2,0.4,210.9-2.6,211-5.6z"/>
			<ellipse id="Ellipse_55" class="st12" cx="193.3" cy="-3.6" rx="9.9" ry="9.9"/>
			<g id="Group_1251" transform="translate(-16.457 13.106)">
				
					<linearGradient id="Path_2038_2_" gradientUnits="userSpaceOnUse" x1="-275.8019" y1="648.0501" x2="-273.9759" y2="648.2661" gradientTransform="matrix(32.8439 0 0 -40.152 9053.5977 26045.0566)">
					<stop  offset="0" style="stop-color:#AA9FE0"/>
					<stop  offset="1" style="stop-color:#FFFFFF"/>
				</linearGradient>
				<path id="Path_2038" class="st19" d="M25.4,27.7c-1.7,0-3.4,0.7-4.6,2l-9.1-7.6c0.6-0.9,0.9-2,1-3c0-0.8-0.2-1.6-0.5-2.3
					l9.7-6.1c1.2,1.3,2.8,2,4.6,2c3.5,0,6.4-2.8,6.4-6.4S29.9,0,26.4,0s-6.4,2.8-6.4,6.4v0c0,0.8,0.2,1.6,0.5,2.3l-9.7,6.1
					c-1.2-1.3-2.8-2-4.6-2c-3.5,0-6.4,2.8-6.4,6.3s2.8,6.4,6.3,6.4c1.5,0,3-0.5,4.2-1.5l9.4,7.6c-0.3,0.7-0.5,1.5-0.5,2.3
					c0,3.5,2.8,6.4,6.4,6.4c3.5,0,6.4-2.8,6.4-6.4l0,0C31.7,30.4,28.9,27.7,25.4,27.7z"/>
			</g>
			<g id="Group_1920" transform="translate(-46 26.854)">
				<g id="Group_1252" transform="translate(-217.395 65.521)">
					
						<linearGradient id="Path_2039_2_" gradientUnits="userSpaceOnUse" x1="-28.5215" y1="568.8888" x2="-27.4705" y2="568.8888" gradientTransform="matrix(66.7877 0 0 -39.9207 2064.6555 22876.4629)">
						<stop  offset="0" style="stop-color:#7763CD"/>
						<stop  offset="2.400000e-02" style="stop-color:#8673D6"/>
						<stop  offset="0.184" style="stop-color:#7B68D0"/>
						<stop  offset="1" style="stop-color:#B9AFE7"/>
					</linearGradient>
					<path id="Path_2039" class="st20" d="M189.3,158.8c8.2-2.9,15.4-7.7,23.6-11.1c3.9-1.4,8.2-2.4,12.1-1
						c4.3,1.9,5.8,7.2,4.3,11.6s-5.3,7.2-8.7,10.6c-5.8,4.8-11.6,9.7-18.3,13c-6.8,3.4-15.4,5.3-23.2,2.9
						c-6.3-1.4-17.4-15-15.9-20.3c1-3.4,5.8-3.9,9.2-3.9C178.2,160.8,183.5,160.8,189.3,158.8z"/>
					<path id="Path_2040" class="st21" d="M109.2,256.8l-16.4,84.9C86.1,360.6,74.4,377.3,59,390l-38.6,31.4
						c1.8,3.3,2.8,6.9,2.9,10.6c0,5.3-1.4,10.6,0,15.4c0.7,2.1,1.6,4,2.9,5.8l65.6-50.7c13.1-10,23.6-22.9,30.9-37.6l35.7-71.4
						L109.2,256.8z"/>
					<path id="Path_2041" class="st22" d="M159.9,102.9c-0.5-7.7,7.2-19.8,15.4-18.3c4.3,0.5,8.2,3.4,12.5,0.5
						c3.4-2.4,4.3-6.8,4.8-10.6c0.5-5.3-1-10.6,1-15c0.7-1.6,1.4-3.2,1.9-4.8c0.5-1.9,0-3.9-1.4-4.3c-1.4-1-3.4,0-4.8-0.5
						c-3.4-1-3.4-10.1-3.9-13.5c-4.3-21.7-29.9-10.6-34.7,1.4c-3.9,8.7-7.7,22.2-5.3,34.3c0.5,3.4-4.8,16.9-9.2,20.3
						c-2.4,1.9-5.3,4.3-5.8,7.2C139.6,100.9,149.7,101.9,159.9,102.9z"/>
					<path id="Path_2042" class="st23" d="M237.6,445l16.9-4.8l-10.6-79.6c-1.9-12.8-5.8-25.2-11.6-36.7l-40.1-78.7L113,261.6
						l70,64.2c17.5,14.6,30.3,34.1,36.7,56L237.6,445z"/>
					<path id="Path_2043" class="st24" d="M255.9,446.9c3.9-2.4,6.3-6.8,8.7-10.1c2.9-3.9,6.3-7.2,11.1-7.2
						c5.8,0,10.6,5.8,10.6,12.1c-0.5,5.8-4.3,11.1-9.2,14.5c-4.8,3.4-10.6,5.3-16.4,7.2c-3.9,1.4-9.7,3.9-13.5,4.3
						c-4.2,0.3-8.3-1.7-10.6-5.3C230.3,449.8,250.6,449.8,255.9,446.9z"/>
					<path id="Path_2044" class="st25" d="M17,448.4c0.5,4.3,3.9,8.2,5.8,12.1c2.4,3.9,4.3,8.7,2.4,13c-1.9,5.8-9.7,7.7-15,5.3
						s-8.7-8.2-9.7-14c-1-5.8-0.5-12.1-0.5-17.9c0-3.9,0-7.7,1.4-11.6c1-3.9,5.3-10.1,9.2-10.1C23.8,423.8,16,442.1,17,448.4z"/>
					
						<linearGradient id="Path_2045_2_" gradientUnits="userSpaceOnUse" x1="-28.5128" y1="569.1552" x2="-27.4618" y2="569.1552" gradientTransform="matrix(69.2982 0 0 -71.6795 2095.783 40832.5742)">
						<stop  offset="0" style="stop-color:#7763CD"/>
						<stop  offset="2.400000e-02" style="stop-color:#8673D6"/>
						<stop  offset="0.184" style="stop-color:#7B68D0"/>
						<stop  offset="1" style="stop-color:#B9AFE7"/>
					</linearGradient>
					<path id="Path_2045" class="st26" d="M146.8,62.3c-0.5-4.8-1-10.6,2.9-14.5c2.9-2.9,8.2-3.9,10.1-7.7c1.4-2.4,1-5.3,2.4-8.2
						c2.4-4.8,9.7-4.8,15-5.8c6.8-1,13-5.3,15-11.6c1.9-6.3-2.4-14-9.2-14.5c-4.3-0.5-8.2,1.9-12.1,3.4c-6.3,1.9-12.5,1.9-18.8,2.9
						c-6.3,1-13,3.9-15.9,9.2c-2.4,4.8-1.4,10.6-3.4,15.9c-2.4,4.8-7.7,8.2-9.2,13.5c-1.4,5.8,2.4,11.6,6.8,15.9
						c2.9,2.4,8.7,9.7,12.1,10.6C147.8,72.9,146.8,65.7,146.8,62.3z"/>
					<path id="Path_2046" class="st27" d="M178.2,163.7c-2.4-10.6,0.5-19.3,1.9-29.4c2.4-17.4,2.4-35.7-12.5-38.6
						c-15-2.9-20.8-5.3-35.7-2.9c-21.7,3.4-34.3,56-32.3,63.7c1.9,7.2,4.8,46.8-3.9,66.1c-5.3,12.1-16.9,34.3,0,41
						c20.8,8.7,47.8,6.8,77.7-5.3c8.2-3.4,16.9-9.2,21.7-15.9C211.5,219.6,181.6,178.6,178.2,163.7z"/>
					
						<linearGradient id="Path_2047_2_" gradientUnits="userSpaceOnUse" x1="-28.4186" y1="569.292" x2="-27.3676" y2="569.292" gradientTransform="matrix(117.0546 0 0 -121.1989 3374.6458 69164.7891)">
						<stop  offset="0" style="stop-color:#7763CD"/>
						<stop  offset="2.400000e-02" style="stop-color:#8673D6"/>
						<stop  offset="0.184" style="stop-color:#7B68D0"/>
						<stop  offset="1" style="stop-color:#B9AFE7"/>
					</linearGradient>
					<path id="Path_2047" class="st28" d="M168.5,111.5c-7.2-10.1-20.8-2.4-26.5,3.4c-7.7,7.7-25.6,14.5-43.9,25.6
						c-40.1,23.2-52.6,83-38.6,86.9c6.3,1.4,14-0.5,15.9-7.7c2.9-11.1,2.9-21.2,9.2-30.9c6.8-10.1,16.9-21.7,28-26.5
						c17.9-8.2,50.2-23.6,57.4-37.2C171.9,120.7,171,115.4,168.5,111.5z"/>
					<path id="Path_2048" class="st22" d="M40.2,268.4c-0.5,1.4-1,2.9-0.5,4.3c1,1.9,3.9,2.4,5.8,2.4c7.8-1.1,14.1-6.8,15.9-14.5
						c0.5-2.4,1-4.3,1.4-6.8c0.5-2.2,1.9-4.1,3.9-5.3c1.9-1,4.8-0.5,5.8,1.4c0.5,1,3.4,1.4,4.3-0.5c1.9-4.8,0.5-18.3-4.8-18.8
						c-5.3-0.5-14.5,0.5-14.5,0.5S42.6,261.6,40.2,268.4z"/>
					<path id="Path_2049" class="st22" d="M227.4,138.1c2.4-5.8,12.5-20.3,15.9-15c1.9,2.9-5.8,5.8-4.3,8.7
						c2.9,4.8,11.1-1.9,15.4-5.3c2.9-2.4,5.8-5.8,9.2-5.3c2.9,0.5,4.8,3.4,4.8,6.3c-0.1,3-1.5,5.9-3.9,7.7
						c-3.3,3.2-6.9,6.1-10.6,8.7c-4.3,2.9-11.6,7.7-18.8,7.7C228.4,151.6,225.5,142.4,227.4,138.1z"/>
				</g>
				<g id="Group_1253" transform="translate(17.417 173.353)">
					
						<linearGradient id="Path_2050_2_" gradientUnits="userSpaceOnUse" x1="-263.3123" y1="460.6964" x2="-262.5463" y2="461.6404" gradientTransform="matrix(39.7573 0 0 -46.9919 10473.9268 21693.6602)">
						<stop  offset="0" style="stop-color:#1C225C"/>
						<stop  offset="2.400000e-02" style="stop-color:#B4AAE6"/>
						<stop  offset="1" style="stop-color:#A598DD"/>
					</linearGradient>
					<path id="Path_2050" class="st29" d="M11.9,46.2l-9.7-6.3c-2.4-1.4-2.9-4.8-1.4-7.2L20.6,2.3c1.4-2.4,4.8-2.9,7.2-1.4l9.7,6.3
						c2.4,1.4,2.9,4.8,1.4,7.2L19.2,44.7C17.7,47.1,14.3,47.6,11.9,46.2z"/>
					<path id="Path_2051" class="st30" d="M12.9,43.8l-8.7-5.3c-1.9-1.4-2.9-4.3-1.4-6.3l17.4-27c1.4-1.9,4.3-2.9,6.3-1.4L35.1,9
						c1.9,1.4,2.9,4.3,1.4,6.3l-17.4,27C17.6,44.2,15.1,44.8,12.9,43.8z"/>
				</g>
			</g>
		</g>
		<g id="Group_1918" transform="translate(1389.121 45)">
			
				<linearGradient id="Path_2058_1_" gradientUnits="userSpaceOnUse" x1="-485.2883" y1="930.1409" x2="-484.2373" y2="930.1409" gradientTransform="matrix(136.406 0 0 -66.8333 66605.7031 62348.6328)">
				<stop  offset="0" style="stop-color:#7763CD"/>
				<stop  offset="2.400000e-02" style="stop-color:#8673D6"/>
				<stop  offset="0.184" style="stop-color:#7B68D0"/>
				<stop  offset="1" style="stop-color:#B9AFE7"/>
			</linearGradient>
			<path id="Path_2058" class="st31" d="M535.7,184.1h-2.9c-0.1-18.4-15.3-33.2-34.1-33.2c-9.8,0-19.2,4.2-25.7,11.5
				c-3.5-1.7-7.3-2.6-11.2-2.5c-13.8,0-25.1,10.8-25.4,24.3h-3c-9.3-0.1-17,7.4-17.1,16.7c0,0,0,0.1,0,0.1l0,0
				c0.1,9.3,7.7,16.8,17.1,16.8h102.3c9.3,0.1,17-7.4,17.1-16.7c0,0,0-0.1,0-0.1l0,0c0-9.3-7.5-16.8-16.8-16.8
				C535.9,184.1,535.8,184.1,535.7,184.1z"/>
			
				<linearGradient id="Path_2059_2_" gradientUnits="userSpaceOnUse" x1="-485.3741" y1="929.889" x2="-484.3231" y2="929.889" gradientTransform="matrix(78.7602 0 0 -39.2772 38456.3945 36601.9766)">
				<stop  offset="0" style="stop-color:#7763CD"/>
				<stop  offset="2.400000e-02" style="stop-color:#8673D6"/>
				<stop  offset="0.184" style="stop-color:#7B68D0"/>
				<stop  offset="1" style="stop-color:#B9AFE7"/>
			</linearGradient>
			<path id="Path_2059" class="st32" d="M301.1,78.5h-1.7c-0.1-10.8-8.9-19.6-19.7-19.5c-5.7,0-11.1,2.5-14.8,6.8
				c-2-1-4.2-1.5-6.4-1.5c-7.9,0-14.4,6.3-14.7,14.3H242c-5.4,0-9.8,4.4-9.9,9.8c0,0,0,0.1,0,0.1l0,0c0,5.4,4.4,9.8,9.8,9.9
				c0,0,0.1,0,0.1,0h59c5.4,0,9.8-4.4,9.9-9.8c0,0,0-0.1,0-0.1l0,0C311,82.9,306.6,78.5,301.1,78.5
				C301.1,78.5,301.1,78.5,301.1,78.5z"/>
			
				<linearGradient id="Path_2060_2_" gradientUnits="userSpaceOnUse" x1="-485.4947" y1="929.5247" x2="-484.4437" y2="929.5247" gradientTransform="matrix(49.4295 0 0 -24.6061 23884.4922 23130.1895)">
				<stop  offset="0" style="stop-color:#7763CD"/>
				<stop  offset="2.400000e-02" style="stop-color:#8673D6"/>
				<stop  offset="0.184" style="stop-color:#7B68D0"/>
				<stop  offset="1" style="stop-color:#B9AFE7"/>
			</linearGradient>
			<path id="Path_2060" class="st33" d="M-104.7,258.1h1.1c0-6.8,5.6-12.3,12.4-12.3c3.5,0,6.9,1.6,9.2,4.2c1.3-0.6,2.6-1,4-1
				c5,0,9.1,4,9.3,9h1.1c3.4,0,6.2,2.7,6.2,6.1c0,0,0,0,0,0.1l0,0c0,3.4-2.7,6.2-6.1,6.2c0,0,0,0-0.1,0h-37.1
				c-3.4,0-6.2-2.7-6.2-6.1c0,0,0,0,0,0l0,0c-0.1-3.3,2.5-6.1,5.8-6.2C-104.9,258.1-104.8,258.1-104.7,258.1z"/>
			
				<linearGradient id="XMLID_10_" gradientUnits="userSpaceOnUse" x1="-486.7874" y1="928.1606" x2="-485.7364" y2="928.1606" gradientTransform="matrix(10.1426 -0.1685 -0.1685 -10.1426 5296.4697 9531.4014)">
				<stop  offset="0" style="stop-color:#7763CD"/>
				<stop  offset="2.400000e-02" style="stop-color:#8673D6"/>
				<stop  offset="0.184" style="stop-color:#7B68D0"/>
				<stop  offset="1" style="stop-color:#B9AFE7"/>
			</linearGradient>
			<circle id="XMLID_4_" class="st34" cx="208.3" cy="199.4" r="5.1"/>
			
				<linearGradient id="XMLID_11_" gradientUnits="userSpaceOnUse" x1="-486.7874" y1="928.1606" x2="-485.7364" y2="928.1606" gradientTransform="matrix(10.1426 -0.1685 -0.1685 -10.1426 4953.1777 9520.248)">
				<stop  offset="0" style="stop-color:#7763CD"/>
				<stop  offset="2.400000e-02" style="stop-color:#8673D6"/>
				<stop  offset="0.184" style="stop-color:#7B68D0"/>
				<stop  offset="1" style="stop-color:#B9AFE7"/>
			</linearGradient>
			<circle id="XMLID_3_" class="st35" cx="-135" cy="188.2" r="5.1"/>
			
				<linearGradient id="XMLID_12_" gradientUnits="userSpaceOnUse" x1="-486.3977" y1="928.6561" x2="-485.3467" y2="928.6561" gradientTransform="matrix(13.0428 0 0 -13.0157 6481.457 12406.4502)">
				<stop  offset="0" style="stop-color:#7763CD"/>
				<stop  offset="2.400000e-02" style="stop-color:#8673D6"/>
				<stop  offset="0.184" style="stop-color:#7B68D0"/>
				<stop  offset="1" style="stop-color:#B9AFE7"/>
			</linearGradient>
			<path id="XMLID_2_" class="st36" d="M149.2,317.3l-2.6,0.1l-0.1-2.6c0-1.1-0.9-1.9-1.9-1.9c0,0,0,0,0,0l0,0
				c-1.1,0-1.9,0.9-1.9,1.9c0,0,0,0,0,0l0.1,2.6l-2.6,0.1c-1.1,0-2,0.9-1.9,2s0.9,2,2,1.9c0,0,0,0,0.1,0l2.6-0.1l0.1,2.6
				c0,1.1,0.9,1.9,1.9,1.9c0,0,0,0,0,0l0,0c1.1,0,1.9-0.9,1.9-1.9c0,0,0,0,0,0l-0.1-2.6l2.6-0.1c1.1,0,1.9-0.9,1.9-1.9c0,0,0,0,0,0
				C151.1,318.2,150.3,317.4,149.2,317.3z"/>
			
				<linearGradient id="XMLID_13_" gradientUnits="userSpaceOnUse" x1="-486.3977" y1="928.6462" x2="-485.3467" y2="928.6462" gradientTransform="matrix(13.043 0 0 -12.9467 6419.3389 12139.4189)">
				<stop  offset="0" style="stop-color:#7763CD"/>
				<stop  offset="2.400000e-02" style="stop-color:#8673D6"/>
				<stop  offset="0.184" style="stop-color:#7B68D0"/>
				<stop  offset="1" style="stop-color:#B9AFE7"/>
			</linearGradient>
			<path id="XMLID_1_" class="st37" d="M86.9,114.5l-2.6,0.1l-0.1-2.6c0-1.1-0.9-1.9-1.9-1.9c0,0,0,0-0.1,0l0,0
				c-1.1,0-1.9,0.9-1.9,1.9c0,0,0,0,0,0l0.1,2.6h-2.5c-1.1,0-2,0.9-1.9,2c0,1.1,0.9,2,2,1.9c0,0,0,0,0.1,0l2.6-0.1l0.1,2.6
				c0,1.1,0.9,1.9,1.9,1.9c0,0,0,0,0,0l0,0c1.1,0,1.9-0.9,1.9-1.9c0,0,0,0,0,0l-0.1-2.6l2.6-0.1c1.1,0,1.9-0.9,1.9-1.9c0,0,0,0,0,0
				C88.8,115.3,88,114.5,86.9,114.5z"/>
		</g>
		
			<linearGradient id="Path_2061_2_" gradientUnits="userSpaceOnUse" x1="903.4678" y1="974.0497" x2="904.5188" y2="974.0497" gradientTransform="matrix(33.1831 0 0 -16.5491 -28852.7109 16302.8369)">
			<stop  offset="0" style="stop-color:#7763CD"/>
			<stop  offset="2.400000e-02" style="stop-color:#8673D6"/>
			<stop  offset="0.184" style="stop-color:#7B68D0"/>
			<stop  offset="1" style="stop-color:#B9AFE7"/>
		</linearGradient>
		<path id="Path_2061" class="st38" d="M1157.8,183.2h-0.7c0-4.6-3.7-8.2-8.3-8.2c-2.4,0-4.7,1-6.2,2.9c-0.8-0.4-1.8-0.6-2.7-0.6
			c-3.3,0-6.1,2.7-6.2,6h-0.7c-2.3,0-4.1,1.8-4.2,4.1c0,0,0,0,0,0l0,0c0,2.3,1.8,4.1,4.1,4.2c0,0,0,0,0,0h24.9
			c2.3,0,4.1-1.8,4.2-4.1c0,0,0,0,0,0l0,0C1162,185,1160.2,183.2,1157.8,183.2C1157.9,183.2,1157.9,183.2,1157.8,183.2z"/>
	</g>
</g>
<rect class="st39" width="1032" height="950"/>
<path id="header_base_1_" class="st3" d="M46.3,195.8c87.6,103,201.2,41.1,250.1,168.1c50.4,131.2-262.2,269.6,63.9,490.8
	c133,90.2,187.7,107.5,373.2,41.6c133.5-47.6,228-133.7,298.6-52V0.4L13.7,0C13.7,0-31.9,103.6,46.3,195.8z"/>
<path id="header_base-2_1_" class="st4" d="M122.6,173.4c77.2,103,186.7,29.8,229.7,156.8C396.8,461.5-43.2,665.4,244,886.6
	c117.1,90.2,361.9,75.6,525.2,9.6c117.6-47.6,200.8-133.7,262.9-52V0.4L135.4,0C135.4,0,53.7,81.2,122.6,173.4z"/>
<g id="Group_1250_1_" transform="translate(-0.067 49.973)">
	<g id="Group_1246_1_">
		<path id="Path_2025_1_" class="st5" d="M354.9,419.7c-0.8,0.1-1.4,0.7-1.5,1.5v77h3v-77c0.1-0.7-0.5-1.4-1.2-1.5
			C355.1,419.7,355,419.7,354.9,419.7z"/>
		<path id="Path_2026_1_" class="st5" d="M363.8,419.7c-0.8,0.1-1.4,0.7-1.5,1.5v77h2.6v-77C364.9,420.4,364.6,419.7,363.8,419.7z"
			/>
		
			<linearGradient id="Path_2027_3_" gradientUnits="userSpaceOnUse" x1="15.5706" y1="925.3956" x2="17.0446" y2="925.3986" gradientTransform="matrix(724.44 0 0 -185.3 -11315.9502 171882.4688)">
			<stop  offset="0" style="stop-color:#ACA1E2"/>
			<stop  offset="1" style="stop-color:#F3EFFD"/>
		</linearGradient>
		<path id="Path_2027_1_" class="st40" d="M1032.1,461.7h-38v-69.2c-0.1-0.8-0.7-1.4-1.5-1.5h-27.9c-0.8,0.1-1.4,0.7-1.5,1.5v69.2
			h-37.6l-3-54.7c-0.4-7.4,2.6-14.5,8.2-18.6c3.1-2.3,6.7-4.1,10.4-5.2l9.7-3.3h0.7v-1.5l0,0v-0.7l0,0v-1.5H951l-9.7-3.3
			c-13.4-4.5-22.3-14.9-23.1-26.8c0-0.8-0.7-1.5-1.5-1.5c-0.8,0-1.5,0.7-1.5,1.5c-0.4,11.9-9.7,22.3-23.1,26.8l-9.7,3.3h-0.7v1.5
			l0,0v0.7l0,0v1.5h0.7l9.7,3.3c3.7,1.1,7.3,2.9,10.4,5.2c5.6,4.1,8.6,11.2,8.2,18.6l-4.1,72.6h-39.1V370.9
			c-0.1-0.8-0.7-1.4-1.5-1.5H855c-0.7,0-1.1,0.4-1.5,1.1l-24.6,108.6h-11.2l-4.5-35.7c-0.1-0.8-0.7-1.4-1.5-1.5H756
			c-0.4,0-0.7,0.4-1.1,0.4c-0.3,0.3-0.4,0.7-0.4,1.1l4.8,37.2h-10V372.4h-12.7v-38.3c0-0.8-0.7-1.5-1.5-1.5s-1.5,0.7-1.5,1.5v38.3
			h-11.9v94.1h-8.2v-69.2h-14.9v75.9h-13v-17.9h-74v17.9h-28.3v-40.2c0.1-4.9-1.7-9.7-4.8-13.4c-3-3.5-7.3-5.6-11.9-5.6
			c-9.3,0-17.1,8.6-17.1,19v40.2h-10v-125h-11.9v-34.6h-49.1v34.6h-14.1v13H423v112h-39.8v-61.8l-26.4-29.8l-26.4,29.8v61.8h-22.7
			v18.2h2.6v-15.3h22.7v-63.6l23.8-26.8l23.8,26.8v63.3h45.4V364.2h41.3v-13h14.1v-34.6h43.2v34.6h11.9v125h15.6v-43.2
			c0-8.9,6.3-16,14.1-16c3.9-0.1,7.6,1.7,10,4.8c2.7,3.2,4.2,7.3,4.1,11.5v43.2h33.9v-17.9h68.5v17.9h18.2v-76.3h9.7v69.2h14.1
			v-93.8h22v107.2c0.1,0.8,0.7,1.4,1.5,1.5h12.7c0.4,0,0.7-0.4,1.1-0.4c0.3-0.3,0.4-0.7,0.4-1.1l-4.8-37.2h5.2l6,53.2h2.6l-3.3-28.3
			h6.3l3.3,28.3h2.6l-3.3-28.3h7.1l3.3,28.3h2.6l-4.5-38.3h8.2l4.5,38.3h2.6l-4.5-38.3h6.7l4.5,38.3h2.6l-4.5-38.3h1.1
			c0.8,0,1.5-0.7,1.5-1.5s-0.7-1.5-1.5-1.5l0,0l-1.5-11.9h5.2l4.5,35.7c0.1,0.8,0.7,1.4,1.5,1.5h11.5l-3.7,16h3l1.5-7.4h19.7
			c0.8,0,1.5-0.7,1.5-1.5c0-0.8-0.7-1.5-1.5-1.5h-19l2.6-11.9h19.7c0.8,0,1.5-0.7,1.5-1.5c0-0.8-0.7-1.5-1.5-1.5h-19l2.6-10.8h19
			c0.8,0,1.5-0.7,1.5-1.5c0-0.8-0.7-1.5-1.5-1.5h-17.9l10.8-48h13.4c0.8,0,1.5-0.7,1.5-1.5s-0.7-1.5-1.5-1.5l0,0h-13l1.9-8.2h11.2
			c0.8,0,1.5-0.7,1.5-1.5s-0.7-1.5-1.5-1.5l0,0h-10.4l1.5-7.4h8.6c0.8,0,1.5-0.7,1.5-1.5c0-0.8-0.7-1.5-1.5-1.5h-7.8l3.3-14.9h9.7
			v126.1h2.6v-15.6H907l-0.7,15.6h2.6l4.8-91.2c0.4-8.6-3-16.7-9.3-21.2c-3.3-2.6-7.1-4.5-11.2-5.6l-0.7-0.4h48.4l-0.7,0.4
			c-3.9,1.4-7.7,3.3-11.2,5.6c-6.3,4.5-10,12.7-9.3,21.2l4.8,91.2h2.6l-1.9-33.9h37.6v33.9h2.6V394h25.3v104.6h2.6v-33.9h38v-3
			H1032.1z M765.7,445.4h6.3l1.5,11.9h-6.3L765.7,445.4z M767.9,466.9l-0.7-7.1h6.3l0.7,7.1H767.9z M774.6,445.4h7.1l1.5,11.9h-7.1
			L774.6,445.4z M777.2,466.9l-0.7-7.1h7.1l0.7,7.1H777.2z M786.1,457.3l-1.5-11.9h8.2l1.5,11.9H786.1z M796.9,457.3l-1.5-11.9h6.7
			l1.5,11.9H796.9z M892.9,376.9l0.7-0.4c11.5-3.7,20.5-12.3,23.4-22.3c3.3,10,11.9,18.2,23.4,22.3l0.7,0.4H892.9z"/>
		<path id="Path_2028_1_" class="st5" d="M346,419.7c-0.8,0.1-1.4,0.7-1.5,1.5v77h2.6v-77C347.1,420.4,346.7,419.7,346,419.7z"/>
	</g>
	<g id="Group_1247_1_" transform="translate(375.429 249.667)">
		
			<linearGradient id="Rectangle_369_3_" gradientUnits="userSpaceOnUse" x1="-372.6488" y1="707.984" x2="-370.1488" y2="678.858" gradientTransform="matrix(1.488 0 0 -7.442 858.3576 5323.106)">
			<stop  offset="0" style="stop-color:#B2DBE1"/>
			<stop  offset="0.322" style="stop-color:#B7E1E6"/>
			<stop  offset="0.757" style="stop-color:#C5F2F4"/>
			<stop  offset="1" style="stop-color:#D0FFFF"/>
		</linearGradient>
		<rect id="Rectangle_369_1_" x="307.6" y="313.6" class="st41" width="1.5" height="7.4"/>
	</g>
	<g id="Group_1248_1_" transform="translate(375.429 225.481)">
		
			<linearGradient id="Rectangle_370_3_" gradientUnits="userSpaceOnUse" x1="-372.3699" y1="728.92" x2="-369.8699" y2="699.795" gradientTransform="matrix(1.488 0 0 -7.442 858.3576 5503.0981)">
			<stop  offset="0" style="stop-color:#B2DBE1"/>
			<stop  offset="0.322" style="stop-color:#B7E1E6"/>
			<stop  offset="0.757" style="stop-color:#C5F2F4"/>
			<stop  offset="1" style="stop-color:#D0FFFF"/>
		</linearGradient>
		<rect id="Rectangle_370_1_" x="307.6" y="313.6" class="st42" width="1.5" height="7.4"/>
	</g>
	<g id="Group_1249_1_" transform="translate(375.429 237.388)">
		
			<linearGradient id="Rectangle_371_3_" gradientUnits="userSpaceOnUse" x1="-372.5085" y1="718.6142" x2="-370.0074" y2="689.4882" gradientTransform="matrix(1.488 0 0 -7.442 858.3576 5414.4863)">
			<stop  offset="0" style="stop-color:#B2DBE1"/>
			<stop  offset="0.322" style="stop-color:#B7E1E6"/>
			<stop  offset="0.757" style="stop-color:#C5F2F4"/>
			<stop  offset="1" style="stop-color:#D0FFFF"/>
		</linearGradient>
		<rect id="Rectangle_371_1_" x="307.6" y="313.6" class="st43" width="1.5" height="7.4"/>
	</g>
</g>
<linearGradient id="Path_2036_3_" gradientUnits="userSpaceOnUse" x1="15.298" y1="974.9025" x2="16.6049" y2="975.0026" gradientTransform="matrix(28.9817 0 0 -43.7616 324.2017 43111.8438)">
	<stop  offset="0" style="stop-color:#ABA0E1"/>
	<stop  offset="1" style="stop-color:#DAD6EB"/>
</linearGradient>
<path id="Path_2036_1_" class="st44" d="M800.9,439c0-8-6.5-14.5-14.5-14.5c-8,0-14.5,6.5-14.5,14.5c-0.1,2.6,0.7,5.2,2.2,7.4l0,0
	l6.2,10.5l6.5,11.4l6.5-11.4l6.2-10.8C800.3,443.9,800.9,441.5,800.9,439z"/>
<ellipse id="Ellipse_54_1_" class="st12" cx="786.4" cy="440.6" rx="8.3" ry="8.3"/>
<linearGradient id="Path_2037_3_" gradientUnits="userSpaceOnUse" x1="15.3959" y1="974.9973" x2="16.7029" y2="975.0973" gradientTransform="matrix(35.236 0 0 -52.854 -64.426 51851.957)">
	<stop  offset="0" style="stop-color:#ABA0E1"/>
	<stop  offset="1" style="stop-color:#DAD6EB"/>
</linearGradient>
<path id="Path_2037_1_" class="st45" d="M518.6,308.1c0-9.7-7.9-17.6-17.6-17.6s-17.6,7.9-17.6,17.6c0,3.1,0.8,6.1,2.3,8.8l0,0
	l7.4,12.8l8,13.6l8-13.6l7.4-13.1C517.8,314,518.6,311.1,518.6,308.1z"/>
<ellipse id="Ellipse_55_1_" class="st12" cx="501" cy="310.1" rx="9.9" ry="9.9"/>
<g id="Group_1251_1_" transform="translate(-16.457 13.106)">
	
		<linearGradient id="Path_2038_3_" gradientUnits="userSpaceOnUse" x1="31.8251" y1="961.6851" x2="33.6511" y2="961.9011" gradientTransform="matrix(32.8439 0 0 -40.152 -742.4512 38951.7695)">
		<stop  offset="0" style="stop-color:#AA9FE0"/>
		<stop  offset="1" style="stop-color:#FFFFFF"/>
	</linearGradient>
	<path id="Path_2038_1_" class="st46" d="M333,341.3c-1.7,0-3.4,0.7-4.6,2l-9.1-7.6c0.6-0.9,0.9-2,1-3c0-0.8-0.2-1.6-0.5-2.3
		l9.7-6.1c1.2,1.3,2.8,2,4.6,2c3.5,0,6.4-2.8,6.4-6.4s-2.8-6.4-6.4-6.4s-6.4,2.8-6.4,6.4l0,0c0,0.8,0.2,1.6,0.5,2.3l-9.7,6.1
		c-1.2-1.3-2.8-2-4.6-2c-3.5,0-6.4,2.8-6.4,6.3c0,3.5,2.8,6.4,6.3,6.4c1.5,0,3-0.5,4.2-1.5l9.4,7.6c-0.3,0.7-0.5,1.5-0.5,2.3
		c0,3.5,2.8,6.4,6.4,6.4s6.4-2.8,6.4-6.4l0,0C339.4,344,336.5,341.3,333,341.3z"/>
</g>
<g id="Group_1920_1_" transform="translate(-46 26.854)">
	<g id="Group_1252_1_" transform="translate(-217.395 65.521)">
		
			<linearGradient id="Path_2039_3_" gradientUnits="userSpaceOnUse" x1="279.1054" y1="882.5238" x2="280.1564" y2="882.5238" gradientTransform="matrix(66.7877 0 0 -39.9207 -18173.4277 35710.6328)">
			<stop  offset="0" style="stop-color:#7763CD"/>
			<stop  offset="2.400000e-02" style="stop-color:#8673D6"/>
			<stop  offset="0.184" style="stop-color:#7B68D0"/>
			<stop  offset="1" style="stop-color:#B9AFE7"/>
		</linearGradient>
		<path id="Path_2039_1_" class="st47" d="M496.9,472.5c8.2-2.9,15.4-7.7,23.6-11.1c3.9-1.4,8.2-2.4,12.1-1
			c4.3,1.9,5.8,7.2,4.3,11.6c-1.4,4.3-5.3,7.2-8.7,10.6c-5.8,4.8-11.6,9.7-18.3,13c-6.8,3.4-15.4,5.3-23.2,2.9
			c-6.3-1.4-17.4-15-15.9-20.3c1-3.4,5.8-3.9,9.2-3.9C485.8,474.4,491.1,474.4,496.9,472.5z"/>
		<path id="Path_2040_1_" class="st21" d="M416.8,570.4l-16.4,84.9c-6.7,18.9-18.3,35.5-33.8,48.3L328,735c1.8,3.3,2.8,6.9,2.9,10.6
			c0,5.3-1.4,10.6,0,15.4c0.7,2.1,1.6,4,2.9,5.8l65.6-50.7c13.1-10,23.6-22.9,30.9-37.6l35.7-71.4L416.8,570.4z"/>
		<path id="Path_2041_1_" class="st22" d="M467.5,416.5c-0.5-7.7,7.2-19.8,15.4-18.3c4.3,0.5,8.2,3.4,12.5,0.5
			c3.4-2.4,4.3-6.8,4.8-10.6c0.5-5.3-1-10.6,1-15c0.7-1.6,1.4-3.2,1.9-4.8c0.5-1.9,0-3.9-1.4-4.3c-1.4-1-3.4,0-4.8-0.5
			c-3.4-1-3.4-10.1-3.9-13.5c-4.3-21.7-29.9-10.6-34.7,1.4c-3.9,8.7-7.7,22.2-5.3,34.3c0.5,3.4-4.8,16.9-9.2,20.3
			c-2.4,1.9-5.3,4.3-5.8,7.2C447.2,414.6,457.3,415.5,467.5,416.5z"/>
		<path id="Path_2042_1_" class="st23" d="M545.2,758.6l16.9-4.8l-10.6-79.6c-1.9-12.8-5.8-25.2-11.6-36.7l-40.1-78.7l-79.1,16.4
			l70,64.2c17.5,14.6,30.3,34.1,36.7,56L545.2,758.6z"/>
		<path id="Path_2043_1_" class="st24" d="M563.5,760.6c3.9-2.4,6.3-6.8,8.7-10.1c2.9-3.9,6.3-7.2,11.1-7.2
			c5.8,0,10.6,5.8,10.6,12.1c-0.5,5.8-4.3,11.1-9.2,14.5s-10.6,5.3-16.4,7.2c-3.9,1.4-9.7,3.9-13.5,4.3c-4.2,0.3-8.3-1.7-10.6-5.3
			C537.9,763.5,558.2,763.5,563.5,760.6z"/>
		<path id="Path_2044_1_" class="st25" d="M324.6,762c0.5,4.3,3.9,8.2,5.8,12.1c2.4,3.9,4.3,8.7,2.4,13c-1.9,5.8-9.7,7.7-15,5.3
			c-5.3-2.4-8.7-8.2-9.7-14s-0.5-12.1-0.5-17.9c0-3.9,0-7.7,1.4-11.6c1-3.9,5.3-10.1,9.2-10.1C331.4,737.4,323.7,755.8,324.6,762z"
			/>
		
			<linearGradient id="Path_2045_3_" gradientUnits="userSpaceOnUse" x1="279.1141" y1="882.7902" x2="280.1651" y2="882.7902" gradientTransform="matrix(69.2982 0 0 -71.6795 -18914.5996 63627.3945)">
			<stop  offset="0" style="stop-color:#7763CD"/>
			<stop  offset="2.400000e-02" style="stop-color:#8673D6"/>
			<stop  offset="0.184" style="stop-color:#7B68D0"/>
			<stop  offset="1" style="stop-color:#B9AFE7"/>
		</linearGradient>
		<path id="Path_2045_1_" class="st48" d="M454.5,375.9c-0.5-4.8-1-10.6,2.9-14.5c2.9-2.9,8.2-3.9,10.1-7.7c1.4-2.4,1-5.3,2.4-8.2
			c2.4-4.8,9.7-4.8,15-5.8c6.8-1,13-5.3,15-11.6c1.9-6.3-2.4-14-9.2-14.5c-4.3-0.5-8.2,1.9-12.1,3.4c-6.3,1.9-12.5,1.9-18.8,2.9
			c-6.3,1-13,3.9-15.9,9.2c-2.4,4.8-1.4,10.6-3.4,15.9c-2.4,4.8-7.7,8.2-9.2,13.5c-1.4,5.8,2.4,11.6,6.8,15.9
			c2.9,2.4,8.7,9.7,12.1,10.6C455.4,386.6,454.5,379.3,454.5,375.9z"/>
		<path id="Path_2046_1_" class="st27" d="M485.8,477.3c-2.4-10.6,0.5-19.3,1.9-29.4c2.4-17.4,2.4-35.7-12.5-38.6
			s-20.8-5.3-35.7-2.9c-21.7,3.4-34.3,56-32.3,63.7c1.9,7.2,4.8,46.8-3.9,66.1c-5.3,12.1-16.9,34.3,0,41c20.8,8.7,47.8,6.8,77.7-5.3
			c8.2-3.4,16.9-9.2,21.7-15.9C519.1,533.3,489.2,492.3,485.8,477.3z"/>
		
			<linearGradient id="Path_2047_3_" gradientUnits="userSpaceOnUse" x1="279.2083" y1="882.927" x2="280.2593" y2="882.927" gradientTransform="matrix(117.0546 0 0 -121.1989 -32326.873 107490.6484)">
			<stop  offset="0" style="stop-color:#7763CD"/>
			<stop  offset="2.400000e-02" style="stop-color:#8673D6"/>
			<stop  offset="0.184" style="stop-color:#7B68D0"/>
			<stop  offset="1" style="stop-color:#B9AFE7"/>
		</linearGradient>
		<path id="Path_2047_1_" class="st49" d="M476.2,425.2c-7.2-10.1-20.8-2.4-26.5,3.4c-7.7,7.7-25.6,14.5-43.9,25.6
			c-40.1,23.2-52.6,83-38.6,86.9c6.3,1.4,14-0.5,15.9-7.7c2.9-11.1,2.9-21.2,9.2-30.9c6.8-10.1,16.9-21.7,28-26.5
			c17.9-8.2,50.2-23.6,57.4-37.2C479.6,434.3,478.6,429,476.2,425.2z"/>
		<path id="Path_2048_1_" class="st22" d="M347.8,582c-0.5,1.4-1,2.9-0.5,4.3c1,1.9,3.9,2.4,5.8,2.4c7.8-1.1,14.1-6.8,15.9-14.5
			c0.5-2.4,1-4.3,1.4-6.8c0.5-2.2,1.9-4.1,3.9-5.3c1.9-1,4.8-0.5,5.8,1.4c0.5,1,3.4,1.4,4.3-0.5c1.9-4.8,0.5-18.3-4.8-18.8
			c-5.3-0.5-14.5,0.5-14.5,0.5S350.2,575.3,347.8,582z"/>
		<path id="Path_2049_1_" class="st22" d="M535,451.7c2.4-5.8,12.5-20.3,15.9-15c1.9,2.9-5.8,5.8-4.3,8.7c2.9,4.8,11.1-1.9,15.4-5.3
			c2.9-2.4,5.8-5.8,9.2-5.3c2.9,0.5,4.8,3.4,4.8,6.3c-0.1,3-1.5,5.9-3.9,7.7c-3.3,3.2-6.9,6.1-10.6,8.7c-4.3,2.9-11.6,7.7-18.8,7.7
			C536,465.2,533.1,456.1,535,451.7z"/>
	</g>
	<g id="Group_1253_1_" transform="translate(17.417 173.353)">
		
			<linearGradient id="Path_2050_3_" gradientUnits="userSpaceOnUse" x1="44.3147" y1="774.3314" x2="45.0807" y2="775.2754" gradientTransform="matrix(39.7573 0 0 -46.9919 -1448.8768 36745.5859)">
			<stop  offset="0" style="stop-color:#1C225C"/>
			<stop  offset="2.400000e-02" style="stop-color:#B4AAE6"/>
			<stop  offset="1" style="stop-color:#A598DD"/>
		</linearGradient>
		<path id="Path_2050_1_" class="st50" d="M319.5,359.8l-9.7-6.3c-2.4-1.4-2.9-4.8-1.4-7.2l19.8-30.4c1.4-2.4,4.8-2.9,7.2-1.4
			l9.7,6.3c2.4,1.4,2.9,4.8,1.4,7.2l-19.8,30.4C325.3,360.8,322,361.3,319.5,359.8z"/>
		<path id="Path_2051_1_" class="st30" d="M320.5,357.4l-8.7-5.3c-1.9-1.4-2.9-4.3-1.4-6.3l17.4-27c1.4-1.9,4.3-2.9,6.3-1.4l8.7,5.3
			c1.9,1.4,2.9,4.3,1.4,6.3l-17.4,27C325.3,357.8,322.7,358.4,320.5,357.4z"/>
	</g>
</g>
<linearGradient id="Path_2059_3_" gradientUnits="userSpaceOnUse" x1="15.7469" y1="974.889" x2="16.7979" y2="974.889" gradientTransform="matrix(78.7602 0 0 -39.2772 -510.8682 38414.4492)">
	<stop  offset="0" style="stop-color:#7763CD"/>
	<stop  offset="2.400000e-02" style="stop-color:#8673D6"/>
	<stop  offset="0.184" style="stop-color:#7B68D0"/>
	<stop  offset="1" style="stop-color:#B9AFE7"/>
</linearGradient>
<path id="Path_2059_1_" class="st51" d="M802.2,123.5h-1.7c-0.1-10.8-8.9-19.6-19.7-19.5c-5.7,0-11.1,2.5-14.8,6.8
	c-2-1-4.2-1.5-6.4-1.5c-7.9,0-14.4,6.3-14.7,14.3h-1.7c-5.4,0-9.8,4.4-9.9,9.8c0,0,0,0.1,0,0.1l0,0c0,5.4,4.4,9.8,9.8,9.9
	c0,0,0.1,0,0.1,0h59c5.4,0,9.8-4.4,9.9-9.8c0,0,0-0.1,0-0.1l0,0C812.1,127.9,807.7,123.5,802.2,123.5
	C802.2,123.5,802.2,123.5,802.2,123.5z"/>
<linearGradient id="Path_2060_3_" gradientUnits="userSpaceOnUse" x1="15.6263" y1="974.5247" x2="16.6773" y2="974.5247" gradientTransform="matrix(49.4295 0 0 -24.6061 -384.5589 24282.4668)">
	<stop  offset="0" style="stop-color:#7763CD"/>
	<stop  offset="2.400000e-02" style="stop-color:#8673D6"/>
	<stop  offset="0.184" style="stop-color:#7B68D0"/>
	<stop  offset="1" style="stop-color:#B9AFE7"/>
</linearGradient>
<path id="Path_2060_1_" class="st52" d="M396.4,303.1h1.1c0-6.8,5.6-12.3,12.4-12.3c3.5,0,6.9,1.6,9.2,4.2c1.3-0.6,2.6-1,4-1
	c5,0,9.1,4,9.3,9h1.1c3.4,0,6.2,2.7,6.2,6.1c0,0,0,0,0,0.1l0,0c0,3.4-2.7,6.2-6.1,6.2c0,0,0,0-0.1,0h-37.1c-3.4,0-6.2-2.7-6.2-6.1
	c0,0,0,0,0,0l0,0c-0.1-3.3,2.5-6.1,5.8-6.2C396.2,303.1,396.3,303.1,396.4,303.1z"/>
<linearGradient id="XMLID_14_" gradientUnits="userSpaceOnUse" x1="14.3336" y1="973.1606" x2="15.3846" y2="973.1606" gradientTransform="matrix(10.1426 -0.1685 -0.1685 -10.1426 722.5057 10117.2773)">
	<stop  offset="0" style="stop-color:#7763CD"/>
	<stop  offset="2.400000e-02" style="stop-color:#8673D6"/>
	<stop  offset="0.184" style="stop-color:#7B68D0"/>
	<stop  offset="1" style="stop-color:#B9AFE7"/>
</linearGradient>
<circle id="XMLID_8_" class="st53" cx="709.4" cy="244.4" r="5.1"/>
<linearGradient id="XMLID_15_" gradientUnits="userSpaceOnUse" x1="14.3336" y1="973.1606" x2="15.3846" y2="973.1606" gradientTransform="matrix(10.1426 -0.1685 -0.1685 -10.1426 379.2137 10106.124)">
	<stop  offset="0" style="stop-color:#7763CD"/>
	<stop  offset="2.400000e-02" style="stop-color:#8673D6"/>
	<stop  offset="0.184" style="stop-color:#7B68D0"/>
	<stop  offset="1" style="stop-color:#B9AFE7"/>
</linearGradient>
<circle id="XMLID_7_" class="st54" cx="366.2" cy="233.2" r="5.1"/>
<linearGradient id="XMLID_16_" gradientUnits="userSpaceOnUse" x1="14.7233" y1="973.6561" x2="15.7743" y2="973.6561" gradientTransform="matrix(13.0428 0 0 -13.0157 446.5799 13037.1553)">
	<stop  offset="0" style="stop-color:#7763CD"/>
	<stop  offset="2.400000e-02" style="stop-color:#8673D6"/>
	<stop  offset="0.184" style="stop-color:#7B68D0"/>
	<stop  offset="1" style="stop-color:#B9AFE7"/>
</linearGradient>
<path id="XMLID_6_" class="st55" d="M650.3,362.3l-2.6,0.1l-0.1-2.6c0-1.1-0.9-1.9-1.9-1.9c0,0,0,0,0,0l0,0c-1.1,0-1.9,0.9-1.9,1.9
	c0,0,0,0,0,0l0.1,2.6l-2.6,0.1c-1.1,0-2,0.9-1.9,2s0.9,2,2,1.9c0,0,0,0,0.1,0l2.6-0.1l0.1,2.6c0,1.1,0.9,1.9,1.9,1.9c0,0,0,0,0,0
	l0,0c1.1,0,1.9-0.9,1.9-1.9c0,0,0,0,0,0l-0.1-2.6l2.6-0.1c1.1,0,1.9-0.9,1.9-1.9c0,0,0,0,0,0C652.2,363.2,651.4,362.4,650.3,362.3z"
	/>
<linearGradient id="XMLID_17_" gradientUnits="userSpaceOnUse" x1="14.7233" y1="973.6462" x2="15.7743" y2="973.6462" gradientTransform="matrix(13.043 0 0 -12.9467 384.3471 12767.0225)">
	<stop  offset="0" style="stop-color:#7763CD"/>
	<stop  offset="2.400000e-02" style="stop-color:#8673D6"/>
	<stop  offset="0.184" style="stop-color:#7B68D0"/>
	<stop  offset="1" style="stop-color:#B9AFE7"/>
</linearGradient>
<path id="XMLID_5_" class="st56" d="M588,159.5l-2.6,0.1l-0.1-2.6c0-1.1-0.9-1.9-1.9-1.9c0,0,0,0-0.1,0l0,0c-1.1,0-1.9,0.9-1.9,1.9
	c0,0,0,0,0,0l0.1,2.6H579c-1.1,0-2,0.9-1.9,2c0,1.1,0.9,2,2,1.9c0,0,0,0,0.1,0l2.6-0.1l0.1,2.6c0,1.1,0.9,1.9,1.9,1.9c0,0,0,0,0,0
	l0,0c1.1,0,1.9-0.9,1.9-1.9c0,0,0,0,0,0l-0.1-2.6l2.6-0.1c1.1,0,1.9-0.9,1.9-1.9c0,0,0,0,0,0C589.9,160.3,589.1,159.5,588,159.5z"/>
<linearGradient id="Path_2061_3_" gradientUnits="userSpaceOnUse" x1="15.4678" y1="974.0497" x2="16.5188" y2="974.0497" gradientTransform="matrix(33.1831 0 0 -16.5491 -274.1127 16302.8369)">
	<stop  offset="0" style="stop-color:#7763CD"/>
	<stop  offset="2.400000e-02" style="stop-color:#8673D6"/>
	<stop  offset="0.184" style="stop-color:#7B68D0"/>
	<stop  offset="1" style="stop-color:#B9AFE7"/>
</linearGradient>
<path id="Path_2061_1_" class="st57" d="M269.8,183.2h-0.7c0-4.6-3.7-8.2-8.3-8.2c-2.4,0-4.7,1-6.2,2.9c-0.8-0.4-1.8-0.6-2.7-0.6
	c-3.3,0-6.1,2.7-6.2,6H245c-2.3,0-4.1,1.8-4.2,4.1c0,0,0,0,0,0l0,0c0,2.3,1.8,4.1,4.1,4.2c0,0,0,0,0,0h24.9c2.3,0,4.1-1.8,4.2-4.1
	c0,0,0,0,0,0l0,0C274,185,272.2,183.2,269.8,183.2C269.9,183.2,269.9,183.2,269.8,183.2z"/>
<linearGradient id="SVGID_1_" gradientUnits="userSpaceOnUse" x1="16.0839" y1="975.4321" x2="17.0839" y2="975.4321" gradientTransform="matrix(723.5685 0 0 -353.7679 -11149.3242 345789.5938)">
	<stop  offset="0" style="stop-color:#C3BAE9"/>
	<stop  offset="2.400000e-02" style="stop-color:#B8AEE6"/>
	<stop  offset="0.184" style="stop-color:#ADA2E2"/>
	<stop  offset="1" style="stop-color:#7B67D0"/>
</linearGradient>
<path class="st58" d="M1028.9,776.6c1,0,2,0,3.1,0.1V560.9c-52.8-14-172.1-39.3-267.7-13.9c-126.6,34.2-176.9,120.5-176.9,120.5
	s-107.7,18.5-126.2,37s-9.5,54.1-9.5,54.1s-23.7,19-34.6,56c-9,31.8-5.7,56.9,3.3,65.9c9.5,9.5,40.3,9.5,40.3,9.5h488.9
	c-3.3-9-5.1-18.8-5.1-28.9C944.5,814.4,982.3,776.6,1028.9,776.6z"/>
<linearGradient id="SVGID_2_" gradientUnits="userSpaceOnUse" x1="16.0839" y1="975.0923" x2="17.0839" y2="975.0923" gradientTransform="matrix(723.5685 0 0 -353.7679 -11149.3242 345789.5938)">
	<stop  offset="0" style="stop-color:#C3BAE9"/>
	<stop  offset="2.400000e-02" style="stop-color:#B8AEE6"/>
	<stop  offset="0.184" style="stop-color:#ADA2E2"/>
	<stop  offset="1" style="stop-color:#7B67D0"/>
</linearGradient>
<path class="st59" d="M970.1,861c0-32.5,26.3-58.8,58.8-58.8c1,0,2,0,3.1,0.1v-25.6c-1,0-2-0.1-3.1-0.1c-46.6,0-84.4,37.8-84.4,84.4
	c0,10.2,1.8,19.9,5.1,28.9h28.1C972.9,881.4,970.1,871.5,970.1,861z"/>
<radialGradient id="SVGID_3_" cx="1109" cy="847" r="86.5794" gradientUnits="userSpaceOnUse">
	<stop  offset="0" style="stop-color:#7763CD"/>
	<stop  offset="2.400000e-02" style="stop-color:#9F91DD"/>
	<stop  offset="0.519" style="stop-color:#8A79D9"/>
	<stop  offset="1" style="stop-color:#9B8BE2"/>
</radialGradient>
<path class="st60" d="M1028.9,802.2c1,0,2,0,3.1,0.1v-25.6c-1,0-2-0.1-3.1-0.1c-46.6,0-84.4,37.8-84.4,84.4
	c0,10.2,1.8,19.9,5.1,28.9c11.8,32.4,42.9,55.5,79.3,55.5c1,0,2,0,3.1-0.1v-25.6c-1,0.1-2,0.1-3.1,0.1c-22,0-41.1-12-51.2-29.9
	c-4.8-8.5-7.6-18.4-7.6-28.9C970.1,828.5,996.5,802.2,1028.9,802.2z"/>
<path class="st12" d="M1028.9,802.2c-32.5,0-58.8,26.3-58.8,58.8c0,10.5,2.8,20.4,7.6,28.9c10.1,17.8,29.2,29.9,51.2,29.9
	c1,0,2,0,3.1-0.1v-31.9v-85.5C1031,802.2,1030,802.2,1028.9,802.2z"/>
<linearGradient id="SVGID_4_" gradientUnits="userSpaceOnUse" x1="15.8327" y1="975.1409" x2="16.8837" y2="975.1409" gradientTransform="matrix(136.406 0 0 -66.8333 -1249.0726 65401.1289)">
	<stop  offset="0" style="stop-color:#7763CD"/>
	<stop  offset="2.400000e-02" style="stop-color:#8673D6"/>
	<stop  offset="0.184" style="stop-color:#7B68D0"/>
	<stop  offset="1" style="stop-color:#B9AFE7"/>
</linearGradient>
<path class="st61" d="M999.8,195.8c-9.8,0-19.2,4.2-25.7,11.5c-3.5-1.7-7.3-2.6-11.2-2.5c-13.8,0-25.1,10.8-25.4,24.3h-3
	c-9.3-0.1-17,7.4-17.1,16.7c0,0,0,0.1,0,0.1c0.1,9.3,7.7,16.8,17.1,16.8h97.5v-44.4C1027.4,205.2,1014.7,195.8,999.8,195.8z"/>
<g>
	
		<radialGradient id="Ellipse_52_3_" cx="16.4052" cy="975.3578" r="0.5" gradientTransform="matrix(168.852 0 0 -168.852 -2242.4492 165552.125)" gradientUnits="userSpaceOnUse">
		<stop  offset="0" style="stop-color:#7763CD"/>
		<stop  offset="2.400000e-02" style="stop-color:#9F91DD"/>
		<stop  offset="0.519" style="stop-color:#8A79D9"/>
		<stop  offset="1" style="stop-color:#9B8BE2"/>
	</radialGradient>
	<ellipse id="Ellipse_52_1_" class="st62" cx="527.6" cy="861" rx="84.4" ry="84.4"/>
	<ellipse id="Ellipse_53_1_" class="st12" cx="527.6" cy="861" rx="58.8" ry="58.8"/>
</g>
<linearGradient id="Path_2030_3_" gradientUnits="userSpaceOnUse" x1="16.1196" y1="975.3148" x2="17.1196" y2="975.3148" gradientTransform="matrix(377.5839 0 0 -129.6197 -5432.7544 127042.0859)">
	<stop  offset="0" style="stop-color:#FFFFFF"/>
	<stop  offset="1" style="stop-color:#C3BAE9"/>
</linearGradient>
<path id="Path_2030_1_" class="st63" d="M970.1,654.7l-377.5,32.3c0,0,63.6-74.5,153.2-110.5c65.9-26.6,130-20.4,160.8-11.4
	C973.9,584.5,970.1,654.7,970.1,654.7z"/>
<path id="Path_2033_1_" class="st12" d="M974.9,757.6c-16.1,8.5-30.8,20.9-41.3,36.5c-10.4,15.7-17.1,33.7-20.9,52.2l3.8-3.3
	l-66.4,2.8c-22.3,0.9-44.1,2.8-66.4,4.3c-44.1,2.8-88.2,6.6-132.8,11.4c44.6,0,88.7-0.9,132.8-3.3c22.3-0.9,44.1-1.9,66.4-3.3
	l66.4-4.3h3.3l0.5-3.3c2.4-17.5,7.6-35.1,17.1-50.8C946.9,780.8,959.7,768,974.9,757.6z"/>
<path id="Path_2035_1_" class="st12" d="M1028.9,668.4c0,0-31.3,1.4-78.7,4.3c-23.7,1.4-50.8,3.3-80.2,5.7s-60.7,4.7-92,7.6
	s-62.6,5.7-92,8.5c-29.4,2.8-56.4,6.2-80.2,8.5c-47,5.2-78.3,9.5-78.3,9.5s31.3-1.4,78.7-4.3c23.7-1.4,50.8-3.3,80.2-5.7
	s60.7-4.7,92-7.6c31.3-2.8,62.6-5.7,92-8.5s56.4-6.2,80.2-8.5C997.6,672.7,1028.9,668.4,1028.9,668.4z"/>
<path id="Path_2031_1_" class="st15" d="M500.6,709.7c1.4-1.9,2.4-4.3,1.4-6.6c-1.4-2.8-5.2-2.8-8.1-2.4
	c-10.4,0.9-21.3,3.8-28.5,11.9c-8.1,9.5-10.4,37.9-7.1,40.3c2.4,1.9,13.3-9,15.7-10.9C484.1,732.3,493,721.5,500.6,709.7z"/>
<path id="Path_2034_1_" class="st12" d="M625.8,849.6v-3.3c0-2.4,0.5-5.2,0-9.5c0-4.3-0.9-9-2.4-14.7c-1.5-6.4-3.7-12.6-6.6-18.5
	c-7.2-14.9-18.2-27.6-31.8-37c-16-10.4-34.5-16.1-53.6-16.6c-19.1,0.2-37.7,6-53.6,16.6c-15.2,10-25.6,24.2-31.8,37
	c-2.9,5.9-5.1,12.1-6.6,18.5c-1.1,4.8-1.9,9.7-2.4,14.7c-0.5,4.3,0,7.1,0,9.5v3.3c0,0,0.5-4.7,1.9-12.8c1.4-8.1,5.2-19,11.9-30.8
	c6.6-11.9,17.6-23.7,31.8-32.7c14.8-9.3,31.9-14.2,49.3-14.2c17.5,0,35.6,5.2,49.3,14.2c14.2,9,25.1,20.9,31.8,32.7
	c6.6,11.9,10.4,22.8,11.9,30.8C625.4,841,625.7,845.3,625.8,849.6z"/>
</svg>
