<svg id="logo_" data-name="logo " xmlns="http://www.w3.org/2000/svg" xmlns:xlink="http://www.w3.org/1999/xlink" width="26.882" height="30" viewBox="0 0 26.882 30">
  <defs>
    <linearGradient id="linear-gradient" x2="1" y2="1" gradientUnits="objectBoundingBox">
      <stop offset="0" stop-color="#7763cd"/>
      <stop offset="0.184" stop-color="#7b68d0"/>
      <stop offset="0.491" stop-color="#8673d6"/>
      <stop offset="1" stop-color="#b9afe7"/>
    </linearGradient>
  </defs>
  <g id="Layer_1" data-name="Layer 1" transform="translate(0 0)">
    <path id="_Path_" data-name="&lt;Path&gt;" d="M26.882,13.416V30H11.263a15.246,15.246,0,0,0,12.829-6.994c.013-.019.025-.037.037-.055A14.572,14.572,0,0,0,26.552,14.9c0-.424-.017-.843-.055-1.257v0q-.007-.112-.019-.224c-.016-.159-.035-.319-.059-.476-.008-.062-.016-.122-.025-.182H14.1v4.423h6.984A10.621,10.621,0,0,1,20.1,19.4a9.3,9.3,0,0,1-1.477,1.984q-.274.283-.571.539l-.013.009a10.8,10.8,0,0,1-3.2,2.022,10.571,10.571,0,0,1-1.958.585,10.826,10.826,0,0,1-2.091.206c-.146,0-.291,0-.435-.011A10.788,10.788,0,0,1,0,13.953a11.09,11.09,0,0,1,.067-1.176A13.423,13.423,0,0,1,16.1.26h0A13.418,13.418,0,0,1,26.882,13.416Z" transform="translate(0 0)" fill="url(#linear-gradient)"/>
  </g>
</svg>
