<svg xmlns="http://www.w3.org/2000/svg" xmlns:xlink="http://www.w3.org/1999/xlink" width="228" height="316" viewBox="0 0 228 316">
  <defs>
    <style>
      .cls-1 {
        fill: #f7f7f7;
      }

      .cls-2 {
        clip-path: url(#clip-path);
      }

      .cls-3 {
        fill: #d5d3d0;
      }

      .cls-4 {
        fill: #505b65;
      }

      .cls-5 {
        fill: #f7f2ed;
      }

      .cls-6 {
        fill: url(#linear-gradient);
      }

      .cls-7 {
        fill: #a6a9ab;
      }

      .cls-8 {
        fill: #f4a110;
      }

      .cls-9 {
        fill: #888b8c;
      }

      .cls-10 {
        fill: #fff;
        opacity: 0.8;
      }
    </style>
    <clipPath id="clip-path">
      <rect id="Rectangle_39" data-name="Rectangle 39" class="cls-1" width="228" height="316" transform="translate(980 1408)"/>
    </clipPath>
    <linearGradient id="linear-gradient" x1="0.106" y1="0.501" x2="1.105" y2="0.501" gradientUnits="objectBoundingBox">
      <stop offset="0" stop-color="#c3bae9"/>
      <stop offset="0.024" stop-color="#b8aee6"/>
      <stop offset="0.184" stop-color="#ada2e2"/>
      <stop offset="1" stop-color="#7b67d0"/>
    </linearGradient>
  </defs>
  <g id="Mask_Group_3" data-name="Mask Group 3" class="cls-2" transform="translate(-980 -1408)">
    <g id="car" transform="translate(745 1409)">
      <g id="car-2" data-name="car" transform="translate(0 0)">
        <rect id="Rectangle_6" data-name="Rectangle 6" class="cls-3" width="42.206" height="21.761" rx="10.76" transform="matrix(0.966, -0.259, 0.259, 0.966, 415.976, 156.951)"/>
        <path id="Path_227" data-name="Path 227" class="cls-4" d="M31.939,22.789l-20.664,0A11.282,11.282,0,0,1,0,11.515v-.22A11.291,11.291,0,0,1,11.278.013l20.664,0A11.282,11.282,0,0,1,43.214,11.287v.22A11.291,11.291,0,0,1,31.939,22.789ZM11.278,1.024A10.289,10.289,0,0,0,1,11.294v.22a10.281,10.281,0,0,0,10.27,10.276l20.664,0a10.289,10.289,0,0,0,10.274-10.28v-.22A10.281,10.281,0,0,0,31.943,1.011Z" transform="matrix(0.966, -0.259, 0.259, 0.966, 415.354, 156.585)"/>
        <ellipse id="Ellipse_6" data-name="Ellipse 6" class="cls-5" cx="3.694" cy="3.697" rx="3.694" ry="3.697" transform="translate(422.328 161.313)"/>
        <path id="Path_228" data-name="Path 228" class="cls-4" d="M425.545,168.915a4.2,4.2,0,1,1,4.195-4.2A4.2,4.2,0,0,1,425.545,168.915Zm0-7.393a3.2,3.2,0,1,0,3.194,3.2,3.195,3.195,0,0,0-3.194-3.2Z" transform="translate(0.477 0.292)"/>
        <path id="Path_229" data-name="Path 229" class="cls-4" d="M410.1,187.485a2,2,0,0,1-1.6-3.2l15.447-20.768a2,2,0,1,1,3.214,2.394l-15.448,20.768A2,2,0,0,1,410.1,187.485Z" transform="translate(0.462 0.296)"/>
        <rect id="Rectangle_7" data-name="Rectangle 7" class="cls-3" width="42.208" height="21.769" rx="10.76" transform="translate(0.501 150.373)"/>
        <path id="Path_230" data-name="Path 230" class="cls-4" d="M31.936,172.381H11.273A11.287,11.287,0,0,1,0,161.1v-.22A11.287,11.287,0,0,1,11.273,149.6H31.936a11.287,11.287,0,0,1,11.273,11.28v.22a11.287,11.287,0,0,1-11.273,11.28ZM11.273,150.6A10.285,10.285,0,0,0,1,160.88v.22A10.285,10.285,0,0,0,11.273,171.38H31.936A10.285,10.285,0,0,0,42.208,161.1v-.22A10.285,10.285,0,0,0,31.936,150.6Z" transform="translate(0 0.272)"/>
        <ellipse id="Ellipse_7" data-name="Ellipse 7" class="cls-5" cx="3.694" cy="3.697" rx="3.694" ry="3.697" transform="translate(31.065 160.572)"/>
        <path id="Path_231" data-name="Path 231" class="cls-4" d="M34.725,168.175a4.2,4.2,0,1,1,4.2-4.168,4.195,4.195,0,0,1-4.2,4.168Zm0-7.393a3.2,3.2,0,1,0,2.272.946,3.195,3.195,0,0,0-2.272-.946Z" transform="translate(0.035 0.291)"/>
        <path id="Path_232" data-name="Path 232" class="cls-4" d="M50.18,186.745a2,2,0,0,1-1.612-.811L33.12,165.176a2,2,0,1,1,3.214-2.394l15.447,20.768a2,2,0,0,1-1.6,3.2Z" transform="translate(0.037 0.295)"/>
        <path id="Path_233" data-name="Path 233" class="cls-6" d="M418.235,183.282H42.45L80.583,15.227A18.9,18.9,0,0,1,99.064.5H361.671A18.9,18.9,0,0,1,380.1,15.225Z" transform="translate(0.048 0.001)"/>
        <path id="Path_234" data-name="Path 234" class="cls-4" d="M418.857,183.783H41.83L80.1,15.117A19.3,19.3,0,0,1,99.065,0H361.672a19.3,19.3,0,0,1,18.921,15.117Zm-375.775-1H417.605L379.562,15.338A18.3,18.3,0,0,0,361.672,1H99.065a18.3,18.3,0,0,0-18.02,14.336Z" transform="translate(0.047 0)"/>
        <path id="Path_235" data-name="Path 235" class="cls-3" d="M406.4,173.807H54.27L89.79,17.3a9.392,9.392,0,0,1,9.26-7.363H361.658a9.4,9.4,0,0,1,9.21,7.363Z" transform="translate(0.061 0.018)"/>
        <path id="Path_236" data-name="Path 236" class="cls-4" d="M407.01,174.3H53.61L89.3,17.194A9.893,9.893,0,0,1,99.051,9.44H361.658a9.893,9.893,0,0,1,9.7,7.754ZM54.9,173.3H405.758l-35.4-155.883a8.9,8.9,0,0,0-8.72-7.013H99.051a8.891,8.891,0,0,0-8.72,7.013Z" transform="translate(0.061 0.018)"/>
        <path id="Path_237" data-name="Path 237" class="cls-5" d="M116.911,105.952A10.016,10.016,0,0,1,107.15,93.72L121.6,30.014a10.013,10.013,0,0,1,9.761-7.8H329.171a10.013,10.013,0,0,1,9.771,7.8L353.389,93.7a10.016,10.016,0,0,1-9.761,12.232Z" transform="translate(0.121 0.041)"/>
        <path id="Path_238" data-name="Path 238" class="cls-6" d="M438.25,244.389V192.424a18.908,18.908,0,0,0-18.9-18.914H41.371a18.908,18.908,0,0,0-18.9,18.914v51.964Z" transform="translate(0.025 0.316)"/>
        <path id="Path_239" data-name="Path 239" class="cls-4" d="M438.751,244.89H22V192.425A19.429,19.429,0,0,1,41.372,173H419.359a19.429,19.429,0,0,1,19.4,19.415Zm-415.75-1H437.75V192.425A18.427,18.427,0,0,0,419.359,174H41.372A18.427,18.427,0,0,0,23,192.425Z" transform="translate(0.025 0.315)"/>
        <path id="Path_240" data-name="Path 240" class="cls-6" d="M348.092,205.618H112.485a20.026,20.026,0,0,1-19.732-16.59l-2.683-15.5H370.507l-2.683,15.5a20.026,20.026,0,0,1-19.732,16.59Z" transform="translate(0.102 0.316)"/>
        <path id="Path_241" data-name="Path 241" class="cls-4" d="M348.093,206.12H112.486a20.487,20.487,0,0,1-20.223-17.031L89.47,173H371.109l-2.793,16.089a20.487,20.487,0,0,1-20.223,17.031ZM90.661,174l2.583,14.907a19.486,19.486,0,0,0,19.232,16.2H348.093a19.486,19.486,0,0,0,19.222-16.189l2.6-14.917Z" transform="translate(0.101 0.315)"/>
        <path id="Path_242" data-name="Path 242" class="cls-3" d="M433.245,268.114H27.486a5.007,5.007,0,0,1-5.006-5.009V243.79H438.25v19.315A5.007,5.007,0,0,1,433.245,268.114Z" transform="translate(0.025 0.443)"/>
        <path id="Path_243" data-name="Path 243" class="cls-4" d="M433.245,268.616H27.486a5.518,5.518,0,0,1-5.506-5.51V243.29H438.751v19.816a5.518,5.518,0,0,1-5.506,5.51ZM23,244.292v18.814a4.507,4.507,0,0,0,4.505,4.508H433.245a4.507,4.507,0,0,0,4.505-4.508V244.292Z" transform="translate(0.025 0.443)"/>
        <rect id="Rectangle_8" data-name="Rectangle 8" class="cls-7" width="49.136" height="44.471" transform="translate(36.201 269.028)"/>
        <path id="Path_244" data-name="Path 244" class="cls-4" d="M85.8,313.513H35.66V268H85.8Zm-49.136-1H84.8V269H36.661Z" transform="translate(0.04 0.487)"/>
        <rect id="Rectangle_9" data-name="Rectangle 9" class="cls-7" width="49.136" height="44.471" transform="translate(375.445 269.028)"/>
        <path id="Path_245" data-name="Path 245" class="cls-4" d="M424.657,313.513H374.52V268h50.137Zm-49.136-1h48.134V269H375.521Z" transform="translate(0.424 0.487)"/>
        <rect id="Rectangle_10" data-name="Rectangle 10" class="cls-5" width="111.266" height="29.053" rx="5" transform="translate(174.758 241.869)"/>
        <path id="Path_246" data-name="Path 246" class="cls-4" d="M280.821,270.985H179.566a5.518,5.518,0,0,1-5.506-5.51V246.44a5.518,5.518,0,0,1,5.506-5.51H280.821a5.518,5.518,0,0,1,5.506,5.51v19.035a5.518,5.518,0,0,1-5.506,5.51ZM179.566,241.932a4.507,4.507,0,0,0-4.505,4.508v19.035a4.507,4.507,0,0,0,4.505,4.508H280.821a4.507,4.507,0,0,0,4.505-4.508V246.44a4.507,4.507,0,0,0-4.505-4.508Z" transform="translate(0.197 0.438)"/>
        <rect id="Rectangle_11" data-name="Rectangle 11" class="cls-6" width="65.204" height="35.464" rx="17.52" transform="translate(368.577 179.837)"/>
        <path id="Path_247" data-name="Path 247" class="cls-4" d="M415.814,215.466H385.7a18.027,18.027,0,0,1-18.02-18.033v-.4A18.027,18.027,0,0,1,385.7,179h30.124a18.027,18.027,0,0,1,18.02,18.033v.351a18.027,18.027,0,0,1-18.03,18.083ZM385.7,180a17.025,17.025,0,0,0-17.019,17.031v.351A17.025,17.025,0,0,0,385.7,214.414h30.124a17.025,17.025,0,0,0,17.019-17.031v-.351A17.025,17.025,0,0,0,415.824,180Z" transform="translate(0.416 0.326)"/>
        <rect id="Rectangle_12" data-name="Rectangle 12" class="cls-5" width="35.911" height="16.079" rx="5" transform="translate(383.224 219.809)"/>
        <path id="Path_248" data-name="Path 248" class="cls-4" d="M413.685,236.031H387.8a5.518,5.518,0,0,1-5.506-5.51V224.51A5.518,5.518,0,0,1,387.8,219h25.9a5.518,5.518,0,0,1,5.506,5.51v6.011A5.518,5.518,0,0,1,413.685,236.031ZM387.786,220a4.507,4.507,0,0,0-4.505,4.508v6.011a4.507,4.507,0,0,0,4.505,4.508h25.9a4.507,4.507,0,0,0,4.505-4.508V224.51A4.507,4.507,0,0,0,413.685,220Z" transform="translate(0.433 0.398)"/>
        <rect id="Rectangle_13" data-name="Rectangle 13" class="cls-6" width="29.904" height="10.068" rx="2" transform="translate(386.227 222.815)"/>
        <path id="Path_249" data-name="Path 249" class="cls-4" d="M413.682,233.02H387.793a2.5,2.5,0,0,1-2.5-2.5V224.5a2.5,2.5,0,0,1,2.5-2.5h25.9a2.5,2.5,0,0,1,2.5,2.5v6.011a2.5,2.5,0,0,1-2.513,2.5ZM387.783,223a1.5,1.5,0,0,0-1.5,1.5v6.011a1.5,1.5,0,0,0,1.5,1.5h25.9a1.5,1.5,0,0,0,1.5-1.5V224.5a1.5,1.5,0,0,0-1.5-1.5Z" transform="translate(0.436 0.404)"/>
        <ellipse id="Ellipse_8" data-name="Ellipse 8" class="cls-5" cx="12.614" cy="12.623" rx="12.614" ry="12.623" transform="translate(373.302 184.936)"/>
        <path id="Path_250" data-name="Path 250" class="cls-4" d="M385.495,210.358a13.124,13.124,0,1,1,13.115-13.124A13.119,13.119,0,0,1,385.495,210.358Zm0-25.256a12.122,12.122,0,1,0,12.114,12.122A12.118,12.118,0,0,0,385.495,185.1Z" transform="translate(0.422 0.335)"/>
        <path id="Path_251" data-name="Path 251" class="cls-5" d="M385.491,206.845a9.617,9.617,0,1,1,9.611-9.617,9.614,9.614,0,0,1-9.611,9.617Z" transform="translate(0.426 0.341)"/>
        <path id="Path_252" data-name="Path 252" class="cls-4" d="M385.491,207.347A10.118,10.118,0,1,1,395.6,197.228a10.115,10.115,0,0,1-10.111,10.118Zm0-19.245a9.117,9.117,0,1,0,9.11,9.117,9.113,9.113,0,0,0-9.11-9.117Z" transform="translate(0.425 0.34)"/>
        <ellipse id="Ellipse_9" data-name="Ellipse 9" class="cls-5" cx="12.614" cy="12.623" rx="12.614" ry="12.623" transform="translate(403.817 184.936)"/>
        <path id="Path_253" data-name="Path 253" class="cls-4" d="M416.015,210.358a13.124,13.124,0,1,1,13.115-13.124A13.119,13.119,0,0,1,416.015,210.358Zm0-25.256a12.122,12.122,0,1,0,12.114,12.122A12.118,12.118,0,0,0,416.015,185.1Z" transform="translate(0.456 0.335)"/>
        <path id="Path_254" data-name="Path 254" class="cls-5" d="M416.011,206.845a9.617,9.617,0,1,1,9.611-9.617,9.614,9.614,0,0,1-9.611,9.617Z" transform="translate(0.46 0.341)"/>
        <path id="Path_255" data-name="Path 255" class="cls-4" d="M416.011,207.347a10.118,10.118,0,1,1,10.111-10.118,10.115,10.115,0,0,1-10.111,10.118Zm0-19.245a9.117,9.117,0,1,0,9.11,9.117,9.113,9.113,0,0,0-9.11-9.117Z" transform="translate(0.46 0.34)"/>
        <rect id="Rectangle_14" data-name="Rectangle 14" class="cls-8" width="65.204" height="35.464" rx="17.52" transform="translate(27.001 179.837)"/>
        <path id="Path_256" data-name="Path 256" class="cls-4" d="M74.634,215.466H44.52A18.027,18.027,0,0,1,26.5,197.433v-.4A18.027,18.027,0,0,1,44.52,179H74.634a18.027,18.027,0,0,1,18.02,18.033v.351a18.027,18.027,0,0,1-18.02,18.083ZM44.52,180A17.025,17.025,0,0,0,27.5,197.033v.351A17.025,17.025,0,0,0,44.52,214.414H74.634a17.025,17.025,0,0,0,17.019-17.031v-.351A17.025,17.025,0,0,0,74.634,180Z" transform="translate(0.03 0.326)"/>
        <rect id="Rectangle_15" data-name="Rectangle 15" class="cls-5" width="35.911" height="16.079" rx="5" transform="translate(41.657 219.809)"/>
        <path id="Path_257" data-name="Path 257" class="cls-4" d="M72.506,236.031h-25.9a5.518,5.518,0,0,1-5.506-5.51V224.51A5.518,5.518,0,0,1,46.606,219h25.9a5.518,5.518,0,0,1,5.506,5.51v6.011a5.518,5.518,0,0,1-5.506,5.51ZM46.606,220A4.507,4.507,0,0,0,42.1,224.51v6.011a4.507,4.507,0,0,0,4.505,4.508h25.9a4.507,4.507,0,0,0,4.505-4.508V224.51A4.507,4.507,0,0,0,72.506,220Z" transform="translate(0.047 0.398)"/>
        <rect id="Rectangle_16" data-name="Rectangle 16" class="cls-8" width="29.904" height="10.068" rx="2" transform="translate(44.651 222.815)"/>
        <path id="Path_258" data-name="Path 258" class="cls-4" d="M72.5,233.02H46.6a2.5,2.5,0,0,1-2.5-2.5V224.5a2.5,2.5,0,0,1,2.5-2.5H72.5a2.5,2.5,0,0,1,2.5,2.5v6.011a2.5,2.5,0,0,1-2.5,2.5ZM46.6,223a1.5,1.5,0,0,0-1.5,1.5v6.011a1.5,1.5,0,0,0,1.5,1.5H72.5a1.5,1.5,0,0,0,1.5-1.5V224.5a1.5,1.5,0,0,0-1.5-1.5Z" transform="translate(0.05 0.404)"/>
        <ellipse id="Ellipse_10" data-name="Ellipse 10" class="cls-5" cx="12.614" cy="12.623" rx="12.614" ry="12.623" transform="translate(31.736 184.936)"/>
        <path id="Path_259" data-name="Path 259" class="cls-4" d="M44.315,210.358A13.124,13.124,0,1,1,57.43,197.234,13.119,13.119,0,0,1,44.315,210.358Zm0-25.256a12.122,12.122,0,1,0,12.114,12.122A12.118,12.118,0,0,0,44.315,185.1Z" transform="translate(0.035 0.335)"/>
        <path id="Path_260" data-name="Path 260" class="cls-5" d="M44.311,206.845a9.617,9.617,0,1,1,9.611-9.617,9.614,9.614,0,0,1-9.611,9.617Z" transform="translate(0.039 0.341)"/>
        <path id="Path_261" data-name="Path 261" class="cls-4" d="M44.311,207.347a10.118,10.118,0,1,1,10.111-10.118,10.115,10.115,0,0,1-10.111,10.118Zm0-19.245a9.117,9.117,0,1,0,9.11,9.117,9.113,9.113,0,0,0-9.11-9.117Z" transform="translate(0.039 0.34)"/>
        <ellipse id="Ellipse_11" data-name="Ellipse 11" class="cls-5" cx="12.614" cy="12.623" rx="12.614" ry="12.623" transform="translate(62.25 184.936)"/>
        <path id="Path_262" data-name="Path 262" class="cls-4" d="M74.795,210.358A13.124,13.124,0,1,1,87.91,197.234,13.119,13.119,0,0,1,74.795,210.358Zm0-25.256a12.122,12.122,0,1,0,12.114,12.122A12.118,12.118,0,0,0,74.795,185.1Z" transform="translate(0.07 0.335)"/>
        <path id="Path_263" data-name="Path 263" class="cls-5" d="M74.791,206.845a9.617,9.617,0,1,1,9.611-9.617A9.614,9.614,0,0,1,74.791,206.845Z" transform="translate(0.074 0.341)"/>
        <path id="Path_264" data-name="Path 264" class="cls-4" d="M74.791,207.347A10.118,10.118,0,1,1,84.9,197.228a10.115,10.115,0,0,1-10.111,10.118Zm0-19.245a9.117,9.117,0,1,0,9.11,9.117,9.113,9.113,0,0,0-9.11-9.117Z" transform="translate(0.073 0.34)"/>
        <rect id="Rectangle_17" data-name="Rectangle 17" class="cls-5" width="180.484" height="33.33" rx="16.47" transform="translate(140.149 208.058)"/>
        <path id="Path_265" data-name="Path 265" class="cls-4" d="M303.986,241.522H156.479a17.025,17.025,0,0,1-17.019-17.031v-.331a17.025,17.025,0,0,1,17.019-17.031H303.986a17.025,17.025,0,0,1,17.019,17.031v.331a17.025,17.025,0,0,1-17.019,17.031Zm-147.507-33.34a16.024,16.024,0,0,0-16.018,16.029v.331a16.024,16.024,0,0,0,16.018,16.029H303.986A16.024,16.024,0,0,0,320,224.542v-.331a16.024,16.024,0,0,0-16.018-16.029Z" transform="translate(0.158 0.377)"/>
        <rect id="Rectangle_18" data-name="Rectangle 18" class="cls-7" width="174.477" height="27.32" rx="13.47" transform="translate(143.152 211.063)"/>
        <path id="Path_266" data-name="Path 266" class="cls-4" d="M303.983,238.512H156.476a14.021,14.021,0,0,1-14.016-14.025v-.331a14.021,14.021,0,0,1,14.016-14.025H303.983A14.021,14.021,0,0,1,318,224.155v.331a14.021,14.021,0,0,1-14.016,14.025Zm-147.507-27.33a13.019,13.019,0,0,0-13.015,13.024v.331a13.019,13.019,0,0,0,13.015,13.024H303.983A13.019,13.019,0,0,0,317,224.536v-.331a13.019,13.019,0,0,0-13.015-13.024Z" transform="translate(0.161 0.382)"/>
        <rect id="Rectangle_19" data-name="Rectangle 19" class="cls-4" width="49.136" height="8.005" transform="translate(36.201 269.028)"/>
        <rect id="Rectangle_20" data-name="Rectangle 20" class="cls-4" width="49.136" height="8.005" transform="translate(375.445 269.028)"/>
        <path id="Path_267" data-name="Path 267" class="cls-5" d="M114.084,177.282H102.431a.5.5,0,0,1,0-1h11.653a.5.5,0,0,1,0,1Z" transform="translate(0.115 0.321)"/>
        <path id="Path_268" data-name="Path 268" class="cls-5" d="M122.175,177.282h-3.834a.5.5,0,0,1,0-1h3.834a.5.5,0,0,1,0,1Z" transform="translate(0.133 0.321)"/>
        <path id="Path_269" data-name="Path 269" class="cls-5" d="M357.839,177.282H341.181a.5.5,0,0,1,0-1h16.659a.5.5,0,0,1,0,1Z" transform="translate(0.386 0.321)"/>
      </g>
      <g id="chair" transform="translate(90.602 42.096)">
        <path id="Path_270" data-name="Path 270" class="cls-7" d="M191.524,173.658H90.5l6.828-71.329A11.6,11.6,0,0,1,108.821,92.31H173.2a11.576,11.576,0,0,1,11.483,10.018Z" transform="translate(-90.5 -41.929)"/>
        <rect id="Rectangle_21" data-name="Rectangle 21" class="cls-7" width="68.528" height="33.561" rx="11.57" transform="translate(16.248)"/>
        <rect id="Rectangle_22" data-name="Rectangle 22" class="cls-7" width="4.485" height="16.78" transform="translate(27.862 33.551)"/>
        <path id="Path_271" data-name="Path 271" class="cls-4" d="M123.326,92.792H117.84V75h5.486Zm-4.485-1h3.484V76h-3.484Z" transform="translate(-90.469 -41.96)"/>
        <rect id="Rectangle_23" data-name="Rectangle 23" class="cls-7" width="4.485" height="16.78" transform="translate(68.678 33.551)"/>
        <path id="Path_272" data-name="Path 272" class="cls-4" d="M164.086,92.792H158.6V75h5.486Zm-4.485-1h3.484V76H159.6Z" transform="translate(-90.423 -41.96)"/>
        <path id="Path_273" data-name="Path 273" class="cls-9" d="M104.621,147.44l-1.171,12.242h75.095l-1.171-12.242Z" transform="translate(-90.485 -41.828)"/>
        <path id="Path_274" data-name="Path 274" class="cls-9" d="M179.938,174.212l-1.171-12.242H103.231l-1.171,12.242Z" transform="translate(-90.487 -41.802)"/>
        <path id="Path_275" data-name="Path 275" class="cls-9" d="M174.355,116.072l-.671-7.013a5.8,5.8,0,0,0-5.767-5.24H114.067a5.8,5.8,0,0,0-5.767,5.24l-.671,7.013Z" transform="translate(-90.481 -41.908)"/>
        <path id="Path_276" data-name="Path 276" class="cls-9" d="M107.411,118.37l-1.171,12.242h69.509l-1.171-12.242Z" transform="translate(-90.482 -41.881)"/>
        <path id="Path_277" data-name="Path 277" class="cls-9" d="M106.021,132.9l-1.171,12.242h72.3L175.98,132.9Z" transform="translate(-90.484 -41.855)"/>
        <path id="Path_278" data-name="Path 278" class="cls-7" d="M363.744,173.658H262.72l6.828-71.329A11.6,11.6,0,0,1,281.041,92.31h64.383a11.576,11.576,0,0,1,11.483,10.018Z" transform="translate(-90.305 -41.929)"/>
        <rect id="Rectangle_24" data-name="Rectangle 24" class="cls-7" width="68.528" height="33.561" rx="11.57" transform="translate(188.663)"/>
        <rect id="Rectangle_25" data-name="Rectangle 25" class="cls-7" width="4.485" height="16.78" transform="translate(200.277 33.551)"/>
        <path id="Path_279" data-name="Path 279" class="cls-4" d="M295.536,92.792H290.05V75h5.486Zm-4.485-1h3.484V76h-3.484Z" transform="translate(-90.274 -41.96)"/>
        <rect id="Rectangle_26" data-name="Rectangle 26" class="cls-7" width="4.485" height="16.78" transform="translate(241.093 33.551)"/>
        <path id="Path_280" data-name="Path 280" class="cls-4" d="M336.306,92.792H330.82V75h5.486Zm-4.485-1h3.484V76h-3.484Z" transform="translate(-90.228 -41.96)"/>
        <path id="Path_281" data-name="Path 281" class="cls-9" d="M276.841,147.44l-1.171,12.242h75.095l-1.171-12.242Z" transform="translate(-90.29 -41.828)"/>
        <path id="Path_282" data-name="Path 282" class="cls-9" d="M352.158,174.212l-1.171-12.242H275.451l-1.171,12.242Z" transform="translate(-90.292 -41.802)"/>
        <path id="Path_283" data-name="Path 283" class="cls-9" d="M346.575,116.072l-.671-7.013a5.8,5.8,0,0,0-5.767-5.24H286.287a5.8,5.8,0,0,0-5.767,5.24l-.671,7.013Z" transform="translate(-90.286 -41.908)"/>
        <path id="Path_284" data-name="Path 284" class="cls-9" d="M279.631,118.37l-1.171,12.242h69.509L346.8,118.37Z" transform="translate(-90.287 -41.881)"/>
        <path id="Path_285" data-name="Path 285" class="cls-9" d="M278.241,132.9l-1.181,12.242h72.312L348.19,132.9Z" transform="translate(-90.289 -41.855)"/>
      </g>
      <g id="girl" transform="translate(102.049 23.833)">
        <path id="Path_286" data-name="Path 286" class="cls-4" d="M170.258,81.073a30.81,30.81,0,1,0-58.536,0c7.569,23.312,7.569,25.787,0,49.089a30.81,30.81,0,1,0,58.536,0C162.689,106.88,162.689,104.416,170.258,81.073Z" transform="translate(-101.924 -23.759)"/>
        <path id="Path_287" data-name="Path 287" class="cls-4" d="M141.035,171.148a31.323,31.323,0,0,1-29.744-41.075c7.549-23.252,7.549-25.536,0-48.788a31.311,31.311,0,1,1,59.487,0c-7.549,23.252-7.549,25.536,0,48.789a31.323,31.323,0,0,1-29.744,41.075Zm0-130a30.322,30.322,0,0,0-28.793,39.792c7.569,23.322,7.569,26.047,0,49.41a30.31,30.31,0,1,0,57.585,0c-7.569-23.322-7.569-26.047,0-49.41a30.322,30.322,0,0,0-28.793-39.792Z" transform="translate(-101.925 -23.76)"/>
        <path id="Path_288" data-name="Path 288" class="cls-4" d="M171.8,71.536H110.18V54.845A30.5,30.5,0,0,1,140.674,24.33h.621A30.5,30.5,0,0,1,171.79,54.845Z" transform="translate(-101.924 -23.789)"/>
        <path id="Path_289" data-name="Path 289" class="cls-4" d="M172.3,72.038H109.68V54.846A31.046,31.046,0,0,1,140.715,23.79h.621a31.046,31.046,0,0,1,31.035,31.056Zm-61.61-1H171.3V54.846a30.044,30.044,0,0,0-30.034-30.055h-.621a30.044,30.044,0,0,0-30.034,30.055Z" transform="translate(-101.925 -23.79)"/>
        <path id="Path_290" data-name="Path 290" class="cls-3" d="M107.9,172.285V147.06a32.828,32.828,0,0,1,32.777-32.8h.621a32.828,32.828,0,0,1,32.777,32.8v25.206Z" transform="translate(-101.927 -23.626)"/>
        <path id="Path_291" data-name="Path 291" class="cls-4" d="M174.586,172.787H107.4V147.06a33.329,33.329,0,0,1,33.278-33.3h.621a33.329,33.329,0,0,1,33.288,33.3Zm-66.185-1h65.184V147.06a32.328,32.328,0,0,0-32.277-32.3h-.621a32.328,32.328,0,0,0-32.287,32.3Z" transform="translate(-101.928 -23.626)"/>
        <path id="Path_292" data-name="Path 292" class="cls-5" d="M170.152,71.832V55.713A29.243,29.243,0,0,0,140.919,26.46h-.591A29.243,29.243,0,0,0,111.1,55.713V71.892a5.671,5.671,0,0,0,.741,11.29h.09a29.264,29.264,0,0,0,10.892,16.5,18.588,18.588,0,0,1,7.268,14.907v6.692a10.445,10.445,0,0,0,10.442,10.449h.21a10.445,10.445,0,0,0,10.442-10.449V114.62a18.628,18.628,0,0,1,7.278-14.937A29.265,29.265,0,0,0,169.351,83.1a5.67,5.67,0,1,0,.811-11.28Z" transform="translate(-101.929 -23.785)"/>
        <path id="Path_293" data-name="Path 293" class="cls-4" d="M140.73,132.193h-.21a10.956,10.956,0,0,1-10.942-10.95v-6.692a18.137,18.137,0,0,0-7.068-14.506A29.825,29.825,0,0,1,111.5,83.635a6.162,6.162,0,0,1-.931-12.2V55.714A29.774,29.774,0,0,1,140.329,26h.591a29.774,29.774,0,0,1,29.734,29.754v15.6a6.171,6.171,0,0,1-.5,12.322h-.43a29.825,29.825,0,0,1-11.012,16.41,18.177,18.177,0,0,0-7.078,14.536v6.662a10.956,10.956,0,0,1-10.9,10.91ZM140.329,27A28.772,28.772,0,0,0,111.6,55.754v16.57l-.44.06a5.17,5.17,0,0,0,.671,10.3h.39l.18.381a28.814,28.814,0,0,0,10.7,16.219,19.139,19.139,0,0,1,7.468,15.308v6.692a9.955,9.955,0,0,0,9.941,9.948h.21a9.955,9.955,0,0,0,9.941-9.948v-6.662a19.19,19.19,0,0,1,7.478-15.338,28.814,28.814,0,0,0,10.712-16.27l.11-.441.451.06a5.082,5.082,0,0,0,.741.06,5.169,5.169,0,0,0,0-10.339h-.5V55.714A28.772,28.772,0,0,0,140.92,27Z" transform="translate(-101.93 -23.786)"/>
        <path id="Path_294" data-name="Path 294" class="cls-7" d="M111.734,74.12a3.376,3.376,0,0,0,0,6.732Z" transform="translate(-101.926 -23.699)"/>
        <path id="Path_295" data-name="Path 295" class="cls-7" d="M170.17,80.852a3.376,3.376,0,0,0,0-6.732Z" transform="translate(-101.856 -23.699)"/>
        <ellipse id="Ellipse_12" data-name="Ellipse 12" class="cls-4" cx="1.732" cy="1.733" rx="1.732" ry="1.733" transform="translate(28.088 43.128)"/>
        <ellipse id="Ellipse_13" data-name="Ellipse 13" class="cls-4" cx="1.732" cy="1.733" rx="1.732" ry="1.733" transform="translate(46.579 43.128)"/>
        <ellipse id="Ellipse_14" data-name="Ellipse 14" class="cls-7" cx="3.384" cy="3.386" rx="3.384" ry="3.386" transform="translate(19.518 50.672)"/>
        <ellipse id="Ellipse_15" data-name="Ellipse 15" class="cls-7" cx="3.384" cy="3.386" rx="3.384" ry="3.386" transform="translate(51.845 50.672)"/>
        <path id="Path_296" data-name="Path 296" class="cls-4" d="M140.913,25.84h-.591a29.239,29.239,0,0,0-28.783,24.2V70.561a.621.621,0,0,0,1,.511c3.564-2.6,2.253-5.59,6.7-8.135,4.805-2.745,6.738.521,11.533-2.234s2.873-6.011,7.669-8.766,6.728.521,11.533-2.234,2.873-6.011,7.669-8.766c3.534-2,5.526-.791,8.249-1.112A29.209,29.209,0,0,0,140.913,25.84Z" transform="translate(-101.923 -23.786)"/>
        <path id="Path_297" data-name="Path 297" class="cls-4" d="M112.161,71.694A1.132,1.132,0,0,1,111,70.562V50.045A29.679,29.679,0,0,1,140.293,25.35h.591A29.549,29.549,0,0,1,166.262,39.6l.41.671-.781.09a9.153,9.153,0,0,1-1.051.06h0a10.839,10.839,0,0,1-1.512-.07,10.065,10.065,0,0,0-1.442-.07,7.6,7.6,0,0,0-4,1.132,8.013,8.013,0,0,0-3.634,4.158,8.934,8.934,0,0,1-4,4.6,8.6,8.6,0,0,1-4.515,1.252,10.07,10.07,0,0,1-1.542-.08,9.362,9.362,0,0,0-1.462-.07,7.545,7.545,0,0,0-4,1.122,8.013,8.013,0,0,0-3.694,4.158,8.944,8.944,0,0,1-4,4.6,8.6,8.6,0,0,1-4.515,1.262,10.071,10.071,0,0,1-1.542-.08,9.362,9.362,0,0,0-1.462-.07,7.555,7.555,0,0,0-4,1.122,8.013,8.013,0,0,0-3.634,4.168,9.116,9.116,0,0,1-3,3.937,1.091,1.091,0,0,1-.7.21Zm28.162-45.352A28.668,28.668,0,0,0,112,50.125V70.562a.12.12,0,0,0,.18.1,8.174,8.174,0,0,0,2.7-3.566,8.954,8.954,0,0,1,4-4.6,8.6,8.6,0,0,1,4.515-1.262,10.07,10.07,0,0,1,1.542.08,9.362,9.362,0,0,0,1.462.07,7.555,7.555,0,0,0,4-1.122,8.013,8.013,0,0,0,3.634-4.158,8.934,8.934,0,0,1,4-4.6,8.585,8.585,0,0,1,4.515-1.262,10.07,10.07,0,0,1,1.542.08,9.362,9.362,0,0,0,1.462.07,7.545,7.545,0,0,0,4-1.122,8.013,8.013,0,0,0,3.634-4.158,8.934,8.934,0,0,1,4-4.6,8.645,8.645,0,0,1,4.545-1.262,10.839,10.839,0,0,1,1.512.07,10.065,10.065,0,0,0,1.442.07h.12A28.547,28.547,0,0,0,140.8,26.372Z" transform="translate(-101.923 -23.787)"/>
        <path id="Path_298" data-name="Path 298" class="cls-4" d="M159.83,37.25s-2.353,16.2,11.113,18.534C170.953,55.784,172.324,38.713,159.83,37.25Z" transform="translate(-101.868 -23.766)"/>
        <path id="Path_299" data-name="Path 299" class="cls-4" d="M171.4,56.366l-.541-.09c-13.786-2.384-11.553-18.934-11.523-19.1l.07-.481.481.06c12.814,1.5,11.573,18.894,11.563,19.035ZM160.271,37.812c-.27,2.685-.9,15.027,10.212,17.372C170.563,52.318,170.393,39.4,160.271,37.812Z" transform="translate(-101.869 -23.767)"/>
        <path id="Path_300" data-name="Path 300" class="cls-4" d="M141.007,93.2a7.118,7.118,0,0,1-6.547-4.348.5.5,0,0,1,.921-.391,6.111,6.111,0,0,0,11.263,0,.5.5,0,0,1,.921.391A7.108,7.108,0,0,1,141.007,93.2Z" transform="translate(-101.897 -23.673)"/>
        <path id="Path_301" data-name="Path 301" class="cls-4" d="M140.171,82.379h-.36a.5.5,0,0,1,0-1h.36a4.5,4.5,0,0,0,4.5-4.5V66.4a5.5,5.5,0,0,1,5.486-5.5.521.521,0,0,1,.521.5.481.481,0,0,1-.471.5h-.05a4.5,4.5,0,0,0-4.485,4.5V76.889a5.5,5.5,0,0,1-5.5,5.49Z" transform="translate(-101.891 -23.723)"/>
        <path id="Path_302" data-name="Path 302" class="cls-5" d="M130.055,116.05l10.652,15.508s-9.881,3.256-13.766-2.755C123.657,123.7,130.055,116.05,130.055,116.05Z" transform="translate(-101.906 -23.622)"/>
        <path id="Path_303" data-name="Path 303" class="cls-4" d="M134.931,132.942c-3.864,0-6.768-1.332-8.4-3.867-3.454-5.35,2.873-13.024,3.144-13.344l.42-.5,11.4,16.6-.631.21A21.011,21.011,0,0,1,134.931,132.942Zm-4.9-16.029c-1.322,1.773-5.236,7.634-2.663,11.631,1.462,2.264,4,3.406,7.559,3.406a20.42,20.42,0,0,0,5.006-.671Z" transform="translate(-101.907 -23.624)"/>
        <path id="Path_304" data-name="Path 304" class="cls-5" d="M151.352,116.05,140.7,131.558s9.881,3.256,13.766-2.755C157.749,123.7,151.352,116.05,151.352,116.05Z" transform="translate(-101.89 -23.622)"/>
        <path id="Path_305" data-name="Path 305" class="cls-4" d="M146.477,132.942h0a21.011,21.011,0,0,1-5.947-.9l-.631-.21,11.4-16.6.42.5c.27.321,6.6,8.015,3.144,13.344C153.245,131.61,150.342,132.942,146.477,132.942Zm-5.006-1.673a20.49,20.49,0,0,0,5.006.671h0c3.554,0,6.1-1.142,7.559-3.406,2.573-4.007-1.342-9.858-2.663-11.631Z" transform="translate(-101.891 -23.624)"/>
        <rect id="Rectangle_27" data-name="Rectangle 27" class="cls-4" width="66.185" height="2.354" transform="translate(5.973 127.642)"/>
        <path id="Path_306" data-name="Path 306" class="cls-4" d="M143.7,144.8a3.485,3.485,0,0,1-3.5-3.476v-9.8a.5.5,0,1,1,1,0v9.8a2.484,2.484,0,0,0,2.473,2.475.511.511,0,0,1,.521.5.491.491,0,0,1-.491.5Z" transform="translate(-101.89 -23.595)"/>
        <path id="Path_307" data-name="Path 307" class="cls-4" d="M174.075,156.7H107.9a.5.5,0,0,1,0-1h66.175a.5.5,0,0,1,0,1Z" transform="translate(-101.928 -23.55)"/>
        <path id="Path_308" data-name="Path 308" class="cls-3" d="M163,149.437,174.793,166h0a7.781,7.781,0,1,0,12.664-9.016h0l-16.018-22.5Z" transform="translate(-101.865 -23.589)"/>
        <path id="Path_309" data-name="Path 309" class="cls-4" d="M181.091,169.765a8.207,8.207,0,0,1-6.447-3.106h0l-.28-.381-11.793-16.55.811-.581,11.793,16.55a7.28,7.28,0,1,0,11.853-8.445l-.29-.411h0l-15.728-22.1.811-.581,16.318,22.882h0a8.276,8.276,0,0,1-6.367,12.653Z" transform="translate(-101.865 -23.589)"/>
        <path id="Path_310" data-name="Path 310" class="cls-3" d="M123.544,144.477c-2.643,11.751-2.823,12.573-5.446,24.324-.1.421-.2.862-.3,1.312h0a7.666,7.666,0,0,1-1.772,3.456H104.382a7.587,7.587,0,0,1-1.932-4.769,7.018,7.018,0,0,1,.17-2.094h0c2.883-12.873,3.334-14.556,6.007-26.318Z" transform="translate(-101.933 -23.578)"/>
        <path id="Path_311" data-name="Path 311" class="cls-4" d="M116.236,174.061H104.163l-.15-.17a8.128,8.128,0,0,1-2.062-5.079,7.358,7.358,0,0,1,.07-1.613h0l.13-.611c1.472-6.552,2.3-10.209,3.124-13.765s1.552-6.772,2.843-12.553l1,.22c-1.291,5.78-2.062,9.127-2.843,12.553s-1.6,7.013-3,13.154h0l-.13.611a6.576,6.576,0,0,0-.16,1.944,7.146,7.146,0,0,0,1.662,4.308h11.173a7.225,7.225,0,0,0,1.512-3.066l.1-.391.21-.932.9-4.007c1.8-8.095,2.243-10.018,4.545-20.277l1,.22c-2.3,10.239-2.733,12.182-4.545,20.277l-.9,4.007c-.1.421-.2.862-.3,1.312l-.11.391a8.2,8.2,0,0,1-1.792,3.3Z" transform="translate(-101.934 -23.578)"/>
      </g>
      <g id="arm" transform="translate(75.125 70.658)">
        <path id="Path_312" data-name="Path 312" class="cls-4" d="M75.04,82.081,166.6,173.7H180.76L77.663,70.53Z" transform="translate(-75.04 -70.53)"/>
        <path id="Path_313" data-name="Path 313" class="cls-3" d="M141.474,152.794a7.806,7.806,0,0,1-3.434,6.832h0l-13.816,9.157-7.208,4.779H104.852a7.707,7.707,0,0,1-2-4.769v-.05a7.766,7.766,0,0,1,3.484-6.832l11.5-7.634,11.513-7.624a7.778,7.778,0,0,1,12.074,6.141Z" transform="translate(-75.009 -70.394)"/>
        <path id="Path_314" data-name="Path 314" class="cls-4" d="M117.127,174.053H104.633l-.15-.17a8.271,8.271,0,0,1,1.622-12.4l6.668-4.418,4.835-3.206,2-1.3,9.551-6.331a8.376,8.376,0,0,1,4.195-1.372h.38a8.286,8.286,0,0,1,4.8,15.027h0l-.22.16-5.276,3.476-8.59,5.7Zm-12.014-1h11.743l7.068-4.689,8.6-5.7,5.216-3.466a7.284,7.284,0,0,0-4.345-13.354,7.375,7.375,0,0,0-3.694,1.212l-9.551,6.322-2,1.292-4.835,3.206-6.668,4.418a7.276,7.276,0,0,0-1.562,10.76Z" transform="translate(-75.009 -70.395)"/>
        <path id="Path_315" data-name="Path 315" class="cls-5" d="M157.886,132.353v-.05a2.762,2.762,0,0,0-3.6-1.513l-11.6,4.769-7.008,2.865.861-2.114a2.766,2.766,0,0,0-1.522-3.607h-.05a2.762,2.762,0,0,0-3.6,1.523l-4.135,11.12a11.145,11.145,0,0,0-.41,1.1h0a1.353,1.353,0,0,0-.13.5,11.027,11.027,0,0,0,.471,6.963l.08.21a11.01,11.01,0,0,0,14.426,6.011l6.007-2.475,3.944-1.623a2.766,2.766,0,0,0,1.512-3.607v-.05a2.762,2.762,0,0,0-3.6-1.513l-1.772.721,3.634-1.493a2.766,2.766,0,0,0,1.512-3.607v-.05a2.762,2.762,0,0,0-3.6-1.513l-3.264,1.322,5.086-2.094a2.766,2.766,0,0,0,1.512-3.607v-.05a2.762,2.762,0,0,0-3.594-1.483l-4.665,1.913h0l12.014-4.939a2.766,2.766,0,0,0,1.512-3.637Z" transform="translate(-74.982 -70.421)"/>
        <path id="Path_316" data-name="Path 316" class="cls-4" d="M137.483,161.467a11.523,11.523,0,0,1-10.692-7.173l-.08-.21a11.468,11.468,0,0,1-.5-7.213,1.935,1.935,0,0,1,.16-.621,11.142,11.142,0,0,1,.41-1.112l4.115-11.13A3.295,3.295,0,1,1,137,136.482l-.41,1,17.44-7.153a3.3,3.3,0,0,1,2.5,6.1l-5.166,2.124a3.317,3.317,0,0,1,.23,5.931,3.3,3.3,0,0,1,.25,5.941,3.307,3.307,0,0,1,0,6.071l-10.011,4.1A11.5,11.5,0,0,1,137.483,161.467Zm-3.554-28.462a2.263,2.263,0,0,0-2.1,1.413l-4.135,11.1a10.937,10.937,0,0,0-.4,1.072,1.273,1.273,0,0,0-.11.351v.14a10.476,10.476,0,0,0,.451,6.642l.08.21a10.549,10.549,0,0,0,13.776,5.76l10.011-4.1a2.32,2.32,0,0,0-1.772-4.288l-1.772.721-.38-.932,3.634-1.493a2.265,2.265,0,0,0,1.231-2.955,2.292,2.292,0,0,0-3-1.292l-3.214,1.322-.38-.932,5.086-2.094a2.265,2.265,0,0,0,1.231-3.005,2.3,2.3,0,0,0-3-1.282l-4.665,1.913-.38-.932h0l12.014-4.929a2.265,2.265,0,0,0,1.231-3.005,2.3,2.3,0,0,0-3-1.282l-19.672,8.085,1.311-3.226a2.265,2.265,0,0,0-1.241-2.955,2.331,2.331,0,0,0-.821-.03Z" transform="translate(-74.982 -70.422)"/>
        <path id="Path_317" data-name="Path 317" class="cls-3" d="M195.195,129.775a7.767,7.767,0,0,0-13.185,2.875h0l-8.249,26.408h0a7.779,7.779,0,1,0,14.847,4.618h0l8.2-26.388h0A7.778,7.778,0,0,0,195.195,129.775Z" transform="translate(-74.929 -70.427)"/>
        <path id="Path_318" data-name="Path 318" class="cls-4" d="M181.189,169.638A8.272,8.272,0,0,1,173.14,159.4h0l.15-.5,8.329-26.889h0a8.28,8.28,0,0,1,15.788,4.859h0l-.15.5-8.339,26.839h0a8.26,8.26,0,0,1-7.749,5.38Zm-6.808-10.92-.14.471a7.278,7.278,0,1,0,13.9,4.328l.139-.461h0l8.009-25.927a7.278,7.278,0,1,0-13.9-4.328l-.139.451h0Z" transform="translate(-74.929 -70.428)"/>
        <path id="Path_319" data-name="Path 319" class="cls-5" d="M210.421,125.473h0a2.762,2.762,0,0,0-3.854-.651l1.642-1.172a2.766,2.766,0,0,0,.651-3.857h0a2.762,2.762,0,0,0-3.854-.651l1.642-1.172a2.766,2.766,0,0,0,.651-3.857h0a2.762,2.762,0,0,0-3.854-.651l-5.216,3.707-3.234-4.558-6.988,4.749a11.025,11.025,0,0,0-2.613,15.428l.13.18a11.008,11.008,0,0,0,15.417,2.615l.491-.351,6.377-4.538,1.922-1.362a2.766,2.766,0,0,0,.691-3.857Z" transform="translate(-74.917 -70.454)"/>
        <path id="Path_320" data-name="Path 320" class="cls-4" d="M194.573,138.138h0a11.591,11.591,0,0,1-9.431-4.869l-.14-.23a11.576,11.576,0,0,1,2.733-16.129l7.278-5.179,3.234,4.558,4.805-3.416a3.3,3.3,0,0,1,4.065,5.179,3.307,3.307,0,0,1,1.592,5.72,3.307,3.307,0,0,1,1.342,5.921l-8.79,6.352a11.477,11.477,0,0,1-6.688,2.094Zm.21-24.955-6.467,4.6a10.574,10.574,0,0,0-2.493,14.727l.13.18a10.58,10.58,0,0,0,8.62,4.448h0a10.477,10.477,0,0,0,6.107-1.954l8.8-6.251a2.265,2.265,0,0,0,.531-3.156,2.312,2.312,0,0,0-3.184-.581h0l-.581-.821,1.642-1.172a2.265,2.265,0,0,0,.531-3.156,2.312,2.312,0,0,0-3.184-.581h0l-.581-.821,1.642-1.172a2.265,2.265,0,0,0,.531-3.156,2.312,2.312,0,0,0-3.194-.581l-5.616,4.007Z" transform="translate(-74.918 -70.455)"/>
        <path id="Path_321" data-name="Path 321" class="cls-3" d="M210.307,111.521h-14.7V85.9a2.233,2.233,0,0,1,2.233-2.234h10.232a2.233,2.233,0,0,1,2.233,2.234Z" transform="translate(-74.903 -70.506)"/>
        <path id="Path_322" data-name="Path 322" class="cls-4" d="M210.808,112.052h-15.7V85.9a2.734,2.734,0,0,1,2.733-2.735h10.232a2.734,2.734,0,0,1,2.733,2.735Zm-14.7-1h13.7V85.9a1.733,1.733,0,0,0-1.732-1.733H197.843a1.733,1.733,0,0,0-1.732,1.733Z" transform="translate(-74.904 -70.507)"/>
        <path id="Path_323" data-name="Path 323" class="cls-3" d="M209.567,111.521h-14.7V85.9A2.233,2.233,0,0,1,197.1,83.67h10.232a2.233,2.233,0,0,1,2.233,2.234Z" transform="translate(-74.904 -70.506)"/>
        <path id="Path_324" data-name="Path 324" class="cls-4" d="M210.018,112.052H194.37V85.9A2.734,2.734,0,0,1,197.1,83.17h10.232a2.734,2.734,0,0,1,2.683,2.735Zm-14.7-1h13.7V85.9a1.733,1.733,0,0,0-1.732-1.733H197.1a1.733,1.733,0,0,0-1.732,1.733Z" transform="translate(-74.905 -70.507)"/>
        <path id="Path_325" data-name="Path 325" class="cls-5" d="M196.35,110.045V85.9a.741.741,0,0,1,.741-.741h10.232a.741.741,0,0,1,.741.741v24.144Z" transform="translate(-74.903 -70.503)"/>
        <path id="Path_326" data-name="Path 326" class="cls-4" d="M208.324,110.276H196.1V85.9a1,1,0,0,1,1-1h10.232a1,1,0,0,1,1,1Zm-11.713-.5h11.213V85.9a.491.491,0,0,0-.491-.491H197.1a.491.491,0,0,0-.491.491Z" transform="translate(-74.903 -70.504)"/>
        <ellipse id="Ellipse_16" data-name="Ellipse 16" class="cls-5" cx="1.932" cy="1.934" rx="1.932" ry="1.934" transform="translate(125.382 24.875)"/>
        <path id="Path_327" data-name="Path 327" class="cls-4" d="M202.212,99.468a2.184,2.184,0,1,1,2.182-2.184A2.183,2.183,0,0,1,202.212,99.468Zm0-3.857a1.683,1.683,0,1,0,1.682,1.683,1.682,1.682,0,0,0-1.682-1.683Z" transform="translate(-74.898 -70.485)"/>
        <path id="Path_328" data-name="Path 328" class="cls-3" d="M208.074,139.321H197.842a2.233,2.233,0,0,1-2.233-2.234V111.47h14.7v25.576a2.233,2.233,0,0,1-2.233,2.274Z" transform="translate(-74.903 -70.456)"/>
        <path id="Path_329" data-name="Path 329" class="cls-4" d="M208.075,139.822H197.843a2.734,2.734,0,0,1-2.733-2.735V111h15.7v26.047a2.734,2.734,0,0,1-2.733,2.775ZM196.111,112v25.045a1.733,1.733,0,0,0,1.732,1.733h10.232a1.733,1.733,0,0,0,1.732-1.733V112Z" transform="translate(-74.904 -70.456)"/>
        <path id="Path_330" data-name="Path 330" class="cls-3" d="M207.324,139.321H197.1a2.233,2.233,0,0,1-2.233-2.234V111.47h14.7v25.576a2.233,2.233,0,0,1-2.243,2.274Z" transform="translate(-74.904 -70.456)"/>
        <path id="Path_331" data-name="Path 331" class="cls-4" d="M207.325,139.822H197.1a2.734,2.734,0,0,1-2.733-2.735V111h15.648v26.047a2.734,2.734,0,0,1-2.693,2.775ZM195.371,112v25.045a1.733,1.733,0,0,0,1.732,1.733h10.232a1.733,1.733,0,0,0,1.682-1.733V112Z" transform="translate(-74.905 -70.456)"/>
        <path id="Path_332" data-name="Path 332" class="cls-4" d="M207.323,138.046H197.1a1,1,0,0,1-1-1V112.7h12.214v24.344a1,1,0,0,1-.991,1ZM196.6,113.2v23.843a.491.491,0,0,0,.491.491h10.232a.491.491,0,0,0,.491-.491V113.2Z" transform="translate(-74.903 -70.453)"/>
        <path id="Path_333" data-name="Path 333" class="cls-5" d="M202.214,121.352A3.356,3.356,0,1,1,205.568,118a3.355,3.355,0,0,1-3.354,3.356Zm0-4.468a1.122,1.122,0,1,0,1.121,1.122A1.122,1.122,0,0,0,202.214,116.884Z" transform="translate(-74.9 -70.45)"/>
        <path id="Path_334" data-name="Path 334" class="cls-4" d="M202.214,121.6a3.607,3.607,0,1,1,3.6-3.607,3.605,3.605,0,0,1-3.6,3.607Zm0-6.7a3.106,3.106,0,1,0,3.1,3.106,3.1,3.1,0,0,0-3.1-3.106Zm0,4.468A1.372,1.372,0,1,1,203.586,118a1.372,1.372,0,0,1-1.372,1.372Zm0-2.234a.872.872,0,1,0,.871.872A.871.871,0,0,0,202.214,117.135Z" transform="translate(-74.9 -70.45)"/>
        <path id="Path_335" data-name="Path 335" class="cls-4" d="M199.452,128.193h-1a.952.952,0,0,1,0-1.893h1a.952.952,0,0,1,0,1.893Zm-1-1.393a.451.451,0,0,0,0,.892h1a.451.451,0,0,0,0-.892Z" transform="translate(-74.901 -70.429)"/>
        <path id="Path_336" data-name="Path 336" class="cls-4" d="M202.7,128.193h-1a.952.952,0,0,1,0-1.893h1a.952.952,0,0,1,0,1.893Zm-1-1.393a.451.451,0,0,0,0,.892h1a.451.451,0,0,0,0-.892Z" transform="translate(-74.898 -70.429)"/>
        <path id="Path_337" data-name="Path 337" class="cls-4" d="M205.942,128.193h-1a.952.952,0,0,1,0-1.893h1a.952.952,0,0,1,0,1.893Zm-1-1.393a.451.451,0,0,0,0,.892h1a.451.451,0,0,0,0-.892Z" transform="translate(-74.894 -70.429)"/>
        <path id="Path_338" data-name="Path 338" class="cls-4" d="M199.452,130.063h-1a.952.952,0,0,1,0-1.893h1a.952.952,0,0,1,0,1.893Zm-1-1.393a.451.451,0,0,0,0,.892h1a.451.451,0,0,0,0-.892Z" transform="translate(-74.901 -70.425)"/>
        <path id="Path_339" data-name="Path 339" class="cls-4" d="M202.7,130.063h-1a.952.952,0,0,1,0-1.893h1a.952.952,0,0,1,0,1.893Zm-1-1.393a.451.451,0,0,0,0,.892h1a.451.451,0,0,0,0-.892Z" transform="translate(-74.898 -70.425)"/>
        <path id="Path_340" data-name="Path 340" class="cls-4" d="M205.942,130.063h-1a.952.952,0,0,1,0-1.893h1a.952.952,0,0,1,0,1.893Zm-1-1.393a.451.451,0,0,0,0,.892h1a.451.451,0,0,0,0-.892Z" transform="translate(-74.894 -70.425)"/>
        <path id="Path_341" data-name="Path 341" class="cls-4" d="M199.452,131.943h-1a.952.952,0,0,1,0-1.893h1a.952.952,0,0,1,0,1.893Zm-1-1.393a.451.451,0,0,0,0,.892h1a.451.451,0,0,0,0-.892Z" transform="translate(-74.901 -70.422)"/>
        <path id="Path_342" data-name="Path 342" class="cls-4" d="M202.7,131.943h-1a.952.952,0,0,1,0-1.893h1a.952.952,0,0,1,0,1.893Zm-1-1.393a.451.451,0,0,0,0,.892h1a.451.451,0,0,0,0-.892Z" transform="translate(-74.898 -70.422)"/>
        <path id="Path_343" data-name="Path 343" class="cls-4" d="M205.942,131.943h-1a.952.952,0,0,1,0-1.893h1a.952.952,0,0,1,0,1.893Zm-1-1.393a.451.451,0,0,0,0,.892h1a.451.451,0,0,0,0-.892Z" transform="translate(-74.894 -70.422)"/>
        <path id="Path_344" data-name="Path 344" class="cls-4" d="M199.452,133.813h-1a.952.952,0,0,1,0-1.9h1a.952.952,0,0,1,0,1.9Zm-1-1.4a.451.451,0,0,0,0,.9h1a.451.451,0,0,0,0-.9Z" transform="translate(-74.901 -70.418)"/>
        <path id="Path_345" data-name="Path 345" class="cls-4" d="M202.7,133.813h-1a.952.952,0,0,1,0-1.9h1a.952.952,0,0,1,0,1.9Zm-1-1.4a.451.451,0,0,0,0,.9h1a.451.451,0,0,0,0-.9Z" transform="translate(-74.898 -70.418)"/>
        <path id="Path_346" data-name="Path 346" class="cls-4" d="M205.942,133.813h-1a.952.952,0,0,1,0-1.9h1a.952.952,0,0,1,0,1.9Zm-1-1.4a.451.451,0,0,0,0,.9h1a.451.451,0,0,0,0-.9Z" transform="translate(-74.894 -70.418)"/>
        <rect id="Rectangle_28" data-name="Rectangle 28" class="cls-4" width="0.511" height="2.575" rx="0.25" transform="translate(128.255 64.206)"/>
        <rect id="Rectangle_29" data-name="Rectangle 29" class="cls-4" width="0.511" height="2.575" rx="0.25" transform="translate(127.454 64.206)"/>
        <rect id="Rectangle_30" data-name="Rectangle 30" class="cls-4" width="0.511" height="2.575" rx="0.25" transform="translate(126.653 64.206)"/>
        <rect id="Rectangle_31" data-name="Rectangle 31" class="cls-4" width="0.511" height="2.575" rx="0.25" transform="translate(125.852 64.206)"/>
        <path id="Path_347" data-name="Path 347" class="cls-5" d="M187.26,117.912,195.609,112a2.762,2.762,0,0,1,3.854.651h0a2.766,2.766,0,0,1-.651,3.857l-6.5,4.618Z" transform="translate(-74.913 -70.456)"/>
        <path id="Path_348" data-name="Path 348" class="cls-4" d="M192.346,121.649a.5.5,0,0,1-.29-.912l6.5-4.618a2.294,2.294,0,0,0-2.653-3.737l-8.349,5.941a.5.5,0,0,1-.581-.821l8.349-5.941a3.3,3.3,0,0,1,3.814,5.37l-6.5,4.618A.5.5,0,0,1,192.346,121.649Z" transform="translate(-74.913 -70.456)"/>
      </g>
      <g id="man" transform="translate(271.307 21.619)">
        <rect id="Rectangle_32" data-name="Rectangle 32" class="cls-3" width="61.96" height="15.528" rx="7.67" transform="translate(11.553 84.844)"/>
        <path id="Path_349" data-name="Path 349" class="cls-4" d="M336.822,122.29h-46.6a8.192,8.192,0,0,1-8.179-8.185v-.15a8.192,8.192,0,0,1,8.179-8.185h46.6A8.192,8.192,0,0,1,345,113.955v.15a8.192,8.192,0,0,1-8.179,8.185Zm-46.6-15.528a7.191,7.191,0,0,0-7.178,7.183v.15a7.191,7.191,0,0,0,7.178,7.183h46.6A7.191,7.191,0,0,0,344,114.1v-.15a7.191,7.191,0,0,0-7.178-7.183Z" transform="translate(-270.987 -21.427)"/>
        <path id="Path_350" data-name="Path 350" class="cls-3" d="M340.438,113.49A28.9,28.9,0,0,1,355.555,138.9v31.6H271.51V138.9a28.9,28.9,0,0,1,15.558-25.647Z" transform="translate(-270.999 -21.413)"/>
        <path id="Path_351" data-name="Path 351" class="cls-4" d="M356.1,171H271V138.937a29.337,29.337,0,0,1,15.83-26.048l.458.893A28.334,28.334,0,0,0,272,138.9v31.056H355.1V138.9a28.4,28.4,0,0,0-14.848-24.966l.482-.881A29.406,29.406,0,0,1,356.1,138.9Z" transform="translate(-271 -21.414)"/>
        <path id="Path_352" data-name="Path 352" class="cls-4" d="M316.006,159.528H311V127.47h5.006Zm-4-1h3V128.472h-3Z" transform="translate(-270.955 -21.388)"/>
        <path id="Path_353" data-name="Path 353" class="cls-5" d="M343.516,69.085V51.744A29.654,29.654,0,0,0,313.872,22.08h-.6a29.654,29.654,0,0,0-29.644,29.664V69.085a6.933,6.933,0,0,0,0,13.865h.15a29.561,29.561,0,0,0,8.83,18.273,17.107,17.107,0,0,1,5.216,13.224v.1h0v.892a15.778,15.778,0,0,0,31.546,0v-.892h0v-.1a17.107,17.107,0,0,1,5.216-13.224,29.562,29.562,0,0,0,8.83-18.273h.15a6.933,6.933,0,0,0,0-13.865Z" transform="translate(-270.993 -21.579)"/>
        <path id="Path_354" data-name="Path 354" class="cls-4" d="M313.572,131.73a16.3,16.3,0,0,1-16.278-16.29v-1.022a16.616,16.616,0,0,0-5.066-12.833,30.162,30.162,0,0,1-8.93-18.133,7.434,7.434,0,0,1-.2-14.847V51.745A30.184,30.184,0,0,1,313.242,21.58h.6a30.184,30.184,0,0,1,30.144,30.165V68.6a7.434,7.434,0,0,1-.2,14.847,30.163,30.163,0,0,1-8.93,18.133,16.616,16.616,0,0,0-5.066,12.833v.531h0v.491A16.3,16.3,0,0,1,313.572,131.73Zm-15.227-17.682h0v1.393a15.277,15.277,0,0,0,30.545,0v-1.393h0a17.628,17.628,0,0,1,5.386-13.184,29.151,29.151,0,0,0,8.68-17.963V82.44h.461l.14.511v-.5a6.432,6.432,0,0,0,0-12.863h-.5V51.745a29.183,29.183,0,0,0-29.143-29.163h-.6a29.183,29.183,0,0,0-29.143,29.163V69.587h-.5a6.432,6.432,0,0,0,0,12.863h.461l.19.451A29.151,29.151,0,0,0,293,100.864a17.628,17.628,0,0,1,5.356,13.184Z" transform="translate(-270.994 -21.58)"/>
        <path id="Path_355" data-name="Path 355" class="cls-7" d="M343.47,72.05V79.8a3.877,3.877,0,0,0,0-7.754Z" transform="translate(-270.918 -21.488)"/>
        <path id="Path_356" data-name="Path 356" class="cls-7" d="M283.5,72.05V79.8a3.877,3.877,0,0,1,0-7.754Z" transform="translate(-270.99 -21.488)"/>
        <ellipse id="Ellipse_17" data-name="Ellipse 17" class="cls-4" cx="1.762" cy="1.763" rx="1.762" ry="1.763" transform="translate(29.323 43.789)"/>
        <ellipse id="Ellipse_18" data-name="Ellipse 18" class="cls-4" cx="1.762" cy="1.763" rx="1.762" ry="1.763" transform="translate(52.319 43.789)"/>
        <path id="Path_357" data-name="Path 357" class="cls-4" d="M314.2,85.188a5.148,5.148,0,0,1-5.2-5.169V70.481a.5.5,0,1,1,1,0v9.537a4.165,4.165,0,1,0,8.329,0v-.661a.5.5,0,1,1,1,0v.661a5.128,5.128,0,0,1-5.136,5.169Z" transform="translate(-270.957 -21.492)"/>
        <path id="Path_358" data-name="Path 358" class="cls-4" d="M313.814,21.93h-.6A29.734,29.734,0,0,0,283.5,51.664V91.015a29.734,29.734,0,0,0,29.724,29.744h.6a29.734,29.734,0,0,0,29.724-29.744V51.664A29.734,29.734,0,0,0,313.814,21.93ZM336.75,91.757v.7a4.446,4.446,0,0,1-4.445,4.448h-.09a4.447,4.447,0,0,1-4.445-4.448v-.12a7.291,7.291,0,0,0-7.288-7.293H306.326a7.291,7.291,0,0,0-7.308,7.293v.12a4.447,4.447,0,0,1-4.445,4.448h-.09a4.446,4.446,0,0,1-4.475-4.448V54.9H336.76Z" transform="translate(-270.986 -21.579)"/>
        <path id="Path_359" data-name="Path 359" class="cls-5" d="M314.715,106.8a4.478,4.478,0,0,1-4.255-6.011l.22-.591a.5.5,0,1,1,.941.351l-.22.591a3.476,3.476,0,0,0,3.254,4.7.531.531,0,0,1,.531.5.481.481,0,0,1-.47.461Z" transform="translate(-270.956 -21.438)"/>
        <path id="Path_360" data-name="Path 360" class="cls-4" d="M331.014,67.122a.5.5,0,0,1-.491-.431,6.256,6.256,0,0,0-11.153-2.915.5.5,0,0,1-.791-.611,7.257,7.257,0,0,1,12.935,3.386.5.5,0,0,1-.42.571Z" transform="translate(-270.946 -21.51)"/>
        <path id="Path_361" data-name="Path 361" class="cls-4" d="M296,67.122h0a.5.5,0,0,1-.421-.571,7.257,7.257,0,0,1,12.935-3.386.5.5,0,0,1-.791.611,6.256,6.256,0,0,0-11.143,2.915.5.5,0,0,1-.581.431Z" transform="translate(-270.972 -21.51)"/>
        <path id="Path_362" data-name="Path 362" class="cls-5" d="M307.62,88.64v.07a5.922,5.922,0,1,0,11.843,0s0,0,0-.07Z" transform="translate(-270.959 -21.458)"/>
        <path id="Path_363" data-name="Path 363" class="cls-4" d="M313.537,95.133a6.429,6.429,0,0,1-6.417-6.422v-.5l.5-.07h12.334v.5a6.44,6.44,0,0,1-6.417,6.492Zm-5.4-6.011a5.416,5.416,0,0,0,10.8,0Z" transform="translate(-270.959 -21.459)"/>
        <path id="Path_364" data-name="Path 364" class="cls-4" d="M290,54.849s2.413,4.869,15.017,4.678V50Z" transform="translate(-270.978 -21.528)"/>
        <path id="Path_365" data-name="Path 365" class="cls-4" d="M305,54.849s2.413,4.869,15.017,4.678V50Z" transform="translate(-270.961 -21.528)"/>
        <path id="Path_366" data-name="Path 366" class="cls-4" d="M319.93,54.849s2.413,4.869,15.017,4.678V50Z" transform="translate(-270.945 -21.528)"/>
        <ellipse id="Ellipse_19" data-name="Ellipse 19" class="cls-5" cx="2.693" cy="2.695" rx="2.693" ry="2.695" transform="translate(60.549 95.814)"/>
        <path id="Path_367" data-name="Path 367" class="cls-4" d="M334.174,123.1a3.2,3.2,0,1,1,3.194-3.2,3.195,3.195,0,0,1-3.194,3.2Zm0-5.39a2.2,2.2,0,1,1,0,.01Z" transform="translate(-270.932 -21.407)"/>
        <ellipse id="Ellipse_20" data-name="Ellipse 20" class="cls-5" cx="1.311" cy="1.312" rx="1.311" ry="1.312" transform="translate(61.93 97.196)"/>
        <path id="Path_368" data-name="Path 368" class="cls-4" d="M334.172,121.727a1.813,1.813,0,1,1,1.812-1.813,1.813,1.813,0,0,1-1.812,1.813Zm0-2.635a.811.811,0,1,0,.811.811A.811.811,0,0,0,334.172,119.092Z" transform="translate(-270.931 -21.405)"/>
        <path id="Path_369" data-name="Path 369" class="cls-4" d="M334.171,140.989a.5.5,0,0,1-.5-.5V119.911a.5.5,0,1,1,1,0v20.577a.5.5,0,0,1-.5.5Z" transform="translate(-270.929 -21.402)"/>
        <path id="Path_370" data-name="Path 370" class="cls-4" d="M334.172,137.645a1.5,1.5,0,0,1-1.5-1.5V119.913a1.5,1.5,0,1,1,3,0v16.239a1.5,1.5,0,0,1-1.5,1.493Z" transform="translate(-270.93 -21.404)"/>
        <ellipse id="Ellipse_21" data-name="Ellipse 21" class="cls-5" cx="2.693" cy="2.695" rx="2.693" ry="2.695" transform="translate(19.222 95.814)"/>
        <path id="Path_371" data-name="Path 371" class="cls-4" d="M292.894,123.1a3.2,3.2,0,1,1,3.194-3.2A3.195,3.195,0,0,1,292.894,123.1Zm0-5.39a2.189,2.189,0,1,1,0,.01Z" transform="translate(-270.979 -21.407)"/>
        <ellipse id="Ellipse_22" data-name="Ellipse 22" class="cls-5" cx="1.311" cy="1.312" rx="1.311" ry="1.312" transform="translate(20.603 97.196)"/>
        <path id="Path_372" data-name="Path 372" class="cls-4" d="M292.892,121.727a1.813,1.813,0,1,1,1.812-1.813A1.813,1.813,0,0,1,292.892,121.727Zm0-2.635a.811.811,0,1,0,.811.811.811.811,0,0,0-.811-.811Z" transform="translate(-270.977 -21.405)"/>
        <path id="Path_373" data-name="Path 373" class="cls-4" d="M292.891,140.989a.5.5,0,0,1-.5-.5V119.911a.5.5,0,1,1,1,0v20.577a.5.5,0,0,1-.5.5Z" transform="translate(-270.976 -21.402)"/>
        <path id="Path_374" data-name="Path 374" class="cls-4" d="M292.892,137.645a1.5,1.5,0,0,1-1.5-1.5V119.913a1.5,1.5,0,1,1,3,0v16.239a1.5,1.5,0,0,1-1.5,1.493Z" transform="translate(-270.977 -21.404)"/>
      </g>
      <g id="line" transform="translate(286.324 75.868)">
        <path id="Path_375" data-name="Path 375" class="cls-4" d="M286,173.688h14.166l86.348-86.407L383.891,75.73Z" transform="translate(-286 -75.73)"/>
      </g>
      <g id="box" transform="translate(53.671 9.457)">
        <path id="Path_376" data-name="Path 376" class="cls-4" d="M288.007,169.064v-.531a26.74,26.74,0,1,1,53.48,0v.531h6.257v-.531a33.038,33.038,0,1,0-65.995,0c0,.18,0,.351,0,.531Z" transform="translate(-53.352 -9.213)"/>
        <path id="Path_377" data-name="Path 377" class="cls-4" d="M348.2,169.593h-7.258v-1.032a26.24,26.24,0,1,0-52.479,0v1.022H281.2v-1.022a33.5,33.5,0,1,1,67,0c0,.11,0,.21,0,.321Zm-6.237-1h5.256a32.5,32.5,0,1,0-64.994,0h5.256a27.241,27.241,0,1,1,54.482,0Z" transform="translate(-53.352 -9.211)"/>
        <path id="Path_378" data-name="Path 378" class="cls-5" d="M312.331,138.142a.5.5,0,0,1,0-1c.791-.06,1.6-.09,2.393-.09a.5.5,0,0,1,0,1,19.834,19.834,0,0,0-2.313.09Z" transform="translate(-53.318 -9.208)"/>
        <path id="Path_379" data-name="Path 379" class="cls-5" d="M303.821,140a.509.509,0,0,1-.18-1,31.257,31.257,0,0,1,6.487-1.673.511.511,0,0,1,.571.421.5.5,0,0,1-.421.571A30.267,30.267,0,0,0,304,140a.48.48,0,0,1-.18,0Z" transform="translate(-53.327 -9.207)"/>
        <path id="Path_380" data-name="Path 380" class="cls-5" d="M329.686,159.942l-.17-.07a8.868,8.868,0,0,1-4.815-11.581l2.573-6.251,16.549,6.832-2.573,6.251A8.858,8.858,0,0,1,329.686,159.942Z" transform="translate(-53.304 -9.199)"/>
        <path id="Path_381" data-name="Path 381" class="cls-4" d="M333.061,161.116a9.293,9.293,0,0,1-3.562-.711l-.172-.071a9.379,9.379,0,0,1-5.086-12.232L327,141.39l17.47,7.213-2.773,6.712a9.331,9.331,0,0,1-8.64,5.8ZM327.555,142.7l-2.383,5.79a8.377,8.377,0,0,0,4.545,10.93l.17.07a8.357,8.357,0,0,0,10.912-4.548l2.383-5.79Z" transform="translate(-53.304 -9.2)"/>
        <path id="Path_6773" data-name="Path 6773" class="cls-5" d="M2.215.008l10.849,0a2.212,2.212,0,0,1,2.213,2.212v.05a2.215,2.215,0,0,1-2.214,2.213l-10.849,0A2.212,2.212,0,0,1,0,2.271v-.05A2.215,2.215,0,0,1,2.215.008Z" transform="translate(272.024 137.54) rotate(-67.63)"/>
        <path id="Path_382" data-name="Path 382" class="cls-4" d="M328.273,148.3a2.691,2.691,0,0,1-1-.21,2.724,2.724,0,0,1-1.512-1.483,2.7,2.7,0,0,1,0-2.084l4.135-10.018a2.743,2.743,0,0,1,5.066,2.094l-4.135,10.018A2.713,2.713,0,0,1,328.273,148.3Zm4.095-14.476a1.712,1.712,0,0,0-1.582,1.062L326.651,144.9a1.713,1.713,0,0,0,.931,2.244,1.661,1.661,0,0,0,2.283-.912L334,136.216a1.724,1.724,0,0,0-.931-2.244,1.761,1.761,0,0,0-.7-.15Z" transform="translate(-53.302 -9.215)"/>
        <path id="Path_6774" data-name="Path 6774" class="cls-5" d="M2.215.008l10.849,0a2.212,2.212,0,0,1,2.213,2.212v.05a2.215,2.215,0,0,1-2.214,2.213l-10.849,0A2.212,2.212,0,0,1,0,2.271v-.05A2.215,2.215,0,0,1,2.215.008Z" transform="translate(275.073 141.875) rotate(-67.63)"/>
        <path id="Path_383" data-name="Path 383" class="cls-4" d="M331.323,152.628a2.691,2.691,0,0,1-1-.21,2.736,2.736,0,0,1-1.512-3.566l4.135-10.018a2.741,2.741,0,1,1,5.066,2.094l-4.135,10.018A2.7,2.7,0,0,1,331.323,152.628Zm4.095-14.476a1.712,1.712,0,0,0-1.582,1.062L329.7,149.232a1.724,1.724,0,0,0,.931,2.244,1.771,1.771,0,0,0,.691.15,1.712,1.712,0,0,0,1.582-1.062l4.135-10.018a1.714,1.714,0,0,0-.931-2.244,1.79,1.79,0,0,0-.691-.15Z" transform="translate(-53.299 -9.207)"/>
        <path id="Path_6775" data-name="Path 6775" class="cls-5" d="M2.215.008l10.849,0a2.212,2.212,0,0,1,2.213,2.212v.05a2.215,2.215,0,0,1-2.214,2.213l-10.849,0A2.212,2.212,0,0,1,0,2.271v-.05A2.215,2.215,0,0,1,2.215.008Z" transform="translate(278.595 145.084) rotate(-67.63)"/>
        <path id="Path_384" data-name="Path 384" class="cls-4" d="M334.843,155.828a2.691,2.691,0,0,1-1-.21,2.736,2.736,0,0,1-1.512-3.566l4.135-10.018a2.741,2.741,0,1,1,5.066,2.094L337.4,154.145A2.7,2.7,0,0,1,334.843,155.828Zm4.095-14.476a1.712,1.712,0,0,0-1.582,1.062l-4.135,10.018a1.724,1.724,0,0,0,.931,2.244,1.771,1.771,0,0,0,.691.15,1.712,1.712,0,0,0,1.582-1.062l4.135-10.018a1.714,1.714,0,0,0-.931-2.244,1.791,1.791,0,0,0-.691-.15Z" transform="translate(-53.295 -9.202)"/>
        <path id="Path_385" data-name="Path 385" class="cls-5" d="M338.532,155.881h0a2.215,2.215,0,0,1-1.2-2.9l3.114-7.554a2.212,2.212,0,0,1,2.893-1.2h0a2.215,2.215,0,0,1,1.2,2.9l-3.114,7.554a2.212,2.212,0,0,1-2.893,1.2Z" transform="translate(-53.289 -9.195)"/>
        <path id="Path_386" data-name="Path 386" class="cls-4" d="M339.373,156.554a2.691,2.691,0,0,1-1-.21,2.724,2.724,0,0,1-1.512-1.483,2.7,2.7,0,0,1,0-2.084l3.114-7.554a2.741,2.741,0,1,1,5.066,2.094l-3.113,7.554a2.7,2.7,0,0,1-2.553,1.683Zm3.073-12.022a1.712,1.712,0,0,0-1.582,1.062l-3.113,7.554a1.714,1.714,0,0,0,.931,2.244,1.662,1.662,0,0,0,2.283-.912l3.113-7.554a1.714,1.714,0,0,0-.931-2.244,1.791,1.791,0,0,0-.7-.13Z" transform="translate(-53.289 -9.196)"/>
        <path id="Path_387" data-name="Path 387" class="cls-5" d="M321.34,146.612h0a2.212,2.212,0,0,1,3-.761L328.008,148a2.215,2.215,0,0,1,.771,3.005h0a2.212,2.212,0,0,1-3,.761l-3.6-2.144a2.215,2.215,0,0,1-.831-3.015Z" transform="translate(-53.307 -9.192)"/>
        <path id="Path_388" data-name="Path 388" class="cls-4" d="M326.837,152.614a2.712,2.712,0,0,1-1.382-.381l-3.6-2.144a2.716,2.716,0,0,1-.941-3.737,2.782,2.782,0,0,1,3.744-1l3.6,2.144a2.716,2.716,0,0,1,.941,3.737,2.753,2.753,0,0,1-2.363,1.383ZM323.263,146a1.7,1.7,0,0,0-1.472.831,1.734,1.734,0,0,0-.21,1.342,1.7,1.7,0,0,0,.791,1.052l3.6,2.144a1.74,1.74,0,0,0,2.553-1.933,1.7,1.7,0,0,0-.791-1.052l-3.6-2.144a1.711,1.711,0,0,0-.871-.24Z" transform="translate(-53.308 -9.193)"/>
        <path id="Path_389" data-name="Path 389" class="cls-5" d="M298.776,159.943l.17-.07a8.868,8.868,0,0,0,4.815-11.581L301.179,142l-16.549,6.832,2.573,6.251a8.858,8.858,0,0,0,11.573,4.859Z" transform="translate(-53.348 -9.199)"/>
        <path id="Path_390" data-name="Path 390" class="cls-4" d="M295.4,161.116h0a9.33,9.33,0,0,1-8.66-5.8L283.97,148.6l17.47-7.213L304.2,148.1a9.379,9.379,0,0,1-5.086,12.232l-.17.07A9.3,9.3,0,0,1,295.4,161.116Zm-10.121-11.972,2.383,5.79a8.34,8.34,0,0,0,7.729,5.179h0a8.315,8.315,0,0,0,3.184-.631l.17-.07a8.367,8.367,0,0,0,4.545-10.93l-2.383-5.79Z" transform="translate(-53.349 -9.2)"/>
        <path id="Path_391" data-name="Path 391" class="cls-5" d="M301.008,147.626h0a2.215,2.215,0,0,0,1.2-2.9l-4.135-10.018a2.212,2.212,0,0,0-2.893-1.2h0a2.215,2.215,0,0,0-1.2,2.9l4.135,10.018a2.212,2.212,0,0,0,2.893,1.2Z" transform="translate(-53.338 -9.214)"/>
        <path id="Path_392" data-name="Path 392" class="cls-4" d="M300.178,148.3h0a2.7,2.7,0,0,1-2.513-1.683L293.53,136.6A2.726,2.726,0,0,1,295,133a2.682,2.682,0,0,1,3.584,1.463l4.135,10.018a2.86,2.86,0,0,1-2.543,3.817Zm-4.095-14.476a1.7,1.7,0,0,0-.651.13,1.734,1.734,0,0,0-1,2.254l4.135,10.018a1.712,1.712,0,0,0,1.592,1.062h0a1.711,1.711,0,0,0,.651-.13,1.743,1.743,0,0,0,1-.942,1.7,1.7,0,0,0,0-1.312l-4.135-10.018a1.712,1.712,0,0,0-1.592-1.062Z" transform="translate(-53.339 -9.215)"/>
        <path id="Path_6776" data-name="Path 6776" class="cls-5" d="M2.221,0h.05A2.212,2.212,0,0,1,4.483,2.214l0,10.849a2.215,2.215,0,0,1-2.213,2.214h-.05A2.212,2.212,0,0,1,.005,13.064l0-10.849A2.215,2.215,0,0,1,2.221,0Z" transform="translate(236.759 129.487) rotate(-22.37)"/>
        <path id="Path_393" data-name="Path 393" class="cls-4" d="M297.128,152.628h0a2.7,2.7,0,0,1-2.513-1.683l-4.135-10.018a2.743,2.743,0,0,1,5.066-2.094l4.135,10.018a2.768,2.768,0,0,1-2.553,3.777ZM293,138.152a1.733,1.733,0,0,0-1.622,2.384l4.135,10.018a1.712,1.712,0,0,0,1.582,1.062h0a1.711,1.711,0,0,0,.651-.13,1.732,1.732,0,0,0,1-.942,1.714,1.714,0,0,0,0-1.312l-4.135-10.018A1.712,1.712,0,0,0,293,138.152Z" transform="translate(-53.342 -9.207)"/>
        <path id="Path_6777" data-name="Path 6777" class="cls-5" d="M2.221,0h.05A2.212,2.212,0,0,1,4.483,2.214l0,10.849a2.215,2.215,0,0,1-2.213,2.214h-.05A2.212,2.212,0,0,1,.005,13.064l0-10.849A2.215,2.215,0,0,1,2.221,0Z" transform="translate(233.228 132.692) rotate(-22.37)"/>
        <path id="Path_394" data-name="Path 394" class="cls-4" d="M293.608,155.828h0a2.7,2.7,0,0,1-2.513-1.683l-4.135-10.018A2.743,2.743,0,0,1,292.006,142l4.135,10.018a2.838,2.838,0,0,1-2.533,3.807Zm-4.095-14.476a1.733,1.733,0,0,0-1.622,2.384l4.135,10.018a1.712,1.712,0,0,0,1.582,1.062h0a1.711,1.711,0,0,0,.651-.13,1.732,1.732,0,0,0,1-.942,1.714,1.714,0,0,0,0-1.312l-4.135-10.018a1.712,1.712,0,0,0-1.612-1.062Z" transform="translate(-53.346 -9.201)"/>
        <path id="Path_395" data-name="Path 395" class="cls-5" d="M289.917,155.881h0a2.215,2.215,0,0,0,1.2-2.9L288,145.422a2.212,2.212,0,0,0-2.893-1.2h0a2.215,2.215,0,0,0-1.2,2.9l3.113,7.554a2.212,2.212,0,0,0,2.893,1.212Z" transform="translate(-53.349 -9.195)"/>
        <path id="Path_396" data-name="Path 396" class="cls-4" d="M289.077,156.554h0a2.713,2.713,0,0,1-2.513-1.683l-3.113-7.554a2.726,2.726,0,0,1,1.472-3.546,2.682,2.682,0,0,1,3.584,1.463l3.113,7.554a2.755,2.755,0,0,1-2.553,3.767ZM286,144.532a1.711,1.711,0,0,0-.651.13,1.732,1.732,0,0,0-1,.942,1.714,1.714,0,0,0,0,1.312l3.113,7.554a1.712,1.712,0,0,0,1.582,1.062h0a1.753,1.753,0,0,0,1.622-2.384l-3.113-7.554A1.712,1.712,0,0,0,286,144.552Z" transform="translate(-53.35 -9.196)"/>
        <path id="Path_397" data-name="Path 397" class="cls-5" d="M307.109,146.612h0a2.212,2.212,0,0,0-3-.761l-3.6,2.144A2.215,2.215,0,0,0,299.73,151h0a2.212,2.212,0,0,0,3,.761l3.6-2.144a2.215,2.215,0,0,0,.771-3.005Z" transform="translate(-53.332 -9.192)"/>
        <path id="Path_398" data-name="Path 398" class="cls-4" d="M301.613,152.614h0a2.765,2.765,0,0,1-2.663-3.416,2.7,2.7,0,0,1,1.241-1.673l3.6-2.144a2.792,2.792,0,0,1,3.714.942,2.716,2.716,0,0,1-.921,3.767l-3.6,2.144A2.711,2.711,0,0,1,301.613,152.614Zm3.574-6.622a1.711,1.711,0,0,0-.871.24l-3.6,2.144a1.744,1.744,0,0,0,.9,3.226h0a1.711,1.711,0,0,0,.871-.24l3.6-2.144a1.737,1.737,0,0,0-.9-3.216Z" transform="translate(-53.332 -9.193)"/>
        <path id="Path_399" data-name="Path 399" class="cls-4" d="M392.931,173.536H74.07a12.581,12.581,0,0,1,9.871-4.769H246.785A22.2,22.2,0,0,1,265.216,159h99.513a22.181,22.181,0,0,1,18.391,9.808,12.571,12.571,0,0,1,9.811,4.729Z" transform="translate(-53.587 -9.168)"/>
        <path id="Path_400" data-name="Path 400" class="cls-10" d="M125.183,9.94H114.231a9.392,9.392,0,0,0-9.21,7.363L69.5,173.807H80.452l35.52-156.5a9.392,9.392,0,0,1,9.21-7.363Z" transform="translate(-53.592 -9.439)"/>
        <path id="Path_401" data-name="Path 401" class="cls-10" d="M335.13,9.94h10.952a9.392,9.392,0,0,1,9.21,7.363l35.52,156.5H379.861L344.34,17.3a9.392,9.392,0,0,0-9.21-7.363Z" transform="translate(-53.291 -9.439)"/>
        <path id="Path_402" data-name="Path 402" class="cls-4" d="M407.01,174.3H53.61L89.3,17.194A9.893,9.893,0,0,1,99.051,9.44H361.658a9.893,9.893,0,0,1,9.7,7.754ZM54.9,173.3H405.758l-35.4-155.883a8.9,8.9,0,0,0-8.72-7.013H99.051a8.891,8.891,0,0,0-8.72,7.013Z" transform="translate(-53.61 -9.44)"/>
      </g>
    </g>
  </g>
</svg>
