<svg xmlns="http://www.w3.org/2000/svg" width="28.533" height="18" viewBox="0 0 28.533 18">
  <defs>
    <style>
      .cls-1 {
        fill: #462c5d;
      }
    </style>
  </defs>
  <g id="vespa" transform="translate(0 -8.306)">
    <g id="Group_1915" data-name="Group 1915" transform="translate(0 8.306)">
      <g id="Group_1914" data-name="Group 1914">
        <path id="Path_2053" data-name="Path 2053" class="cls-1" d="M21.854,16.9H32.172a.312.312,0,0,0,.281-.179c.313-.661.593-1.344.293-1.787s-.99-.6-2.428-.6c-.914,0-2.07.073-3.291.15-1.518.1-3.237.2-4.928.2a.311.311,0,0,0-.271.157,3.512,3.512,0,0,0-.292,1.545,1.629,1.629,0,0,0,.009.238A.312.312,0,0,0,21.854,16.9Z" transform="translate(-7.88 -10.508)"/>
        <path id="Path_2054" data-name="Path 2054" class="cls-1" d="M27.548,19.086l.186-.065a.314.314,0,0,0,.2-.233l.2-.952a.311.311,0,0,0-.1-.3L27,16.617a.313.313,0,0,0-.2-.079l-1.259-.025c-.251-.215-.987-.846-1.318-1.124a.31.31,0,0,0-.2-.072H14.49a.312.312,0,0,0-.294.416,2.348,2.348,0,0,0,.464.678,10.166,10.166,0,0,1,.947,1.276,1.432,1.432,0,0,1,.151,1.33,2.572,2.572,0,0,1-1.457,1.37,6.535,6.535,0,0,1-1.6.159,11.187,11.187,0,0,1-3.018-.41c-1.7-.491-2.021-4.307-1.841-4.967.1-.368.547-1.591.978-2.773.122-.334.227-.621.32-.876.076.053.131.089.135.092a.312.312,0,0,0,.334-.526s-.113-.073-.249-.177c.065-.183.12-.339.166-.469l.016,0a.307.307,0,0,0,.217.208c.451.11.873.262.878.264a.309.309,0,0,0,.106.019.312.312,0,0,0,.107-.6c-.018-.006-.456-.164-.942-.283a.3.3,0,0,0-.271.068,1.58,1.58,0,0,0,.1-.4c0-.581-2.17-1.382-2.846-1.405a.642.642,0,0,0-.5.24c-.486.58-.226,2.214-.169,2.536a.311.311,0,0,0,.269.255l.817.1a35.968,35.968,0,0,1-1.753,3.986,1.791,1.791,0,0,1-.669.2c-.422.075-.82.145-.972.448A2.516,2.516,0,0,0,3.792,17.2c-.047,0-.093-.01-.139-.01a4.067,4.067,0,0,0-3.51,2.025A.851.851,0,0,0,.063,20a1.6,1.6,0,0,0,.732.678,3.467,3.467,0,1,0,6.176,2.16c0-.093-.007-.185-.014-.278.311.114.715.3.829.363a.148.148,0,0,0,.227-.1,4.247,4.247,0,0,0,.068-.526c.921.749,1.91.8,3.365.8h8.041a3.8,3.8,0,0,0,7.556-.6c0-.112-.008-.223-.016-.331,1.1-.156,1.285-.339,1.371-.429a.446.446,0,0,0,.136-.335A6.137,6.137,0,0,0,27.548,19.086ZM5.412,22.836A1.909,1.909,0,1,1,2.385,21.3c.573.171,1.2.329,1.848.489.333.082.669.167,1,.252A1.905,1.905,0,0,1,5.412,22.836ZM25.483,22.5a2.245,2.245,0,1,1-4.49,0c1.643-.012,3.42-.113,4.471-.181C25.469,22.379,25.483,22.438,25.483,22.5Z" transform="translate(0 -8.306)"/>
      </g>
    </g>
  </g>
</svg>
