<svg id="Ñëîé_1" data-name="Ñëîé 1" xmlns="http://www.w3.org/2000/svg" viewBox="0 0 93.7 97.89"><defs><style>.cls-1{fill:#0f2137;}.cls-2{fill:#eb4d4b;}</style></defs><title>Vector Smart Object4</title><path class="cls-1" d="M85.09,363.75H76a3.7,3.7,0,0,1-3.7-3.7V332a3.7,3.7,0,0,1,3.7-3.7h9.1a3.7,3.7,0,0,1,3.7,3.7v28.1A3.7,3.7,0,0,1,85.09,363.75Zm-9.1-33a1.2,1.2,0,0,0-1.2,1.2v28.1a1.2,1.2,0,0,0,1.2,1.2h9.1a1.2,1.2,0,0,0,1.2-1.2V332a1.2,1.2,0,0,0-1.2-1.2Z" transform="translate(-52.99 -293.11)"/><path class="cls-2" d="M94.43,333.86a1.25,1.25,0,0,1-.55-2.37c.05,0,4.3-2.13,5.78-5.1l.41-.81a19.64,19.64,0,0,0,2.66-8.17c.09-2,2-3.63,4.35-3.72s5.27,1.43,5.81,6c.4,3.43-.51,7.95-1.51,11.59H122a1.25,1.25,0,1,1,0,2.5H108l.49-1.61c1.54-5.1,2.21-9.43,1.89-12.19-.29-2.42-1.5-3.86-3.24-3.76-1,0-1.91.63-2,1.33a22,22,0,0,1-2.92,9.2l-.4.79c-1.87,3.73-6.72,6.12-6.92,6.22A1.23,1.23,0,0,1,94.43,333.86Z" transform="translate(-52.99 -293.11)"/><path class="cls-2" d="M122.11,341.9h-1.29a1.25,1.25,0,0,1,0-2.5h.73c1.26,0,1.78,0,2.59-.74a3.41,3.41,0,0,0,.35-3.28c-.48-1.15-1.61-1.7-3.37-1.64a1.21,1.21,0,0,1-1.29-1.2,1.24,1.24,0,0,1,1.2-1.29c3.79-.15,5.24,1.91,5.76,3.15a5.83,5.83,0,0,1-.92,6.07A4.86,4.86,0,0,1,122.11,341.9Z" transform="translate(-52.99 -293.11)"/><path class="cls-2" d="M121,349.12l-.76,0c-.31,0-.64,0-1,0a1.25,1.25,0,1,1-.12-2.5c.4,0,.8,0,1.19,0,1.14,0,1.71,0,2.31-.55a2.35,2.35,0,0,0,.49-1.89,1.25,1.25,0,0,1,2.48-.33,4.72,4.72,0,0,1-1.21,4A4.48,4.48,0,0,1,121,349.12Z" transform="translate(-52.99 -293.11)"/><path class="cls-2" d="M119.32,356l-.76,0c-.32,0-.64,0-1,0a1.25,1.25,0,0,1-.11-2.5c.4,0,.79,0,1.18,0,1.14.05,1.72.05,2.31-.55a2.31,2.31,0,0,0,.51-1.77,1.25,1.25,0,1,1,2.49-.22,4.64,4.64,0,0,1-1.23,3.76A4.48,4.48,0,0,1,119.32,356Z" transform="translate(-52.99 -293.11)"/><path class="cls-2" d="M117.69,362.09c-.27,0-.53,0-.77,0-.7,0-24.25,0-24.79,0h0a1.23,1.23,0,0,1-.06-2.46c.46,0,24.74,0,24.88,0h.1c1.14.05,1.72.05,2.31-.55a1.89,1.89,0,0,0,.51-1.19,1.25,1.25,0,0,1,2.49.26,4.38,4.38,0,0,1-1.23,2.7A4.45,4.45,0,0,1,117.69,362.09Z" transform="translate(-52.99 -293.11)"/><path class="cls-2" d="M114,333.75h-7a1.25,1.25,0,0,1,0-2.5h7a1.25,1.25,0,1,1,0,2.5Z" transform="translate(-52.99 -293.11)"/><path class="cls-1" d="M82.1,356.62a1.34,1.34,0,1,1-1.34-1.33A1.34,1.34,0,0,1,82.1,356.62Z" transform="translate(-52.99 -293.11)"/><path class="cls-1" d="M99.11,391H99c-3.12,0-5.42-3.11-7.65-5.88-1.57-1.95-3.19-4.06-4.78-4.61s-4.12,0-6.62.57a25.59,25.59,0,0,1-5.63.89,6.17,6.17,0,0,1-3.82-1.12c-2.43-1.83-2.62-5.46-2.8-9-.13-2.54-.26-5.18-1.27-6.61S63.17,363,60.9,362c-3.32-1.38-6.74-2.81-7.67-5.85S54.33,350,56.3,347c1.35-2.07,2.75-4.2,2.78-5.83s-1.33-4-2.65-6.18c-1.82-3-3.69-6.11-2.7-9s4.41-4.21,7.71-5.47c2.36-.9,4.8-1.83,5.83-3.2s1.22-3.92,1.43-6.41c.29-3.55.59-7.22,3.14-9a5.81,5.81,0,0,1,3.43-1,23.46,23.46,0,0,1,5.83,1.09c2.52.68,5.21,1.32,6.8.83s3.46-2.54,5.15-4.5c2.25-2.6,4.58-5.29,7.53-5.29,3.19.05,5.5,2.92,7.73,5.69,1.56,2,3.18,4,4.77,4.52s4.12,0,6.62-.62a26.27,26.27,0,0,1,5.63-.91,6.16,6.16,0,0,1,3.82,1.11c2.43,1.83,2.62,5.45,2.8,9,.13,2.54.26,5.17,1.27,6.6s3.29,2.32,5.57,3.27c3.31,1.38,6.74,2.81,7.67,5.85s-1.11,6.14-3.08,9.14c-1.35,2.07-2.75,4.2-2.78,5.83s1.34,4,2.65,6.18c1.82,3,3.7,6.11,2.71,9s-4.42,4.21-7.72,5.47c-2.36.9-4.8,1.83-5.83,3.2s-1.22,3.92-1.42,6.41c-.29,3.55-.59,7.22-3.15,9a5.81,5.81,0,0,1-3.43,1,23.46,23.46,0,0,1-5.83-1.09c-2.52-.67-5.21-1.32-6.79-.83-1.73.53-3.47,2.73-5.16,4.68C104.38,388.12,102.05,391,99.11,391ZM85,377.7a7.36,7.36,0,0,1,2.39.36c2.27.78,4.12,3.08,5.91,5.31s3.76,4.73,5.7,4.76v0c2,0,3.78-2.25,5.67-4.43s3.92-4.51,6.33-5.25a7.28,7.28,0,0,1,2.16-.3,24.14,24.14,0,0,1,6,1.11,22.16,22.16,0,0,0,5.19,1,3.42,3.42,0,0,0,2-.51c1.59-1.11,1.84-4.19,2.08-7.16s.48-5.79,1.92-7.71,4.25-3,6.94-4,5.62-2.14,6.24-3.94-1-4.37-2.48-6.88-3.05-5-3-7.51,1.64-4.8,3.19-7.16c1.65-2.52,3.36-5.12,2.78-7s-3.47-3.11-6.25-4.27c-2.6-1.09-5.3-2.22-6.65-4.15s-1.57-5-1.72-7.9-.3-6-1.8-7.09a3.75,3.75,0,0,0-2.32-.61,23.87,23.87,0,0,0-5.06.85,26.15,26.15,0,0,1-5.62.9,7.26,7.26,0,0,1-2.38-.36c-2.28-.78-4.13-3.08-5.91-5.31s-3.8-4.73-5.75-4.76h0c-1.84,0-3.79,2.25-5.67,4.43s-3.9,4.51-6.31,5.25a7.28,7.28,0,0,1-2.16.3,24.22,24.22,0,0,1-6-1.11,22,22,0,0,0-5.18-1,3.42,3.42,0,0,0-2,.51c-1.59,1.11-1.84,4.19-2.08,7.16s-.48,5.79-1.92,7.71-4.25,3-6.94,4-5.62,2.14-6.24,3.94,1,4.37,2.48,6.88,3,5,3,7.51-1.64,4.8-3.19,7.16c-1.65,2.52-3.36,5.12-2.77,7s3.46,3.11,6.24,4.27c2.6,1.09,5.3,2.22,6.65,4.15s1.57,5,1.72,7.9.31,6,1.8,7.09a3.77,3.77,0,0,0,2.32.61,23.87,23.87,0,0,0,5.06-.85A26.25,26.25,0,0,1,85,377.7Z" transform="translate(-52.99 -293.11)"/></svg>