<svg id="Layer_2" data-name="Layer 2" xmlns="http://www.w3.org/2000/svg" xmlns:xlink="http://www.w3.org/1999/xlink" width="1222.191" height="950" viewBox="0 0 1222.191 950">
  <defs>
    <style>
      .cls-1 {
        fill: url(#linear-gradient);
      }

      .cls-2 {
        opacity: 0.12;
        fill: url(#linear-gradient-4);
      }
    </style>
    <linearGradient id="linear-gradient" x1="0.125" y1="0.072" x2="0.526" y2="1" gradientUnits="objectBoundingBox">
      <stop offset="0" stop-color="#fdfdff"/>
      <stop offset="1" stop-color="#fcfbff"/>
    </linearGradient>
    <linearGradient id="linear-gradient-4" y1="0.602" x2="1" y2="0.536" gradientUnits="objectBoundingBox">
      <stop offset="0" stop-color="#d1c2f7"/>
      <stop offset="1" stop-color="#c7b5f5"/>
      <stop offset="1" stop-color="#f8f6fe"/>
    </linearGradient>
  </defs>
  <g id="dizajn">
    <g id="Group_6461" data-name="Group 6461" transform="translate(0 306.585)">
      <path id="Path_6774" data-name="Path 6774" class="cls-1" d="M107.177,704.926C63.435,553.309-82.663,344.543,63.435,273.849c67.787-37.116,181.169-42.365,256.753-28.6,79.52,15.22,121.191,49.583,136.372,124.06,27.017,147.951,50.728,419.782-102.15,481.574-73.538,33.9-142.933,27.429-178,2.11C137.8,826.3,133.474,780.741,107.177,704.926Z" transform="translate(-0.014 -238.294)"/>
    </g>
    <g id="Group_6462" data-name="Group 6462" transform="translate(168.96 192.463)">
      <path id="Path_6775" data-name="Path 6775" class="cls-1" d="M269.976,243.327c-2.573,11.682-9.932,12.557-20.469,11.386-10.511-1.364-24.212-4.786-39.175-6.124-15.1-1.647-27.48-2.444-39.175-6.819s-22.463-12.132-31.469-25.538c-8.491-13.084-11.926-30.336-3.461-44.63,7.964-14.088,27.828-25.216,54.2-21.176,26.322,3.319,50.316,21.755,63.915,41.336C268.457,211.485,272.175,232.353,269.976,243.327Z" transform="translate(-131.343 -149.588)"/>
    </g>
    <g id="Group_6463" data-name="Group 6463" transform="translate(512.395)">
      <path id="Path_6776" data-name="Path 6776" class="cls-1" d="M398.341,42.214C400.631,4.75,425.59-.306,462.784,0c37.309.939,86.725,7.269,139.357,6.729,53.378.373,96.708-1.094,139.794,8.877,42.558,9.7,84.911,30.877,123.751,70.013C902.661,123.9,924.455,176.9,903.266,224.4c-19.555,46.688-82.068,87.87-175.817,83.624-93.222-2.007-186.984-52.13-245.354-109.2C421.859,141.521,397,77.336,398.341,42.214Z" transform="translate(-398.29 0.01)"/>
    </g>
    <path id="Path_6777" data-name="Path 6777" class="cls-2" d="M627.711,53.67C750.2,26.653,792.593,56.629,830.584,107.7c36.023,51.6,72.123,121.384,124.678,195.643,105.109,148.427,228.1,178.094,241.327,244.955,13.56,65.9-10.974,131.869-95.679,216.5C1017.028,846.1,871.1,927.352,696.567,936.693c-170.182,10.935-490.966-88.282-575.709-219.7-91.434-128.859-29.1-297.188,92.63-422.87C333.907,165.8,513.725,80.159,627.711,53.67Z" transform="translate(22.098 12.483)"/>
  </g>
</svg>
