<svg xmlns="http://www.w3.org/2000/svg" width="46.441" height="18" viewBox="0 0 46.441 18">
  <defs>
    <style>
      .cls-1 {
        fill: #462c5d;
      }
    </style>
  </defs>
  <g id="Group_1916" data-name="Group 1916" transform="translate(0)">
    <path id="Path_2055" data-name="Path 2055" class="cls-1" d="M11.66,52.934A3.668,3.668,0,0,0,7.991,56.6a3.556,3.556,0,0,0,.032.462,3.666,3.666,0,0,0,7.29-.149c.008-.1.016-.207.016-.314A3.668,3.668,0,0,0,11.66,52.934ZM9.822,55.22l.749.749a1.244,1.244,0,0,0-.133.323H9.383A2.294,2.294,0,0,1,9.822,55.22ZM9.38,56.926h1.062a1.258,1.258,0,0,0,.133.318l-.75.75A2.3,2.3,0,0,1,9.38,56.926Zm1.963,1.956a2.277,2.277,0,0,1-1.064-.441l.746-.746a1.248,1.248,0,0,0,.318.128Zm0-3.5a1.218,1.218,0,0,0-.324.135l-.747-.748a2.282,2.282,0,0,1,1.072-.443Zm.636-1.056a2.276,2.276,0,0,1,1.072.444l-.747.747a1.218,1.218,0,0,0-.324-.135Zm0,4.555V57.823a1.25,1.25,0,0,0,.318-.129l.746.747A2.3,2.3,0,0,1,11.979,58.882ZM13.5,58l-.753-.754a1.251,1.251,0,0,0,.137-.318h1.054A2.3,2.3,0,0,1,13.5,58Zm-.616-1.706a1.274,1.274,0,0,0-.133-.323l.749-.749a2.287,2.287,0,0,1,.44,1.071Z" transform="translate(-4.235 -42.272)"/>
    <path id="Path_2056" data-name="Path 2056" class="cls-1" d="M77.369,52.934A3.668,3.668,0,0,0,73.7,56.6a3.556,3.556,0,0,0,.032.462,3.666,3.666,0,0,0,7.29-.149c.008-.1.016-.207.016-.314A3.667,3.667,0,0,0,77.369,52.934ZM75.531,55.22l.749.749a1.228,1.228,0,0,0-.133.323H75.092A2.293,2.293,0,0,1,75.531,55.22Zm-.442,1.706h1.062a1.258,1.258,0,0,0,.133.318l-.75.749A2.3,2.3,0,0,1,75.089,56.926Zm1.963,1.956a2.277,2.277,0,0,1-1.064-.441l.746-.746a1.248,1.248,0,0,0,.318.128Zm0-3.5a1.208,1.208,0,0,0-.324.135l-.748-.748a2.284,2.284,0,0,1,1.072-.443v1.056Zm.635-1.056a2.272,2.272,0,0,1,1.071.444l-.747.747a1.221,1.221,0,0,0-.324-.135Zm0,4.555V57.823a1.257,1.257,0,0,0,.318-.129l.746.747A2.3,2.3,0,0,1,77.687,58.882ZM79.207,58l-.753-.754a1.251,1.251,0,0,0,.137-.318h1.054A2.3,2.3,0,0,1,79.207,58Zm-.615-1.706a1.274,1.274,0,0,0-.133-.323l.749-.749a2.292,2.292,0,0,1,.44,1.071Z" transform="translate(-39.056 -42.272)"/>
    <path id="Path_2057" data-name="Path 2057" class="cls-1" d="M46.126,39.747l-.705-.674V36.948a2.248,2.248,0,0,0-.58-1.509l-2.607-2.887h0A1.265,1.265,0,0,0,41.2,31.333c-3.1-.582-12.715-2.088-20.326-.043A52.668,52.668,0,0,0,11.395,35.1S3.094,36.154,1.1,38.746A6.21,6.21,0,0,0,.016,41.9a2.96,2.96,0,0,0,2.3,3.185l.768.173c-.007-.042-.016-.083-.022-.126a4.284,4.284,0,0,1-.038-.553,4.407,4.407,0,0,1,8.814,0c0,.127-.008.251-.019.375a4.261,4.261,0,0,1-.062.442L34,45.444c-.02-.1-.04-.2-.054-.309a4.283,4.283,0,0,1-.038-.553,4.407,4.407,0,0,1,8.814,0c0,.127-.008.251-.019.375a4.24,4.24,0,0,1-.076.5h.3l1.265-.693a4.277,4.277,0,0,0,2.22-3.589l.025-.658A1.021,1.021,0,0,0,46.126,39.747ZM15.768,35.395l.34-1.36s5.152-2.7,13.776-2.4v4.019l-13.811,1.09A2.254,2.254,0,0,0,15.768,35.395ZM37.9,35.02l-6.494.512V31.718a42.714,42.714,0,0,1,6.947,1.094.747.747,0,0,1,.395,1.209Z" transform="translate(-0.001 -30.252)"/>
  </g>
</svg>
