<svg xmlns="http://www.w3.org/2000/svg" xmlns:xlink="http://www.w3.org/1999/xlink" width="48.421" height="45" viewBox="0 0 48.421 45">
  <defs>
    <linearGradient id="linear-gradient" x1="-0.315" y1="1.222" x2="1.359" y2="-0.306" gradientUnits="objectBoundingBox">
      <stop offset="0" stop-color="#017de3"/>
      <stop offset="1" stop-color="#0b2da8"/>
    </linearGradient>
  </defs>
  <g id="quotation-mark" transform="translate(48.421 62.333) rotate(180)" opacity="0.05">
    <path id="Path_713" data-name="Path 713" d="M20.848,14.317V22.4a1.984,1.984,0,0,1-1.984,1.984c-3.91,0-6.036,4.01-6.331,11.925h6.331a1.984,1.984,0,0,1,1.984,1.984V55.35a1.984,1.984,0,0,1-1.984,1.983H1.984A1.984,1.984,0,0,1,0,55.35V38.289A43.751,43.751,0,0,1,1.135,27.94a24.9,24.9,0,0,1,3.523-8.191,17.2,17.2,0,0,1,5.987-5.471,17.039,17.039,0,0,1,8.22-1.945A1.984,1.984,0,0,1,20.848,14.317ZM46.437,24.381A1.985,1.985,0,0,0,48.421,22.4v-8.08a1.984,1.984,0,0,0-1.984-1.984A16.478,16.478,0,0,0,32.23,19.749a24.913,24.913,0,0,0-3.522,8.192,43.783,43.783,0,0,0-1.135,10.349V55.35a1.984,1.984,0,0,0,1.984,1.983h16.88A1.984,1.984,0,0,0,48.42,55.35V38.289A1.984,1.984,0,0,0,46.437,36.3H40.2C40.486,28.391,42.582,24.381,46.437,24.381Z" transform="translate(0 5)" fill="url(#linear-gradient)"/>
  </g>
</svg>
