<svg width="25" height="25" viewBox="0 0 25 25" fill="none" xmlns="http://www.w3.org/2000/svg">
<path d="M12.5 0.830078C18.9453 0.830078 24.1602 6.04492 24.1602 12.4805C24.1602 18.916 18.9453 24.1406 12.5 24.1406C6.05469 24.1406 0.839844 18.9258 0.839844 12.4902C0.839844 6.05469 6.05469 0.830078 12.5 0.830078Z" fill="#E74D89"/>
<path d="M12.5 24.9707C5.60547 24.9707 0 19.375 0 12.4902C0 5.5957 5.60547 0 12.5 0C19.3945 0 25 5.5957 25 12.4805C25 19.3652 19.3945 24.9707 12.5 24.9707ZM23.0371 14.1895C22.6758 14.0723 19.7363 13.2031 16.3867 13.7305C17.7832 17.5586 18.3496 20.6836 18.457 21.3281C20.8594 19.7168 22.5684 17.1582 23.0371 14.1895ZM16.6699 22.3145C16.5137 21.377 15.8887 18.1152 14.3945 14.2285C14.375 14.2383 14.3457 14.248 14.3262 14.248C8.30078 16.3477 6.14258 20.5176 5.94727 20.9082C7.75391 22.3145 10.0293 23.1543 12.5 23.1543C13.9746 23.1641 15.3906 22.8613 16.6699 22.3145ZM4.57031 19.6289C4.81445 19.2188 7.74414 14.375 13.252 12.5879C13.3887 12.5391 13.5352 12.5 13.6719 12.4609C13.4082 11.8555 13.1152 11.25 12.8027 10.6543C7.4707 12.2461 2.29492 12.1777 1.82617 12.168C1.82617 12.2754 1.81641 12.3828 1.81641 12.4902C1.82617 15.2344 2.86133 17.7344 4.57031 19.6289ZM2.05078 10.3125C2.5293 10.3223 6.92383 10.3418 11.9238 9.01367C10.1562 5.86914 8.24219 3.23242 7.96875 2.85156C4.9707 4.25781 2.74414 7.01172 2.05078 10.3125ZM10 2.12891C10.293 2.51953 12.2363 5.15625 13.9844 8.36914C17.7832 6.94336 19.3848 4.79492 19.5801 4.52148C17.6953 2.85156 15.2148 1.83594 12.5 1.83594C11.6406 1.83594 10.8008 1.94336 10 2.12891ZM20.7617 5.75195C20.5371 6.05469 18.75 8.34961 14.8047 9.96094C15.0488 10.4688 15.293 10.9863 15.5176 11.5039C15.5957 11.6895 15.6738 11.875 15.752 12.0508C19.3066 11.6016 22.832 12.3242 23.1836 12.3926C23.1543 9.88281 22.2559 7.56836 20.7617 5.75195Z" fill="#B2215A"/>
</svg>
