<svg width="25" height="21" viewBox="0 0 25 21" fill="none" xmlns="http://www.w3.org/2000/svg">
<path d="M25 2.40508C24.0802 2.81301 23.0916 3.08872 22.0541 3.21272C23.1131 2.57791 23.9264 1.57275 24.3093 0.375105C23.3183 0.962819 22.2206 1.38968 21.0523 1.61976C20.1167 0.62292 18.7837 0 17.3085 0C14.4758 0 12.1793 2.29644 12.1793 5.12894C12.1793 5.53093 12.2248 5.9224 12.3122 6.29778C8.0494 6.08389 4.27009 4.04194 1.74037 0.93886C1.29888 1.69639 1.04594 2.57745 1.04594 3.51741C1.04594 5.29683 1.95152 6.86675 3.32776 7.7865C2.48692 7.75989 1.69611 7.52917 1.00452 7.14501C1.00415 7.16641 1.00415 7.1879 1.00415 7.20948C1.00415 9.69458 2.77214 11.7676 5.11851 12.2387C4.68808 12.356 4.23498 12.4186 3.76715 12.4186C3.43667 12.4186 3.11533 12.3865 2.80222 12.3266C3.45486 14.3644 5.34904 15.8472 7.59346 15.8887C5.83809 17.2643 3.6265 18.0842 1.22353 18.0842C0.809558 18.0842 0.401258 18.06 0 18.0126C2.26983 19.4679 4.96589 20.3169 7.86239 20.3169C17.2965 20.3169 22.4555 12.5015 22.4555 5.72369C22.4555 5.5013 22.4505 5.28009 22.4407 5.06017C23.4427 4.33703 24.3123 3.43365 25 2.40508Z" fill="#55ACEE"/>
</svg>
