<svg xmlns="http://www.w3.org/2000/svg" viewBox="0 0 261 400"><defs><style>.cls-1{fill:#d4e1f4;}.cls-2{fill:#1ae5be;}.cls-3{fill:#6a52fd;}</style></defs><title>SEPA transfers</title><g id="Layer_2" data-name="Layer 2"><g id="Layer_1-2" data-name="Layer 1"><path class="cls-1" d="M108.92,128.6A35.74,35.74,0,0,1,95.5,100.69V75.88h-15a8.94,8.94,0,0,1-8.94-8.94V9.68A8.94,8.94,0,0,1,80.55.74H19.23A8.93,8.93,0,0,0,10.3,9.68V66.94a8.93,8.93,0,0,0,8.93,8.94h15v24.81A35.74,35.74,0,0,0,47.61,128.6L136.88,200l30.66-24.52Z"/><path class="cls-1" d="M71.61,390.32V348.39a8.94,8.94,0,0,1,8.94-8.94h16V296.4a35.72,35.72,0,0,1,13.84-28.24l57.5-44.6-31-23.56L49,268.16A35.73,35.73,0,0,0,35.19,296.4v43.05h-16a8.93,8.93,0,0,0-8.93,8.94v41.93a8.93,8.93,0,0,0,8.93,8.94H80.55a8.94,8.94,0,0,1-8.94-8.94Z"/><path class="cls-2" d="M131,210a10,10,0,0,1-6.25-2.19L39.63,139.73A43.9,43.9,0,0,1,23.08,105.3V67.82a10,10,0,0,1,20,0V105.3a24,24,0,0,0,9,18.81L131,187.2l78.88-63.09a24,24,0,0,0,9-18.8V67.82a10,10,0,0,1,20,0V105.3a43.87,43.87,0,0,1-16.55,34.43l-85.12,68.08A10,10,0,0,1,131,210Z"/><path class="cls-2" d="M229.87,343.13a10,10,0,0,1-10-10v-41a24.22,24.22,0,0,0-9.5-19.17l-79.31-60.34-77.7,60.28a23.94,23.94,0,0,0-9.32,19v41.21a10,10,0,0,1-20,0V291.92A43.83,43.83,0,0,1,41.1,257.09l83.77-65a10,10,0,0,1,12.19-.06l85.42,65a44.32,44.32,0,0,1,17.39,35.08v41a10,10,0,0,1-10,10Z"/><path class="cls-3" d="M261,18.52A18.52,18.52,0,0,0,242.48,0h-224A18.52,18.52,0,0,0,0,18.52v40A18.52,18.52,0,0,0,18.52,77h224A18.52,18.52,0,0,0,261,58.48ZM242,57H20V20H242Z"/><path class="cls-3" d="M261,341.52A18.52,18.52,0,0,0,242.48,323h-224A18.52,18.52,0,0,0,0,341.52v40A18.52,18.52,0,0,0,18.52,400h224A18.52,18.52,0,0,0,261,381.48ZM242,380H20V343H242Z"/></g></g></svg>