<svg xmlns="http://www.w3.org/2000/svg" width="150" height="45" viewBox="0 0 150 45">
  <g id="Medium-Product-Hunt" transform="translate(0 0)">
    <g id="Download_on_the_App_Store_Badge_US-UK_RGB_wht_092917" transform="translate(0 0)">
      <g id="Group" transform="translate(0 0)">
        <path id="Shape" d="M138.055,0H11.952c-.46,0-.914,0-1.372,0C10.2,0,9.815.011,9.428.016a18.41,18.41,0,0,0-2.512.2A9.035,9.035,0,0,0,4.533.921,8.094,8.094,0,0,0,2.5,2.247,7.129,7.129,0,0,0,1.027,4.07,6.909,6.909,0,0,0,.244,6.212,13.161,13.161,0,0,0,.019,8.464C.007,8.809.006,9.155,0,9.5v26c.006.349.007.688.019,1.037a13.16,13.16,0,0,0,.225,2.252,6.894,6.894,0,0,0,.783,2.142A7.075,7.075,0,0,0,2.5,42.751a7.888,7.888,0,0,0,2.029,1.326,9.081,9.081,0,0,0,2.383.71,18.748,18.748,0,0,0,2.512.2c.387.008.768.012,1.152.012.458,0,.913,0,1.372,0h126.1c.451,0,.908,0,1.359,0,.382,0,.774,0,1.156-.012a18.5,18.5,0,0,0,2.507-.2,9.223,9.223,0,0,0,2.392-.71,7.891,7.891,0,0,0,2.027-1.326,7.292,7.292,0,0,0,1.481-1.816,6.908,6.908,0,0,0,.776-2.142,13.679,13.679,0,0,0,.233-2.252c0-.349,0-.688,0-1.037.01-.409.01-.815.01-1.231V10.728c0-.412,0-.821-.01-1.228,0-.345,0-.691,0-1.036a13.68,13.68,0,0,0-.233-2.252,6.922,6.922,0,0,0-.776-2.141,7.742,7.742,0,0,0-3.508-3.15,9.176,9.176,0,0,0-2.392-.705,18.173,18.173,0,0,0-2.507-.2C140.187.011,139.8,0,139.414,0c-.451,0-.908,0-1.359,0Z" transform="translate(0 0)" fill="none"/>
        <path id="Shape-2" data-name="Shape" d="M11.136,44.5c-.382,0-.755,0-1.134-.012A17.677,17.677,0,0,1,7.659,44.3a7.975,7.975,0,0,1-2.077-.616,6.8,6.8,0,0,1-1.751-1.144A6.065,6.065,0,0,1,2.552,40.97a5.987,5.987,0,0,1-.681-1.864A12.573,12.573,0,0,1,1.663,37c-.008-.237-.018-1.027-.018-1.027V9.981s.011-.778.018-1.006A12.529,12.529,0,0,1,1.87,6.869,6.022,6.022,0,0,1,2.551,5,6.12,6.12,0,0,1,3.824,3.426a7,7,0,0,1,1.758-1.15,7.9,7.9,0,0,1,2.072-.612,17.535,17.535,0,0,1,2.351-.185l1.131-.014H139.957l1.145.014a17.255,17.255,0,0,1,2.33.183,8.053,8.053,0,0,1,2.094.616A6.7,6.7,0,0,1,148.553,5a6.027,6.027,0,0,1,.671,1.855,13.169,13.169,0,0,1,.218,2.123c0,.319,0,.661,0,1,.01.422.01.823.01,1.228V34.754c0,.409,0,.808-.01,1.21,0,.366,0,.7,0,1.046a12.893,12.893,0,0,1-.214,2.085,6,6,0,0,1-.677,1.879,6.251,6.251,0,0,1-1.273,1.559,6.8,6.8,0,0,1-1.754,1.15,7.947,7.947,0,0,1-2.091.619,17.476,17.476,0,0,1-2.343.183c-.367.008-.752.012-1.125.012l-1.359,0Z" transform="translate(-0.55 -0.481)" fill="none" stroke="#fff" stroke-width="1"/>
      </g>
      <g id="_Group_3" transform="translate(15.425 8.828)">
        <path id="_Path_" d="M18.265,17.971a5.794,5.794,0,0,1,2.746-4.857,5.9,5.9,0,0,0-4.65-2.524c-1.956-.206-3.853,1.176-4.85,1.176-1.016,0-2.551-1.155-4.2-1.121A6.19,6.19,0,0,0,2.1,13.835c-2.253,3.917-.573,9.674,1.586,12.841,1.08,1.55,2.342,3.282,3.994,3.221,1.616-.067,2.22-1.035,4.17-1.035,1.933,0,2.5,1.035,4.184,1,1.734-.028,2.827-1.557,3.869-3.123a12.846,12.846,0,0,0,1.769-3.618A5.6,5.6,0,0,1,18.265,17.971Z" transform="translate(-1.025 -4.423)" fill="#fff"/>
        <path id="_Path_2" d="M20.246,5.5a5.716,5.716,0,0,0,1.3-4.084A5.768,5.768,0,0,0,17.807,3.36a5.438,5.438,0,0,0-1.333,3.932A4.768,4.768,0,0,0,20.246,5.5Z" transform="translate(-6.188 -1.419)" fill="#fff"/>
      </g>
      <g id="Group-2" data-name="Group" transform="translate(46.558 20.105)">
        <path id="Shape-3" data-name="Shape" d="M9.542,12h-5.3L2.965,15.776H.718L5.742,1.806H8.075L13.1,15.776H10.814ZM4.788,10.258h4.2L6.919,4.129H6.861Z" transform="translate(-0.718 -1.573)" fill="#fff"/>
        <path id="Shape-4" data-name="Shape" d="M30.817,12.481c0,3.165-1.687,5.2-4.233,5.2A3.436,3.436,0,0,1,23.392,15.9h-.048v5.045H21.262V7.388h2.015V9.082h.038a3.6,3.6,0,0,1,3.23-1.8C29.12,7.281,30.817,9.325,30.817,12.481Zm-2.14,0c0-2.062-1.061-3.418-2.681-3.418-1.591,0-2.661,1.384-2.661,3.418,0,2.052,1.07,3.427,2.661,3.427,1.619,0,2.681-1.346,2.681-3.427Z" transform="translate(-7.589 -3.37)" fill="#fff"/>
        <path id="Shape-5" data-name="Shape" d="M47.592,12.481c0,3.165-1.688,5.2-4.234,5.2A3.436,3.436,0,0,1,40.166,15.9h-.048v5.045H38.036V7.388h2.015V9.082h.038a3.6,3.6,0,0,1,3.23-1.8C45.894,7.281,47.592,9.325,47.592,12.481Zm-2.141,0c0-2.062-1.061-3.418-2.681-3.418-1.591,0-2.661,1.384-2.661,3.418,0,2.052,1.07,3.427,2.661,3.427C44.39,15.908,45.451,14.562,45.451,12.481Z" transform="translate(-13.198 -3.37)" fill="#fff"/>
        <path id="Shape-6" data-name="Shape" d="M62.407,11.77c.154,1.385,1.495,2.295,3.326,2.295,1.755,0,3.018-.91,3.018-2.159,0-1.084-.762-1.734-2.565-2.179l-1.8-.436c-2.555-.62-3.741-1.819-3.741-3.766,0-2.41,2.092-4.066,5.061-4.066,2.941,0,4.956,1.656,5.024,4.066h-2.1c-.126-1.394-1.274-2.236-2.951-2.236S62.85,4.141,62.85,5.38c0,.988.733,1.569,2.526,2.014l1.533.378c2.855.678,4.04,1.829,4.04,3.873,0,2.614-2.072,4.251-5.37,4.251-3.085,0-5.169-1.6-5.3-4.125Z" transform="translate(-20.635 -1.459)" fill="#fff"/>
        <path id="Shape-7" data-name="Shape" d="M81.274,3.852v2.41H83.2V7.918H81.274v5.615c0,.872.386,1.279,1.234,1.279a6.482,6.482,0,0,0,.685-.048v1.646a5.7,5.7,0,0,1-1.157.1c-2.054,0-2.855-.775-2.855-2.75V7.918H77.707V6.263h1.475V3.852Z" transform="translate(-26.465 -2.245)" fill="#fff"/>
        <path id="Shape-8" data-name="Shape" d="M87.641,12.473c0-3.2,1.88-5.218,4.811-5.218s4.812,2.014,4.812,5.218-1.861,5.218-4.812,5.218S87.641,15.686,87.641,12.473Zm7.5,0c0-2.2-1-3.5-2.69-3.5s-2.69,1.307-2.69,3.5c0,2.207,1,3.495,2.69,3.495s2.69-1.288,2.69-3.495Z" transform="translate(-29.787 -3.362)" fill="#fff"/>
        <path id="Shape-9" data-name="Shape" d="M104.678,7.388h1.986V9.122h.048a2.421,2.421,0,0,1,2.44-1.84,3.2,3.2,0,0,1,.713.078V9.315a2.9,2.9,0,0,0-.936-.126,2.1,2.1,0,0,0-2.17,2.343v6.041h-2.082Z" transform="translate(-35.485 -3.37)" fill="#fff"/>
        <path id="Shape-10" data-name="Shape" d="M122.3,14.574c-.28,1.849-2.073,3.118-4.368,3.118-2.951,0-4.782-1.985-4.782-5.17s1.841-5.267,4.695-5.267c2.806,0,4.571,1.936,4.571,5.024v.716h-7.164v.126a2.648,2.648,0,0,0,2.729,2.885,2.294,2.294,0,0,0,2.343-1.433Zm-7.039-3.04h5.071a2.445,2.445,0,0,0-2.488-2.585,2.573,2.573,0,0,0-2.583,2.585Z" transform="translate(-38.317 -3.362)" fill="#fff"/>
      </g>
      <g id="_Group_4" transform="translate(47.952 9.492)">
        <path id="Shape-11" data-name="Shape" d="M2.544,1.221A2.964,2.964,0,0,1,5.69,4.556c0,2.145-1.154,3.377-3.146,3.377H.129V1.221ZM1.168,6.984h1.26a2.107,2.107,0,0,0,2.2-2.414,2.113,2.113,0,0,0-2.2-2.4H1.168Z" transform="translate(-0.129 -0.89)" fill="#fff"/>
        <path id="Shape-12" data-name="Shape" d="M10.24,6.159a2.391,2.391,0,1,1,4.758,0,2.391,2.391,0,1,1-4.758,0Zm3.734,0c0-1.1-.491-1.74-1.353-1.74s-1.352.642-1.352,1.74S11.756,7.9,12.621,7.9s1.353-.642,1.353-1.744Z" transform="translate(-3.507 -1.651)" fill="#fff"/>
        <path id="Shape-13" data-name="Shape" d="M24.081,8.742H23.049L22.006,5.011h-.079L20.889,8.742H19.866L18.475,3.676h1.01l.9,3.865h.074L21.5,3.676h.955l1.037,3.865h.079l.9-3.865h1Z" transform="translate(-6.265 -1.699)" fill="#fff"/>
        <path id="Shape-14" data-name="Shape" d="M30.737,3.626H31.7v.8h.074a1.51,1.51,0,0,1,1.506-.9,1.645,1.645,0,0,1,1.746,1.884V8.692h-1V5.663c0-.814-.352-1.219-1.089-1.219a1.16,1.16,0,0,0-1.2,1.284V8.692h-1Z" transform="translate(-10.365 -1.649)" fill="#fff"/>
        <path id="Shape-15" data-name="Shape" d="M39.558.732h1V7.775h-1Z" transform="translate(-13.315 -0.732)" fill="#fff"/>
        <path id="Shape-16" data-name="Shape" d="M43.128,6.159a2.391,2.391,0,1,1,4.759,0,2.392,2.392,0,1,1-4.759,0Zm3.734,0c0-1.1-.491-1.74-1.353-1.74s-1.352.642-1.352,1.74S44.643,7.9,45.508,7.9s1.353-.642,1.353-1.744Z" transform="translate(-14.505 -1.651)" fill="#fff"/>
        <path id="Shape-17" data-name="Shape" d="M51.858,7.262c0-.912.676-1.438,1.876-1.512L55.1,5.67V5.233c0-.535-.352-.837-1.033-.837-.556,0-.941.2-1.051.563h-.964c.1-.87.917-1.428,2.061-1.428,1.265,0,1.978.632,1.978,1.7V8.694h-.958V7.982h-.079a1.7,1.7,0,0,1-1.515.8,1.526,1.526,0,0,1-1.682-1.516ZM55.1,6.829V6.405l-1.232.079c-.695.047-1.01.284-1.01.731s.394.721.936.721A1.191,1.191,0,0,0,55.1,6.829Z" transform="translate(-17.429 -1.651)" fill="#fff"/>
        <path id="Shape-18" data-name="Shape" d="M60.186,5.24c0-1.6.82-2.615,2.094-2.615a1.661,1.661,0,0,1,1.547.889H63.9V.732h1V7.775h-.954v-.8h-.079a1.749,1.749,0,0,1-1.584.884C61,7.859,60.186,6.845,60.186,5.24Zm1.029,0c0,1.074.5,1.721,1.348,1.721s1.358-.656,1.358-1.717S63.4,3.524,62.563,3.524s-1.348.651-1.348,1.717Z" transform="translate(-20.214 -0.732)" fill="#fff"/>
        <path id="Shape-19" data-name="Shape" d="M73.448,6.159a2.391,2.391,0,1,1,4.758,0,2.391,2.391,0,1,1-4.758,0Zm3.734,0c0-1.1-.491-1.74-1.353-1.74s-1.352.642-1.352,1.74S74.964,7.9,75.829,7.9,77.182,7.262,77.182,6.159Z" transform="translate(-24.645 -1.651)" fill="#fff"/>
        <path id="Shape-20" data-name="Shape" d="M82.61,3.626h.958v.8h.074a1.51,1.51,0,0,1,1.506-.9,1.645,1.645,0,0,1,1.746,1.884V8.692h-1V5.663c0-.814-.352-1.219-1.089-1.219a1.16,1.16,0,0,0-1.2,1.284V8.692h-1Z" transform="translate(-27.713 -1.649)" fill="#fff"/>
        <path id="Shape-21" data-name="Shape" d="M96.6,1.8V3.083H97.69v.842H96.6v2.6c0,.531.218.763.713.763a3.31,3.31,0,0,0,.38-.023V8.1a3.254,3.254,0,0,1-.542.051c-1.107,0-1.548-.391-1.548-1.368V3.925h-.8V3.083h.8V1.8Z" transform="translate(-31.789 -1.082)" fill="#fff"/>
        <path id="Shape-22" data-name="Shape" d="M101.186.732h.987V3.524h.079a1.552,1.552,0,0,1,1.538-.907A1.666,1.666,0,0,1,105.528,4.5V7.775h-1V4.751c0-.809-.375-1.219-1.079-1.219a1.181,1.181,0,0,0-1.27,1.284V7.775h-1Z" transform="translate(-33.925 -0.732)" fill="#fff"/>
        <path id="Shape-23" data-name="Shape" d="M114.151,7.326a2.048,2.048,0,0,1-2.186,1.466,2.3,2.3,0,0,1-2.331-2.615,2.333,2.333,0,0,1,2.326-2.647c1.4,0,2.251.963,2.251,2.554v.349h-3.563v.056a1.337,1.337,0,0,0,1.344,1.451,1.208,1.208,0,0,0,1.2-.614Zm-3.5-1.633H113.2a1.22,1.22,0,0,0-1.242-1.312,1.293,1.293,0,0,0-1.306,1.312Z" transform="translate(-36.743 -1.651)" fill="#fff"/>
      </g>
    </g>
  </g>
</svg>
