<svg xmlns="http://www.w3.org/2000/svg" viewBox="0 0 420.01 296.27"><defs><style>.cls-1{fill:#d4e1f4;}.cls-2{fill:#1ae5be;}.cls-3{fill:#6a52fd;}</style></defs><title>No hidden fees</title><g id="Layer_2" data-name="Layer 2"><g id="Layer_1-2" data-name="Layer 1"><path class="cls-1" d="M377.66,207.51,371.55,191a79.51,79.51,0,0,0-98.86-38.7A79.45,79.45,0,0,1,401.55,171l6.1,16.48a79.51,79.51,0,0,1-49.23,93.64,79.49,79.49,0,0,0,19.24-73.64Z"/><path class="cls-1" d="M42.38,207.51,48.49,191a79.5,79.5,0,0,1,98.85-38.7A79.43,79.43,0,0,0,18.5,171l-6.12,16.48a79.52,79.52,0,0,0,49.24,93.64,79.49,79.49,0,0,1-19.24-73.64Z"/><path class="cls-1" d="M42.38,207.51,48.49,191a79.5,79.5,0,0,1,98.85-38.7A79.43,79.43,0,0,0,18.5,171l-6.12,16.48a79.52,79.52,0,0,0,49.24,93.64,79.49,79.49,0,0,1-19.24-73.64Z"/><path class="cls-1" d="M251.25,174.46l-.14,29.16h.07a78.93,78.93,0,0,1,10.24-36,79,79,0,0,0-10.17,6.84Z"/><path class="cls-1" d="M355.36,46.5A53.08,53.08,0,0,0,304.92,10h0a53.1,53.1,0,0,0-49.42,33.68A53,53,0,0,1,274.89,40h0a53.09,53.09,0,0,1,50.43,36.49l19.31,52.06A79.54,79.54,0,0,1,401.55,171Z"/><path class="cls-1" d="M94.68,76.49A53.09,53.09,0,0,1,145.11,40h0a52.88,52.88,0,0,1,19.42,3.69A53.09,53.09,0,0,0,115.16,10h0A53.08,53.08,0,0,0,64.68,46.5L18.5,171a79.51,79.51,0,0,1,56.87-42.48Z"/><path class="cls-1" d="M158.61,167.61a79,79,0,0,1,10.31,38.82l-.15-32a80,80,0,0,0-10.16-6.85Z"/><path class="cls-2" d="M210.07,265.67a36.7,36.7,0,0,1-18.61-5.07l-31.7-18.69a10,10,0,0,1,10.16-17.23l31.7,18.69a16.68,16.68,0,0,0,16.86,0l32-18.74a10,10,0,0,1,10.11,17.26l-32,18.74a36.73,36.73,0,0,1-18.51,5Z"/><path class="cls-2" d="M89.48,258.43a51.69,51.69,0,1,1,51.68-51.69,51.69,51.69,0,0,1-51.68,51.69Zm0-83.38a31.69,31.69,0,1,0,31.69,31.69,31.69,31.69,0,0,0-31.69-31.69Z"/><path class="cls-2" d="M329.38,258.43a51.69,51.69,0,1,1,51.69-51.69,51.69,51.69,0,0,1-51.69,51.69Zm0-83.38a31.69,31.69,0,1,0,31.69,31.69,31.69,31.69,0,0,0-31.69-31.69Z"/><path class="cls-3" d="M417.34,185.05l0-.07a88.74,88.74,0,0,0-6.57-17.88L364.8,43.18a63.13,63.13,0,0,0-123,19.8L241.7,81.1H178.34L178.25,63a63.13,63.13,0,0,0-123-19.75L9.29,167.12A88.08,88.08,0,0,0,2.71,185a.14.14,0,0,1,0,.06v0A89.45,89.45,0,1,0,178.9,207.8c0-.13,0-.26,0-.4v-1c0-.13,0-.28,0-.41l-.11-24.89h62.42l-.1,22.46c0,.28,0,.56,0,.83,0,.76,0,1.53,0,2.36A89.44,89.44,0,1,0,417.36,185.1s0,0,0,0ZM304.92,20a43,43,0,0,1,40.94,29.62L346,50l29.41,79.29a89.33,89.33,0,0,0-114,20.84l.41-87.19A43.2,43.2,0,0,1,304.92,20ZM74.05,50c0-.12.09-.23.13-.35a43.12,43.12,0,0,1,84.07,13.29l.41,87.25a89.52,89.52,0,0,0-114-20.9ZM89.48,276.19A69.46,69.46,0,0,1,22,190.41l5.67-15.32A69.23,69.23,0,0,1,89.53,137.3c38.14,0,69.49,31,69.49,69.17v.41a68.68,68.68,0,0,1-4,22.94,69.62,69.62,0,0,1-65.56,46.37ZM178.71,161.1l-.28-60h63.18l-.29,60ZM330.56,276.19a69.4,69.4,0,0,1-69.45-69.34v-.11c0-1,0-1.83.06-2.64V204a69.45,69.45,0,0,1,131.22-28.91l5.68,15.32a69.49,69.49,0,0,1-67.51,85.78Z"/></g></g></svg>