<svg xmlns="http://www.w3.org/2000/svg" viewBox="0 0 344 420"><defs><style>.cls-1{fill:#d4e1f4;}.cls-2{fill:#1ae5be;}.cls-3{fill:#6a52fd;}</style></defs><title>Bigger Rewards</title><g id="Layer_2" data-name="Layer 2"><g id="Layer_1-2" data-name="Layer 1"><path class="cls-1" d="M117.88,328.23a26.4,26.4,0,0,1-26.41-26.41V10H87.88A26.41,26.41,0,0,0,61.47,36.41V331.82a26.4,26.4,0,0,0,26.41,26.41h220a26.4,26.4,0,0,0,26.41-26.41v-3.59Z"/><path class="cls-1" d="M66.11,380A26.41,26.41,0,0,1,39.7,353.59V57.06H36.11A26.42,26.42,0,0,0,9.7,83.47V383.59A26.41,26.41,0,0,0,36.11,410H260.83a26.4,26.4,0,0,0,26.41-26.41V380Z"/><path class="cls-2" d="M107.88,234.12a10,10,0,0,1-10-10c0-48,40-99.4,99.41-99.4,26.43,0,48.52,10.6,64.66,24.25l-.38-15.18a10,10,0,0,1,20-.5l1,40a10,10,0,0,1-12.32,12.33l-40-1a10,10,0,1,1,.24-20h.26l19.18.48c-13-11.21-31.16-20.38-52.63-20.38a77.1,77.1,0,0,0-57.91,25.92c-13.46,15-21.5,35-21.5,53.49a10,10,0,0,1-10,10Z"/><path class="cls-2" d="M124.2,324.7a10,10,0,0,1-10-9.75l-1-40a10,10,0,0,1,12.31-12.33l40,1a10,10,0,1,1-.5,20l-19.18-.48c13,11.21,31.16,20.38,52.64,20.38a77,77,0,0,0,57.9-25.92c13.46-15,21.5-35,21.5-53.48a10,10,0,0,1,20,0c0,48-39.94,99.4-99.4,99.4-26.43,0-48.53-10.61-64.66-24.25l.38,15.17a10,10,0,0,1-9.75,10.25Z"/><path class="cls-3" d="M275.09,3.09A1.36,1.36,0,0,1,275,3l-.2-.18a6,6,0,0,0-.53-.48c-.06-.06-.13-.1-.2-.16l-.57-.42a2,2,0,0,0-.27-.17,6.26,6.26,0,0,0-.55-.34L272.2,1a3.42,3.42,0,0,0-.43-.21L271,.52c-.06,0-.12-.07-.17-.09a6.62,6.62,0,0,0-2-.43,2.17,2.17,0,0,1-.26,0H87.88C67.8,0,51,16.34,51,36.41V47H36.11A36.25,36.25,0,0,0,0,83.39v300.2A36.2,36.2,0,0,0,36,420H260.83A36.24,36.24,0,0,0,297,383.68V368h10.89A36,36,0,0,0,344,332.11V79.47a9.8,9.8,0,0,0-2.62-6.91ZM278,34.92,310.92,69H278Zm-1,348.67A16.21,16.21,0,0,1,261,400H36.11A16.17,16.17,0,0,1,20,383.76V83.47A16.23,16.23,0,0,1,36,67H51V331.82C51,351.9,67.8,368,87.88,368H277ZM307.89,348h-220c-9,0-16.88-7.13-16.88-16.18V36.41C71,27.36,78.83,20,87.88,20H258V79.49C258,85,262.34,89,267.86,89H324V331.82A16,16,0,0,1,308.23,348Z"/></g></g></svg>