<svg xmlns="http://www.w3.org/2000/svg" viewBox="0 0 512 512"><defs><style>.cls-1{fill:#40f4d2;}.cls-2{fill:#6a52fd;}.cls-3{fill:#14e3ba;}</style></defs><title>Ask for Payment</title><g id="Layer_2" data-name="Layer 2"><g id="Layer_1-2" data-name="Layer 1"><path class="cls-1" d="M58.43,73.43A15,15,0,0,1,47.82,69L4.39,25.61A15,15,0,0,1,25.6,4.4L69,47.82a15,15,0,0,1-10.6,25.61Z"/><path class="cls-1" d="M186,201a15,15,0,0,1-10.61-4.39l-42.72-42.73a15,15,0,1,1,21.22-21.21l42.71,42.72A15,15,0,0,1,186,201Z"/><path class="cls-1" d="M453.57,73.43A15,15,0,0,1,443,47.82L486.39,4.4A15,15,0,0,1,507.6,25.61L464.18,69a15,15,0,0,1-10.61,4.4Z"/><path class="cls-1" d="M326,201a15,15,0,0,1-10.61-25.61l42.72-42.72a15,15,0,1,1,21.22,21.21l-42.72,42.73A15,15,0,0,1,326,201Z"/><path class="cls-1" d="M15,512A15,15,0,0,1,4.39,486.39L47.82,443A15,15,0,1,1,69,464.18L25.6,507.61A14.91,14.91,0,0,1,15,512Z"/><path class="cls-1" d="M143.28,383.72a15,15,0,0,1-10.61-25.61l42.72-42.72a15,15,0,0,1,21.22,21.22l-42.72,42.72a15,15,0,0,1-10.61,4.39Z"/><path class="cls-1" d="M497,512a15,15,0,0,1-10.61-4.39L443,464.18A15,15,0,0,1,464.18,443l43.42,43.43A15,15,0,0,1,497,512Z"/><path class="cls-1" d="M368.72,383.72a15,15,0,0,1-10.61-4.39l-42.72-42.72a15,15,0,0,1,21.22-21.22l42.72,42.72a15,15,0,0,1-10.61,25.61Z"/><path class="cls-2" d="M361,195.73c0-.15,0-.29,0-.44,0-.39-.05-.78-.1-1.17,0-.05,0-.09,0-.14q-.09-.6-.21-1.17c0-.11,0-.21-.07-.31a12.41,12.41,0,0,0-.35-1.23.08.08,0,0,0,0-.05c-.13-.39-.28-.77-.44-1.15,0-.09-.08-.19-.13-.29-.17-.37-.35-.75-.55-1.11l-.12-.19c-.17-.3-.36-.59-.55-.88l-.24-.34a10.39,10.39,0,0,0-.72-.92l-.25-.29c-.2-.23-.41-.45-.63-.67l-.31-.3c-.29-.27-.59-.53-.89-.78a3.55,3.55,0,0,0-.31-.23c-.27-.21-.56-.41-.86-.61l-.24-.16-.09-.06c-.34-.21-.7-.41-1.06-.59l-.11-.06-90-45a15,15,0,0,0-13.42,0l-90,45-.11.06c-.36.18-.72.38-1.07.59l-.08.06-.25.16c-.29.2-.58.4-.86.61l-.3.23q-.47.38-.9.78l-.31.3c-.22.22-.42.44-.63.67l-.25.29q-.37.45-.72.93l-.23.33c-.19.29-.38.58-.55.88l-.12.19c-.2.36-.38.74-.56,1.11l-.12.29c-.16.38-.32.76-.45,1.15,0,0,0,0,0,.05a12.41,12.41,0,0,0-.35,1.23,2.82,2.82,0,0,0-.07.31c-.08.38-.16.78-.21,1.17,0,.05,0,.09,0,.14-.05.39-.08.78-.1,1.17,0,.15,0,.29,0,.44s0,.18,0,.27V316a15,15,0,0,0,8.29,13.42l90,45,.27.11q.54.25,1.11.48l.45.16c.38.14.76.24,1.15.35l.45.11q.61.14,1.23.21l.4.07c.54,0,1.09.09,1.65.09s1.11,0,1.65-.09l.4-.07q.61-.07,1.23-.21l.45-.11c.39-.11.77-.21,1.15-.35l.45-.16q.57-.22,1.11-.48l.27-.11,90-45A15,15,0,0,0,361,316V196c0-.09,0-.18,0-.27Zm-105-28L312.46,196,256,224.23,199.54,196Zm-75,52.5,60,30v86.46l-60-30Zm150,86.46-60,30V250.27l60-30Z"/><path class="cls-3" d="M122.07,167a44.85,44.85,0,0,1-31.82-13.15L47.82,111.46a45,45,0,0,1,63.64-63.64l42.43,42.43A45,45,0,0,1,122.07,167ZM79.64,64.65A15,15,0,0,0,69,90.25l42.42,42.42a15,15,0,1,0,21.21-21.21L90.25,69a15,15,0,0,0-10.61-4.38Z"/><path class="cls-3" d="M389.93,167a45,45,0,0,1-31.82-76.79l42.43-42.43a45,45,0,0,1,63.64,63.64l-42.43,42.43A44.85,44.85,0,0,1,389.93,167ZM432.36,64.65A15,15,0,0,0,421.75,69l-42.42,42.43a15,15,0,1,0,21.21,21.21L443,90.25a15,15,0,0,0-10.61-25.6Z"/><path class="cls-3" d="M79.64,477.34a45,45,0,0,1-31.82-76.8l42.43-42.43a45,45,0,0,1,63.64,63.64l-42.43,42.43a44.87,44.87,0,0,1-31.82,13.16Zm42.43-102.4a14.92,14.92,0,0,0-10.61,4.39L69,421.75A15,15,0,1,0,90.25,443l42.42-42.42a15,15,0,0,0-10.6-25.6Z"/><path class="cls-3" d="M432.36,477.34a44.87,44.87,0,0,1-31.82-13.16l-42.43-42.43a45,45,0,0,1,63.64-63.64l42.43,42.43a45,45,0,0,1-31.82,76.8Zm-42.43-102.4a15,15,0,0,0-10.6,25.6L421.75,443A15,15,0,1,0,443,421.75l-42.43-42.42a14.94,14.94,0,0,0-10.61-4.39Z"/></g></g></svg>