<svg xmlns="http://www.w3.org/2000/svg" width="79" height="68" viewBox="0 0 79 68">
  <g id="Vector_Smart_Object" data-name="Vector Smart Object" transform="translate(0 -5.862)">
    <path id="Path_1" data-name="Path 1" d="M29.109,66.446V22.237L23.62,16.555V71.989H77.171l-5.355-5.543Z" fill="#d4e1f4"/>
    <path id="Path_2" data-name="Path 2" d="M7.369,66.446V7.736H1.879V71.989H16.41V66.446Z" fill="#d4e1f4"/>
    <g id="Group_1" data-name="Group 1">
      <path id="Path_3" data-name="Path 3" d="M51.506,63.6H35.243a1.839,1.839,0,0,1-1.83-1.848V43.922A1.846,1.846,0,0,1,34.578,42.2a1.815,1.815,0,0,1,2.011.469L52.853,60.5a1.861,1.861,0,0,1,.33,1.994A1.829,1.829,0,0,1,51.507,63.6ZM37.073,59.9h10.26L37.073,48.655Z" fill="#1ae5be"/>
      <path id="Path_4" data-name="Path 4" d="M27.412,45.256H23.62a1.848,1.848,0,0,1,0-3.7h3.792a1.848,1.848,0,0,1,0,3.7Z" fill="#1ae5be"/>
      <path id="Path_5" data-name="Path 5" d="M27.412,63.419H23.62a1.848,1.848,0,0,1,0-3.7h3.792a1.848,1.848,0,0,1,0,3.7Z" fill="#1ae5be"/>
      <path id="Path_6" data-name="Path 6" d="M7.081,36.777h-5.2a1.848,1.848,0,0,1,0-3.7h5.2a1.848,1.848,0,0,1,0,3.7Z" fill="#1ae5be"/>
      <path id="Path_7" data-name="Path 7" d="M7.951,66.021H4.116a1.848,1.848,0,0,1,0-3.7H7.951a1.848,1.848,0,0,1,0,3.7Z" fill="#1ae5be"/>
    </g>
    <path id="Path_8" data-name="Path 8" d="M18.116,7.71a1.839,1.839,0,0,0-1.83-1.848H1.83A1.839,1.839,0,0,0,0,7.71v64.3a1.839,1.839,0,0,0,1.83,1.848H16.286a1.839,1.839,0,0,0,1.83-1.848ZM14.639,70.167H3.66V52.612H9.913a1.848,1.848,0,0,0,0-3.7H3.66V20.83H9.913a1.848,1.848,0,0,0,0-3.7H3.66V9.558H14.639Z" fill="#0635c9"/>
    <path id="Path_9" data-name="Path 9" d="M24.929,15.265a1.827,1.827,0,0,0-2.005-.422,1.857,1.857,0,0,0-1.149,1.712V71.989a1.872,1.872,0,0,0,1.844,1.873H77.171a1.844,1.844,0,0,0,1.686-1.142,1.875,1.875,0,0,0-.376-2.015Zm.506,54.9V54.276h3.942a1.848,1.848,0,0,0,0-3.7H25.435V36.167h3.942a1.848,1.848,0,0,0,0-3.7H25.435V21.1L72.829,70.167Z" fill="#0635c9"/>
  </g>
</svg>
