<svg width="100" height="100" viewBox="0 0 100 100" fill="none" xmlns="http://www.w3.org/2000/svg">
<rect opacity="0.1" width="100" height="100" rx="30" fill="#FFB84D"/>
<g clip-path="url(#clip0)">
<path d="M19.0767 74.7468H33.244C33.8387 74.7468 34.3207 74.2648 34.3207 73.6701V71.5167C34.3207 70.922 33.8387 70.4399 33.244 70.4399H19.0767C18.482 70.4399 18 70.922 18 71.5167V73.6701C18 74.2646 18.482 74.7468 19.0767 74.7468Z" fill="url(#paint0_linear)"/>
<path d="M38.3224 57.3336L33.8059 69.9678L33.9866 73.0707C33.7081 73.8497 37.2863 73.4482 37.2863 73.4482L49.9205 68.9317C53.1329 65.7194 41.5346 54.1213 38.3224 57.3336Z" fill="url(#paint1_linear)"/>
<path d="M77.9252 40.929L49.9207 68.9316C49.6032 68.3812 49.1205 67.8944 48.5024 67.5494C47.6578 67.0816 46.337 67.3377 45.4226 67.615C45.2236 67.6743 45.0415 67.5705 44.9674 67.4118C44.9208 67.3166 44.9124 67.2001 44.9632 67.0858C44.9654 67.0858 44.9654 67.0837 44.9654 67.0837C45.0162 66.9672 45.0606 66.8486 45.0987 66.7301C45.1157 66.673 45.1326 66.6158 45.1496 66.5587C45.1517 66.5545 45.1517 66.5523 45.1517 66.5481C45.2004 66.3639 45.2343 66.1798 45.2533 65.9914C45.2597 65.93 45.2639 65.8665 45.2681 65.8051C45.2733 65.7029 45.2743 65.6005 45.271 65.4983C45.2478 64.7826 45.0141 64.072 44.5695 63.4681C44.4616 63.3199 44.3409 63.1802 44.2076 63.0469C44.0741 62.9136 43.9344 62.7929 43.7863 62.6849C43.0963 62.1769 42.2665 61.9441 41.4494 61.9864C41.388 61.9906 41.3245 61.9948 41.2631 62.0012C41.0747 62.0202 40.8884 62.0541 40.7064 62.1027C40.7022 62.1027 40.7 62.1027 40.6958 62.1049C40.6387 62.1219 40.5815 62.1388 40.5244 62.1558C40.4629 62.1749 40.4038 62.196 40.3445 62.2192C40.2874 62.2404 40.2302 62.2637 40.1731 62.2891C40.1709 62.2891 40.1709 62.2891 40.1689 62.2912C40.0546 62.3421 39.9382 62.3335 39.8429 62.287C39.6841 62.213 39.5805 62.0309 39.6397 61.8319C39.9171 60.9174 40.1731 59.5987 39.7054 58.7541C39.3603 58.1339 38.8755 57.6513 38.3232 57.3338L66.3254 29.3292C67.2018 28.455 68.6199 28.455 69.4942 29.3292L71.1474 30.9824L76.2721 36.1071L77.9252 37.7602C78.7995 38.6344 78.7995 40.0527 77.9252 40.929Z" fill="url(#paint2_linear)"/>
<path d="M76.2713 36.107L44.9666 67.4116C44.92 67.3164 44.9116 67.1999 44.9624 67.0856C44.9646 67.0856 44.9646 67.0834 44.9646 67.0834C45.0155 66.9669 45.2356 66.1775 45.2525 65.9912C45.2609 65.9277 45.2653 65.8663 45.2673 65.8048C45.3096 64.9878 45.0768 64.1581 44.5687 63.4679C44.4608 63.3197 44.3401 63.18 44.2068 63.0467C44.0733 62.9134 43.9337 62.7927 43.7856 62.6847C43.0955 62.1767 42.2657 61.9438 41.4486 61.9862C41.3872 61.9883 41.3259 61.9925 41.2623 62.0009C41.0759 62.0179 40.8897 62.0518 40.7056 62.1025C40.7014 62.1025 40.6992 62.1025 40.695 62.1047C40.6379 62.1195 40.2293 62.2635 40.1722 62.2889C40.17 62.2889 40.17 62.2889 40.168 62.291C40.0537 62.3419 39.9373 62.3333 39.842 62.2868L71.1467 30.9822L76.2713 36.107Z" fill="url(#paint3_linear)"/>
<path d="M35.8166 71.4373C35.2073 70.828 34.5263 70.339 33.8058 69.9675L32.5665 73.4345C32.288 74.2134 33.0404 74.9659 33.8193 74.6873L37.2863 73.448C36.9149 72.7276 36.426 72.0465 35.8166 71.4373Z" fill="url(#paint4_linear)"/>
<path d="M81.7123 30.9227L76.3303 25.5407C74.6135 23.824 71.8301 23.824 70.1133 25.5407L67.9093 27.7448L79.5083 39.3437L81.7123 37.1397C83.429 35.4229 83.429 32.6395 81.7123 30.9227Z" fill="url(#paint5_linear)"/>
<path d="M77.9243 37.7602L76.2712 36.1071L71.1465 30.9824L69.4933 29.3292C68.6191 28.455 67.2009 28.455 66.3245 29.3292L65.2344 30.4193V53.6179L77.9243 40.929C78.7987 40.0527 78.7987 38.6344 77.9243 37.7602Z" fill="url(#paint6_linear)"/>
<path d="M76.0931 41.4124L65.7222 31.0416C65.0688 30.3882 65.0688 29.3289 65.7222 28.6755L67.2314 27.1664C67.8848 26.5129 68.9441 26.5129 69.5975 27.1664L79.9683 37.5372C80.6218 38.1906 80.6218 39.2498 79.9683 39.9033L78.4592 41.4124C77.8057 42.0657 76.7464 42.0657 76.0931 41.4124Z" fill="url(#paint7_linear)"/>
<path d="M30.4658 51.5766C29.5168 52.5256 27.9781 52.5256 27.029 51.5766L22.3703 46.9179C21.4213 45.9689 21.4213 44.4302 22.3703 43.481C23.3193 42.532 24.858 42.532 25.8071 43.481L30.4658 48.1398C31.415 49.0888 31.415 50.6275 30.4658 51.5766Z" fill="url(#paint8_linear)"/>
<path d="M29.4488 61.3128C29.4488 62.655 28.3607 63.743 27.0185 63.743H20.4302C19.088 63.7429 18 62.655 18 61.3128C18 59.9706 19.088 58.8826 20.4302 58.8826H27.0185C28.3607 58.8826 29.4488 59.9706 29.4488 61.3128Z" fill="url(#paint9_linear)"/>
<path d="M40.2022 50.5594C38.86 50.5594 37.7719 49.4713 37.7719 48.1292V41.5408C37.7719 40.1986 38.86 39.1106 40.2022 39.1106C41.5444 39.1106 42.6324 40.1986 42.6324 41.5408V48.1292C42.6324 49.4713 41.5444 50.5594 40.2022 50.5594Z" fill="url(#paint10_linear)"/>
</g>
<defs>
<linearGradient id="paint0_linear" x1="26.1604" y1="70.3937" x2="26.1604" y2="74.6271" gradientUnits="userSpaceOnUse">
<stop stop-color="#45A2E0"/>
<stop offset="1" stop-color="#2F73A0"/>
</linearGradient>
<linearGradient id="paint1_linear" x1="34.4319" y1="61.1788" x2="46.0284" y2="72.7754" gradientUnits="userSpaceOnUse">
<stop stop-color="#FFE0EA"/>
<stop offset="1" stop-color="#FFC0D5"/>
</linearGradient>
<linearGradient id="paint2_linear" x1="38.3229" y1="48.8026" x2="78.581" y2="48.8026" gradientUnits="userSpaceOnUse">
<stop stop-color="#FFCE47"/>
<stop offset="1" stop-color="#FF9356"/>
</linearGradient>
<linearGradient id="paint3_linear" x1="62.869" y1="54.0094" x2="51.1606" y2="42.301" gradientUnits="userSpaceOnUse">
<stop stop-color="#FFCE47"/>
<stop offset="1" stop-color="#FF9356"/>
</linearGradient>
<linearGradient id="paint4_linear" x1="33.9243" y1="72.5826" x2="36.8831" y2="75.5414" gradientUnits="userSpaceOnUse">
<stop stop-color="#2F73A0"/>
<stop offset="1" stop-color="#174461"/>
</linearGradient>
<linearGradient id="paint5_linear" x1="76.4427" y1="29.6596" x2="74.3893" y2="33.3559" gradientUnits="userSpaceOnUse">
<stop stop-color="#FF755C"/>
<stop offset="1" stop-color="#FF4181"/>
</linearGradient>
<linearGradient id="paint6_linear" x1="66.1868" y1="46.8388" x2="71.7094" y2="35.5222" gradientUnits="userSpaceOnUse">
<stop stop-color="#FF9356" stop-opacity="0"/>
<stop offset="1" stop-color="#FF755C"/>
</linearGradient>
<linearGradient id="paint7_linear" x1="73.5337" y1="33.0299" x2="71.7231" y2="36.2891" gradientUnits="userSpaceOnUse">
<stop stop-color="#EDF5FF"/>
<stop offset="1" stop-color="#C7E9FF"/>
</linearGradient>
<linearGradient id="paint8_linear" x1="26.6975" y1="47.2404" x2="25.007" y2="48.9309" gradientUnits="userSpaceOnUse">
<stop stop-color="#FFCE47"/>
<stop offset="1" stop-color="#FF9356"/>
</linearGradient>
<linearGradient id="paint9_linear" x1="23.7244" y1="60.8857" x2="23.7244" y2="63.2767" gradientUnits="userSpaceOnUse">
<stop stop-color="#FF755C"/>
<stop offset="1" stop-color="#FF4181"/>
</linearGradient>
<linearGradient id="paint10_linear" x1="44.2304" y1="44.8351" x2="35.8191" y2="44.8351" gradientUnits="userSpaceOnUse">
<stop stop-color="#E4E08E"/>
<stop offset="1" stop-color="#6FA953"/>
</linearGradient>
<clipPath id="clip0">
<rect width="65" height="65" fill="white" transform="translate(18 17)"/>
</clipPath>
</defs>
</svg>
