<?xml version="1.0" encoding="UTF-8"?>
<svg width="272px" height="328px" viewBox="0 0 272 328" version="1.1" xmlns="http://www.w3.org/2000/svg" xmlns:xlink="http://www.w3.org/1999/xlink">
    <title>编组</title>
    <defs>
        <linearGradient x1="0%" y1="50%" x2="100%" y2="54.3870549%" id="linearGradient-1">
            <stop stop-color="#00BBEC" offset="0%"></stop>
            <stop stop-color="#00E1D1" offset="100%"></stop>
        </linearGradient>
        <polygon id="path-2" points="133.654757 128.65865 141.231167 115.744315 52.0361601 115.744315 52.0361601 42.5630843 127.628067 42.5630843 136.926388 29.6487494 17.4257426 29.6487494 17.4257426 128.65865"></polygon>
        <linearGradient x1="7.6645898%" y1="50%" x2="92.3354102%" y2="56.8595427%" id="linearGradient-4">
            <stop stop-color="#00BBEC" offset="0%"></stop>
            <stop stop-color="#00E1D1" offset="100%"></stop>
        </linearGradient>
        <polygon id="path-5" points="133.463309 128.316832 141.039719 115.402497 51.8447125 115.402497 51.8447125 42.2212656 127.43662 42.2212656 136.734941 29.3069307 17.2342949 29.3069307 17.2342949 128.316832"></polygon>
        <linearGradient x1="9.91007753%" y1="50%" x2="90.0899225%" y2="56.8595427%" id="linearGradient-7">
            <stop stop-color="#00BBEC" offset="0%"></stop>
            <stop stop-color="#00E1D1" offset="100%"></stop>
        </linearGradient>
    </defs>
    <g id="页面-2" stroke="none" stroke-width="1" fill="none" fill-rule="evenodd">
        <g id="画板备份-4" transform="translate(-264.000000, -126.000000)">
            <g id="编组" transform="translate(264.000000, 126.000000)">
                <g id="编组-3" transform="translate(136.000000, 110.099010) rotate(-360.000000) translate(-136.000000, -110.099010) translate(56.000000, -0.000000)">
                    <g id="路径" transform="translate(0.916725, 0.415822)">
                        <mask id="mask-3" fill="white">
                            <use xlink:href="#path-2"></use>
                        </mask>
                        <use id="蒙版" fill="url(#linearGradient-1)" fill-rule="nonzero" opacity="0.800000012" transform="translate(79.328455, 79.153700) rotate(-315.000000) translate(-79.328455, -79.153700) " xlink:href="#path-2"></use>
                        <polygon fill="url(#linearGradient-4)" mask="url(#mask-3)" points="70.5619133 0.376586239 85.9033605 33.981661 150.823203 98.9015037 163.754398 83.0873917 71.8275249 -2.37623762"></polygon>
                    </g>
                    <g id="路径-2" transform="translate(0.776897, 62.415173)">
                        <mask id="mask-6" fill="white">
                            <use xlink:href="#path-5"></use>
                        </mask>
                        <use id="蒙版" fill="url(#linearGradient-1)" fill-rule="nonzero" opacity="0.800000012" transform="translate(79.137007, 78.811881) scale(-1, 1) rotate(-45.000000) translate(-79.137007, -78.811881) " xlink:href="#path-5"></use>
                        <polygon fill="url(#linearGradient-7)" mask="url(#mask-6)" points="72.562101 123.98392 87.9035482 157.588995 -4.75247525 64.9329714 6.06783948 54.1126567"></polygon>
                    </g>
                </g>
                <path d="M52.8975265,328 C53.9575972,328 54.9646643,327.823322 55.9187279,327.469965 C56.8727915,327.116608 57.7385159,326.621908 58.5159011,325.985866 C59.2932862,325.349823 59.9116608,324.590106 60.3710247,323.706714 C60.8303887,322.823322 61.0600707,321.886926 61.0600707,320.897527 L65.0883392,293.441696 L24.3816254,293.441696 L27.4558304,278.176678 L46.8551237,278.176678 L45.795053,285.279152 L66.1484099,285.279152 L68.1625442,268 L8.16254417,268 L3.07420495,303.618375 L43.7809187,303.618375 L41.7667845,315.809187 L5.08833922,315.809187 L2.01413428,311.674912 L-8.52651283e-14,328 L52.8975265,328 Z M124.734982,328 L125.689046,317.823322 L90.0706714,317.823322 L92.0848057,301.498233 L124.734982,301.498233 L125.689046,291.321555 L94.204947,291.321555 L96.2190813,278.176678 L129.823322,278.176678 L130.777385,268 L72.7915194,268 L75.8657244,272.028269 L67.7031802,328 L124.734982,328 Z M193.074205,328 L195.088339,313.795053 L190,317.823322 L150.353357,317.823322 L155.441696,278.176678 L200.176678,278.176678 L201.236749,268 L137.102473,268 L130,320.897527 C129.717314,321.886926 129.681979,322.823322 129.893993,323.706714 C130.106007,324.590106 130.512367,325.349823 131.113074,325.985866 C131.713781,326.621908 132.438163,327.116608 133.286219,327.469965 C134.134276,327.823322 135.053004,328 136.042403,328 L193.074205,328 Z M263.533569,328 L265.547703,313.795053 L260.459364,317.823322 L220.812721,317.823322 L225.90106,278.176678 L270.636042,278.176678 L271.696113,268 L207.561837,268 L200.459364,320.897527 C200.176678,321.886926 200.141343,322.823322 200.353357,323.706714 C200.565371,324.590106 200.971731,325.349823 201.572438,325.985866 C202.173145,326.621908 202.897527,327.116608 203.745583,327.469965 C204.59364,327.823322 205.512367,328 206.501767,328 L263.533569,328 Z" id="SECC" fill="#FFFFFF" fill-rule="nonzero"></path>
            </g>
        </g>
    </g>
</svg>