<svg width="80" height="80" viewBox="0 0 80 80" fill="none" xmlns="http://www.w3.org/2000/svg">
<rect opacity="0.15" width="80" height="80" rx="25" fill="#18CCB8"/>
<path d="M40 66C54.3594 66 66 54.3594 66 40C66 25.6406 54.3594 14 40 14C25.6406 14 14 25.6406 14 40C14 54.3594 25.6406 66 40 66Z" fill="url(#paint0_linear)"/>
<path d="M40.0002 65.1571C53.8941 65.1571 65.1573 53.8939 65.1573 40C65.1573 26.1061 53.8941 14.8428 40.0002 14.8428C26.1062 14.8428 14.843 26.1061 14.843 40C14.843 53.8939 26.1062 65.1571 40.0002 65.1571Z" fill="url(#paint1_linear)"/>
<path d="M40.0005 62.6883C52.5309 62.6883 62.6888 52.5304 62.6888 40C62.6888 27.4696 52.5309 17.3118 40.0005 17.3118C27.4701 17.3118 17.3123 27.4696 17.3123 40C17.3123 52.5304 27.4701 62.6883 40.0005 62.6883Z" fill="url(#paint2_linear)"/>
<path d="M40.0005 62.6883C52.5309 62.6883 62.6888 52.5304 62.6888 40C62.6888 27.4696 52.5309 17.3118 40.0005 17.3118C27.4701 17.3118 17.3123 27.4696 17.3123 40C17.3123 52.5304 27.4701 62.6883 40.0005 62.6883Z" fill="url(#paint3_radial)"/>
<path d="M62.4308 43.4264L54.8459 35.904L52.6959 36.4335L41.6987 25.5311C41.5889 25.2959 41.3993 25.106 41.164 24.9965C40.9882 24.6196 40.607 24.3577 40.1637 24.3577H39.8359C39.226 24.3577 38.7314 24.8521 38.7314 25.4622V38.3335C38.229 38.7165 37.9032 39.3195 37.9032 40.0002C37.9032 40.2117 37.9353 40.4158 37.9936 40.6082L30.8454 47.7564C30.4142 48.1876 30.4142 48.887 30.8454 49.3183L43.8975 62.3537C53.4608 60.6976 60.9721 53.0556 62.4308 43.4264Z" fill="url(#paint4_linear)"/>
<path d="M62.4299 43.4258C60.9713 53.0564 53.4602 60.6972 43.8972 62.3529L31.0933 49.5656C31.5244 49.9813 32.2135 49.9756 32.6391 49.5501L40.0967 42.0911C41.2056 42.0405 42.0893 41.1314 42.095 40.0111L55.0696 36.8165C55.2457 36.7742 55.3754 36.6347 55.4148 36.4684L62.4299 43.4258Z" fill="url(#paint5_linear)"/>
<path d="M40.1642 40H39.8364C39.2265 40 38.7319 39.5056 38.7319 38.8955V25.4622C38.7319 24.8523 39.2263 24.3577 39.8364 24.3577H40.1642C40.7741 24.3577 41.2687 24.8521 41.2687 25.4622V38.8957C41.2685 39.5056 40.7741 40 40.1642 40Z" fill="url(#paint6_linear)"/>
<path d="M40.1638 40L40.3956 40.2318C40.8268 40.663 40.8268 41.3624 40.3956 41.7937L32.6393 49.5499C32.2081 49.9812 31.5087 49.9812 31.0774 49.5499L30.8456 49.3182C30.4144 48.8869 30.4144 48.1876 30.8456 47.7562L38.6019 40C39.0331 39.5688 39.7324 39.5688 40.1638 40Z" fill="url(#paint7_linear)"/>
<path d="M55.4142 36.2477C55.4763 36.4996 55.3223 36.7541 55.0704 36.8162L40.2345 40.4697C39.9826 40.5317 39.7281 40.3778 39.666 40.1259C39.604 39.874 39.7579 39.6195 40.0098 39.5574L54.8458 35.9039C55.0976 35.8419 55.3521 35.9958 55.4142 36.2477Z" fill="url(#paint8_linear)"/>
<path d="M40.0005 42.0964C41.1583 42.0964 42.097 41.1578 42.097 40C42.097 38.8421 41.1583 37.9035 40.0005 37.9035C38.8427 37.9035 37.9041 38.8421 37.9041 40C37.9041 41.1578 38.8427 42.0964 40.0005 42.0964Z" fill="url(#paint9_linear)"/>
<path d="M40.0812 23.019H39.9193C39.2635 23.019 38.7319 22.4874 38.7319 21.8316V20.3545C38.7319 19.6987 39.2635 19.1671 39.9193 19.1671H40.0812C40.737 19.1671 41.2686 19.6987 41.2686 20.3545V21.8316C41.2685 22.4874 40.7369 23.019 40.0812 23.019Z" fill="url(#paint10_linear)"/>
<path d="M40.0812 60.833H39.9193C39.2635 60.833 38.7319 60.3014 38.7319 59.6456V58.1686C38.7319 57.5128 39.2635 56.9812 39.9193 56.9812H40.0812C40.737 56.9812 41.2686 57.5128 41.2686 58.1686V59.6457C41.2685 60.3013 40.7369 60.833 40.0812 60.833Z" fill="url(#paint11_linear)"/>
<path d="M56.9817 40.0809V39.9191C56.9817 39.2633 57.5133 38.7317 58.1691 38.7317H59.6462C60.302 38.7317 60.8335 39.2633 60.8335 39.9191V40.0809C60.8335 40.7367 60.302 41.2683 59.6462 41.2683H58.1691C57.5133 41.2682 56.9817 40.7366 56.9817 40.0809Z" fill="url(#paint12_linear)"/>
<path d="M19.1663 40.0809V39.9191C19.1663 39.2633 19.6978 38.7317 20.3536 38.7317H21.8307C22.4864 38.7317 23.018 39.2633 23.018 39.9191V40.0809C23.018 40.7367 22.4864 41.2683 21.8307 41.2683H20.3536C19.6979 41.2682 19.1663 40.7366 19.1663 40.0809Z" fill="url(#paint13_linear)"/>
<defs>
<linearGradient id="paint0_linear" x1="40.0008" y1="77.4608" x2="40.0008" y2="11.5381" gradientUnits="userSpaceOnUse">
<stop stop-color="white"/>
<stop offset="1" stop-color="#E8EFEE"/>
</linearGradient>
<linearGradient id="paint1_linear" x1="40.001" y1="3.75064" x2="40.001" y2="67.5371" gradientUnits="userSpaceOnUse">
<stop stop-color="white"/>
<stop offset="1" stop-color="#E8EFEE"/>
</linearGradient>
<linearGradient id="paint2_linear" x1="27.678" y1="27.6758" x2="51.1275" y2="51.1252" gradientUnits="userSpaceOnUse">
<stop stop-color="#1ACEB8"/>
<stop offset="1" stop-color="#0BBFBA"/>
</linearGradient>
<radialGradient id="paint3_radial" cx="0" cy="0" r="1" gradientUnits="userSpaceOnUse" gradientTransform="translate(41.5289 41.9849) scale(24.496)">
<stop offset="0.0001" stop-color="#1ACEB8" stop-opacity="0"/>
<stop offset="0.504" stop-color="#19CCB7" stop-opacity="0.503"/>
<stop offset="0.685" stop-color="#17C5B4" stop-opacity="0.685"/>
<stop offset="0.814" stop-color="#12BAAE" stop-opacity="0.814"/>
<stop offset="0.918" stop-color="#0CA9A6" stop-opacity="0.918"/>
<stop offset="1" stop-color="#04959C"/>
</radialGradient>
<linearGradient id="paint4_linear" x1="43.2807" y1="43.0134" x2="32.0852" y2="31.8189" gradientUnits="userSpaceOnUse">
<stop offset="0.0001" stop-color="#1ACEB8" stop-opacity="0"/>
<stop offset="1" stop-color="#04959C"/>
</linearGradient>
<linearGradient id="paint5_linear" x1="53.7614" y1="55.8128" x2="37.8836" y2="34.6741" gradientUnits="userSpaceOnUse">
<stop offset="0.0001" stop-color="#1ACEB8" stop-opacity="0"/>
<stop offset="1" stop-color="#04959C"/>
</linearGradient>
<linearGradient id="paint6_linear" x1="40.0011" y1="18.5085" x2="40.0011" y2="41.3337" gradientUnits="userSpaceOnUse">
<stop stop-color="white"/>
<stop offset="1" stop-color="#E8EFEE"/>
</linearGradient>
<linearGradient id="paint7_linear" x1="37.8026" y1="42.5927" x2="30.1877" y2="50.2077" gradientUnits="userSpaceOnUse">
<stop stop-color="white"/>
<stop offset="1" stop-color="#E8EFEE"/>
</linearGradient>
<linearGradient id="paint8_linear" x1="39.632" y1="40.0676" x2="58.2605" y2="35.6355" gradientUnits="userSpaceOnUse">
<stop stop-color="#D63305"/>
<stop offset="0.366" stop-color="#CF3004"/>
<stop offset="0.899" stop-color="#BC2602"/>
<stop offset="1" stop-color="#B72401"/>
</linearGradient>
<linearGradient id="paint9_linear" x1="40.0013" y1="44.3682" x2="40.0013" y2="37.751" gradientUnits="userSpaceOnUse">
<stop stop-color="#97AAAA"/>
<stop offset="1" stop-color="#E8EFEE"/>
</linearGradient>
<linearGradient id="paint10_linear" x1="40.0011" y1="17.7256" x2="40.0011" y2="23.3466" gradientUnits="userSpaceOnUse">
<stop stop-color="white"/>
<stop offset="1" stop-color="#E8EFEE"/>
</linearGradient>
<linearGradient id="paint11_linear" x1="40.0011" y1="55.5411" x2="40.0011" y2="61.1616" gradientUnits="userSpaceOnUse">
<stop stop-color="white"/>
<stop offset="1" stop-color="#E8EFEE"/>
</linearGradient>
<linearGradient id="paint12_linear" x1="62.1048" y1="77.4754" x2="56.4832" y2="11.5527" gradientUnits="userSpaceOnUse">
<stop stop-color="white"/>
<stop offset="1" stop-color="#E8EFEE"/>
</linearGradient>
<linearGradient id="paint13_linear" x1="24.2874" y1="77.4754" x2="18.6671" y2="11.5527" gradientUnits="userSpaceOnUse">
<stop stop-color="white"/>
<stop offset="1" stop-color="#E8EFEE"/>
</linearGradient>
</defs>
</svg>
