<svg width="100" height="100" viewBox="0 0 100 100" fill="none" xmlns="http://www.w3.org/2000/svg">
<rect opacity="0.1" width="100" height="100" rx="30" fill="#5F99F3"/>
<path d="M74.8884 50.3085C74.8884 49.3283 74.831 48.3617 74.7204 47.4113C74.578 46.1892 75.0622 44.9775 75.9872 44.166L79.7948 40.8255C81.0872 39.6917 81.3775 37.7931 80.4833 36.3248L76.4109 29.6389C75.5167 28.1706 73.6963 27.5576 72.0961 28.1858L67.3495 30.0487C66.2007 30.4996 64.9095 30.3417 63.8861 29.6521C62.7865 28.9114 61.6245 28.2562 60.4097 27.696C59.2919 27.1804 58.4892 26.1606 58.2772 24.9481L57.3998 19.9293C57.1037 18.2357 55.6333 17 53.9141 17H46.0856C44.3664 17 42.896 18.2357 42.6 19.9292L41.7226 24.9479C41.5106 26.1605 40.708 27.1804 39.5901 27.6958C38.3753 28.2561 37.2133 28.9113 36.1137 29.652C35.0902 30.3414 33.799 30.4994 32.6503 30.0486L27.9036 28.1857C26.3033 27.5576 24.483 28.1706 23.5888 29.6388L19.5166 36.3247C18.6223 37.793 18.9127 39.6916 20.2051 40.8254L24.0127 44.1659C24.9376 44.9773 25.4218 46.1891 25.2794 47.4112C25.1687 48.3616 25.1115 49.3283 25.1115 50.3084C25.1115 51.2884 25.1688 52.2552 25.2794 53.2056C25.4218 54.4277 24.9376 55.6394 24.0127 56.4509L20.2051 59.7914C18.9127 60.9252 18.6223 62.8238 19.5166 64.2921L23.5888 70.978C24.483 72.4463 26.3034 73.0593 27.9036 72.4311L32.6502 70.5682C33.799 70.1173 35.0902 70.2753 36.1136 70.9648C37.2132 71.7055 38.3752 72.3607 39.59 72.9209C40.7078 73.4365 41.5105 74.4563 41.7225 75.6688L42.5999 80.6876C42.896 82.3813 44.3664 83.0945 46.0856 83.0945H53.9141C55.6333 83.0945 57.1037 82.3813 57.3997 80.6878L58.2771 75.6691C58.4891 74.4565 59.2918 73.4366 60.4096 72.9212C61.6244 72.361 62.7864 71.7058 63.886 70.965C64.9095 70.2756 66.2007 70.1177 67.3494 70.5685L72.0959 72.4314C73.6963 73.0595 75.5165 72.4464 76.4108 70.9782L80.483 64.2923C81.3773 62.824 81.0869 60.9254 79.7945 59.7916L75.9869 56.4511C75.062 55.6397 74.5778 54.4279 74.7201 53.2058C74.8312 52.2553 74.8884 51.2887 74.8884 50.3085Z" fill="url(#paint0_linear)"/>
<path d="M50.0006 70.653C61.2365 70.653 70.345 61.5445 70.345 50.3086C70.345 39.0726 61.2365 29.9641 50.0006 29.9641C38.7646 29.9641 29.6561 39.0726 29.6561 50.3086C29.6561 61.5445 38.7646 70.653 50.0006 70.653Z" fill="url(#paint1_linear)"/>
<path d="M53.913 83.6171C55.6322 83.6171 57.1026 82.3815 57.3986 80.6879L58.276 75.6692C58.488 74.4566 59.2907 73.4367 60.4085 72.9213C61.6233 72.3611 62.7853 71.7059 63.8849 70.9651C64.9084 70.2757 66.1996 70.1178 67.3483 70.5686L72.0948 72.4315C73.6952 73.0596 75.5154 72.4465 76.4097 70.9783L80.4819 64.2924C81.3762 62.8241 81.0858 60.9255 79.7934 59.7917L75.9858 56.4512C75.0609 55.6398 74.5767 54.428 74.719 53.2059C74.7854 52.6362 74.8301 52.0599 74.8572 51.479L62.3178 38.9396C61.5376 38.0947 60.6718 37.3299 59.7339 36.6598C58.9764 36.1187 57.9233 36.6669 57.9233 37.5978V48.6632C57.9233 49.8066 57.4036 50.8749 56.5328 51.5835C56.3686 51.4257 41.9336 37.0158 41.8133 36.8703C41.4523 36.4337 40.7823 36.55 40.2544 36.9276C35.9961 39.9741 33.4858 44.7031 33.4959 50.3396C33.5045 55.1923 35.3064 59.5532 38.5997 62.6064L42.2048 66.2243L42.3354 74.6424C42.3354 76.6691 42.2496 78.6919 42.5986 80.6883C42.8949 82.3815 44.3653 83.6171 46.0845 83.6171H53.913Z" fill="url(#paint2_linear)"/>
<path d="M80.4833 64.2913L76.4118 70.9778C75.5171 72.446 73.6962 73.0587 72.0961 72.4317L67.3493 70.5677C66.2012 70.1171 64.9093 70.2751 63.8865 70.9648C62.7867 71.7054 61.6242 72.3611 60.4094 72.9215C59.2926 73.4362 58.4893 74.4563 58.2776 75.6685L57.3999 80.6883C57.1034 82.3811 55.6339 83.2249 53.9149 83.2249H46.0854C45.2259 83.2249 44.4291 82.9167 43.81 82.3955C43.4939 82.1303 43.2248 82.2022 43.0171 81.8403C43.5383 82.1408 44.1418 82.3106 44.7792 82.3106H52.6087C54.3276 82.3106 55.7971 81.0749 56.0937 79.382C56.2674 78.3841 56.3993 77.3783 56.4868 76.3699C56.5743 75.3615 56.6188 74.3479 56.6188 73.3356V63.778C61.8802 60.95 65.4579 55.3934 65.4579 49.0021C65.4579 44.7111 63.846 40.7964 61.1931 37.8313C61.5863 38.1814 61.9612 38.551 62.3191 38.939L74.8588 51.4786C74.8313 52.0599 74.7869 52.636 74.7203 53.2055C74.5779 54.4281 75.0625 55.639 75.9873 56.4514L79.7949 59.7914C81.0868 60.9252 81.3781 62.8231 80.4833 64.2913Z" fill="url(#paint3_linear)"/>
<path d="M57.3988 80.6881C57.7478 78.6917 57.9233 76.6689 57.9233 74.6421V60.802H42.0745V74.6421C42.0745 76.6689 42.25 78.6917 42.599 80.6881C42.8951 82.3816 44.3655 83.6173 46.0847 83.6173H53.9132C55.6324 83.6173 57.1028 82.3816 57.3988 80.6881Z" fill="url(#paint4_linear)"/>
<path d="M42.0745 65.0897L57.4373 80.4525C57.7596 78.5326 57.9233 76.5892 57.9233 74.6421V60.802H42.0745V65.0897Z" fill="url(#paint5_linear)"/>
<path d="M66.7636 50.3086C66.7636 59.567 59.2582 67.0724 49.9998 67.0726C40.7413 67.0727 33.2521 59.5976 33.2357 50.3391C33.2256 44.7027 35.9971 39.7124 40.2554 36.6659C41.0164 36.1215 42.0747 36.6622 42.0747 37.5979V48.6629C42.0747 50.0085 42.7926 51.252 43.958 51.925L48.1161 54.3258C49.2816 54.9988 50.7175 54.9988 51.8831 54.3258L56.0411 51.925C57.2066 51.2522 57.9245 50.0087 57.9245 48.6629V37.5975C57.9245 36.6667 58.9775 36.1185 59.735 36.6595C63.9907 39.7 66.7636 44.6807 66.7636 50.3086Z" fill="url(#paint6_linear)"/>
<path d="M37.5931 51.7205C37.5931 53.8272 38.7169 55.7738 40.5413 56.8272L47.0506 60.5855C48.8751 61.639 51.1231 61.639 52.9476 60.5855L59.4569 56.8272C61.2813 55.7738 62.4052 53.8272 62.4052 51.7205V39.0358C61.6024 38.153 60.7077 37.355 59.7345 36.6596C58.977 36.1184 57.9239 36.6666 57.9239 37.5976V48.6629C57.9239 50.0086 57.206 51.2521 56.0406 51.9251L51.8825 54.3259C50.717 54.9989 49.2811 54.9989 48.1155 54.3259L43.9575 51.9251C42.7921 51.2522 42.0742 50.0087 42.0742 48.6629V37.598C42.0742 36.6622 41.0159 36.1215 40.2549 36.666C39.285 37.3598 38.3932 38.1556 37.5929 39.0357V51.7205H37.5931Z" fill="url(#paint7_linear)"/>
<defs>
<linearGradient id="paint0_linear" x1="33.2022" y1="33.5108" x2="68.353" y2="68.6616" gradientUnits="userSpaceOnUse">
<stop stop-color="#7FAEF4"/>
<stop offset="1" stop-color="#4C8DF1"/>
</linearGradient>
<linearGradient id="paint1_linear" x1="72.9632" y1="73.2712" x2="25.1997" y2="25.5077" gradientUnits="userSpaceOnUse">
<stop stop-color="#7FAEF4"/>
<stop offset="1" stop-color="#4C8DF1"/>
</linearGradient>
<linearGradient id="paint2_linear" x1="52.9355" y1="60.3498" x2="29.8973" y2="48.8958" gradientUnits="userSpaceOnUse">
<stop stop-color="#4C8DF1" stop-opacity="0"/>
<stop offset="0.5631" stop-color="#466CC8" stop-opacity="0.563"/>
<stop offset="1" stop-color="#4256AC"/>
</linearGradient>
<linearGradient id="paint3_linear" x1="71.3827" y1="69.2804" x2="52.965" y2="60.3982" gradientUnits="userSpaceOnUse">
<stop stop-color="#4C8DF1" stop-opacity="0"/>
<stop offset="0.5631" stop-color="#466CC8" stop-opacity="0.563"/>
<stop offset="1" stop-color="#4256AC"/>
</linearGradient>
<linearGradient id="paint4_linear" x1="49.4159" y1="70.3545" x2="59.4125" y2="80.3511" gradientUnits="userSpaceOnUse">
<stop stop-color="#E3E5E4"/>
<stop offset="1" stop-color="#CBD0E4"/>
</linearGradient>
<linearGradient id="paint5_linear" x1="54.8651" y1="73.9589" x2="48.2471" y2="58.981" gradientUnits="userSpaceOnUse">
<stop stop-color="#CBD0E4" stop-opacity="0"/>
<stop offset="1" stop-color="#6A7D83"/>
</linearGradient>
<linearGradient id="paint6_linear" x1="43.8582" y1="44.1716" x2="65.7486" y2="66.0619" gradientUnits="userSpaceOnUse">
<stop stop-color="#E3E5E4"/>
<stop offset="1" stop-color="#CBD0E4"/>
</linearGradient>
<linearGradient id="paint7_linear" x1="59.3058" y1="55.8927" x2="34.4874" y2="31.0742" gradientUnits="userSpaceOnUse">
<stop stop-color="#E3E5E4"/>
<stop offset="1" stop-color="#CBD0E4"/>
</linearGradient>
</defs>
</svg>
