<svg width="100" height="100" viewBox="0 0 100 100" fill="none" xmlns="http://www.w3.org/2000/svg">
<rect opacity="0.15" width="100" height="100" rx="30" fill="#8EEBBB"/>
<g clip-path="url(#clip0)">
<path d="M60.2158 38.8755C71.5366 38.7026 80.7765 47.6128 80.9957 58.9327C81.0279 60.5947 80.8618 62.2124 80.5196 63.7641C79.94 66.3915 79.5955 69.0651 79.5955 71.7557V76.9564C79.5955 77.7532 78.9496 78.3991 78.1528 78.3991H72.9521C70.2615 78.3991 67.5879 78.7436 64.9605 79.3232C63.4089 79.6654 61.7912 79.8315 60.1292 79.7993C48.8094 79.5803 39.8992 70.3406 40.0719 59.02C40.2403 47.9703 49.1661 39.0443 60.2158 38.8755Z" fill="url(#paint0_linear)"/>
<path d="M60.2158 38.8755C71.5366 38.7026 80.7765 47.6128 80.9957 58.9327C81.0279 60.5947 80.8618 62.2124 80.5196 63.7641C79.94 66.3915 79.5955 69.0651 79.5955 71.7557V76.9564C79.5955 77.7532 78.9496 78.3991 78.1528 78.3991H72.9521C70.2615 78.3991 67.5879 78.7436 64.9605 79.3232C63.4089 79.6654 61.7912 79.8315 60.1292 79.7993C48.8094 79.5803 39.8992 70.3406 40.0719 59.02C40.2403 47.9703 49.1661 39.0443 60.2158 38.8755Z" fill="url(#paint1_linear)"/>
<path d="M44.3201 20.2C30.5283 19.9893 19.2715 30.8443 19.0044 44.6351C18.9653 46.6597 19.1676 48.6307 19.5847 50.521C20.2907 53.7218 20.7104 56.979 20.7104 60.2569V66.5928C20.7104 67.5635 21.4972 68.3505 22.468 68.3505H28.8039C32.0817 68.3505 35.3389 68.7702 38.5398 69.4761C40.4301 69.8931 42.401 70.0955 44.4256 70.0563C58.2162 69.7893 69.0711 58.5329 68.8609 44.7413C68.6555 31.2797 57.7816 20.4055 44.3201 20.2Z" fill="url(#paint2_linear)"/>
<path d="M35.0079 43.7925C34.3036 43.0442 33.3068 42.5742 32.1978 42.5742C30.065 42.5742 28.336 44.3032 28.336 46.436C28.336 47.5449 28.8059 48.5417 29.5543 49.2461L37.8848 57.5766C38.5892 58.325 39.5861 58.7949 40.6949 58.7949C42.8278 58.7949 44.5567 57.066 44.5567 54.9331C44.5567 53.8243 44.0868 52.8274 43.3384 52.123L35.0079 43.7925Z" fill="url(#paint3_linear)"/>
<path d="M32.197 50.2973C34.3298 50.2973 36.0588 48.5683 36.0588 46.4355C36.0588 44.3027 34.3298 42.5737 32.197 42.5737C30.0642 42.5737 28.3352 44.3027 28.3352 46.4355C28.3352 48.5683 30.0642 50.2973 32.197 50.2973Z" fill="white"/>
<path d="M45.9298 43.7925C45.2255 43.0442 44.2287 42.5742 43.1197 42.5742C40.9869 42.5742 39.2579 44.3032 39.2579 46.436C39.2579 47.5449 39.7277 48.5417 40.4762 49.2461L48.8067 57.5766C49.5111 58.325 50.508 58.7949 51.6168 58.7949C53.7496 58.7949 55.4786 57.066 55.4786 54.9331C55.4786 53.8243 55.0086 52.8274 54.2603 52.123L45.9298 43.7925Z" fill="url(#paint4_linear)"/>
<path d="M43.119 50.2973C45.2518 50.2973 46.9808 48.5683 46.9808 46.4355C46.9808 44.3027 45.2518 42.5737 43.119 42.5737C40.9862 42.5737 39.2572 44.3027 39.2572 46.4355C39.2572 48.5683 40.9862 50.2973 43.119 50.2973Z" fill="white"/>
<path d="M56.8507 43.7925C56.1464 43.0442 55.1496 42.5742 54.0406 42.5742C51.9078 42.5742 50.1788 44.3032 50.1788 46.436C50.1788 47.5449 50.6488 48.5417 51.3971 49.2461L59.7276 57.5766C60.432 58.325 61.4289 58.7949 62.5377 58.7949C64.6706 58.7949 66.3995 57.066 66.3995 54.9331C66.3995 53.8243 65.9296 52.8274 65.1812 52.123L56.8507 43.7925Z" fill="url(#paint5_linear)"/>
<path d="M54.0406 50.2973C56.1734 50.2973 57.9024 48.5683 57.9024 46.4355C57.9024 44.3027 56.1734 42.5737 54.0406 42.5737C51.9078 42.5737 50.1788 44.3027 50.1788 46.4355C50.1788 48.5683 51.9078 50.2973 54.0406 50.2973Z" fill="white"/>
</g>
<defs>
<linearGradient id="paint0_linear" x1="56.4034" y1="55.2083" x2="86.4496" y2="85.2545" gradientUnits="userSpaceOnUse">
<stop stop-color="#A7F3CE"/>
<stop offset="1" stop-color="#61DB99"/>
</linearGradient>
<linearGradient id="paint1_linear" x1="66.2389" y1="65.0433" x2="53.477" y2="52.2825" gradientUnits="userSpaceOnUse">
<stop stop-color="#61DB99" stop-opacity="0"/>
<stop offset="1" stop-color="#009E74"/>
</linearGradient>
<linearGradient id="paint2_linear" x1="34.8229" y1="41.0983" x2="66.5454" y2="72.8209" gradientUnits="userSpaceOnUse">
<stop stop-color="#62E1FB"/>
<stop offset="1" stop-color="#00A2F3"/>
</linearGradient>
<linearGradient id="paint3_linear" x1="40.7884" y1="55.0274" x2="24.086" y2="38.3255" gradientUnits="userSpaceOnUse">
<stop stop-color="#00A2F3" stop-opacity="0"/>
<stop offset="1" stop-color="#0075CD"/>
</linearGradient>
<linearGradient id="paint4_linear" x1="51.7095" y1="55.027" x2="35.0076" y2="38.3251" gradientUnits="userSpaceOnUse">
<stop stop-color="#00A2F3" stop-opacity="0"/>
<stop offset="1" stop-color="#0075CD"/>
</linearGradient>
<linearGradient id="paint5_linear" x1="62.6305" y1="55.0272" x2="45.9285" y2="38.3252" gradientUnits="userSpaceOnUse">
<stop stop-color="#00A2F3" stop-opacity="0"/>
<stop offset="1" stop-color="#0075CD"/>
</linearGradient>
<clipPath id="clip0">
<rect width="62" height="62" fill="white" transform="translate(19 19)"/>
</clipPath>
</defs>
</svg>
