<svg id="Layer_1" data-name="Layer 1" xmlns="http://www.w3.org/2000/svg" viewBox="0 0 89 89"><defs><style>.cls-1{fill:#edf4fd;}.cls-2{fill:#1a73e8;}</style></defs><title>2</title><circle class="cls-1" cx="44.5" cy="44.5" r="44.5"/><path class="cls-2" d="M39,65a.83.83,0,0,1-.59-.25L34.91,61.3h-5A5.88,5.88,0,0,1,24,55.43V42.49a5.89,5.89,0,0,1,5.88-5.88h8.48a.84.84,0,0,1,0,1.68H29.88a4.21,4.21,0,0,0-4.2,4.2V55.43a4.21,4.21,0,0,0,4.2,4.2h5.46a.84.84,0,0,1,.77.5l2,2V60.46a.84.84,0,0,1,.84-.83H48a4.21,4.21,0,0,0,4.2-4.2v-5.8a.84.84,0,0,1,1.68,0v5.8A5.88,5.88,0,0,1,48,61.3H39.79v2.86a.85.85,0,0,1-.52.78A.87.87,0,0,1,39,65Z" transform="translate(0)"/><path class="cls-2" d="M61.63,49.4a.86.86,0,0,1-.6-.25L57.89,46a12.42,12.42,0,0,1-3.1.39H52.67a12.21,12.21,0,1,1,0-24.41h2.12A12.23,12.23,0,0,1,67,34.21a12.1,12.1,0,0,1-1.33,5.54,12.37,12.37,0,0,1-3.21,4v4.86a.84.84,0,0,1-.51.78A1,1,0,0,1,61.63,49.4Zm-3.49-5.17a.83.83,0,0,1,.59.25l2.06,2.05V43.29a.84.84,0,0,1,.33-.67,10.53,10.53,0,0,0-6.33-18.94H52.67a10.53,10.53,0,1,0,0,21h2.12a10.44,10.44,0,0,0,3.1-.46A1,1,0,0,1,58.14,44.23Z" transform="translate(0)"/><path class="cls-2" d="M54,37.69a.84.84,0,0,1-.84-.84v-2a1.59,1.59,0,0,1,1.25-1.56,1.88,1.88,0,0,0-.28-3.7,1.88,1.88,0,0,0-2,1.87.84.84,0,1,1-1.68,0,3.55,3.55,0,1,1,4.4,3.46v2A.85.85,0,0,1,54,37.69Z" transform="translate(0)"/><path class="cls-2" d="M54,41a.84.84,0,0,1-.6-.25.85.85,0,0,1-.24-.59.89.89,0,0,1,.24-.6.86.86,0,0,1,1.19,0,.86.86,0,0,1,.25.6.82.82,0,0,1-.25.59A.83.83,0,0,1,54,41Z" transform="translate(0)"/><path class="cls-2" d="M47.1,49.71H29.37a.84.84,0,0,1,0-1.67H47.1a.84.84,0,1,1,0,1.67Z" transform="translate(0)"/><path class="cls-2" d="M47.1,54.42a.84.84,0,0,1-.6-.25.85.85,0,0,1-.24-.59.89.89,0,0,1,.24-.6.86.86,0,0,1,1.19,0,.86.86,0,0,1,.25.6.82.82,0,0,1-.25.59A.83.83,0,0,1,47.1,54.42Z" transform="translate(0)"/><path class="cls-2" d="M43.79,54.42H29.37a.84.84,0,0,1,0-1.68H43.79a.84.84,0,0,1,0,1.68Z" transform="translate(0)"/><path class="cls-2" d="M41.64,45H29.37a.84.84,0,0,1,0-1.68H41.64a.84.84,0,1,1,0,1.68Z" transform="translate(0)"/></svg>