<svg id="Layer_1" data-name="Layer 1" xmlns="http://www.w3.org/2000/svg" viewBox="0 0 88.92 88.92"><defs><style>.cls-1{fill:#f0faef;}.cls-2{fill:#3fc438;}</style></defs><title>3</title><circle class="cls-1" cx="44.46" cy="44.46" r="44.46"/><path class="cls-2" d="M46.46,44.88l-9.85-7.12a.75.75,0,0,0-1,.08.76.76,0,0,0-.08,1l7.13,9.85a2.72,2.72,0,0,0,2,1.11h.21a2.71,2.71,0,0,0,2.7-2.93,2.68,2.68,0,0,0-1.11-2Zm-.75,3a1.2,1.2,0,0,1-.93.34,1.15,1.15,0,0,1-.87-.48l-4.35-6,6,4.34a1.21,1.21,0,0,1,.14,1.81Zm0,0" transform="translate(-0.08)"/><path class="cls-2" d="M64.38,41.43h0a20.37,20.37,0,0,0-2-4.9.09.09,0,0,0,0-.05s0,0,0,0a20.69,20.69,0,0,0-2.72-3.66l1.64-1.63,1.07,1.08L65.52,29l-3.23-3.23L59.06,29l1.08,1.08L58.51,31.7A21.14,21.14,0,0,0,54.85,29s0,0,0,0h-.05a20.37,20.37,0,0,0-4.9-2h0a21.88,21.88,0,0,0-3-.57v-.89H48a1.9,1.9,0,1,0,0-3.8H41.11a1.9,1.9,0,1,0,0,3.8h1.14v.89a21.47,21.47,0,0,0-3,.57h0a20.46,20.46,0,0,0-4.89,2h0l0,0a20.77,20.77,0,0,0-3.66,2.71l-1.63-1.63L30,29l-3.22-3.23L23.56,29l3.23,3.23,1.07-1.08,1.63,1.63a21.14,21.14,0,0,0-2.71,3.66l0,0,0,.05a20.34,20.34,0,0,0-2,4.9h0a20.3,20.3,0,0,0-.7,5.31,20.61,20.61,0,0,0,.69,5.31h0a20.27,20.27,0,0,0,2,4.89s0,0,0,0,0,0,0,.06A20.55,20.55,0,0,0,30,61.22s0,0,0,.05l0,0a20.36,20.36,0,0,0,4.17,3.2s0,0,0,0,0,0,.07,0a19.87,19.87,0,0,0,4.87,2h0a20.45,20.45,0,0,0,10.61,0h0a19.94,19.94,0,0,0,4.88-2l.07,0s0,0,0,0A20.92,20.92,0,0,0,59,61.3l0,0s0,0,0-.05a20.19,20.19,0,0,0,3.19-4.15l0-.06a.07.07,0,0,0,0,0,20.29,20.29,0,0,0,2-4.89h0a20.49,20.49,0,0,0,0-10.62ZM62.29,27.92,63.37,29l-1.08,1.08L61.22,29ZM25.71,29l1.08-1.07L27.86,29l-1.07,1.08ZM61.24,52l1.46.39a17.79,17.79,0,0,1-1.33,3.18l-1.3-.75a.78.78,0,0,0-1,.28.76.76,0,0,0,.28,1l1.3.75a19.32,19.32,0,0,1-2.1,2.74l-1.06-1.06a.76.76,0,0,0-1.08,0,.78.78,0,0,0,0,1.08l1.06,1.05a19.23,19.23,0,0,1-2.73,2.1l-.76-1.29a.74.74,0,0,0-1-.28.76.76,0,0,0-.28,1l.75,1.3a18.62,18.62,0,0,1-3.19,1.32l-.39-1.45a.75.75,0,0,0-.93-.54.77.77,0,0,0-.54.93l.39,1.45a18.4,18.4,0,0,1-3.42.45v-1.5a.76.76,0,0,0-1.52,0v1.5a18.29,18.29,0,0,1-3.42-.45l.38-1.45a.76.76,0,1,0-1.47-.39l-.39,1.45a18.52,18.52,0,0,1-3.18-1.32l.75-1.3a.76.76,0,1,0-1.32-.76l-.75,1.29a19.9,19.9,0,0,1-2.74-2.1l1.06-1.05a.76.76,0,0,0,0-1.08.75.75,0,0,0-1.07,0l-1.06,1.06a19.32,19.32,0,0,1-2.1-2.74l1.29-.75a.75.75,0,0,0,.28-1,.76.76,0,0,0-1-.28l-1.29.75a17.79,17.79,0,0,1-1.33-3.18L27.83,52a.76.76,0,0,0-.39-1.47L26,50.93a18.51,18.51,0,0,1-.45-3.43H27A.76.76,0,0,0,27,46h-1.5A18.4,18.4,0,0,1,26,42.56l1.45.39a.69.69,0,0,0,.2,0,.76.76,0,0,0,.19-1.5l-1.45-.39a17.89,17.89,0,0,1,1.33-3.19l1.29.76a.85.85,0,0,0,.38.09.75.75,0,0,0,.38-1.41l-1.29-.75a18.09,18.09,0,0,1,2.1-2.74l1.06,1.06a.77.77,0,0,0,.53.22.79.79,0,0,0,.54-.22.76.76,0,0,0,0-1.08l-1.06-1.06a19.83,19.83,0,0,1,2.74-2.09L35.13,32a.77.77,0,0,0,.66.38.75.75,0,0,0,.38-.1.77.77,0,0,0,.28-1l-.75-1.3a19.39,19.39,0,0,1,3.18-1.33L39.27,30a.76.76,0,0,0,.74.56.63.63,0,0,0,.19,0,.74.74,0,0,0,.54-.92l-.38-1.46a17.61,17.61,0,0,1,2.73-.4l.66-.05h0v1.5a.76.76,0,1,0,1.52,0v-1.5h0l.65.05a18.84,18.84,0,0,1,2.74.4l-.39,1.46a.75.75,0,0,0,.54.92.69.69,0,0,0,.2,0A.75.75,0,0,0,49.8,30l.39-1.46a19.5,19.5,0,0,1,3.19,1.33l-.75,1.3a.76.76,0,0,0,.28,1,.75.75,0,0,0,.38.1A.77.77,0,0,0,54,32l.75-1.29a19.16,19.16,0,0,1,2.73,2.09l-1.06,1.06a.78.78,0,0,0,0,1.08.81.81,0,0,0,.54.22.79.79,0,0,0,.54-.22l1.06-1.06a18.76,18.76,0,0,1,2.1,2.74l-1.3.75a.76.76,0,0,0-.28,1,.77.77,0,0,0,.66.37.85.85,0,0,0,.38-.09l1.3-.76a17.89,17.89,0,0,1,1.33,3.19l-1.46.39a.76.76,0,0,0,.2,1.5l.2,0,1.45-.39A19.28,19.28,0,0,1,63.54,46H62a.76.76,0,1,0,0,1.52h1.5a19.39,19.39,0,0,1-.45,3.43l-1.45-.39a.76.76,0,0,0-.4,1.47ZM43.78,26.22v-2.3H41.11a.38.38,0,1,1,0-.76H48a.38.38,0,0,1,0,.76H45.3v2.3l-.76,0-.76,0Zm0,0" transform="translate(-0.08)"/></svg>