<svg id="Layer_1" data-name="Layer 1" xmlns="http://www.w3.org/2000/svg" viewBox="0 0 88.86 88.86"><defs><style>.cls-1{fill:#fff4f4;}.cls-2{fill:#ff7070;}</style></defs><title>4</title><circle class="cls-1" cx="44.43" cy="44.43" r="44.43"/><path class="cls-2" d="M68.08,25.17,64,25,63.87,21a.88.88,0,0,0-.9-.84.89.89,0,0,0-.59.26l-7.49,7.45a.91.91,0,0,0-.25.65v.86a19.58,19.58,0,1,0,5,5h.87a.86.86,0,0,0,.61-.25l7.5-7.5a.87.87,0,0,0,0-1.23.83.83,0,0,0-.58-.25ZM61.4,45.46a17.85,17.85,0,1,1-6.65-13.88l0,1.45L51.32,36.5a11.9,11.9,0,1,0,1.21,1.23L56,34.26l1.43.05a17.82,17.82,0,0,1,4,11.15ZM43,46a.86.86,0,0,0,1.22,0L46,44.31a2.56,2.56,0,0,1,.26,1.12,2.62,2.62,0,1,1-1.48-2.34L43,44.82A.86.86,0,0,0,43,46Zm3-4.23A4.32,4.32,0,1,0,47.22,43l4.11-4.11a10.13,10.13,0,1,1-1.22-1.22Zm14.25-9.2-3.7-.12-.12-3.69L62.23,23l.1,2.89a.87.87,0,0,0,.87.87l2.89.09Z" transform="translate(0 -0.14)"/></svg>