<svg id="Layer_1" data-name="Layer 1" xmlns="http://www.w3.org/2000/svg" viewBox="0 0 89 89"><defs><style>.cls-1{fill:#fff6eb;}.cls-2{fill:#ff9102;}</style></defs><title>5</title><circle class="cls-1" cx="44.5" cy="44.5" r="44.5"/><path class="cls-2" d="M59.33,43.3a.8.8,0,0,1-.8.8.8.8,0,0,1,0-1.6.8.8,0,0,1,.8.8Zm0,0"/><path class="cls-2" d="M30.53,43.3a.8.8,0,1,1-.79-.8.79.79,0,0,1,.79.8Zm0,0"/><path class="cls-2" d="M32.94,45.7a.81.81,0,1,1-.81-.8.8.8,0,0,1,.81.8Zm0,0"/><path class="cls-2" d="M37.74,45.7a.81.81,0,1,1-.8-.8.8.8,0,0,1,.8.8Zm0,0"/><path class="cls-2" d="M35.33,48.1a.8.8,0,0,1-.8.8.8.8,0,0,1,0-1.6.8.8,0,0,1,.8.8Zm0,0"/><path class="cls-2" d="M40.13,48.1a.8.8,0,1,1-.8-.8.8.8,0,0,1,.8.8Zm0,0"/><path class="cls-2" d="M42.53,50.5a.8.8,0,1,1-.79-.8.79.79,0,0,1,.79.8Zm0,0"/><path class="cls-2" d="M47.33,50.5a.8.8,0,0,1-.8.8.8.8,0,0,1,0-1.6.8.8,0,0,1,.8.8Zm0,0"/><path class="cls-2" d="M49.74,48.1a.81.81,0,1,1-.8-.8.8.8,0,0,1,.8.8Zm0,0"/><path class="cls-2" d="M44.94,52.9a.81.81,0,1,1-.81-.8.8.8,0,0,1,.81.8Zm0,0"/><path class="cls-2" d="M52.13,45.7a.8.8,0,1,1-.8-.8.8.8,0,0,1,.8.8Zm0,0"/><path class="cls-2" d="M56.94,45.7a.81.81,0,1,1-.81-.8.8.8,0,0,1,.81.8Zm0,0"/><path class="cls-2" d="M54.53,48.1a.8.8,0,1,1-.79-.8.79.79,0,0,1,.79.8Zm0,0"/><path class="cls-2" d="M59,48.75l7.52-4.29-7.72-4.39,7.72-4.41-22-12.48-22,12.48,7.72,4.41-7.72,4.39,7.72,4.42-7.72,4.38,22,12.56,22-12.56-7.72-4.38.05,0a.38.38,0,0,0,.15-.09ZM44.5,25,63.25,35.67l-6.11,3.49L44.5,46.38,25.75,35.67ZM31.42,41.25a.79.79,0,0,0,1.27.22l1.81,1a.79.79,0,0,0-.76.79.79.79,0,0,0,.79.8.8.8,0,0,0,.8-.8.76.76,0,0,0-.1-.37l8.26,4.71a.85.85,0,0,0-.16.46.81.81,0,0,0,1.61,0,.53.53,0,0,0,0-.12l8-4.59a.79.79,0,1,0,1.26-.72l1.76-1,.16,0a.79.79,0,0,0,.75-.56l.26-.14,6.11,3.46-1.59.91a.78.78,0,0,0-.72-.47.8.8,0,0,0-.81.8.79.79,0,0,0,.16.45L57.14,48,52,50.88a.83.83,0,0,0,.1-.38.8.8,0,1,0-.83.79l-1.81,1a.82.82,0,0,0-.55-.22.8.8,0,0,0-.81.8,1.16,1.16,0,0,0,0,.18l-3.67,2.1-4.41-2.52a.81.81,0,0,0-.76-.56l-.16,0-1.76-1a.79.79,0,0,0-.47-1.43.8.8,0,0,0-.79.71l-8-4.59a.5.5,0,0,0,0-.12.8.8,0,0,0-.8-.8.76.76,0,0,0-.49.19l-1.09-.62Zm31.83,12L44.5,64,25.75,53.27l6.11-3.47L44.5,57,57.14,49.8Zm0,0"/></svg>