<svg id="Layer_1" data-name="Layer 1" xmlns="http://www.w3.org/2000/svg" viewBox="0 0 88.56 88.56"><defs><style>.cls-1{fill:#ebfbf4;}.cls-2{fill:#00c674;}</style></defs><title>6</title><circle class="cls-1" cx="44.28" cy="44.28" r="44.28"/><path class="cls-2" d="M54.7,23.58H49.5V20.4H39.94v3.18h-5.2A2.77,2.77,0,0,0,32,26.34V65.41a2.76,2.76,0,0,0,2.76,2.75h20a2.76,2.76,0,0,0,2.76-2.75V26.34a2.77,2.77,0,0,0-2.76-2.76ZM41.54,22H47.9v1.59H41.54ZM55.86,65.41a1.16,1.16,0,0,1-1.16,1.16h-20a1.16,1.16,0,0,1-1.16-1.16V26.34a1.16,1.16,0,0,1,1.16-1.16h20a1.16,1.16,0,0,1,1.16,1.16Zm0,0" transform="translate(-0.44)"/><path class="cls-2" d="M47.9,34a.83.83,0,0,0-.48-.81L46.8,33l-.39.49-8.69,14h4.61V57.72a.83.83,0,0,0,.47.8l.63.28.4-.51,7.78-14.81H47.9ZM49,45.08l-5.06,9.63V45.87H40.58l5.73-9.25v8.46Zm0,0" transform="translate(-0.44)"/></svg>