<svg xmlns="http://www.w3.org/2000/svg" viewBox="0 0 22.977 22.977">
  <defs>
    <style>
      .cls-1 {
        fill: none;
        opacity: 0.502;
      }

      .cls-2, .cls-3 {
        stroke: none;
      }

      .cls-3 {
        fill: #ed41df;
      }
    </style>
  </defs>
  <g id="Rounded_Rectangle_1_copy" data-name="Rounded Rectangle 1 copy" class="cls-1" transform="translate(-849.012 -804.01)">
    <path class="cls-2" d="M859.46,804.385l10.2,4.738a4.018,4.018,0,0,1,1.952,5.336l-4.738,10.2a4.017,4.017,0,0,1-5.336,1.952l-10.2-4.738a4.017,4.017,0,0,1-1.952-5.336l4.738-10.2A4.017,4.017,0,0,1,859.46,804.385Z"/>
    <path class="cls-3" d="M 857.7700805664062 807.01025390625 C 857.4696655273438 807.01025390625 857.0472412109375 807.1646118164062 856.84521484375 807.5997314453125 L 852.1073608398438 817.8018188476562 C 851.9526977539062 818.1350708007812 852.020263671875 818.43310546875 852.074462890625 818.5809936523438 C 852.12841796875 818.7286987304688 852.2684936523438 818.9993286132812 852.6014404296875 819.1538696289062 L 862.8038940429688 823.89208984375 C 862.9404296875 823.9555053710938 863.0836791992188 823.9876098632812 863.2296142578125 823.9876098632812 C 863.5301513671875 823.9876098632812 863.9528198242188 823.8331298828125 864.1550903320312 823.3974609375 L 868.8930053710938 813.1957397460938 C 869.12939453125 812.6865844726562 868.9076538085938 812.0800170898438 868.39892578125 811.8436889648438 L 858.196533203125 807.1060791015625 C 858.0595703125 807.04248046875 857.9161376953125 807.01025390625 857.7700805664062 807.01025390625 M 857.7700805664062 804.0103149414062 C 858.3367309570312 804.0103149414062 858.9121704101562 804.1306762695312 859.4599609375 804.3850708007812 L 869.6624755859375 809.122802734375 C 871.6748046875 810.0574340820312 872.54833984375 812.4464111328125 871.6140747070312 814.4589233398438 L 866.8759765625 824.6610717773438 C 866.1958618164062 826.1259765625 864.7449340820312 826.9876098632812 863.2296142578125 826.9876098632812 C 862.6632080078125 826.9876098632812 862.0877685546875 826.8672485351562 861.5402221679688 826.6129760742188 L 851.3378295898438 821.8746948242188 C 849.3253173828125 820.94091796875 848.4517822265625 818.5515747070312 849.3862915039062 816.53857421875 L 854.124267578125 806.3361206054688 C 854.8042602539062 804.8717041015625 856.2550048828125 804.0103149414062 857.7700805664062 804.0103149414062 Z"/>
  </g>
</svg>
